%TF.GenerationSoftware,KiCad,Pcbnew,10.0.4*%
%TF.CreationDate,2026-09-15T18:50:24-04:00*%
%TF.ProjectId,devboard,64657662-6f61-4726-942e-6b696361645f,rev?*%
%TF.SameCoordinates,Original*%
%TF.FileFunction,Other,User*%
%FSLAX46Y46*%
G04 Gerber Fmt 4.6, Leading zero omitted, Abs format (unit mm)*
G04 Created by KiCad (PCBNEW 10.0.4) date 2026-09-15 18:50:24*
%MOMM*%
%LPD*%
G01*
G04 APERTURE LIST*
%ADD10C,0.050000*%
G04 APERTURE END LIST*
%TO.C,U2*%
D10*
X148400000Y-113287500D02*
X148400000Y-114397500D01*
X148400000Y-114397500D02*
X149400000Y-114397500D01*
X148400000Y-115177500D02*
X148400000Y-116287500D01*
X148400000Y-116287500D02*
X149400000Y-116287500D01*
X149400000Y-113087500D02*
X149400000Y-113287500D01*
X149400000Y-113287500D02*
X148400000Y-113287500D01*
X149400000Y-114397500D02*
X149400000Y-115177500D01*
X149400000Y-115177500D02*
X148400000Y-115177500D01*
X149400000Y-116287500D02*
X149400000Y-116487500D01*
X149400000Y-116487500D02*
X151500000Y-116487500D01*
X151500000Y-113087500D02*
X149400000Y-113087500D01*
X151500000Y-113287500D02*
X151500000Y-113087500D01*
X151500000Y-116287500D02*
X152500000Y-116287500D01*
X151500000Y-116487500D02*
X151500000Y-116287500D01*
X152500000Y-113287500D02*
X151500000Y-113287500D01*
X152500000Y-116287500D02*
X152500000Y-113287500D01*
%TO.C,C2*%
X146840000Y-101790000D02*
X148660000Y-101790000D01*
X148660000Y-102710000D01*
X146840000Y-102710000D01*
X146840000Y-101790000D01*
%TO.C,R13*%
X146730000Y-122870000D02*
X147670000Y-122870000D01*
X147670000Y-124730000D01*
X146730000Y-124730000D01*
X146730000Y-122870000D01*
%TO.C,C15*%
X150040000Y-123540000D02*
X151860000Y-123540000D01*
X151860000Y-124460000D01*
X150040000Y-124460000D01*
X150040000Y-123540000D01*
%TO.C,R12*%
X154380000Y-122870000D02*
X155320000Y-122870000D01*
X155320000Y-124730000D01*
X154380000Y-124730000D01*
X154380000Y-122870000D01*
%TO.C,C8*%
X148990000Y-101790000D02*
X150810000Y-101790000D01*
X150810000Y-102710000D01*
X148990000Y-102710000D01*
X148990000Y-101790000D01*
%TO.C,J2*%
X142050000Y-124765000D02*
X142050000Y-142465000D01*
X142050000Y-142465000D02*
X157750000Y-142465000D01*
X157750000Y-124765000D02*
X142050000Y-124765000D01*
X157750000Y-142465000D02*
X157750000Y-124765000D01*
%TO.C,J5*%
X158280000Y-121080000D02*
X161820000Y-121080000D01*
X161820000Y-142400000D01*
X158280000Y-142400000D01*
X158280000Y-121080000D01*
%TO.C,J7*%
X137980000Y-98220000D02*
X141520000Y-98220000D01*
X141520000Y-119540000D01*
X137980000Y-119540000D01*
X137980000Y-98220000D01*
%TO.C,C1*%
X151390000Y-101790000D02*
X153210000Y-101790000D01*
X153210000Y-102710000D01*
X151390000Y-102710000D01*
X151390000Y-101790000D01*
%TO.C,D1*%
X148400000Y-116687500D02*
X148400000Y-119687500D01*
X148400000Y-119687500D02*
X149400000Y-119687500D01*
X149400000Y-116487500D02*
X149400000Y-116687500D01*
X149400000Y-116687500D02*
X148400000Y-116687500D01*
X149400000Y-119687500D02*
X149400000Y-119887500D01*
X149400000Y-119887500D02*
X151500000Y-119887500D01*
X151500000Y-116487500D02*
X149400000Y-116487500D01*
X151500000Y-116687500D02*
X151500000Y-116487500D01*
X151500000Y-119687500D02*
X152500000Y-119687500D01*
X151500000Y-119887500D02*
X151500000Y-119687500D01*
X152500000Y-116687500D02*
X151500000Y-116687500D01*
X152500000Y-119687500D02*
X152500000Y-116687500D01*
%TO.C,J4*%
X137980000Y-121080000D02*
X141520000Y-121080000D01*
X141520000Y-142400000D01*
X137980000Y-142400000D01*
X137980000Y-121080000D01*
%TO.C,R1*%
X144870000Y-123580000D02*
X146730000Y-123580000D01*
X146730000Y-124520000D01*
X144870000Y-124520000D01*
X144870000Y-123580000D01*
%TO.C,J6*%
X158280000Y-98220000D02*
X161820000Y-98220000D01*
X161820000Y-119540000D01*
X158280000Y-119540000D01*
X158280000Y-98220000D01*
%TO.C,Y1*%
X146700000Y-102750000D02*
X153200000Y-102750000D01*
X153200000Y-106950000D01*
X146700000Y-106950000D01*
X146700000Y-102750000D01*
%TD*%
M02*
