%TF.GenerationSoftware,KiCad,Pcbnew,10.0.4*%
%TF.CreationDate,2026-09-15T18:50:24-04:00*%
%TF.ProjectId,devboard,64657662-6f61-4726-942e-6b696361645f,rev?*%
%TF.SameCoordinates,Original*%
%TF.FileFunction,AssemblyDrawing,Bot*%
%FSLAX46Y46*%
G04 Gerber Fmt 4.6, Leading zero omitted, Abs format (unit mm)*
G04 Created by KiCad (PCBNEW 10.0.4) date 2026-09-15 18:50:24*
%MOMM*%
%LPD*%
G01*
G04 APERTURE LIST*
%ADD10C,0.150000*%
%ADD11C,0.110000*%
%ADD12C,0.040000*%
%ADD13C,0.100000*%
G04 APERTURE END LIST*
D10*
X155402380Y-117356604D02*
X154926190Y-117356604D01*
X155497618Y-117642319D02*
X155164285Y-116642319D01*
X155164285Y-116642319D02*
X154830952Y-117642319D01*
X154497618Y-117642319D02*
X154497618Y-116642319D01*
X154497618Y-116642319D02*
X154116666Y-116642319D01*
X154116666Y-116642319D02*
X154021428Y-116689938D01*
X154021428Y-116689938D02*
X153973809Y-116737557D01*
X153973809Y-116737557D02*
X153926190Y-116832795D01*
X153926190Y-116832795D02*
X153926190Y-116975652D01*
X153926190Y-116975652D02*
X153973809Y-117070890D01*
X153973809Y-117070890D02*
X154021428Y-117118509D01*
X154021428Y-117118509D02*
X154116666Y-117166128D01*
X154116666Y-117166128D02*
X154497618Y-117166128D01*
X153545237Y-116737557D02*
X153497618Y-116689938D01*
X153497618Y-116689938D02*
X153402380Y-116642319D01*
X153402380Y-116642319D02*
X153164285Y-116642319D01*
X153164285Y-116642319D02*
X153069047Y-116689938D01*
X153069047Y-116689938D02*
X153021428Y-116737557D01*
X153021428Y-116737557D02*
X152973809Y-116832795D01*
X152973809Y-116832795D02*
X152973809Y-116928033D01*
X152973809Y-116928033D02*
X153021428Y-117070890D01*
X153021428Y-117070890D02*
X153592856Y-117642319D01*
X153592856Y-117642319D02*
X152973809Y-117642319D01*
X152021428Y-117642319D02*
X152592856Y-117642319D01*
X152307142Y-117642319D02*
X152307142Y-116642319D01*
X152307142Y-116642319D02*
X152402380Y-116785176D01*
X152402380Y-116785176D02*
X152497618Y-116880414D01*
X152497618Y-116880414D02*
X152592856Y-116928033D01*
X151069047Y-117642319D02*
X151640475Y-117642319D01*
X151354761Y-117642319D02*
X151354761Y-116642319D01*
X151354761Y-116642319D02*
X151449999Y-116785176D01*
X151449999Y-116785176D02*
X151545237Y-116880414D01*
X151545237Y-116880414D02*
X151640475Y-116928033D01*
X150688094Y-116737557D02*
X150640475Y-116689938D01*
X150640475Y-116689938D02*
X150545237Y-116642319D01*
X150545237Y-116642319D02*
X150307142Y-116642319D01*
X150307142Y-116642319D02*
X150211904Y-116689938D01*
X150211904Y-116689938D02*
X150164285Y-116737557D01*
X150164285Y-116737557D02*
X150116666Y-116832795D01*
X150116666Y-116832795D02*
X150116666Y-116928033D01*
X150116666Y-116928033D02*
X150164285Y-117070890D01*
X150164285Y-117070890D02*
X150735713Y-117642319D01*
X150735713Y-117642319D02*
X150116666Y-117642319D01*
X149688094Y-117642319D02*
X149688094Y-116642319D01*
X149116666Y-117642319D02*
X149545237Y-117070890D01*
X149116666Y-116642319D02*
X149688094Y-117213747D01*
X148688094Y-117261366D02*
X147926190Y-117261366D01*
X147545237Y-116642319D02*
X146926190Y-116642319D01*
X146926190Y-116642319D02*
X147259523Y-117023271D01*
X147259523Y-117023271D02*
X147116666Y-117023271D01*
X147116666Y-117023271D02*
X147021428Y-117070890D01*
X147021428Y-117070890D02*
X146973809Y-117118509D01*
X146973809Y-117118509D02*
X146926190Y-117213747D01*
X146926190Y-117213747D02*
X146926190Y-117451842D01*
X146926190Y-117451842D02*
X146973809Y-117547080D01*
X146973809Y-117547080D02*
X147021428Y-117594700D01*
X147021428Y-117594700D02*
X147116666Y-117642319D01*
X147116666Y-117642319D02*
X147402380Y-117642319D01*
X147402380Y-117642319D02*
X147497618Y-117594700D01*
X147497618Y-117594700D02*
X147545237Y-117547080D01*
X146497618Y-117547080D02*
X146449999Y-117594700D01*
X146449999Y-117594700D02*
X146497618Y-117642319D01*
X146497618Y-117642319D02*
X146545237Y-117594700D01*
X146545237Y-117594700D02*
X146497618Y-117547080D01*
X146497618Y-117547080D02*
X146497618Y-117642319D01*
X146116666Y-116642319D02*
X145497619Y-116642319D01*
X145497619Y-116642319D02*
X145830952Y-117023271D01*
X145830952Y-117023271D02*
X145688095Y-117023271D01*
X145688095Y-117023271D02*
X145592857Y-117070890D01*
X145592857Y-117070890D02*
X145545238Y-117118509D01*
X145545238Y-117118509D02*
X145497619Y-117213747D01*
X145497619Y-117213747D02*
X145497619Y-117451842D01*
X145497619Y-117451842D02*
X145545238Y-117547080D01*
X145545238Y-117547080D02*
X145592857Y-117594700D01*
X145592857Y-117594700D02*
X145688095Y-117642319D01*
X145688095Y-117642319D02*
X145973809Y-117642319D01*
X145973809Y-117642319D02*
X146069047Y-117594700D01*
X146069047Y-117594700D02*
X146116666Y-117547080D01*
D11*
X150057365Y-114238928D02*
X150640222Y-114238928D01*
X150640222Y-114238928D02*
X150708794Y-114273214D01*
X150708794Y-114273214D02*
X150743080Y-114307500D01*
X150743080Y-114307500D02*
X150777365Y-114376071D01*
X150777365Y-114376071D02*
X150777365Y-114513214D01*
X150777365Y-114513214D02*
X150743080Y-114581785D01*
X150743080Y-114581785D02*
X150708794Y-114616071D01*
X150708794Y-114616071D02*
X150640222Y-114650357D01*
X150640222Y-114650357D02*
X150057365Y-114650357D01*
X150125937Y-114958928D02*
X150091651Y-114993214D01*
X150091651Y-114993214D02*
X150057365Y-115061786D01*
X150057365Y-115061786D02*
X150057365Y-115233214D01*
X150057365Y-115233214D02*
X150091651Y-115301786D01*
X150091651Y-115301786D02*
X150125937Y-115336071D01*
X150125937Y-115336071D02*
X150194508Y-115370357D01*
X150194508Y-115370357D02*
X150263080Y-115370357D01*
X150263080Y-115370357D02*
X150365937Y-115336071D01*
X150365937Y-115336071D02*
X150777365Y-114924643D01*
X150777365Y-114924643D02*
X150777365Y-115370357D01*
D10*
X148392857Y-103864819D02*
X148964285Y-103864819D01*
X148678571Y-103864819D02*
X148678571Y-102864819D01*
X148678571Y-102864819D02*
X148773809Y-103007676D01*
X148773809Y-103007676D02*
X148869047Y-103102914D01*
X148869047Y-103102914D02*
X148964285Y-103150533D01*
X147821428Y-103293390D02*
X147916666Y-103245771D01*
X147916666Y-103245771D02*
X147964285Y-103198152D01*
X147964285Y-103198152D02*
X148011904Y-103102914D01*
X148011904Y-103102914D02*
X148011904Y-103055295D01*
X148011904Y-103055295D02*
X147964285Y-102960057D01*
X147964285Y-102960057D02*
X147916666Y-102912438D01*
X147916666Y-102912438D02*
X147821428Y-102864819D01*
X147821428Y-102864819D02*
X147630952Y-102864819D01*
X147630952Y-102864819D02*
X147535714Y-102912438D01*
X147535714Y-102912438D02*
X147488095Y-102960057D01*
X147488095Y-102960057D02*
X147440476Y-103055295D01*
X147440476Y-103055295D02*
X147440476Y-103102914D01*
X147440476Y-103102914D02*
X147488095Y-103198152D01*
X147488095Y-103198152D02*
X147535714Y-103245771D01*
X147535714Y-103245771D02*
X147630952Y-103293390D01*
X147630952Y-103293390D02*
X147821428Y-103293390D01*
X147821428Y-103293390D02*
X147916666Y-103341009D01*
X147916666Y-103341009D02*
X147964285Y-103388628D01*
X147964285Y-103388628D02*
X148011904Y-103483866D01*
X148011904Y-103483866D02*
X148011904Y-103674342D01*
X148011904Y-103674342D02*
X147964285Y-103769580D01*
X147964285Y-103769580D02*
X147916666Y-103817200D01*
X147916666Y-103817200D02*
X147821428Y-103864819D01*
X147821428Y-103864819D02*
X147630952Y-103864819D01*
X147630952Y-103864819D02*
X147535714Y-103817200D01*
X147535714Y-103817200D02*
X147488095Y-103769580D01*
X147488095Y-103769580D02*
X147440476Y-103674342D01*
X147440476Y-103674342D02*
X147440476Y-103483866D01*
X147440476Y-103483866D02*
X147488095Y-103388628D01*
X147488095Y-103388628D02*
X147535714Y-103341009D01*
X147535714Y-103341009D02*
X147630952Y-103293390D01*
X147011904Y-103198152D02*
X147011904Y-104198152D01*
X147011904Y-103245771D02*
X146916666Y-103198152D01*
X146916666Y-103198152D02*
X146726190Y-103198152D01*
X146726190Y-103198152D02*
X146630952Y-103245771D01*
X146630952Y-103245771D02*
X146583333Y-103293390D01*
X146583333Y-103293390D02*
X146535714Y-103388628D01*
X146535714Y-103388628D02*
X146535714Y-103674342D01*
X146535714Y-103674342D02*
X146583333Y-103769580D01*
X146583333Y-103769580D02*
X146630952Y-103817200D01*
X146630952Y-103817200D02*
X146726190Y-103864819D01*
X146726190Y-103864819D02*
X146916666Y-103864819D01*
X146916666Y-103864819D02*
X147011904Y-103817200D01*
D12*
X147791666Y-102339765D02*
X147803570Y-102351670D01*
X147803570Y-102351670D02*
X147839285Y-102363574D01*
X147839285Y-102363574D02*
X147863094Y-102363574D01*
X147863094Y-102363574D02*
X147898808Y-102351670D01*
X147898808Y-102351670D02*
X147922618Y-102327860D01*
X147922618Y-102327860D02*
X147934523Y-102304050D01*
X147934523Y-102304050D02*
X147946427Y-102256431D01*
X147946427Y-102256431D02*
X147946427Y-102220717D01*
X147946427Y-102220717D02*
X147934523Y-102173098D01*
X147934523Y-102173098D02*
X147922618Y-102149289D01*
X147922618Y-102149289D02*
X147898808Y-102125479D01*
X147898808Y-102125479D02*
X147863094Y-102113574D01*
X147863094Y-102113574D02*
X147839285Y-102113574D01*
X147839285Y-102113574D02*
X147803570Y-102125479D01*
X147803570Y-102125479D02*
X147791666Y-102137384D01*
X147696427Y-102137384D02*
X147684523Y-102125479D01*
X147684523Y-102125479D02*
X147660713Y-102113574D01*
X147660713Y-102113574D02*
X147601189Y-102113574D01*
X147601189Y-102113574D02*
X147577380Y-102125479D01*
X147577380Y-102125479D02*
X147565475Y-102137384D01*
X147565475Y-102137384D02*
X147553570Y-102161193D01*
X147553570Y-102161193D02*
X147553570Y-102185003D01*
X147553570Y-102185003D02*
X147565475Y-102220717D01*
X147565475Y-102220717D02*
X147708332Y-102363574D01*
X147708332Y-102363574D02*
X147553570Y-102363574D01*
D10*
X145818152Y-123109523D02*
X146484819Y-123109523D01*
X145437200Y-122871428D02*
X146151485Y-122633333D01*
X146151485Y-122633333D02*
X146151485Y-123252380D01*
X145484819Y-123538095D02*
X145484819Y-124204761D01*
X145484819Y-124204761D02*
X146484819Y-123776190D01*
X146484819Y-124585714D02*
X145484819Y-124585714D01*
X146103866Y-124680952D02*
X146484819Y-124966666D01*
X145818152Y-124966666D02*
X146199104Y-124585714D01*
D12*
X147318200Y-123632857D02*
X147194391Y-123546190D01*
X147318200Y-123484285D02*
X147058200Y-123484285D01*
X147058200Y-123484285D02*
X147058200Y-123583333D01*
X147058200Y-123583333D02*
X147070581Y-123608095D01*
X147070581Y-123608095D02*
X147082962Y-123620476D01*
X147082962Y-123620476D02*
X147107724Y-123632857D01*
X147107724Y-123632857D02*
X147144867Y-123632857D01*
X147144867Y-123632857D02*
X147169629Y-123620476D01*
X147169629Y-123620476D02*
X147182010Y-123608095D01*
X147182010Y-123608095D02*
X147194391Y-123583333D01*
X147194391Y-123583333D02*
X147194391Y-123484285D01*
X147318200Y-123880476D02*
X147318200Y-123731904D01*
X147318200Y-123806190D02*
X147058200Y-123806190D01*
X147058200Y-123806190D02*
X147095343Y-123781428D01*
X147095343Y-123781428D02*
X147120105Y-123756666D01*
X147120105Y-123756666D02*
X147132486Y-123731904D01*
X147058200Y-123967142D02*
X147058200Y-124128095D01*
X147058200Y-124128095D02*
X147157248Y-124041428D01*
X147157248Y-124041428D02*
X147157248Y-124078571D01*
X147157248Y-124078571D02*
X147169629Y-124103333D01*
X147169629Y-124103333D02*
X147182010Y-124115714D01*
X147182010Y-124115714D02*
X147206772Y-124128095D01*
X147206772Y-124128095D02*
X147268677Y-124128095D01*
X147268677Y-124128095D02*
X147293439Y-124115714D01*
X147293439Y-124115714D02*
X147305820Y-124103333D01*
X147305820Y-124103333D02*
X147318200Y-124078571D01*
X147318200Y-124078571D02*
X147318200Y-124004285D01*
X147318200Y-124004285D02*
X147305820Y-123979523D01*
X147305820Y-123979523D02*
X147293439Y-123967142D01*
D10*
X152069047Y-123294819D02*
X152640475Y-123294819D01*
X152354761Y-123294819D02*
X152354761Y-122294819D01*
X152354761Y-122294819D02*
X152449999Y-122437676D01*
X152449999Y-122437676D02*
X152545237Y-122532914D01*
X152545237Y-122532914D02*
X152640475Y-122580533D01*
X151449999Y-122294819D02*
X151354761Y-122294819D01*
X151354761Y-122294819D02*
X151259523Y-122342438D01*
X151259523Y-122342438D02*
X151211904Y-122390057D01*
X151211904Y-122390057D02*
X151164285Y-122485295D01*
X151164285Y-122485295D02*
X151116666Y-122675771D01*
X151116666Y-122675771D02*
X151116666Y-122913866D01*
X151116666Y-122913866D02*
X151164285Y-123104342D01*
X151164285Y-123104342D02*
X151211904Y-123199580D01*
X151211904Y-123199580D02*
X151259523Y-123247200D01*
X151259523Y-123247200D02*
X151354761Y-123294819D01*
X151354761Y-123294819D02*
X151449999Y-123294819D01*
X151449999Y-123294819D02*
X151545237Y-123247200D01*
X151545237Y-123247200D02*
X151592856Y-123199580D01*
X151592856Y-123199580D02*
X151640475Y-123104342D01*
X151640475Y-123104342D02*
X151688094Y-122913866D01*
X151688094Y-122913866D02*
X151688094Y-122675771D01*
X151688094Y-122675771D02*
X151640475Y-122485295D01*
X151640475Y-122485295D02*
X151592856Y-122390057D01*
X151592856Y-122390057D02*
X151545237Y-122342438D01*
X151545237Y-122342438D02*
X151449999Y-122294819D01*
X150497618Y-122294819D02*
X150402380Y-122294819D01*
X150402380Y-122294819D02*
X150307142Y-122342438D01*
X150307142Y-122342438D02*
X150259523Y-122390057D01*
X150259523Y-122390057D02*
X150211904Y-122485295D01*
X150211904Y-122485295D02*
X150164285Y-122675771D01*
X150164285Y-122675771D02*
X150164285Y-122913866D01*
X150164285Y-122913866D02*
X150211904Y-123104342D01*
X150211904Y-123104342D02*
X150259523Y-123199580D01*
X150259523Y-123199580D02*
X150307142Y-123247200D01*
X150307142Y-123247200D02*
X150402380Y-123294819D01*
X150402380Y-123294819D02*
X150497618Y-123294819D01*
X150497618Y-123294819D02*
X150592856Y-123247200D01*
X150592856Y-123247200D02*
X150640475Y-123199580D01*
X150640475Y-123199580D02*
X150688094Y-123104342D01*
X150688094Y-123104342D02*
X150735713Y-122913866D01*
X150735713Y-122913866D02*
X150735713Y-122675771D01*
X150735713Y-122675771D02*
X150688094Y-122485295D01*
X150688094Y-122485295D02*
X150640475Y-122390057D01*
X150640475Y-122390057D02*
X150592856Y-122342438D01*
X150592856Y-122342438D02*
X150497618Y-122294819D01*
X149735713Y-122628152D02*
X149735713Y-123294819D01*
X149735713Y-122723390D02*
X149688094Y-122675771D01*
X149688094Y-122675771D02*
X149592856Y-122628152D01*
X149592856Y-122628152D02*
X149449999Y-122628152D01*
X149449999Y-122628152D02*
X149354761Y-122675771D01*
X149354761Y-122675771D02*
X149307142Y-122771009D01*
X149307142Y-122771009D02*
X149307142Y-123294819D01*
D12*
X151110714Y-124089765D02*
X151122618Y-124101670D01*
X151122618Y-124101670D02*
X151158333Y-124113574D01*
X151158333Y-124113574D02*
X151182142Y-124113574D01*
X151182142Y-124113574D02*
X151217856Y-124101670D01*
X151217856Y-124101670D02*
X151241666Y-124077860D01*
X151241666Y-124077860D02*
X151253571Y-124054050D01*
X151253571Y-124054050D02*
X151265475Y-124006431D01*
X151265475Y-124006431D02*
X151265475Y-123970717D01*
X151265475Y-123970717D02*
X151253571Y-123923098D01*
X151253571Y-123923098D02*
X151241666Y-123899289D01*
X151241666Y-123899289D02*
X151217856Y-123875479D01*
X151217856Y-123875479D02*
X151182142Y-123863574D01*
X151182142Y-123863574D02*
X151158333Y-123863574D01*
X151158333Y-123863574D02*
X151122618Y-123875479D01*
X151122618Y-123875479D02*
X151110714Y-123887384D01*
X150872618Y-124113574D02*
X151015475Y-124113574D01*
X150944047Y-124113574D02*
X150944047Y-123863574D01*
X150944047Y-123863574D02*
X150967856Y-123899289D01*
X150967856Y-123899289D02*
X150991666Y-123923098D01*
X150991666Y-123923098D02*
X151015475Y-123935003D01*
X150646428Y-123863574D02*
X150765476Y-123863574D01*
X150765476Y-123863574D02*
X150777380Y-123982622D01*
X150777380Y-123982622D02*
X150765476Y-123970717D01*
X150765476Y-123970717D02*
X150741666Y-123958812D01*
X150741666Y-123958812D02*
X150682142Y-123958812D01*
X150682142Y-123958812D02*
X150658333Y-123970717D01*
X150658333Y-123970717D02*
X150646428Y-123982622D01*
X150646428Y-123982622D02*
X150634523Y-124006431D01*
X150634523Y-124006431D02*
X150634523Y-124065955D01*
X150634523Y-124065955D02*
X150646428Y-124089765D01*
X150646428Y-124089765D02*
X150658333Y-124101670D01*
X150658333Y-124101670D02*
X150682142Y-124113574D01*
X150682142Y-124113574D02*
X150741666Y-124113574D01*
X150741666Y-124113574D02*
X150765476Y-124101670D01*
X150765476Y-124101670D02*
X150777380Y-124089765D01*
D10*
X153468152Y-123109523D02*
X154134819Y-123109523D01*
X153087200Y-122871428D02*
X153801485Y-122633333D01*
X153801485Y-122633333D02*
X153801485Y-123252380D01*
X153134819Y-123538095D02*
X153134819Y-124204761D01*
X153134819Y-124204761D02*
X154134819Y-123776190D01*
X154134819Y-124585714D02*
X153134819Y-124585714D01*
X153753866Y-124680952D02*
X154134819Y-124966666D01*
X153468152Y-124966666D02*
X153849104Y-124585714D01*
D12*
X154968200Y-123632857D02*
X154844391Y-123546190D01*
X154968200Y-123484285D02*
X154708200Y-123484285D01*
X154708200Y-123484285D02*
X154708200Y-123583333D01*
X154708200Y-123583333D02*
X154720581Y-123608095D01*
X154720581Y-123608095D02*
X154732962Y-123620476D01*
X154732962Y-123620476D02*
X154757724Y-123632857D01*
X154757724Y-123632857D02*
X154794867Y-123632857D01*
X154794867Y-123632857D02*
X154819629Y-123620476D01*
X154819629Y-123620476D02*
X154832010Y-123608095D01*
X154832010Y-123608095D02*
X154844391Y-123583333D01*
X154844391Y-123583333D02*
X154844391Y-123484285D01*
X154968200Y-123880476D02*
X154968200Y-123731904D01*
X154968200Y-123806190D02*
X154708200Y-123806190D01*
X154708200Y-123806190D02*
X154745343Y-123781428D01*
X154745343Y-123781428D02*
X154770105Y-123756666D01*
X154770105Y-123756666D02*
X154782486Y-123731904D01*
X154732962Y-123979523D02*
X154720581Y-123991904D01*
X154720581Y-123991904D02*
X154708200Y-124016666D01*
X154708200Y-124016666D02*
X154708200Y-124078571D01*
X154708200Y-124078571D02*
X154720581Y-124103333D01*
X154720581Y-124103333D02*
X154732962Y-124115714D01*
X154732962Y-124115714D02*
X154757724Y-124128095D01*
X154757724Y-124128095D02*
X154782486Y-124128095D01*
X154782486Y-124128095D02*
X154819629Y-124115714D01*
X154819629Y-124115714D02*
X154968200Y-123967142D01*
X154968200Y-123967142D02*
X154968200Y-124128095D01*
D10*
X151019047Y-103864819D02*
X151590475Y-103864819D01*
X151304761Y-103864819D02*
X151304761Y-102864819D01*
X151304761Y-102864819D02*
X151399999Y-103007676D01*
X151399999Y-103007676D02*
X151495237Y-103102914D01*
X151495237Y-103102914D02*
X151590475Y-103150533D01*
X150399999Y-102864819D02*
X150304761Y-102864819D01*
X150304761Y-102864819D02*
X150209523Y-102912438D01*
X150209523Y-102912438D02*
X150161904Y-102960057D01*
X150161904Y-102960057D02*
X150114285Y-103055295D01*
X150114285Y-103055295D02*
X150066666Y-103245771D01*
X150066666Y-103245771D02*
X150066666Y-103483866D01*
X150066666Y-103483866D02*
X150114285Y-103674342D01*
X150114285Y-103674342D02*
X150161904Y-103769580D01*
X150161904Y-103769580D02*
X150209523Y-103817200D01*
X150209523Y-103817200D02*
X150304761Y-103864819D01*
X150304761Y-103864819D02*
X150399999Y-103864819D01*
X150399999Y-103864819D02*
X150495237Y-103817200D01*
X150495237Y-103817200D02*
X150542856Y-103769580D01*
X150542856Y-103769580D02*
X150590475Y-103674342D01*
X150590475Y-103674342D02*
X150638094Y-103483866D01*
X150638094Y-103483866D02*
X150638094Y-103245771D01*
X150638094Y-103245771D02*
X150590475Y-103055295D01*
X150590475Y-103055295D02*
X150542856Y-102960057D01*
X150542856Y-102960057D02*
X150495237Y-102912438D01*
X150495237Y-102912438D02*
X150399999Y-102864819D01*
X149447618Y-102864819D02*
X149352380Y-102864819D01*
X149352380Y-102864819D02*
X149257142Y-102912438D01*
X149257142Y-102912438D02*
X149209523Y-102960057D01*
X149209523Y-102960057D02*
X149161904Y-103055295D01*
X149161904Y-103055295D02*
X149114285Y-103245771D01*
X149114285Y-103245771D02*
X149114285Y-103483866D01*
X149114285Y-103483866D02*
X149161904Y-103674342D01*
X149161904Y-103674342D02*
X149209523Y-103769580D01*
X149209523Y-103769580D02*
X149257142Y-103817200D01*
X149257142Y-103817200D02*
X149352380Y-103864819D01*
X149352380Y-103864819D02*
X149447618Y-103864819D01*
X149447618Y-103864819D02*
X149542856Y-103817200D01*
X149542856Y-103817200D02*
X149590475Y-103769580D01*
X149590475Y-103769580D02*
X149638094Y-103674342D01*
X149638094Y-103674342D02*
X149685713Y-103483866D01*
X149685713Y-103483866D02*
X149685713Y-103245771D01*
X149685713Y-103245771D02*
X149638094Y-103055295D01*
X149638094Y-103055295D02*
X149590475Y-102960057D01*
X149590475Y-102960057D02*
X149542856Y-102912438D01*
X149542856Y-102912438D02*
X149447618Y-102864819D01*
X148685713Y-103198152D02*
X148685713Y-103864819D01*
X148685713Y-103293390D02*
X148638094Y-103245771D01*
X148638094Y-103245771D02*
X148542856Y-103198152D01*
X148542856Y-103198152D02*
X148399999Y-103198152D01*
X148399999Y-103198152D02*
X148304761Y-103245771D01*
X148304761Y-103245771D02*
X148257142Y-103341009D01*
X148257142Y-103341009D02*
X148257142Y-103864819D01*
D12*
X149941666Y-102339765D02*
X149953570Y-102351670D01*
X149953570Y-102351670D02*
X149989285Y-102363574D01*
X149989285Y-102363574D02*
X150013094Y-102363574D01*
X150013094Y-102363574D02*
X150048808Y-102351670D01*
X150048808Y-102351670D02*
X150072618Y-102327860D01*
X150072618Y-102327860D02*
X150084523Y-102304050D01*
X150084523Y-102304050D02*
X150096427Y-102256431D01*
X150096427Y-102256431D02*
X150096427Y-102220717D01*
X150096427Y-102220717D02*
X150084523Y-102173098D01*
X150084523Y-102173098D02*
X150072618Y-102149289D01*
X150072618Y-102149289D02*
X150048808Y-102125479D01*
X150048808Y-102125479D02*
X150013094Y-102113574D01*
X150013094Y-102113574D02*
X149989285Y-102113574D01*
X149989285Y-102113574D02*
X149953570Y-102125479D01*
X149953570Y-102125479D02*
X149941666Y-102137384D01*
X149798808Y-102220717D02*
X149822618Y-102208812D01*
X149822618Y-102208812D02*
X149834523Y-102196908D01*
X149834523Y-102196908D02*
X149846427Y-102173098D01*
X149846427Y-102173098D02*
X149846427Y-102161193D01*
X149846427Y-102161193D02*
X149834523Y-102137384D01*
X149834523Y-102137384D02*
X149822618Y-102125479D01*
X149822618Y-102125479D02*
X149798808Y-102113574D01*
X149798808Y-102113574D02*
X149751189Y-102113574D01*
X149751189Y-102113574D02*
X149727380Y-102125479D01*
X149727380Y-102125479D02*
X149715475Y-102137384D01*
X149715475Y-102137384D02*
X149703570Y-102161193D01*
X149703570Y-102161193D02*
X149703570Y-102173098D01*
X149703570Y-102173098D02*
X149715475Y-102196908D01*
X149715475Y-102196908D02*
X149727380Y-102208812D01*
X149727380Y-102208812D02*
X149751189Y-102220717D01*
X149751189Y-102220717D02*
X149798808Y-102220717D01*
X149798808Y-102220717D02*
X149822618Y-102232622D01*
X149822618Y-102232622D02*
X149834523Y-102244527D01*
X149834523Y-102244527D02*
X149846427Y-102268336D01*
X149846427Y-102268336D02*
X149846427Y-102315955D01*
X149846427Y-102315955D02*
X149834523Y-102339765D01*
X149834523Y-102339765D02*
X149822618Y-102351670D01*
X149822618Y-102351670D02*
X149798808Y-102363574D01*
X149798808Y-102363574D02*
X149751189Y-102363574D01*
X149751189Y-102363574D02*
X149727380Y-102351670D01*
X149727380Y-102351670D02*
X149715475Y-102339765D01*
X149715475Y-102339765D02*
X149703570Y-102315955D01*
X149703570Y-102315955D02*
X149703570Y-102268336D01*
X149703570Y-102268336D02*
X149715475Y-102244527D01*
X149715475Y-102244527D02*
X149727380Y-102232622D01*
X149727380Y-102232622D02*
X149751189Y-102220717D01*
D10*
X152838332Y-143614819D02*
X152838332Y-142948152D01*
X152838332Y-143043390D02*
X152790713Y-142995771D01*
X152790713Y-142995771D02*
X152695475Y-142948152D01*
X152695475Y-142948152D02*
X152552618Y-142948152D01*
X152552618Y-142948152D02*
X152457380Y-142995771D01*
X152457380Y-142995771D02*
X152409761Y-143091009D01*
X152409761Y-143091009D02*
X152409761Y-143614819D01*
X152409761Y-143091009D02*
X152362142Y-142995771D01*
X152362142Y-142995771D02*
X152266904Y-142948152D01*
X152266904Y-142948152D02*
X152124047Y-142948152D01*
X152124047Y-142948152D02*
X152028808Y-142995771D01*
X152028808Y-142995771D02*
X151981189Y-143091009D01*
X151981189Y-143091009D02*
X151981189Y-143614819D01*
X151504999Y-143614819D02*
X151504999Y-142948152D01*
X151504999Y-142614819D02*
X151552618Y-142662438D01*
X151552618Y-142662438D02*
X151504999Y-142710057D01*
X151504999Y-142710057D02*
X151457380Y-142662438D01*
X151457380Y-142662438D02*
X151504999Y-142614819D01*
X151504999Y-142614819D02*
X151504999Y-142710057D01*
X150600238Y-143567200D02*
X150695476Y-143614819D01*
X150695476Y-143614819D02*
X150885952Y-143614819D01*
X150885952Y-143614819D02*
X150981190Y-143567200D01*
X150981190Y-143567200D02*
X151028809Y-143519580D01*
X151028809Y-143519580D02*
X151076428Y-143424342D01*
X151076428Y-143424342D02*
X151076428Y-143138628D01*
X151076428Y-143138628D02*
X151028809Y-143043390D01*
X151028809Y-143043390D02*
X150981190Y-142995771D01*
X150981190Y-142995771D02*
X150885952Y-142948152D01*
X150885952Y-142948152D02*
X150695476Y-142948152D01*
X150695476Y-142948152D02*
X150600238Y-142995771D01*
X150171666Y-143614819D02*
X150171666Y-142948152D01*
X150171666Y-143138628D02*
X150124047Y-143043390D01*
X150124047Y-143043390D02*
X150076428Y-142995771D01*
X150076428Y-142995771D02*
X149981190Y-142948152D01*
X149981190Y-142948152D02*
X149885952Y-142948152D01*
X149409761Y-143614819D02*
X149504999Y-143567200D01*
X149504999Y-143567200D02*
X149552618Y-143519580D01*
X149552618Y-143519580D02*
X149600237Y-143424342D01*
X149600237Y-143424342D02*
X149600237Y-143138628D01*
X149600237Y-143138628D02*
X149552618Y-143043390D01*
X149552618Y-143043390D02*
X149504999Y-142995771D01*
X149504999Y-142995771D02*
X149409761Y-142948152D01*
X149409761Y-142948152D02*
X149266904Y-142948152D01*
X149266904Y-142948152D02*
X149171666Y-142995771D01*
X149171666Y-142995771D02*
X149124047Y-143043390D01*
X149124047Y-143043390D02*
X149076428Y-143138628D01*
X149076428Y-143138628D02*
X149076428Y-143424342D01*
X149076428Y-143424342D02*
X149124047Y-143519580D01*
X149124047Y-143519580D02*
X149171666Y-143567200D01*
X149171666Y-143567200D02*
X149266904Y-143614819D01*
X149266904Y-143614819D02*
X149409761Y-143614819D01*
X148695475Y-143567200D02*
X148552618Y-143614819D01*
X148552618Y-143614819D02*
X148314523Y-143614819D01*
X148314523Y-143614819D02*
X148219285Y-143567200D01*
X148219285Y-143567200D02*
X148171666Y-143519580D01*
X148171666Y-143519580D02*
X148124047Y-143424342D01*
X148124047Y-143424342D02*
X148124047Y-143329104D01*
X148124047Y-143329104D02*
X148171666Y-143233866D01*
X148171666Y-143233866D02*
X148219285Y-143186247D01*
X148219285Y-143186247D02*
X148314523Y-143138628D01*
X148314523Y-143138628D02*
X148504999Y-143091009D01*
X148504999Y-143091009D02*
X148600237Y-143043390D01*
X148600237Y-143043390D02*
X148647856Y-142995771D01*
X148647856Y-142995771D02*
X148695475Y-142900533D01*
X148695475Y-142900533D02*
X148695475Y-142805295D01*
X148695475Y-142805295D02*
X148647856Y-142710057D01*
X148647856Y-142710057D02*
X148600237Y-142662438D01*
X148600237Y-142662438D02*
X148504999Y-142614819D01*
X148504999Y-142614819D02*
X148266904Y-142614819D01*
X148266904Y-142614819D02*
X148124047Y-142662438D01*
X147695475Y-143614819D02*
X147695475Y-142614819D01*
X147695475Y-142614819D02*
X147457380Y-142614819D01*
X147457380Y-142614819D02*
X147314523Y-142662438D01*
X147314523Y-142662438D02*
X147219285Y-142757676D01*
X147219285Y-142757676D02*
X147171666Y-142852914D01*
X147171666Y-142852914D02*
X147124047Y-143043390D01*
X147124047Y-143043390D02*
X147124047Y-143186247D01*
X147124047Y-143186247D02*
X147171666Y-143376723D01*
X147171666Y-143376723D02*
X147219285Y-143471961D01*
X147219285Y-143471961D02*
X147314523Y-143567200D01*
X147314523Y-143567200D02*
X147457380Y-143614819D01*
X147457380Y-143614819D02*
X147695475Y-143614819D01*
D13*
X150338333Y-133417419D02*
X150338333Y-134131704D01*
X150338333Y-134131704D02*
X150385952Y-134274561D01*
X150385952Y-134274561D02*
X150481190Y-134369800D01*
X150481190Y-134369800D02*
X150624047Y-134417419D01*
X150624047Y-134417419D02*
X150719285Y-134417419D01*
X149909761Y-133512657D02*
X149862142Y-133465038D01*
X149862142Y-133465038D02*
X149766904Y-133417419D01*
X149766904Y-133417419D02*
X149528809Y-133417419D01*
X149528809Y-133417419D02*
X149433571Y-133465038D01*
X149433571Y-133465038D02*
X149385952Y-133512657D01*
X149385952Y-133512657D02*
X149338333Y-133607895D01*
X149338333Y-133607895D02*
X149338333Y-133703133D01*
X149338333Y-133703133D02*
X149385952Y-133845990D01*
X149385952Y-133845990D02*
X149957380Y-134417419D01*
X149957380Y-134417419D02*
X149338333Y-134417419D01*
D10*
X162169047Y-142512438D02*
X162264285Y-142464819D01*
X162264285Y-142464819D02*
X162407142Y-142464819D01*
X162407142Y-142464819D02*
X162549999Y-142512438D01*
X162549999Y-142512438D02*
X162645237Y-142607676D01*
X162645237Y-142607676D02*
X162692856Y-142702914D01*
X162692856Y-142702914D02*
X162740475Y-142893390D01*
X162740475Y-142893390D02*
X162740475Y-143036247D01*
X162740475Y-143036247D02*
X162692856Y-143226723D01*
X162692856Y-143226723D02*
X162645237Y-143321961D01*
X162645237Y-143321961D02*
X162549999Y-143417200D01*
X162549999Y-143417200D02*
X162407142Y-143464819D01*
X162407142Y-143464819D02*
X162311904Y-143464819D01*
X162311904Y-143464819D02*
X162169047Y-143417200D01*
X162169047Y-143417200D02*
X162121428Y-143369580D01*
X162121428Y-143369580D02*
X162121428Y-143036247D01*
X162121428Y-143036247D02*
X162311904Y-143036247D01*
X161692856Y-143464819D02*
X161692856Y-142464819D01*
X161692856Y-142464819D02*
X161311904Y-142464819D01*
X161311904Y-142464819D02*
X161216666Y-142512438D01*
X161216666Y-142512438D02*
X161169047Y-142560057D01*
X161169047Y-142560057D02*
X161121428Y-142655295D01*
X161121428Y-142655295D02*
X161121428Y-142798152D01*
X161121428Y-142798152D02*
X161169047Y-142893390D01*
X161169047Y-142893390D02*
X161216666Y-142941009D01*
X161216666Y-142941009D02*
X161311904Y-142988628D01*
X161311904Y-142988628D02*
X161692856Y-142988628D01*
X160692856Y-143464819D02*
X160692856Y-142464819D01*
X160026190Y-142464819D02*
X159835714Y-142464819D01*
X159835714Y-142464819D02*
X159740476Y-142512438D01*
X159740476Y-142512438D02*
X159645238Y-142607676D01*
X159645238Y-142607676D02*
X159597619Y-142798152D01*
X159597619Y-142798152D02*
X159597619Y-143131485D01*
X159597619Y-143131485D02*
X159645238Y-143321961D01*
X159645238Y-143321961D02*
X159740476Y-143417200D01*
X159740476Y-143417200D02*
X159835714Y-143464819D01*
X159835714Y-143464819D02*
X160026190Y-143464819D01*
X160026190Y-143464819D02*
X160121428Y-143417200D01*
X160121428Y-143417200D02*
X160216666Y-143321961D01*
X160216666Y-143321961D02*
X160264285Y-143131485D01*
X160264285Y-143131485D02*
X160264285Y-142798152D01*
X160264285Y-142798152D02*
X160216666Y-142607676D01*
X160216666Y-142607676D02*
X160121428Y-142512438D01*
X160121428Y-142512438D02*
X160026190Y-142464819D01*
X159169047Y-143083866D02*
X158407143Y-143083866D01*
X157597619Y-142941009D02*
X157454762Y-142988628D01*
X157454762Y-142988628D02*
X157407143Y-143036247D01*
X157407143Y-143036247D02*
X157359524Y-143131485D01*
X157359524Y-143131485D02*
X157359524Y-143274342D01*
X157359524Y-143274342D02*
X157407143Y-143369580D01*
X157407143Y-143369580D02*
X157454762Y-143417200D01*
X157454762Y-143417200D02*
X157550000Y-143464819D01*
X157550000Y-143464819D02*
X157930952Y-143464819D01*
X157930952Y-143464819D02*
X157930952Y-142464819D01*
X157930952Y-142464819D02*
X157597619Y-142464819D01*
X157597619Y-142464819D02*
X157502381Y-142512438D01*
X157502381Y-142512438D02*
X157454762Y-142560057D01*
X157454762Y-142560057D02*
X157407143Y-142655295D01*
X157407143Y-142655295D02*
X157407143Y-142750533D01*
X157407143Y-142750533D02*
X157454762Y-142845771D01*
X157454762Y-142845771D02*
X157502381Y-142893390D01*
X157502381Y-142893390D02*
X157597619Y-142941009D01*
X157597619Y-142941009D02*
X157930952Y-142941009D01*
X159504819Y-131406666D02*
X160219104Y-131406666D01*
X160219104Y-131406666D02*
X160361961Y-131359047D01*
X160361961Y-131359047D02*
X160457200Y-131263809D01*
X160457200Y-131263809D02*
X160504819Y-131120952D01*
X160504819Y-131120952D02*
X160504819Y-131025714D01*
X159504819Y-132359047D02*
X159504819Y-131882857D01*
X159504819Y-131882857D02*
X159981009Y-131835238D01*
X159981009Y-131835238D02*
X159933390Y-131882857D01*
X159933390Y-131882857D02*
X159885771Y-131978095D01*
X159885771Y-131978095D02*
X159885771Y-132216190D01*
X159885771Y-132216190D02*
X159933390Y-132311428D01*
X159933390Y-132311428D02*
X159981009Y-132359047D01*
X159981009Y-132359047D02*
X160076247Y-132406666D01*
X160076247Y-132406666D02*
X160314342Y-132406666D01*
X160314342Y-132406666D02*
X160409580Y-132359047D01*
X160409580Y-132359047D02*
X160457200Y-132311428D01*
X160457200Y-132311428D02*
X160504819Y-132216190D01*
X160504819Y-132216190D02*
X160504819Y-131978095D01*
X160504819Y-131978095D02*
X160457200Y-131882857D01*
X160457200Y-131882857D02*
X160409580Y-131835238D01*
X143202380Y-120604819D02*
X143202380Y-119604819D01*
X143202380Y-119604819D02*
X142964285Y-119604819D01*
X142964285Y-119604819D02*
X142821428Y-119652438D01*
X142821428Y-119652438D02*
X142726190Y-119747676D01*
X142726190Y-119747676D02*
X142678571Y-119842914D01*
X142678571Y-119842914D02*
X142630952Y-120033390D01*
X142630952Y-120033390D02*
X142630952Y-120176247D01*
X142630952Y-120176247D02*
X142678571Y-120366723D01*
X142678571Y-120366723D02*
X142726190Y-120461961D01*
X142726190Y-120461961D02*
X142821428Y-120557200D01*
X142821428Y-120557200D02*
X142964285Y-120604819D01*
X142964285Y-120604819D02*
X143202380Y-120604819D01*
X141869047Y-120081009D02*
X141726190Y-120128628D01*
X141726190Y-120128628D02*
X141678571Y-120176247D01*
X141678571Y-120176247D02*
X141630952Y-120271485D01*
X141630952Y-120271485D02*
X141630952Y-120414342D01*
X141630952Y-120414342D02*
X141678571Y-120509580D01*
X141678571Y-120509580D02*
X141726190Y-120557200D01*
X141726190Y-120557200D02*
X141821428Y-120604819D01*
X141821428Y-120604819D02*
X142202380Y-120604819D01*
X142202380Y-120604819D02*
X142202380Y-119604819D01*
X142202380Y-119604819D02*
X141869047Y-119604819D01*
X141869047Y-119604819D02*
X141773809Y-119652438D01*
X141773809Y-119652438D02*
X141726190Y-119700057D01*
X141726190Y-119700057D02*
X141678571Y-119795295D01*
X141678571Y-119795295D02*
X141678571Y-119890533D01*
X141678571Y-119890533D02*
X141726190Y-119985771D01*
X141726190Y-119985771D02*
X141773809Y-120033390D01*
X141773809Y-120033390D02*
X141869047Y-120081009D01*
X141869047Y-120081009D02*
X142202380Y-120081009D01*
X140678571Y-119652438D02*
X140773809Y-119604819D01*
X140773809Y-119604819D02*
X140916666Y-119604819D01*
X140916666Y-119604819D02*
X141059523Y-119652438D01*
X141059523Y-119652438D02*
X141154761Y-119747676D01*
X141154761Y-119747676D02*
X141202380Y-119842914D01*
X141202380Y-119842914D02*
X141249999Y-120033390D01*
X141249999Y-120033390D02*
X141249999Y-120176247D01*
X141249999Y-120176247D02*
X141202380Y-120366723D01*
X141202380Y-120366723D02*
X141154761Y-120461961D01*
X141154761Y-120461961D02*
X141059523Y-120557200D01*
X141059523Y-120557200D02*
X140916666Y-120604819D01*
X140916666Y-120604819D02*
X140821428Y-120604819D01*
X140821428Y-120604819D02*
X140678571Y-120557200D01*
X140678571Y-120557200D02*
X140630952Y-120509580D01*
X140630952Y-120509580D02*
X140630952Y-120176247D01*
X140630952Y-120176247D02*
X140821428Y-120176247D01*
X140202380Y-120223866D02*
X139440476Y-120223866D01*
X138964285Y-120604819D02*
X138964285Y-119604819D01*
X138964285Y-119604819D02*
X138583333Y-119604819D01*
X138583333Y-119604819D02*
X138488095Y-119652438D01*
X138488095Y-119652438D02*
X138440476Y-119700057D01*
X138440476Y-119700057D02*
X138392857Y-119795295D01*
X138392857Y-119795295D02*
X138392857Y-119938152D01*
X138392857Y-119938152D02*
X138440476Y-120033390D01*
X138440476Y-120033390D02*
X138488095Y-120081009D01*
X138488095Y-120081009D02*
X138583333Y-120128628D01*
X138583333Y-120128628D02*
X138964285Y-120128628D01*
X138059523Y-119604819D02*
X137821428Y-120604819D01*
X137821428Y-120604819D02*
X137630952Y-119890533D01*
X137630952Y-119890533D02*
X137440476Y-120604819D01*
X137440476Y-120604819D02*
X137202381Y-119604819D01*
X136250000Y-120604819D02*
X136583333Y-120128628D01*
X136821428Y-120604819D02*
X136821428Y-119604819D01*
X136821428Y-119604819D02*
X136440476Y-119604819D01*
X136440476Y-119604819D02*
X136345238Y-119652438D01*
X136345238Y-119652438D02*
X136297619Y-119700057D01*
X136297619Y-119700057D02*
X136250000Y-119795295D01*
X136250000Y-119795295D02*
X136250000Y-119938152D01*
X136250000Y-119938152D02*
X136297619Y-120033390D01*
X136297619Y-120033390D02*
X136345238Y-120081009D01*
X136345238Y-120081009D02*
X136440476Y-120128628D01*
X136440476Y-120128628D02*
X136821428Y-120128628D01*
X139204819Y-108546666D02*
X139919104Y-108546666D01*
X139919104Y-108546666D02*
X140061961Y-108499047D01*
X140061961Y-108499047D02*
X140157200Y-108403809D01*
X140157200Y-108403809D02*
X140204819Y-108260952D01*
X140204819Y-108260952D02*
X140204819Y-108165714D01*
X139204819Y-108927619D02*
X139204819Y-109594285D01*
X139204819Y-109594285D02*
X140204819Y-109165714D01*
X152942857Y-101544819D02*
X153514285Y-101544819D01*
X153228571Y-101544819D02*
X153228571Y-100544819D01*
X153228571Y-100544819D02*
X153323809Y-100687676D01*
X153323809Y-100687676D02*
X153419047Y-100782914D01*
X153419047Y-100782914D02*
X153514285Y-100830533D01*
X152371428Y-100973390D02*
X152466666Y-100925771D01*
X152466666Y-100925771D02*
X152514285Y-100878152D01*
X152514285Y-100878152D02*
X152561904Y-100782914D01*
X152561904Y-100782914D02*
X152561904Y-100735295D01*
X152561904Y-100735295D02*
X152514285Y-100640057D01*
X152514285Y-100640057D02*
X152466666Y-100592438D01*
X152466666Y-100592438D02*
X152371428Y-100544819D01*
X152371428Y-100544819D02*
X152180952Y-100544819D01*
X152180952Y-100544819D02*
X152085714Y-100592438D01*
X152085714Y-100592438D02*
X152038095Y-100640057D01*
X152038095Y-100640057D02*
X151990476Y-100735295D01*
X151990476Y-100735295D02*
X151990476Y-100782914D01*
X151990476Y-100782914D02*
X152038095Y-100878152D01*
X152038095Y-100878152D02*
X152085714Y-100925771D01*
X152085714Y-100925771D02*
X152180952Y-100973390D01*
X152180952Y-100973390D02*
X152371428Y-100973390D01*
X152371428Y-100973390D02*
X152466666Y-101021009D01*
X152466666Y-101021009D02*
X152514285Y-101068628D01*
X152514285Y-101068628D02*
X152561904Y-101163866D01*
X152561904Y-101163866D02*
X152561904Y-101354342D01*
X152561904Y-101354342D02*
X152514285Y-101449580D01*
X152514285Y-101449580D02*
X152466666Y-101497200D01*
X152466666Y-101497200D02*
X152371428Y-101544819D01*
X152371428Y-101544819D02*
X152180952Y-101544819D01*
X152180952Y-101544819D02*
X152085714Y-101497200D01*
X152085714Y-101497200D02*
X152038095Y-101449580D01*
X152038095Y-101449580D02*
X151990476Y-101354342D01*
X151990476Y-101354342D02*
X151990476Y-101163866D01*
X151990476Y-101163866D02*
X152038095Y-101068628D01*
X152038095Y-101068628D02*
X152085714Y-101021009D01*
X152085714Y-101021009D02*
X152180952Y-100973390D01*
X151561904Y-100878152D02*
X151561904Y-101878152D01*
X151561904Y-100925771D02*
X151466666Y-100878152D01*
X151466666Y-100878152D02*
X151276190Y-100878152D01*
X151276190Y-100878152D02*
X151180952Y-100925771D01*
X151180952Y-100925771D02*
X151133333Y-100973390D01*
X151133333Y-100973390D02*
X151085714Y-101068628D01*
X151085714Y-101068628D02*
X151085714Y-101354342D01*
X151085714Y-101354342D02*
X151133333Y-101449580D01*
X151133333Y-101449580D02*
X151180952Y-101497200D01*
X151180952Y-101497200D02*
X151276190Y-101544819D01*
X151276190Y-101544819D02*
X151466666Y-101544819D01*
X151466666Y-101544819D02*
X151561904Y-101497200D01*
D12*
X152341666Y-102339765D02*
X152353570Y-102351670D01*
X152353570Y-102351670D02*
X152389285Y-102363574D01*
X152389285Y-102363574D02*
X152413094Y-102363574D01*
X152413094Y-102363574D02*
X152448808Y-102351670D01*
X152448808Y-102351670D02*
X152472618Y-102327860D01*
X152472618Y-102327860D02*
X152484523Y-102304050D01*
X152484523Y-102304050D02*
X152496427Y-102256431D01*
X152496427Y-102256431D02*
X152496427Y-102220717D01*
X152496427Y-102220717D02*
X152484523Y-102173098D01*
X152484523Y-102173098D02*
X152472618Y-102149289D01*
X152472618Y-102149289D02*
X152448808Y-102125479D01*
X152448808Y-102125479D02*
X152413094Y-102113574D01*
X152413094Y-102113574D02*
X152389285Y-102113574D01*
X152389285Y-102113574D02*
X152353570Y-102125479D01*
X152353570Y-102125479D02*
X152341666Y-102137384D01*
X152103570Y-102363574D02*
X152246427Y-102363574D01*
X152174999Y-102363574D02*
X152174999Y-102113574D01*
X152174999Y-102113574D02*
X152198808Y-102149289D01*
X152198808Y-102149289D02*
X152222618Y-102173098D01*
X152222618Y-102173098D02*
X152246427Y-102185003D01*
D10*
X155640475Y-120042319D02*
X155640475Y-120851842D01*
X155640475Y-120851842D02*
X155592856Y-120947080D01*
X155592856Y-120947080D02*
X155545237Y-120994700D01*
X155545237Y-120994700D02*
X155449999Y-121042319D01*
X155449999Y-121042319D02*
X155259523Y-121042319D01*
X155259523Y-121042319D02*
X155164285Y-120994700D01*
X155164285Y-120994700D02*
X155116666Y-120947080D01*
X155116666Y-120947080D02*
X155069047Y-120851842D01*
X155069047Y-120851842D02*
X155069047Y-120042319D01*
X154640475Y-120994700D02*
X154497618Y-121042319D01*
X154497618Y-121042319D02*
X154259523Y-121042319D01*
X154259523Y-121042319D02*
X154164285Y-120994700D01*
X154164285Y-120994700D02*
X154116666Y-120947080D01*
X154116666Y-120947080D02*
X154069047Y-120851842D01*
X154069047Y-120851842D02*
X154069047Y-120756604D01*
X154069047Y-120756604D02*
X154116666Y-120661366D01*
X154116666Y-120661366D02*
X154164285Y-120613747D01*
X154164285Y-120613747D02*
X154259523Y-120566128D01*
X154259523Y-120566128D02*
X154449999Y-120518509D01*
X154449999Y-120518509D02*
X154545237Y-120470890D01*
X154545237Y-120470890D02*
X154592856Y-120423271D01*
X154592856Y-120423271D02*
X154640475Y-120328033D01*
X154640475Y-120328033D02*
X154640475Y-120232795D01*
X154640475Y-120232795D02*
X154592856Y-120137557D01*
X154592856Y-120137557D02*
X154545237Y-120089938D01*
X154545237Y-120089938D02*
X154449999Y-120042319D01*
X154449999Y-120042319D02*
X154211904Y-120042319D01*
X154211904Y-120042319D02*
X154069047Y-120089938D01*
X153307142Y-120518509D02*
X153164285Y-120566128D01*
X153164285Y-120566128D02*
X153116666Y-120613747D01*
X153116666Y-120613747D02*
X153069047Y-120708985D01*
X153069047Y-120708985D02*
X153069047Y-120851842D01*
X153069047Y-120851842D02*
X153116666Y-120947080D01*
X153116666Y-120947080D02*
X153164285Y-120994700D01*
X153164285Y-120994700D02*
X153259523Y-121042319D01*
X153259523Y-121042319D02*
X153640475Y-121042319D01*
X153640475Y-121042319D02*
X153640475Y-120042319D01*
X153640475Y-120042319D02*
X153307142Y-120042319D01*
X153307142Y-120042319D02*
X153211904Y-120089938D01*
X153211904Y-120089938D02*
X153164285Y-120137557D01*
X153164285Y-120137557D02*
X153116666Y-120232795D01*
X153116666Y-120232795D02*
X153116666Y-120328033D01*
X153116666Y-120328033D02*
X153164285Y-120423271D01*
X153164285Y-120423271D02*
X153211904Y-120470890D01*
X153211904Y-120470890D02*
X153307142Y-120518509D01*
X153307142Y-120518509D02*
X153640475Y-120518509D01*
X152164285Y-121042319D02*
X152640475Y-121042319D01*
X152640475Y-121042319D02*
X152640475Y-120042319D01*
X151259523Y-120947080D02*
X151307142Y-120994700D01*
X151307142Y-120994700D02*
X151449999Y-121042319D01*
X151449999Y-121042319D02*
X151545237Y-121042319D01*
X151545237Y-121042319D02*
X151688094Y-120994700D01*
X151688094Y-120994700D02*
X151783332Y-120899461D01*
X151783332Y-120899461D02*
X151830951Y-120804223D01*
X151830951Y-120804223D02*
X151878570Y-120613747D01*
X151878570Y-120613747D02*
X151878570Y-120470890D01*
X151878570Y-120470890D02*
X151830951Y-120280414D01*
X151830951Y-120280414D02*
X151783332Y-120185176D01*
X151783332Y-120185176D02*
X151688094Y-120089938D01*
X151688094Y-120089938D02*
X151545237Y-120042319D01*
X151545237Y-120042319D02*
X151449999Y-120042319D01*
X151449999Y-120042319D02*
X151307142Y-120089938D01*
X151307142Y-120089938D02*
X151259523Y-120137557D01*
X150402380Y-120042319D02*
X150592856Y-120042319D01*
X150592856Y-120042319D02*
X150688094Y-120089938D01*
X150688094Y-120089938D02*
X150735713Y-120137557D01*
X150735713Y-120137557D02*
X150830951Y-120280414D01*
X150830951Y-120280414D02*
X150878570Y-120470890D01*
X150878570Y-120470890D02*
X150878570Y-120851842D01*
X150878570Y-120851842D02*
X150830951Y-120947080D01*
X150830951Y-120947080D02*
X150783332Y-120994700D01*
X150783332Y-120994700D02*
X150688094Y-121042319D01*
X150688094Y-121042319D02*
X150497618Y-121042319D01*
X150497618Y-121042319D02*
X150402380Y-120994700D01*
X150402380Y-120994700D02*
X150354761Y-120947080D01*
X150354761Y-120947080D02*
X150307142Y-120851842D01*
X150307142Y-120851842D02*
X150307142Y-120613747D01*
X150307142Y-120613747D02*
X150354761Y-120518509D01*
X150354761Y-120518509D02*
X150402380Y-120470890D01*
X150402380Y-120470890D02*
X150497618Y-120423271D01*
X150497618Y-120423271D02*
X150688094Y-120423271D01*
X150688094Y-120423271D02*
X150783332Y-120470890D01*
X150783332Y-120470890D02*
X150830951Y-120518509D01*
X150830951Y-120518509D02*
X150878570Y-120613747D01*
X149878570Y-120661366D02*
X149116666Y-120661366D01*
X148688094Y-120137557D02*
X148640475Y-120089938D01*
X148640475Y-120089938D02*
X148545237Y-120042319D01*
X148545237Y-120042319D02*
X148307142Y-120042319D01*
X148307142Y-120042319D02*
X148211904Y-120089938D01*
X148211904Y-120089938D02*
X148164285Y-120137557D01*
X148164285Y-120137557D02*
X148116666Y-120232795D01*
X148116666Y-120232795D02*
X148116666Y-120328033D01*
X148116666Y-120328033D02*
X148164285Y-120470890D01*
X148164285Y-120470890D02*
X148735713Y-121042319D01*
X148735713Y-121042319D02*
X148116666Y-121042319D01*
X147735713Y-120994700D02*
X147592856Y-121042319D01*
X147592856Y-121042319D02*
X147354761Y-121042319D01*
X147354761Y-121042319D02*
X147259523Y-120994700D01*
X147259523Y-120994700D02*
X147211904Y-120947080D01*
X147211904Y-120947080D02*
X147164285Y-120851842D01*
X147164285Y-120851842D02*
X147164285Y-120756604D01*
X147164285Y-120756604D02*
X147211904Y-120661366D01*
X147211904Y-120661366D02*
X147259523Y-120613747D01*
X147259523Y-120613747D02*
X147354761Y-120566128D01*
X147354761Y-120566128D02*
X147545237Y-120518509D01*
X147545237Y-120518509D02*
X147640475Y-120470890D01*
X147640475Y-120470890D02*
X147688094Y-120423271D01*
X147688094Y-120423271D02*
X147735713Y-120328033D01*
X147735713Y-120328033D02*
X147735713Y-120232795D01*
X147735713Y-120232795D02*
X147688094Y-120137557D01*
X147688094Y-120137557D02*
X147640475Y-120089938D01*
X147640475Y-120089938D02*
X147545237Y-120042319D01*
X147545237Y-120042319D02*
X147307142Y-120042319D01*
X147307142Y-120042319D02*
X147164285Y-120089938D01*
X146164285Y-120947080D02*
X146211904Y-120994700D01*
X146211904Y-120994700D02*
X146354761Y-121042319D01*
X146354761Y-121042319D02*
X146449999Y-121042319D01*
X146449999Y-121042319D02*
X146592856Y-120994700D01*
X146592856Y-120994700D02*
X146688094Y-120899461D01*
X146688094Y-120899461D02*
X146735713Y-120804223D01*
X146735713Y-120804223D02*
X146783332Y-120613747D01*
X146783332Y-120613747D02*
X146783332Y-120470890D01*
X146783332Y-120470890D02*
X146735713Y-120280414D01*
X146735713Y-120280414D02*
X146688094Y-120185176D01*
X146688094Y-120185176D02*
X146592856Y-120089938D01*
X146592856Y-120089938D02*
X146449999Y-120042319D01*
X146449999Y-120042319D02*
X146354761Y-120042319D01*
X146354761Y-120042319D02*
X146211904Y-120089938D01*
X146211904Y-120089938D02*
X146164285Y-120137557D01*
X145307142Y-120042319D02*
X145497618Y-120042319D01*
X145497618Y-120042319D02*
X145592856Y-120089938D01*
X145592856Y-120089938D02*
X145640475Y-120137557D01*
X145640475Y-120137557D02*
X145735713Y-120280414D01*
X145735713Y-120280414D02*
X145783332Y-120470890D01*
X145783332Y-120470890D02*
X145783332Y-120851842D01*
X145783332Y-120851842D02*
X145735713Y-120947080D01*
X145735713Y-120947080D02*
X145688094Y-120994700D01*
X145688094Y-120994700D02*
X145592856Y-121042319D01*
X145592856Y-121042319D02*
X145402380Y-121042319D01*
X145402380Y-121042319D02*
X145307142Y-120994700D01*
X145307142Y-120994700D02*
X145259523Y-120947080D01*
X145259523Y-120947080D02*
X145211904Y-120851842D01*
X145211904Y-120851842D02*
X145211904Y-120613747D01*
X145211904Y-120613747D02*
X145259523Y-120518509D01*
X145259523Y-120518509D02*
X145307142Y-120470890D01*
X145307142Y-120470890D02*
X145402380Y-120423271D01*
X145402380Y-120423271D02*
X145592856Y-120423271D01*
X145592856Y-120423271D02*
X145688094Y-120470890D01*
X145688094Y-120470890D02*
X145735713Y-120518509D01*
X145735713Y-120518509D02*
X145783332Y-120613747D01*
D11*
X150777365Y-117656071D02*
X150057365Y-117656071D01*
X150057365Y-117656071D02*
X150057365Y-117827500D01*
X150057365Y-117827500D02*
X150091651Y-117930357D01*
X150091651Y-117930357D02*
X150160222Y-117998928D01*
X150160222Y-117998928D02*
X150228794Y-118033214D01*
X150228794Y-118033214D02*
X150365937Y-118067500D01*
X150365937Y-118067500D02*
X150468794Y-118067500D01*
X150468794Y-118067500D02*
X150605937Y-118033214D01*
X150605937Y-118033214D02*
X150674508Y-117998928D01*
X150674508Y-117998928D02*
X150743080Y-117930357D01*
X150743080Y-117930357D02*
X150777365Y-117827500D01*
X150777365Y-117827500D02*
X150777365Y-117656071D01*
X150777365Y-118753214D02*
X150777365Y-118341785D01*
X150777365Y-118547500D02*
X150057365Y-118547500D01*
X150057365Y-118547500D02*
X150160222Y-118478928D01*
X150160222Y-118478928D02*
X150228794Y-118410357D01*
X150228794Y-118410357D02*
X150263080Y-118341785D01*
D10*
X141797618Y-142512438D02*
X141892856Y-142464819D01*
X141892856Y-142464819D02*
X142035713Y-142464819D01*
X142035713Y-142464819D02*
X142178570Y-142512438D01*
X142178570Y-142512438D02*
X142273808Y-142607676D01*
X142273808Y-142607676D02*
X142321427Y-142702914D01*
X142321427Y-142702914D02*
X142369046Y-142893390D01*
X142369046Y-142893390D02*
X142369046Y-143036247D01*
X142369046Y-143036247D02*
X142321427Y-143226723D01*
X142321427Y-143226723D02*
X142273808Y-143321961D01*
X142273808Y-143321961D02*
X142178570Y-143417200D01*
X142178570Y-143417200D02*
X142035713Y-143464819D01*
X142035713Y-143464819D02*
X141940475Y-143464819D01*
X141940475Y-143464819D02*
X141797618Y-143417200D01*
X141797618Y-143417200D02*
X141749999Y-143369580D01*
X141749999Y-143369580D02*
X141749999Y-143036247D01*
X141749999Y-143036247D02*
X141940475Y-143036247D01*
X141321427Y-143464819D02*
X141321427Y-142464819D01*
X141321427Y-142464819D02*
X140940475Y-142464819D01*
X140940475Y-142464819D02*
X140845237Y-142512438D01*
X140845237Y-142512438D02*
X140797618Y-142560057D01*
X140797618Y-142560057D02*
X140749999Y-142655295D01*
X140749999Y-142655295D02*
X140749999Y-142798152D01*
X140749999Y-142798152D02*
X140797618Y-142893390D01*
X140797618Y-142893390D02*
X140845237Y-142941009D01*
X140845237Y-142941009D02*
X140940475Y-142988628D01*
X140940475Y-142988628D02*
X141321427Y-142988628D01*
X140321427Y-143464819D02*
X140321427Y-142464819D01*
X139654761Y-142464819D02*
X139464285Y-142464819D01*
X139464285Y-142464819D02*
X139369047Y-142512438D01*
X139369047Y-142512438D02*
X139273809Y-142607676D01*
X139273809Y-142607676D02*
X139226190Y-142798152D01*
X139226190Y-142798152D02*
X139226190Y-143131485D01*
X139226190Y-143131485D02*
X139273809Y-143321961D01*
X139273809Y-143321961D02*
X139369047Y-143417200D01*
X139369047Y-143417200D02*
X139464285Y-143464819D01*
X139464285Y-143464819D02*
X139654761Y-143464819D01*
X139654761Y-143464819D02*
X139749999Y-143417200D01*
X139749999Y-143417200D02*
X139845237Y-143321961D01*
X139845237Y-143321961D02*
X139892856Y-143131485D01*
X139892856Y-143131485D02*
X139892856Y-142798152D01*
X139892856Y-142798152D02*
X139845237Y-142607676D01*
X139845237Y-142607676D02*
X139749999Y-142512438D01*
X139749999Y-142512438D02*
X139654761Y-142464819D01*
X138797618Y-143083866D02*
X138035714Y-143083866D01*
X137607142Y-143179104D02*
X137130952Y-143179104D01*
X137702380Y-143464819D02*
X137369047Y-142464819D01*
X137369047Y-142464819D02*
X137035714Y-143464819D01*
X139204819Y-131406666D02*
X139919104Y-131406666D01*
X139919104Y-131406666D02*
X140061961Y-131359047D01*
X140061961Y-131359047D02*
X140157200Y-131263809D01*
X140157200Y-131263809D02*
X140204819Y-131120952D01*
X140204819Y-131120952D02*
X140204819Y-131025714D01*
X139538152Y-132311428D02*
X140204819Y-132311428D01*
X139157200Y-132073333D02*
X139871485Y-131835238D01*
X139871485Y-131835238D02*
X139871485Y-132454285D01*
X146395238Y-125674819D02*
X146966666Y-125674819D01*
X146680952Y-125674819D02*
X146680952Y-124674819D01*
X146680952Y-124674819D02*
X146776190Y-124817676D01*
X146776190Y-124817676D02*
X146871428Y-124912914D01*
X146871428Y-124912914D02*
X146966666Y-124960533D01*
X145776190Y-124674819D02*
X145680952Y-124674819D01*
X145680952Y-124674819D02*
X145585714Y-124722438D01*
X145585714Y-124722438D02*
X145538095Y-124770057D01*
X145538095Y-124770057D02*
X145490476Y-124865295D01*
X145490476Y-124865295D02*
X145442857Y-125055771D01*
X145442857Y-125055771D02*
X145442857Y-125293866D01*
X145442857Y-125293866D02*
X145490476Y-125484342D01*
X145490476Y-125484342D02*
X145538095Y-125579580D01*
X145538095Y-125579580D02*
X145585714Y-125627200D01*
X145585714Y-125627200D02*
X145680952Y-125674819D01*
X145680952Y-125674819D02*
X145776190Y-125674819D01*
X145776190Y-125674819D02*
X145871428Y-125627200D01*
X145871428Y-125627200D02*
X145919047Y-125579580D01*
X145919047Y-125579580D02*
X145966666Y-125484342D01*
X145966666Y-125484342D02*
X146014285Y-125293866D01*
X146014285Y-125293866D02*
X146014285Y-125055771D01*
X146014285Y-125055771D02*
X145966666Y-124865295D01*
X145966666Y-124865295D02*
X145919047Y-124770057D01*
X145919047Y-124770057D02*
X145871428Y-124722438D01*
X145871428Y-124722438D02*
X145776190Y-124674819D01*
X145014285Y-125674819D02*
X145014285Y-124674819D01*
X144919047Y-125293866D02*
X144633333Y-125674819D01*
X144633333Y-125008152D02*
X145014285Y-125389104D01*
D12*
X145843332Y-124168200D02*
X145929999Y-124044391D01*
X145991904Y-124168200D02*
X145991904Y-123908200D01*
X145991904Y-123908200D02*
X145892856Y-123908200D01*
X145892856Y-123908200D02*
X145868094Y-123920581D01*
X145868094Y-123920581D02*
X145855713Y-123932962D01*
X145855713Y-123932962D02*
X145843332Y-123957724D01*
X145843332Y-123957724D02*
X145843332Y-123994867D01*
X145843332Y-123994867D02*
X145855713Y-124019629D01*
X145855713Y-124019629D02*
X145868094Y-124032010D01*
X145868094Y-124032010D02*
X145892856Y-124044391D01*
X145892856Y-124044391D02*
X145991904Y-124044391D01*
X145595713Y-124168200D02*
X145744285Y-124168200D01*
X145669999Y-124168200D02*
X145669999Y-123908200D01*
X145669999Y-123908200D02*
X145694761Y-123945343D01*
X145694761Y-123945343D02*
X145719523Y-123970105D01*
X145719523Y-123970105D02*
X145744285Y-123982486D01*
D10*
X162169047Y-119652438D02*
X162264285Y-119604819D01*
X162264285Y-119604819D02*
X162407142Y-119604819D01*
X162407142Y-119604819D02*
X162549999Y-119652438D01*
X162549999Y-119652438D02*
X162645237Y-119747676D01*
X162645237Y-119747676D02*
X162692856Y-119842914D01*
X162692856Y-119842914D02*
X162740475Y-120033390D01*
X162740475Y-120033390D02*
X162740475Y-120176247D01*
X162740475Y-120176247D02*
X162692856Y-120366723D01*
X162692856Y-120366723D02*
X162645237Y-120461961D01*
X162645237Y-120461961D02*
X162549999Y-120557200D01*
X162549999Y-120557200D02*
X162407142Y-120604819D01*
X162407142Y-120604819D02*
X162311904Y-120604819D01*
X162311904Y-120604819D02*
X162169047Y-120557200D01*
X162169047Y-120557200D02*
X162121428Y-120509580D01*
X162121428Y-120509580D02*
X162121428Y-120176247D01*
X162121428Y-120176247D02*
X162311904Y-120176247D01*
X161692856Y-120604819D02*
X161692856Y-119604819D01*
X161692856Y-119604819D02*
X161311904Y-119604819D01*
X161311904Y-119604819D02*
X161216666Y-119652438D01*
X161216666Y-119652438D02*
X161169047Y-119700057D01*
X161169047Y-119700057D02*
X161121428Y-119795295D01*
X161121428Y-119795295D02*
X161121428Y-119938152D01*
X161121428Y-119938152D02*
X161169047Y-120033390D01*
X161169047Y-120033390D02*
X161216666Y-120081009D01*
X161216666Y-120081009D02*
X161311904Y-120128628D01*
X161311904Y-120128628D02*
X161692856Y-120128628D01*
X160692856Y-120604819D02*
X160692856Y-119604819D01*
X160026190Y-119604819D02*
X159835714Y-119604819D01*
X159835714Y-119604819D02*
X159740476Y-119652438D01*
X159740476Y-119652438D02*
X159645238Y-119747676D01*
X159645238Y-119747676D02*
X159597619Y-119938152D01*
X159597619Y-119938152D02*
X159597619Y-120271485D01*
X159597619Y-120271485D02*
X159645238Y-120461961D01*
X159645238Y-120461961D02*
X159740476Y-120557200D01*
X159740476Y-120557200D02*
X159835714Y-120604819D01*
X159835714Y-120604819D02*
X160026190Y-120604819D01*
X160026190Y-120604819D02*
X160121428Y-120557200D01*
X160121428Y-120557200D02*
X160216666Y-120461961D01*
X160216666Y-120461961D02*
X160264285Y-120271485D01*
X160264285Y-120271485D02*
X160264285Y-119938152D01*
X160264285Y-119938152D02*
X160216666Y-119747676D01*
X160216666Y-119747676D02*
X160121428Y-119652438D01*
X160121428Y-119652438D02*
X160026190Y-119604819D01*
X159169047Y-120223866D02*
X158407143Y-120223866D01*
X157359524Y-120509580D02*
X157407143Y-120557200D01*
X157407143Y-120557200D02*
X157550000Y-120604819D01*
X157550000Y-120604819D02*
X157645238Y-120604819D01*
X157645238Y-120604819D02*
X157788095Y-120557200D01*
X157788095Y-120557200D02*
X157883333Y-120461961D01*
X157883333Y-120461961D02*
X157930952Y-120366723D01*
X157930952Y-120366723D02*
X157978571Y-120176247D01*
X157978571Y-120176247D02*
X157978571Y-120033390D01*
X157978571Y-120033390D02*
X157930952Y-119842914D01*
X157930952Y-119842914D02*
X157883333Y-119747676D01*
X157883333Y-119747676D02*
X157788095Y-119652438D01*
X157788095Y-119652438D02*
X157645238Y-119604819D01*
X157645238Y-119604819D02*
X157550000Y-119604819D01*
X157550000Y-119604819D02*
X157407143Y-119652438D01*
X157407143Y-119652438D02*
X157359524Y-119700057D01*
X159504819Y-108546666D02*
X160219104Y-108546666D01*
X160219104Y-108546666D02*
X160361961Y-108499047D01*
X160361961Y-108499047D02*
X160457200Y-108403809D01*
X160457200Y-108403809D02*
X160504819Y-108260952D01*
X160504819Y-108260952D02*
X160504819Y-108165714D01*
X159504819Y-109451428D02*
X159504819Y-109260952D01*
X159504819Y-109260952D02*
X159552438Y-109165714D01*
X159552438Y-109165714D02*
X159600057Y-109118095D01*
X159600057Y-109118095D02*
X159742914Y-109022857D01*
X159742914Y-109022857D02*
X159933390Y-108975238D01*
X159933390Y-108975238D02*
X160314342Y-108975238D01*
X160314342Y-108975238D02*
X160409580Y-109022857D01*
X160409580Y-109022857D02*
X160457200Y-109070476D01*
X160457200Y-109070476D02*
X160504819Y-109165714D01*
X160504819Y-109165714D02*
X160504819Y-109356190D01*
X160504819Y-109356190D02*
X160457200Y-109451428D01*
X160457200Y-109451428D02*
X160409580Y-109499047D01*
X160409580Y-109499047D02*
X160314342Y-109546666D01*
X160314342Y-109546666D02*
X160076247Y-109546666D01*
X160076247Y-109546666D02*
X159981009Y-109499047D01*
X159981009Y-109499047D02*
X159933390Y-109451428D01*
X159933390Y-109451428D02*
X159885771Y-109356190D01*
X159885771Y-109356190D02*
X159885771Y-109165714D01*
X159885771Y-109165714D02*
X159933390Y-109070476D01*
X159933390Y-109070476D02*
X159981009Y-109022857D01*
X159981009Y-109022857D02*
X160076247Y-108975238D01*
X152211904Y-107200057D02*
X152164285Y-107152438D01*
X152164285Y-107152438D02*
X152069047Y-107104819D01*
X152069047Y-107104819D02*
X151830952Y-107104819D01*
X151830952Y-107104819D02*
X151735714Y-107152438D01*
X151735714Y-107152438D02*
X151688095Y-107200057D01*
X151688095Y-107200057D02*
X151640476Y-107295295D01*
X151640476Y-107295295D02*
X151640476Y-107390533D01*
X151640476Y-107390533D02*
X151688095Y-107533390D01*
X151688095Y-107533390D02*
X152259523Y-108104819D01*
X152259523Y-108104819D02*
X151640476Y-108104819D01*
X150735714Y-107104819D02*
X151211904Y-107104819D01*
X151211904Y-107104819D02*
X151259523Y-107581009D01*
X151259523Y-107581009D02*
X151211904Y-107533390D01*
X151211904Y-107533390D02*
X151116666Y-107485771D01*
X151116666Y-107485771D02*
X150878571Y-107485771D01*
X150878571Y-107485771D02*
X150783333Y-107533390D01*
X150783333Y-107533390D02*
X150735714Y-107581009D01*
X150735714Y-107581009D02*
X150688095Y-107676247D01*
X150688095Y-107676247D02*
X150688095Y-107914342D01*
X150688095Y-107914342D02*
X150735714Y-108009580D01*
X150735714Y-108009580D02*
X150783333Y-108057200D01*
X150783333Y-108057200D02*
X150878571Y-108104819D01*
X150878571Y-108104819D02*
X151116666Y-108104819D01*
X151116666Y-108104819D02*
X151211904Y-108057200D01*
X151211904Y-108057200D02*
X151259523Y-108009580D01*
X150259523Y-108104819D02*
X150259523Y-107104819D01*
X150259523Y-107104819D02*
X149926190Y-107819104D01*
X149926190Y-107819104D02*
X149592857Y-107104819D01*
X149592857Y-107104819D02*
X149592857Y-108104819D01*
X149116666Y-108104819D02*
X149116666Y-107104819D01*
X149116666Y-107581009D02*
X148545238Y-107581009D01*
X148545238Y-108104819D02*
X148545238Y-107104819D01*
X148164285Y-107438152D02*
X147640476Y-107438152D01*
X147640476Y-107438152D02*
X148164285Y-108104819D01*
X148164285Y-108104819D02*
X147640476Y-108104819D01*
X150426190Y-104828628D02*
X150426190Y-105304819D01*
X150759523Y-104304819D02*
X150426190Y-104828628D01*
X150426190Y-104828628D02*
X150092857Y-104304819D01*
X149235714Y-105304819D02*
X149807142Y-105304819D01*
X149521428Y-105304819D02*
X149521428Y-104304819D01*
X149521428Y-104304819D02*
X149616666Y-104447676D01*
X149616666Y-104447676D02*
X149711904Y-104542914D01*
X149711904Y-104542914D02*
X149807142Y-104590533D01*
D13*
%TO.C,U2*%
X150850000Y-113337500D02*
X149650000Y-113337500D01*
X149650000Y-116237500D01*
X151250000Y-116237500D01*
X151250000Y-113737500D01*
X150850000Y-113337500D01*
%TO.C,C2*%
X147250000Y-102000000D02*
X148250000Y-102000000D01*
X148250000Y-102500000D01*
X147250000Y-102500000D01*
X147250000Y-102000000D01*
%TO.C,R13*%
X146930000Y-123275000D02*
X147470000Y-123275000D01*
X147470000Y-124325000D01*
X146930000Y-124325000D01*
X146930000Y-123275000D01*
%TO.C,C15*%
X150450000Y-123750000D02*
X151450000Y-123750000D01*
X151450000Y-124250000D01*
X150450000Y-124250000D01*
X150450000Y-123750000D01*
%TO.C,R12*%
X154580000Y-123275000D02*
X155120000Y-123275000D01*
X155120000Y-124325000D01*
X154580000Y-124325000D01*
X154580000Y-123275000D01*
%TO.C,C8*%
X149400000Y-102000000D02*
X150400000Y-102000000D01*
X150400000Y-102500000D01*
X149400000Y-102500000D01*
X149400000Y-102000000D01*
%TO.C,J2*%
X143005000Y-125760000D02*
X156855000Y-125760000D01*
X143005000Y-141710000D02*
X143005000Y-125760000D01*
X144445000Y-141710000D02*
X143005000Y-141710000D01*
X144645000Y-141910000D02*
X144445000Y-141710000D01*
X144645000Y-141910000D02*
X146895000Y-141910000D01*
X144855000Y-146810000D02*
X144855000Y-141910000D01*
X146895000Y-141910000D02*
X147420000Y-141560000D01*
X147420000Y-141560000D02*
X153845000Y-141560000D01*
X153845000Y-141710000D02*
X153845000Y-141560000D01*
X153845000Y-141710000D02*
X154045000Y-141910000D01*
X154045000Y-141910000D02*
X155845000Y-141910000D01*
X155355000Y-143310000D02*
X145355000Y-143310000D01*
X155355000Y-147310000D02*
X145355000Y-147310000D01*
X155845000Y-141910000D02*
X156045000Y-141710000D01*
X155855000Y-141910000D02*
X155855000Y-146810000D01*
X156045000Y-141710000D02*
X156855000Y-141710000D01*
X156855000Y-141710000D02*
X156855000Y-125760000D01*
X145355000Y-143310000D02*
G75*
G02*
X144855000Y-142810000I0J500000D01*
G01*
X145355000Y-147310000D02*
G75*
G02*
X144855000Y-146810000I0J500000D01*
G01*
X155855000Y-142810000D02*
G75*
G02*
X155355000Y-143310000I-500001J1D01*
G01*
X155855000Y-146810000D02*
G75*
G02*
X155355000Y-147310000I-500001J1D01*
G01*
%TO.C,J5*%
X158780000Y-121580000D02*
X158780000Y-141900000D01*
X158780000Y-141900000D02*
X161320000Y-141900000D01*
X160685000Y-121580000D02*
X158780000Y-121580000D01*
X161320000Y-122215000D02*
X160685000Y-121580000D01*
X161320000Y-141900000D02*
X161320000Y-122215000D01*
%TO.C,J7*%
X138480000Y-98720000D02*
X138480000Y-119040000D01*
X138480000Y-119040000D02*
X141020000Y-119040000D01*
X140385000Y-98720000D02*
X138480000Y-98720000D01*
X141020000Y-99355000D02*
X140385000Y-98720000D01*
X141020000Y-119040000D02*
X141020000Y-99355000D01*
%TO.C,C1*%
X151800000Y-102000000D02*
X152800000Y-102000000D01*
X152800000Y-102500000D01*
X151800000Y-102500000D01*
X151800000Y-102000000D01*
%TO.C,D1*%
X150850000Y-116737500D02*
X149650000Y-116737500D01*
X149650000Y-119637500D01*
X151250000Y-119637500D01*
X151250000Y-117137500D01*
X150850000Y-116737500D01*
%TO.C,J4*%
X138480000Y-121580000D02*
X138480000Y-141900000D01*
X138480000Y-141900000D02*
X141020000Y-141900000D01*
X140385000Y-121580000D02*
X138480000Y-121580000D01*
X141020000Y-122215000D02*
X140385000Y-121580000D01*
X141020000Y-141900000D02*
X141020000Y-122215000D01*
%TO.C,R1*%
X145275000Y-123780000D02*
X146325000Y-123780000D01*
X146325000Y-124320000D01*
X145275000Y-124320000D01*
X145275000Y-123780000D01*
%TO.C,J6*%
X158780000Y-98720000D02*
X158780000Y-119040000D01*
X158780000Y-119040000D02*
X161320000Y-119040000D01*
X160685000Y-98720000D02*
X158780000Y-98720000D01*
X161320000Y-99355000D02*
X160685000Y-98720000D01*
X161320000Y-119040000D02*
X161320000Y-99355000D01*
%TO.C,Y1*%
X147450000Y-103250000D02*
X147450000Y-106450000D01*
X151650000Y-106450000D01*
X152450000Y-105650000D01*
X152450000Y-103250000D01*
X147450000Y-103250000D01*
%TD*%
M02*
