%TF.GenerationSoftware,KiCad,Pcbnew,10.0.4*%
%TF.CreationDate,2026-09-15T18:50:24-04:00*%
%TF.ProjectId,devboard,64657662-6f61-4726-942e-6b696361645f,rev?*%
%TF.SameCoordinates,Original*%
%TF.FileFunction,Copper,L3,Inr*%
%TF.FilePolarity,Positive*%
%FSLAX46Y46*%
G04 Gerber Fmt 4.6, Leading zero omitted, Abs format (unit mm)*
G04 Created by KiCad (PCBNEW 10.0.4) date 2026-09-15 18:50:24*
%MOMM*%
%LPD*%
G01*
G04 APERTURE LIST*
%TA.AperFunction,ComponentPad*%
%ADD10O,1.000000X2.100000*%
%TD*%
%TA.AperFunction,ComponentPad*%
%ADD11O,1.000000X1.800000*%
%TD*%
%TA.AperFunction,ComponentPad*%
%ADD12R,1.700000X1.700000*%
%TD*%
%TA.AperFunction,ComponentPad*%
%ADD13C,1.700000*%
%TD*%
%TA.AperFunction,ViaPad*%
%ADD14C,0.600000*%
%TD*%
%TA.AperFunction,Conductor*%
%ADD15C,0.200000*%
%TD*%
G04 APERTURE END LIST*
D10*
%TO.N,GND*%
%TO.C,J1*%
X154370000Y-107775000D03*
D11*
X154370000Y-103595000D03*
D10*
X145730000Y-107775000D03*
D11*
X145730000Y-103595000D03*
%TD*%
D12*
%TO.N,PA10*%
%TO.C,J5*%
X160050000Y-122850000D03*
D13*
%TO.N,PA15*%
X160050000Y-125390000D03*
%TO.N,PB0*%
X160050000Y-127930000D03*
%TO.N,PB1*%
X160050000Y-130470000D03*
%TO.N,PB2*%
X160050000Y-133010000D03*
%TO.N,PB3*%
X160050000Y-135550000D03*
%TO.N,PB4*%
X160050000Y-138090000D03*
%TO.N,PB5*%
X160050000Y-140630000D03*
%TD*%
D12*
%TO.N,3v3*%
%TO.C,J7*%
X139750000Y-99990000D03*
D13*
%TO.N,SWDIO*%
X139750000Y-102530000D03*
%TO.N,SWCLK*%
X139750000Y-105070000D03*
%TO.N,GND*%
X139750000Y-107610000D03*
%TO.N,NRST*%
X139750000Y-110150000D03*
%TO.N,VBUS*%
X139750000Y-112690000D03*
%TO.N,BOOT0_NET*%
X139750000Y-115230000D03*
%TO.N,USER_BTN*%
X139750000Y-117770000D03*
%TD*%
D12*
%TO.N,PA1*%
%TO.C,J4*%
X139750000Y-122850000D03*
D13*
%TO.N,PA2*%
X139750000Y-125390000D03*
%TO.N,PA3*%
X139750000Y-127930000D03*
%TO.N,PA4*%
X139750000Y-130470000D03*
%TO.N,PA5*%
X139750000Y-133010000D03*
%TO.N,PA6*%
X139750000Y-135550000D03*
%TO.N,PA7*%
X139750000Y-138090000D03*
%TO.N,PA8*%
X139750000Y-140630000D03*
%TD*%
D12*
%TO.N,PB6*%
%TO.C,J6*%
X160050000Y-99990000D03*
D13*
%TO.N,PB7*%
X160050000Y-102530000D03*
%TO.N,PB9*%
X160050000Y-105070000D03*
%TO.N,PB10*%
X160050000Y-107610000D03*
%TO.N,PC14*%
X160050000Y-110150000D03*
%TO.N,PC15*%
X160050000Y-112690000D03*
%TO.N,3v3*%
X160050000Y-115230000D03*
%TO.N,GND*%
X160050000Y-117770000D03*
%TD*%
D14*
%TO.N,VBUS*%
X144700000Y-109125000D03*
X154650000Y-113550000D03*
%TO.N,GND*%
X144150000Y-116600000D03*
X147400000Y-121987554D03*
X149725000Y-110625000D03*
X146950000Y-110675000D03*
X147950000Y-113750000D03*
X152300000Y-127250000D03*
X155850000Y-141000000D03*
X149050000Y-101900000D03*
X155825000Y-131175000D03*
X147550000Y-117062500D03*
X150800000Y-114800000D03*
X155125000Y-120825000D03*
X152650000Y-102950000D03*
X150800000Y-118187500D03*
X146900000Y-102750000D03*
X144000000Y-118500000D03*
X155725000Y-113425000D03*
X144150000Y-139750000D03*
X145075000Y-125175000D03*
%TO.N,3v3*%
X142000000Y-110350000D03*
X153100000Y-130100000D03*
X156500000Y-117950000D03*
X150450000Y-101800000D03*
X146950000Y-113050000D03*
X150450000Y-124350000D03*
X153637500Y-113237500D03*
X145550000Y-111900000D03*
X153200000Y-119750000D03*
X143900000Y-123650000D03*
X156500000Y-119350000D03*
X154950000Y-121800000D03*
X143700000Y-137050000D03*
X145250000Y-130600000D03*
X148630000Y-110293297D03*
X157200000Y-126000000D03*
X147700000Y-123550000D03*
X157350000Y-120950000D03*
X143548481Y-117839595D03*
%TO.N,BOOT0_NET*%
X149450000Y-111410000D03*
%TO.N,USER_BTN*%
X144800000Y-136600000D03*
X145360000Y-118600000D03*
%TO.N,SD_CS*%
X154450000Y-119400000D03*
%TO.N,VDDA*%
X144850000Y-121950000D03*
X145610000Y-117568527D03*
%TO.N,SD_CD*%
X148679592Y-111797713D03*
X156102500Y-127797500D03*
%TO.N,PC14*%
X143095983Y-114852544D03*
X145087325Y-114506611D03*
%TO.N,PC15*%
X144295983Y-114624005D03*
%TO.N,OSC_IN*%
X144101473Y-115400000D03*
%TO.N,OSC_OUT*%
X143578046Y-116040650D03*
%TO.N,NRST*%
X152300000Y-122000000D03*
X145570199Y-124435548D03*
X146050000Y-122150000D03*
X145590000Y-116740000D03*
%TO.N,PA1*%
X144900000Y-119400000D03*
%TO.N,PA2*%
X145412149Y-120014579D03*
%TO.N,PA3*%
X146105646Y-120413409D03*
%TO.N,PA4*%
X146942560Y-120505970D03*
%TO.N,PA5*%
X147540572Y-121200000D03*
%TO.N,PA6*%
X148850000Y-120748527D03*
%TO.N,PA7*%
X149226553Y-121476553D03*
%TO.N,PB0*%
X152924896Y-124250000D03*
%TO.N,PB1*%
X150879818Y-121128348D03*
X152650000Y-123350000D03*
%TO.N,PB2*%
X151656001Y-121322101D03*
X150950000Y-128600000D03*
X148970249Y-122234387D03*
%TO.N,PB10*%
X143020000Y-113936464D03*
X152589173Y-121087500D03*
%TO.N,SD_SCK*%
X156650000Y-124300000D03*
X151650000Y-124850000D03*
X157215544Y-118992228D03*
%TO.N,SD_MISO*%
X155040000Y-117950000D03*
%TO.N,SD_MOSI*%
X149350000Y-124450000D03*
X157250000Y-125150000D03*
X157186955Y-117540004D03*
%TO.N,PA8*%
X156961999Y-116772284D03*
%TO.N,PA10*%
X156087224Y-115950000D03*
%TO.N,USB_DM*%
X155800000Y-108800000D03*
X157700000Y-109850000D03*
X149600000Y-109450000D03*
X155442348Y-115476570D03*
%TO.N,USB_DP*%
X150100000Y-107250000D03*
X156800000Y-114750000D03*
X155276116Y-114694029D03*
%TO.N,SWDIO*%
X154500000Y-114500000D03*
%TO.N,SWCLK*%
X153656996Y-112030430D03*
%TO.N,PA15*%
X153091309Y-111464742D03*
X156450000Y-111550000D03*
%TO.N,PB3*%
X156954279Y-112391534D03*
X152292427Y-111422471D03*
%TO.N,PB4*%
X157325000Y-113610782D03*
X152098413Y-110646354D03*
%TO.N,PB5*%
X157607763Y-114459233D03*
X151301479Y-110716360D03*
%TO.N,PB6*%
X150505788Y-110799282D03*
%TO.N,PB7*%
X150269951Y-111565345D03*
X142293768Y-113600917D03*
%TO.N,PB9*%
X143020000Y-111478527D03*
X147695786Y-111686902D03*
%TD*%
%TO.N,VBUS*%
D15*
X141100000Y-111340000D02*
X141100000Y-109468630D01*
X141443630Y-109125000D02*
X144700000Y-109125000D01*
X141100000Y-109468630D02*
X141443630Y-109125000D01*
X139750000Y-112690000D02*
X141100000Y-111340000D01*
%TO.N,GND*%
X149386471Y-110625000D02*
X149725000Y-110625000D01*
X146950000Y-110675000D02*
X147168297Y-110893297D01*
X149118174Y-110893297D02*
X149386471Y-110625000D01*
X147168297Y-110893297D02*
X149118174Y-110893297D01*
%TO.N,3v3*%
X145225995Y-112424005D02*
X142418320Y-112424005D01*
X142418320Y-112424005D02*
X142000000Y-112005685D01*
X145550000Y-111900000D02*
X145550000Y-112100000D01*
X154950000Y-121800000D02*
X154950000Y-123750000D01*
X154950000Y-121800000D02*
X154998529Y-121800000D01*
X142275000Y-110075000D02*
X142000000Y-110350000D01*
X154950000Y-121800000D02*
X154950000Y-121500000D01*
X156500000Y-119350000D02*
X156500000Y-117950000D01*
X142000000Y-112005685D02*
X142000000Y-110350000D01*
X145550000Y-112100000D02*
X145225995Y-112424005D01*
X156500000Y-119350000D02*
X157350000Y-120200000D01*
X154998529Y-121800000D02*
X156500000Y-120298529D01*
X157350000Y-120200000D02*
X157350000Y-120950000D01*
X148630000Y-110293297D02*
X148411703Y-110075000D01*
X148411703Y-110075000D02*
X142275000Y-110075000D01*
X154950000Y-123750000D02*
X157200000Y-126000000D01*
X156500000Y-120298529D02*
X156500000Y-119350000D01*
X154950000Y-121500000D02*
X153200000Y-119750000D01*
%TO.N,BOOT0_NET*%
X145457051Y-112824005D02*
X141975995Y-112824005D01*
X147498529Y-113350000D02*
X147198529Y-113650000D01*
X141975995Y-112824005D02*
X139750000Y-115050000D01*
X149450000Y-111410000D02*
X149450000Y-111875834D01*
X146283046Y-113650000D02*
X145457051Y-112824005D01*
X147198529Y-113650000D02*
X146283046Y-113650000D01*
X147501471Y-113350000D02*
X147498529Y-113350000D01*
X139750000Y-115050000D02*
X139750000Y-115230000D01*
X148175834Y-113150000D02*
X147701471Y-113150000D01*
X149450000Y-111875834D02*
X148175834Y-113150000D01*
X147701471Y-113150000D02*
X147501471Y-113350000D01*
%TO.N,USER_BTN*%
X144750000Y-116850000D02*
X144360405Y-117239595D01*
X139273654Y-141780000D02*
X140226346Y-141780000D01*
X144800000Y-137206346D02*
X144800000Y-136600000D01*
X140226346Y-141780000D02*
X144800000Y-137206346D01*
X140280405Y-117239595D02*
X139750000Y-117770000D01*
X145840000Y-116140000D02*
X145838529Y-116140000D01*
X145341471Y-116140000D02*
X144750000Y-116731471D01*
X144360405Y-117239595D02*
X140280405Y-117239595D01*
X146300000Y-116601471D02*
X145838529Y-116140000D01*
X138600000Y-118920000D02*
X138600000Y-141106346D01*
X139750000Y-117770000D02*
X138600000Y-118920000D01*
X146300000Y-117727056D02*
X146300000Y-116601471D01*
X145427056Y-118600000D02*
X146300000Y-117727056D01*
X145360000Y-118600000D02*
X145427056Y-118600000D01*
X145838529Y-116140000D02*
X145341471Y-116140000D01*
X144750000Y-116731471D02*
X144750000Y-116850000D01*
X138600000Y-141106346D02*
X139273654Y-141780000D01*
%TO.N,PC14*%
X144604719Y-114024005D02*
X145087325Y-114506611D01*
X143197456Y-114852544D02*
X144025995Y-114024005D01*
X143095983Y-114852544D02*
X143197456Y-114852544D01*
X144025995Y-114024005D02*
X144604719Y-114024005D01*
%TO.N,NRST*%
X144600000Y-118750000D02*
X144600000Y-117730000D01*
X145570199Y-124435548D02*
X145570199Y-123720199D01*
X145010000Y-117319998D02*
X145590000Y-116740000D01*
X144600000Y-117730000D02*
X145010000Y-117320000D01*
X145010000Y-117320000D02*
X145010000Y-117319998D01*
X144250000Y-122400000D02*
X144250000Y-119100000D01*
X144250000Y-119100000D02*
X144600000Y-118750000D01*
X145570199Y-123720199D02*
X144250000Y-122400000D01*
X145687325Y-116642675D02*
X145590000Y-116740000D01*
%TO.N,PA4*%
X143530000Y-130470000D02*
X146800000Y-127200000D01*
X139750000Y-130470000D02*
X143530000Y-130470000D01*
X146800000Y-120648530D02*
X146942560Y-120505970D01*
X146800000Y-127200000D02*
X146800000Y-120648530D01*
%TO.N,PA6*%
X141724314Y-135550000D02*
X139750000Y-135550000D01*
X148370250Y-128904064D02*
X141724314Y-135550000D01*
X148370250Y-121228277D02*
X148370250Y-128904064D01*
X148850000Y-120748527D02*
X148370250Y-121228277D01*
%TO.N,PA7*%
X151050000Y-126790000D02*
X139750000Y-138090000D01*
X149569601Y-122029101D02*
X151050000Y-123509500D01*
X149226553Y-121476553D02*
X149569601Y-121819601D01*
X151050000Y-123509500D02*
X151050000Y-126790000D01*
X149569601Y-121819601D02*
X149569601Y-122029101D01*
%TO.N,PB0*%
X153600000Y-124250000D02*
X157280000Y-127930000D01*
X157280000Y-127930000D02*
X160050000Y-127930000D01*
X152924896Y-124250000D02*
X153600000Y-124250000D01*
%TO.N,PB1*%
X152650000Y-123350000D02*
X153265686Y-123350000D01*
X160526346Y-126780000D02*
X161200000Y-127453654D01*
X156695685Y-126780000D02*
X160526346Y-126780000D01*
X153265686Y-123350000D02*
X156695685Y-126780000D01*
X161200000Y-127453654D02*
X161200000Y-129320000D01*
X161200000Y-129320000D02*
X160050000Y-130470000D01*
%TO.N,PB2*%
X160050000Y-133010000D02*
X155640000Y-128600000D01*
X155640000Y-128600000D02*
X150950000Y-128600000D01*
%TO.N,PB10*%
X152589173Y-121087499D02*
X152589173Y-121087500D01*
X143332459Y-113624005D02*
X145125679Y-113624005D01*
X145125679Y-113624005D02*
X152589173Y-121087499D01*
X143020000Y-113936464D02*
X143332459Y-113624005D01*
%TO.N,PA8*%
X153150000Y-120350000D02*
X152951471Y-120350000D01*
X152600000Y-119998529D02*
X152600000Y-119501471D01*
X152951471Y-120350000D02*
X152600000Y-119998529D01*
X151450000Y-126955685D02*
X151450000Y-125950000D01*
X152600000Y-119501471D02*
X152951471Y-119150000D01*
X155369187Y-116772284D02*
X156961999Y-116772284D01*
X151850000Y-124201471D02*
X151850000Y-123800000D01*
X153189173Y-122460827D02*
X153189173Y-120838971D01*
X153150000Y-120799798D02*
X153150000Y-120350000D01*
X139750000Y-140630000D02*
X140900000Y-139480000D01*
X152401471Y-122750000D02*
X152898529Y-122750000D01*
X152050736Y-123599264D02*
X152050000Y-123598529D01*
X152050000Y-123101471D02*
X152401471Y-122750000D01*
X151850000Y-123800000D02*
X152050736Y-123599264D01*
X153150000Y-118991471D02*
X155369187Y-116772284D01*
X152050000Y-123598529D02*
X152050000Y-123101471D01*
X152200000Y-125200000D02*
X152200000Y-125148529D01*
X152250000Y-124601471D02*
X151850000Y-124201471D01*
X152951471Y-119150000D02*
X153150000Y-119150000D01*
X152250000Y-125098529D02*
X152250000Y-124601471D01*
X140900000Y-139480000D02*
X140900000Y-137505685D01*
X152898529Y-122750000D02*
X152899265Y-122750735D01*
X152899265Y-122750735D02*
X153189173Y-122460827D01*
X140900000Y-137505685D02*
X151450000Y-126955685D01*
X152200000Y-125148529D02*
X152250000Y-125098529D01*
X151450000Y-125950000D02*
X152200000Y-125200000D01*
X153189173Y-120838971D02*
X153150000Y-120799798D01*
X153150000Y-119150000D02*
X153150000Y-118991471D01*
%TO.N,PA10*%
X156988244Y-115950000D02*
X156087224Y-115950000D01*
X157786955Y-118336955D02*
X157786955Y-116748711D01*
X160050000Y-120600000D02*
X157786955Y-118336955D01*
X157786955Y-116748711D02*
X156988244Y-115950000D01*
X160050000Y-122850000D02*
X160050000Y-120600000D01*
%TO.N,USB_DP*%
X157856292Y-115059233D02*
X157359234Y-115059233D01*
X150100000Y-107250000D02*
X150965686Y-107250000D01*
X157050001Y-114750000D02*
X156800000Y-114750000D01*
X158200000Y-111350000D02*
X158200000Y-114202941D01*
X150965686Y-107250000D02*
X153365686Y-109650000D01*
X157359234Y-115059233D02*
X157050001Y-114750000D01*
X158207763Y-114210704D02*
X158207763Y-114707762D01*
X158200000Y-114202941D02*
X158207763Y-114210704D01*
X153365686Y-109650000D02*
X156500000Y-109650000D01*
X158207763Y-114707762D02*
X157856292Y-115059233D01*
X156500000Y-109650000D02*
X158200000Y-111350000D01*
%TO.N,SWDIO*%
X154256996Y-111781901D02*
X154256996Y-112255525D01*
X155123529Y-114025000D02*
X154998529Y-114150000D01*
X150998529Y-107850000D02*
X154091309Y-110942781D01*
X156325000Y-113176470D02*
X156325000Y-113673529D01*
X146796471Y-104795000D02*
X149851471Y-107850000D01*
X156325000Y-113673529D02*
X155973529Y-114025000D01*
X142015000Y-104795000D02*
X146796471Y-104795000D01*
X154091309Y-110942781D02*
X154091309Y-111616214D01*
X154256996Y-112255525D02*
X154807220Y-112805749D01*
X154807220Y-112805749D02*
X155954279Y-112805749D01*
X154091309Y-111616214D02*
X154256996Y-111781901D01*
X139750000Y-102530000D02*
X142015000Y-104795000D01*
X155954279Y-112805749D02*
X156325000Y-113176470D01*
X154850000Y-114150000D02*
X154500000Y-114500000D01*
X149851471Y-107850000D02*
X150998529Y-107850000D01*
X155973529Y-114025000D02*
X155123529Y-114025000D01*
X154998529Y-114150000D02*
X154850000Y-114150000D01*
%TO.N,SWCLK*%
X139750000Y-105070000D02*
X139875000Y-105195000D01*
X146630785Y-105195000D02*
X149685786Y-108250000D01*
X149685786Y-108250000D02*
X150832843Y-108250000D01*
X153691309Y-111108466D02*
X153691309Y-111996117D01*
X153691309Y-111996117D02*
X153656996Y-112030430D01*
X139875000Y-105195000D02*
X146630785Y-105195000D01*
X150832843Y-108250000D02*
X153691309Y-111108466D01*
%TO.N,PA15*%
X158220000Y-118204314D02*
X158220000Y-116620000D01*
X156354279Y-112640063D02*
X156354279Y-111645721D01*
X158220000Y-116620000D02*
X158186955Y-116586955D01*
X156535753Y-115550000D02*
X156139215Y-115153462D01*
X161200000Y-121700000D02*
X161050000Y-121700000D01*
X158186955Y-116583025D02*
X157153929Y-115550000D01*
X160050000Y-125390000D02*
X161200000Y-124240000D01*
X161050000Y-121700000D02*
X160450000Y-121100000D01*
X156139215Y-114425000D02*
X156725000Y-113839215D01*
X156354279Y-111645721D02*
X156450000Y-111550000D01*
X156725000Y-113010784D02*
X156354279Y-112640063D01*
X160450000Y-121100000D02*
X160450000Y-120434314D01*
X160450000Y-120434314D02*
X158220000Y-118204314D01*
X161200000Y-124240000D02*
X161200000Y-121700000D01*
X156139215Y-115153462D02*
X156139215Y-114425000D01*
X157153929Y-115550000D02*
X156535753Y-115550000D01*
X156725000Y-113839215D02*
X156725000Y-113010784D01*
X158186955Y-116586955D02*
X158186955Y-116583025D01*
%TO.N,PB7*%
X142293768Y-113600917D02*
X142670680Y-113224005D01*
X142670680Y-113224005D02*
X145291365Y-113224005D01*
X145291365Y-113224005D02*
X146467360Y-114400000D01*
X146467360Y-114400000D02*
X148148529Y-114400000D01*
X148148529Y-114400000D02*
X150269951Y-112278578D01*
X150269951Y-112278578D02*
X150269951Y-111565345D01*
%TO.N,PB9*%
X145301471Y-111300000D02*
X145798529Y-111300000D01*
X145101471Y-111500000D02*
X145301471Y-111300000D01*
X147695786Y-111682574D02*
X147695786Y-111686902D01*
X145798529Y-111300000D02*
X145998529Y-111500000D01*
X143100000Y-111500000D02*
X145101471Y-111500000D01*
X147513212Y-111500000D02*
X147695786Y-111682574D01*
X145998529Y-111500000D02*
X147513212Y-111500000D01*
X143078527Y-111478527D02*
X143100000Y-111500000D01*
X143020000Y-111478527D02*
X143078527Y-111478527D01*
%TD*%
%TA.AperFunction,Conductor*%
%TO.N,3v3*%
G36*
X150279754Y-129077679D02*
G01*
X150324101Y-129106180D01*
X150439707Y-129221786D01*
X150439711Y-129221789D01*
X150570814Y-129309390D01*
X150570827Y-129309397D01*
X150716498Y-129369735D01*
X150716503Y-129369737D01*
X150871153Y-129400499D01*
X150871156Y-129400500D01*
X150871158Y-129400500D01*
X151028844Y-129400500D01*
X151028845Y-129400499D01*
X151183497Y-129369737D01*
X151326543Y-129310486D01*
X151329172Y-129309397D01*
X151329172Y-129309396D01*
X151329179Y-129309394D01*
X151399343Y-129262512D01*
X151460875Y-129221398D01*
X151527553Y-129200520D01*
X151529766Y-129200500D01*
X155339903Y-129200500D01*
X155406942Y-129220185D01*
X155427584Y-129236819D01*
X158716241Y-132525476D01*
X158749726Y-132586799D01*
X158746492Y-132651473D01*
X158732753Y-132693757D01*
X158699500Y-132903713D01*
X158699500Y-133116286D01*
X158732753Y-133326239D01*
X158798444Y-133528414D01*
X158894951Y-133717820D01*
X159019890Y-133889786D01*
X159170213Y-134040109D01*
X159342182Y-134165050D01*
X159350946Y-134169516D01*
X159401742Y-134217491D01*
X159418536Y-134285312D01*
X159395998Y-134351447D01*
X159350946Y-134390484D01*
X159342182Y-134394949D01*
X159170213Y-134519890D01*
X159019890Y-134670213D01*
X158894951Y-134842179D01*
X158798444Y-135031585D01*
X158732753Y-135233760D01*
X158699500Y-135443713D01*
X158699500Y-135656287D01*
X158732754Y-135866243D01*
X158769135Y-135978213D01*
X158798444Y-136068414D01*
X158894951Y-136257820D01*
X159019890Y-136429786D01*
X159170213Y-136580109D01*
X159342182Y-136705050D01*
X159350946Y-136709516D01*
X159401742Y-136757491D01*
X159418536Y-136825312D01*
X159395998Y-136891447D01*
X159350946Y-136930484D01*
X159342182Y-136934949D01*
X159170213Y-137059890D01*
X159019890Y-137210213D01*
X158894951Y-137382179D01*
X158798444Y-137571585D01*
X158798443Y-137571587D01*
X158798443Y-137571588D01*
X158797314Y-137575062D01*
X158732753Y-137773760D01*
X158699500Y-137983713D01*
X158699500Y-138196286D01*
X158732753Y-138406239D01*
X158798444Y-138608414D01*
X158894951Y-138797820D01*
X159019890Y-138969786D01*
X159170213Y-139120109D01*
X159342182Y-139245050D01*
X159350946Y-139249516D01*
X159401742Y-139297491D01*
X159418536Y-139365312D01*
X159395998Y-139431447D01*
X159350946Y-139470484D01*
X159342182Y-139474949D01*
X159170213Y-139599890D01*
X159019890Y-139750213D01*
X158894951Y-139922179D01*
X158798444Y-140111585D01*
X158732753Y-140313760D01*
X158722545Y-140378211D01*
X158699500Y-140523713D01*
X158699500Y-140736287D01*
X158732754Y-140946243D01*
X158775838Y-141078842D01*
X158798444Y-141148414D01*
X158894951Y-141337820D01*
X159019890Y-141509786D01*
X159019896Y-141509792D01*
X159170208Y-141660104D01*
X159328601Y-141775182D01*
X159371266Y-141830511D01*
X159377245Y-141900124D01*
X159344640Y-141961920D01*
X159283801Y-141996277D01*
X159255715Y-141999500D01*
X156152185Y-141999501D01*
X156085146Y-141979816D01*
X156039391Y-141927012D01*
X156029447Y-141857854D01*
X156058472Y-141794298D01*
X156104729Y-141760942D01*
X156229179Y-141709394D01*
X156360289Y-141621789D01*
X156471789Y-141510289D01*
X156559394Y-141379179D01*
X156619737Y-141233497D01*
X156650500Y-141078842D01*
X156650500Y-140921158D01*
X156650500Y-140921155D01*
X156650499Y-140921153D01*
X156619738Y-140766510D01*
X156619737Y-140766503D01*
X156607221Y-140736286D01*
X156559397Y-140620827D01*
X156559390Y-140620814D01*
X156471789Y-140489711D01*
X156471786Y-140489707D01*
X156360292Y-140378213D01*
X156360288Y-140378210D01*
X156229185Y-140290609D01*
X156229172Y-140290602D01*
X156083501Y-140230264D01*
X156083489Y-140230261D01*
X155928845Y-140199500D01*
X155928842Y-140199500D01*
X155771158Y-140199500D01*
X155771155Y-140199500D01*
X155616510Y-140230261D01*
X155616498Y-140230264D01*
X155470827Y-140290602D01*
X155470814Y-140290609D01*
X155339711Y-140378210D01*
X155339707Y-140378213D01*
X155228213Y-140489707D01*
X155228210Y-140489711D01*
X155140609Y-140620814D01*
X155140602Y-140620827D01*
X155080264Y-140766498D01*
X155080261Y-140766510D01*
X155049500Y-140921153D01*
X155049500Y-141078846D01*
X155080261Y-141233489D01*
X155080264Y-141233501D01*
X155140602Y-141379172D01*
X155140609Y-141379185D01*
X155228210Y-141510288D01*
X155228213Y-141510292D01*
X155339707Y-141621786D01*
X155339711Y-141621789D01*
X155470814Y-141709390D01*
X155470818Y-141709392D01*
X155470821Y-141709394D01*
X155595269Y-141760941D01*
X155649670Y-141804780D01*
X155671735Y-141871074D01*
X155654456Y-141938773D01*
X155603320Y-141986384D01*
X155547814Y-141999501D01*
X141155435Y-141999506D01*
X141088396Y-141979821D01*
X141042641Y-141927018D01*
X141032697Y-141857859D01*
X141061722Y-141794303D01*
X141067739Y-141787840D01*
X143137820Y-139717759D01*
X143199142Y-139684276D01*
X143268834Y-139689260D01*
X143324767Y-139731132D01*
X143349184Y-139796596D01*
X143349500Y-139805442D01*
X143349500Y-139828846D01*
X143380261Y-139983489D01*
X143380264Y-139983501D01*
X143440602Y-140129172D01*
X143440609Y-140129185D01*
X143528210Y-140260288D01*
X143528213Y-140260292D01*
X143639707Y-140371786D01*
X143639711Y-140371789D01*
X143770814Y-140459390D01*
X143770827Y-140459397D01*
X143844013Y-140489711D01*
X143916503Y-140519737D01*
X144071153Y-140550499D01*
X144071156Y-140550500D01*
X144071158Y-140550500D01*
X144228844Y-140550500D01*
X144228845Y-140550499D01*
X144383497Y-140519737D01*
X144529179Y-140459394D01*
X144660289Y-140371789D01*
X144771789Y-140260289D01*
X144859394Y-140129179D01*
X144919737Y-139983497D01*
X144950500Y-139828842D01*
X144950500Y-139671158D01*
X144950500Y-139671155D01*
X144950499Y-139671153D01*
X144936324Y-139599890D01*
X144919737Y-139516503D01*
X144902525Y-139474949D01*
X144859397Y-139370827D01*
X144859390Y-139370814D01*
X144771789Y-139239711D01*
X144771786Y-139239707D01*
X144660292Y-139128213D01*
X144660288Y-139128210D01*
X144529185Y-139040609D01*
X144529172Y-139040602D01*
X144383501Y-138980264D01*
X144383489Y-138980261D01*
X144228845Y-138949500D01*
X144228842Y-138949500D01*
X144205443Y-138949500D01*
X144138404Y-138929815D01*
X144092649Y-138877011D01*
X144082705Y-138807853D01*
X144111730Y-138744297D01*
X144117762Y-138737819D01*
X144449342Y-138406239D01*
X145280520Y-137575062D01*
X145359577Y-137438130D01*
X145400501Y-137285403D01*
X145400501Y-137179764D01*
X145420186Y-137112725D01*
X145421399Y-137110873D01*
X145509390Y-136979185D01*
X145509390Y-136979184D01*
X145509394Y-136979179D01*
X145569737Y-136833497D01*
X145600500Y-136678842D01*
X145600500Y-136521158D01*
X145600500Y-136521155D01*
X145600499Y-136521153D01*
X145582325Y-136429786D01*
X145569737Y-136366503D01*
X145569735Y-136366498D01*
X145509397Y-136220827D01*
X145509390Y-136220814D01*
X145421789Y-136089711D01*
X145421786Y-136089707D01*
X145310292Y-135978213D01*
X145310288Y-135978210D01*
X145179185Y-135890609D01*
X145179172Y-135890602D01*
X145033501Y-135830264D01*
X145033489Y-135830261D01*
X144878845Y-135799500D01*
X144878842Y-135799500D01*
X144721158Y-135799500D01*
X144721155Y-135799500D01*
X144566510Y-135830261D01*
X144566498Y-135830264D01*
X144420827Y-135890602D01*
X144420814Y-135890609D01*
X144289711Y-135978210D01*
X144289707Y-135978213D01*
X144178213Y-136089707D01*
X144178210Y-136089711D01*
X144090609Y-136220814D01*
X144090602Y-136220827D01*
X144030264Y-136366498D01*
X144030261Y-136366510D01*
X143999500Y-136521153D01*
X143999500Y-136678846D01*
X144030261Y-136833489D01*
X144030264Y-136833501D01*
X144084475Y-136964380D01*
X144091944Y-137033850D01*
X144060668Y-137096329D01*
X144057595Y-137099513D01*
X141712181Y-139444928D01*
X141650858Y-139478413D01*
X141581166Y-139473429D01*
X141525233Y-139431557D01*
X141500816Y-139366093D01*
X141500500Y-139357247D01*
X141500500Y-137805781D01*
X141520185Y-137738742D01*
X141536814Y-137718105D01*
X148158765Y-131096153D01*
X155024500Y-131096153D01*
X155024500Y-131253846D01*
X155055261Y-131408489D01*
X155055264Y-131408501D01*
X155115602Y-131554172D01*
X155115609Y-131554185D01*
X155203210Y-131685288D01*
X155203213Y-131685292D01*
X155314707Y-131796786D01*
X155314711Y-131796789D01*
X155445814Y-131884390D01*
X155445827Y-131884397D01*
X155591498Y-131944735D01*
X155591503Y-131944737D01*
X155746153Y-131975499D01*
X155746156Y-131975500D01*
X155746158Y-131975500D01*
X155903844Y-131975500D01*
X155903845Y-131975499D01*
X156058497Y-131944737D01*
X156204179Y-131884394D01*
X156335289Y-131796789D01*
X156446789Y-131685289D01*
X156534394Y-131554179D01*
X156594737Y-131408497D01*
X156625500Y-131253842D01*
X156625500Y-131096158D01*
X156625500Y-131096155D01*
X156625499Y-131096153D01*
X156612256Y-131029576D01*
X156594737Y-130941503D01*
X156552162Y-130838716D01*
X156534397Y-130795827D01*
X156534390Y-130795814D01*
X156446789Y-130664711D01*
X156446786Y-130664707D01*
X156335292Y-130553213D01*
X156335288Y-130553210D01*
X156204185Y-130465609D01*
X156204172Y-130465602D01*
X156058501Y-130405264D01*
X156058489Y-130405261D01*
X155903845Y-130374500D01*
X155903842Y-130374500D01*
X155746158Y-130374500D01*
X155746155Y-130374500D01*
X155591510Y-130405261D01*
X155591498Y-130405264D01*
X155445827Y-130465602D01*
X155445814Y-130465609D01*
X155314711Y-130553210D01*
X155314707Y-130553213D01*
X155203213Y-130664707D01*
X155203210Y-130664711D01*
X155115609Y-130795814D01*
X155115602Y-130795827D01*
X155055264Y-130941498D01*
X155055261Y-130941510D01*
X155024500Y-131096153D01*
X148158765Y-131096153D01*
X150148739Y-129106179D01*
X150210062Y-129072695D01*
X150279754Y-129077679D01*
G37*
%TD.AperFunction*%
%TA.AperFunction,Conductor*%
G36*
X147691150Y-122765893D02*
G01*
X147746328Y-122808756D01*
X147769572Y-122874646D01*
X147769750Y-122881283D01*
X147769750Y-128603967D01*
X147750065Y-128671006D01*
X147733431Y-128691648D01*
X141511898Y-134913181D01*
X141450575Y-134946666D01*
X141424217Y-134949500D01*
X141035719Y-134949500D01*
X140968680Y-134929815D01*
X140925235Y-134881795D01*
X140905052Y-134842185D01*
X140905051Y-134842184D01*
X140780109Y-134670213D01*
X140629786Y-134519890D01*
X140457820Y-134394951D01*
X140457115Y-134394591D01*
X140449054Y-134390485D01*
X140398259Y-134342512D01*
X140381463Y-134274692D01*
X140403999Y-134208556D01*
X140449054Y-134169515D01*
X140457816Y-134165051D01*
X140479789Y-134149086D01*
X140629786Y-134040109D01*
X140629788Y-134040106D01*
X140629792Y-134040104D01*
X140780104Y-133889792D01*
X140780106Y-133889788D01*
X140780109Y-133889786D01*
X140905048Y-133717820D01*
X140905047Y-133717820D01*
X140905051Y-133717816D01*
X141001557Y-133528412D01*
X141067246Y-133326243D01*
X141100500Y-133116287D01*
X141100500Y-132903713D01*
X141067246Y-132693757D01*
X141001557Y-132491588D01*
X140905051Y-132302184D01*
X140905049Y-132302181D01*
X140905048Y-132302179D01*
X140780109Y-132130213D01*
X140629786Y-131979890D01*
X140457820Y-131854951D01*
X140457115Y-131854591D01*
X140449054Y-131850485D01*
X140398259Y-131802512D01*
X140381463Y-131734692D01*
X140403999Y-131668556D01*
X140449054Y-131629515D01*
X140457816Y-131625051D01*
X140479789Y-131609086D01*
X140629786Y-131500109D01*
X140629788Y-131500106D01*
X140629792Y-131500104D01*
X140780104Y-131349792D01*
X140780106Y-131349788D01*
X140780109Y-131349786D01*
X140849815Y-131253842D01*
X140905051Y-131177816D01*
X140905349Y-131177230D01*
X140925235Y-131138205D01*
X140973209Y-131087409D01*
X141035719Y-131070500D01*
X143443331Y-131070500D01*
X143443347Y-131070501D01*
X143450943Y-131070501D01*
X143609054Y-131070501D01*
X143609057Y-131070501D01*
X143761785Y-131029577D01*
X143811904Y-131000639D01*
X143898716Y-130950520D01*
X144010520Y-130838716D01*
X144010520Y-130838714D01*
X144020728Y-130828507D01*
X144020730Y-130828504D01*
X147158506Y-127690728D01*
X147158511Y-127690724D01*
X147168714Y-127680520D01*
X147168716Y-127680520D01*
X147280520Y-127568716D01*
X147359577Y-127431784D01*
X147400500Y-127279057D01*
X147400500Y-122905401D01*
X147409444Y-122874939D01*
X147416746Y-122844041D01*
X147419217Y-122841655D01*
X147420185Y-122838362D01*
X147444167Y-122817580D01*
X147467025Y-122795525D01*
X147471404Y-122793980D01*
X147472989Y-122792607D01*
X147500309Y-122783784D01*
X147621559Y-122759666D01*
X147691150Y-122765893D01*
G37*
%TD.AperFunction*%
%TA.AperFunction,Conductor*%
G36*
X143313232Y-117859780D02*
G01*
X143358987Y-117912584D01*
X143368931Y-117981742D01*
X143349295Y-118032986D01*
X143290609Y-118120814D01*
X143290602Y-118120827D01*
X143230264Y-118266498D01*
X143230261Y-118266510D01*
X143199500Y-118421153D01*
X143199500Y-118578846D01*
X143230261Y-118733489D01*
X143230264Y-118733501D01*
X143290602Y-118879172D01*
X143290609Y-118879185D01*
X143378210Y-119010288D01*
X143378213Y-119010292D01*
X143489710Y-119121789D01*
X143594391Y-119191734D01*
X143639196Y-119245346D01*
X143649500Y-119294836D01*
X143649500Y-122313330D01*
X143649499Y-122313348D01*
X143649499Y-122479054D01*
X143649498Y-122479054D01*
X143690423Y-122631785D01*
X143719358Y-122681900D01*
X143719359Y-122681904D01*
X143719360Y-122681904D01*
X143741202Y-122719737D01*
X143769479Y-122768714D01*
X143769481Y-122768717D01*
X143888349Y-122887585D01*
X143888355Y-122887590D01*
X144867485Y-123866720D01*
X144900970Y-123928043D01*
X144895986Y-123997735D01*
X144882907Y-124023291D01*
X144860807Y-124056365D01*
X144860801Y-124056376D01*
X144800463Y-124202046D01*
X144800460Y-124202058D01*
X144769699Y-124356701D01*
X144769102Y-124362766D01*
X144766652Y-124362524D01*
X144750014Y-124419189D01*
X144700744Y-124461881D01*
X144701199Y-124462731D01*
X144697452Y-124464733D01*
X144697210Y-124464944D01*
X144696397Y-124465297D01*
X144695818Y-124465607D01*
X144564715Y-124553207D01*
X144564707Y-124553213D01*
X144453213Y-124664707D01*
X144453210Y-124664711D01*
X144365609Y-124795814D01*
X144365602Y-124795827D01*
X144305264Y-124941498D01*
X144305261Y-124941510D01*
X144274500Y-125096153D01*
X144274500Y-125253846D01*
X144305261Y-125408489D01*
X144305264Y-125408501D01*
X144365602Y-125554172D01*
X144365609Y-125554185D01*
X144453210Y-125685288D01*
X144453213Y-125685292D01*
X144564707Y-125796786D01*
X144564711Y-125796789D01*
X144695814Y-125884390D01*
X144695827Y-125884397D01*
X144815299Y-125933883D01*
X144841503Y-125944737D01*
X144990110Y-125974297D01*
X144996153Y-125975499D01*
X144996156Y-125975500D01*
X144996158Y-125975500D01*
X145153844Y-125975500D01*
X145153845Y-125975499D01*
X145308497Y-125944737D01*
X145454179Y-125884394D01*
X145585289Y-125796789D01*
X145696789Y-125685289D01*
X145784394Y-125554179D01*
X145788325Y-125544690D01*
X145844735Y-125408501D01*
X145844737Y-125408497D01*
X145875500Y-125253842D01*
X145875500Y-125253835D01*
X145876097Y-125247782D01*
X145878546Y-125248023D01*
X145895185Y-125191358D01*
X145932702Y-125153927D01*
X145941928Y-125148027D01*
X145949378Y-125144942D01*
X146007657Y-125106001D01*
X146008702Y-125105333D01*
X146041104Y-125095899D01*
X146073285Y-125085823D01*
X146074537Y-125086166D01*
X146075787Y-125085803D01*
X146108150Y-125095387D01*
X146140666Y-125104307D01*
X146141534Y-125105273D01*
X146142781Y-125105643D01*
X146164810Y-125131185D01*
X146187356Y-125156285D01*
X146187676Y-125157699D01*
X146188413Y-125158553D01*
X146189310Y-125164897D01*
X146199500Y-125209803D01*
X146199500Y-126899903D01*
X146179815Y-126966942D01*
X146163181Y-126987584D01*
X143317584Y-129833181D01*
X143256261Y-129866666D01*
X143229903Y-129869500D01*
X141035719Y-129869500D01*
X140968680Y-129849815D01*
X140925235Y-129801795D01*
X140905052Y-129762185D01*
X140905051Y-129762184D01*
X140780109Y-129590213D01*
X140629786Y-129439890D01*
X140457820Y-129314951D01*
X140457115Y-129314591D01*
X140449054Y-129310485D01*
X140398259Y-129262512D01*
X140381463Y-129194692D01*
X140403999Y-129128556D01*
X140449054Y-129089515D01*
X140457816Y-129085051D01*
X140479789Y-129069086D01*
X140629786Y-128960109D01*
X140629788Y-128960106D01*
X140629792Y-128960104D01*
X140780104Y-128809792D01*
X140780106Y-128809788D01*
X140780109Y-128809786D01*
X140905048Y-128637820D01*
X140905047Y-128637820D01*
X140905051Y-128637816D01*
X141001557Y-128448412D01*
X141067246Y-128246243D01*
X141100500Y-128036287D01*
X141100500Y-127823713D01*
X141067246Y-127613757D01*
X141001557Y-127411588D01*
X140905051Y-127222184D01*
X140905049Y-127222181D01*
X140905048Y-127222179D01*
X140780109Y-127050213D01*
X140629786Y-126899890D01*
X140457820Y-126774951D01*
X140457115Y-126774591D01*
X140449054Y-126770485D01*
X140398259Y-126722512D01*
X140381463Y-126654692D01*
X140403999Y-126588556D01*
X140449054Y-126549515D01*
X140457816Y-126545051D01*
X140479789Y-126529086D01*
X140629786Y-126420109D01*
X140629788Y-126420106D01*
X140629792Y-126420104D01*
X140780104Y-126269792D01*
X140780106Y-126269788D01*
X140780109Y-126269786D01*
X140905048Y-126097820D01*
X140905047Y-126097820D01*
X140905051Y-126097816D01*
X141001557Y-125908412D01*
X141067246Y-125706243D01*
X141100500Y-125496287D01*
X141100500Y-125283713D01*
X141067246Y-125073757D01*
X141001557Y-124871588D01*
X140905051Y-124682184D01*
X140905049Y-124682181D01*
X140905048Y-124682179D01*
X140780109Y-124510213D01*
X140666569Y-124396673D01*
X140633084Y-124335350D01*
X140638068Y-124265658D01*
X140679940Y-124209725D01*
X140710915Y-124192810D01*
X140842331Y-124143796D01*
X140957546Y-124057546D01*
X141043796Y-123942331D01*
X141094091Y-123807483D01*
X141100500Y-123747873D01*
X141100499Y-121952128D01*
X141094091Y-121892517D01*
X141090596Y-121883147D01*
X141043797Y-121757671D01*
X141043793Y-121757664D01*
X140957547Y-121642455D01*
X140957544Y-121642452D01*
X140842335Y-121556206D01*
X140842328Y-121556202D01*
X140707482Y-121505908D01*
X140707483Y-121505908D01*
X140647883Y-121499501D01*
X140647881Y-121499500D01*
X140647873Y-121499500D01*
X140647865Y-121499500D01*
X139324500Y-121499500D01*
X139257461Y-121479815D01*
X139211706Y-121427011D01*
X139200500Y-121375500D01*
X139200500Y-119220097D01*
X139209144Y-119190657D01*
X139215667Y-119160672D01*
X139219422Y-119155654D01*
X139220185Y-119153058D01*
X139236814Y-119132420D01*
X139265478Y-119103756D01*
X139326798Y-119070272D01*
X139391476Y-119073507D01*
X139433757Y-119087246D01*
X139643713Y-119120500D01*
X139643714Y-119120500D01*
X139856286Y-119120500D01*
X139856287Y-119120500D01*
X140066243Y-119087246D01*
X140268412Y-119021557D01*
X140457816Y-118925051D01*
X140520954Y-118879179D01*
X140629786Y-118800109D01*
X140629788Y-118800106D01*
X140629792Y-118800104D01*
X140780104Y-118649792D01*
X140780106Y-118649788D01*
X140780109Y-118649786D01*
X140905048Y-118477820D01*
X140905047Y-118477820D01*
X140905051Y-118477816D01*
X141001557Y-118288412D01*
X141067246Y-118086243D01*
X141089665Y-117944697D01*
X141119594Y-117881562D01*
X141178906Y-117844631D01*
X141212138Y-117840095D01*
X143246193Y-117840095D01*
X143313232Y-117859780D01*
G37*
%TD.AperFunction*%
%TA.AperFunction,Conductor*%
G36*
X149570085Y-122883521D02*
G01*
X149592601Y-122901336D01*
X150413181Y-123721916D01*
X150446666Y-123783239D01*
X150449500Y-123809597D01*
X150449500Y-126489903D01*
X150429815Y-126556942D01*
X150413181Y-126577584D01*
X149182431Y-127808334D01*
X149121108Y-127841819D01*
X149051416Y-127836835D01*
X148995483Y-127794963D01*
X148971066Y-127729499D01*
X148970750Y-127720653D01*
X148970750Y-125341839D01*
X148990435Y-125274800D01*
X149043239Y-125229045D01*
X149112397Y-125219101D01*
X149118936Y-125220221D01*
X149149605Y-125226321D01*
X149271155Y-125250500D01*
X149271158Y-125250500D01*
X149428844Y-125250500D01*
X149428845Y-125250499D01*
X149583497Y-125219737D01*
X149712605Y-125166259D01*
X149729172Y-125159397D01*
X149729172Y-125159396D01*
X149729179Y-125159394D01*
X149860289Y-125071789D01*
X149971789Y-124960289D01*
X150059394Y-124829179D01*
X150119737Y-124683497D01*
X150150500Y-124528842D01*
X150150500Y-124371158D01*
X150150500Y-124371155D01*
X150150499Y-124371153D01*
X150147624Y-124356701D01*
X150119737Y-124216503D01*
X150119735Y-124216498D01*
X150059397Y-124070827D01*
X150059390Y-124070814D01*
X149971789Y-123939711D01*
X149971786Y-123939707D01*
X149860292Y-123828213D01*
X149860288Y-123828210D01*
X149729185Y-123740609D01*
X149729172Y-123740602D01*
X149583501Y-123680264D01*
X149583489Y-123680261D01*
X149428845Y-123649500D01*
X149428842Y-123649500D01*
X149271158Y-123649500D01*
X149271153Y-123649500D01*
X149118941Y-123679777D01*
X149049350Y-123673550D01*
X148994172Y-123630687D01*
X148970928Y-123564797D01*
X148970750Y-123558160D01*
X148970750Y-123152234D01*
X148990435Y-123085195D01*
X149043239Y-123039440D01*
X149070559Y-123030617D01*
X149113310Y-123022112D01*
X149203746Y-123004124D01*
X149333207Y-122950500D01*
X149349421Y-122943784D01*
X149349421Y-122943783D01*
X149349428Y-122943781D01*
X149349433Y-122943777D01*
X149349436Y-122943776D01*
X149397509Y-122911654D01*
X149436029Y-122885915D01*
X149502705Y-122865037D01*
X149570085Y-122883521D01*
G37*
%TD.AperFunction*%
%TA.AperFunction,Conductor*%
G36*
X156329494Y-117392469D02*
G01*
X156375249Y-117445273D01*
X156386455Y-117496784D01*
X156386455Y-117618850D01*
X156417216Y-117773493D01*
X156417219Y-117773505D01*
X156477557Y-117919176D01*
X156477564Y-117919189D01*
X156565165Y-118050292D01*
X156565168Y-118050296D01*
X156676662Y-118161790D01*
X156676667Y-118161794D01*
X156693543Y-118173070D01*
X156738349Y-118226681D01*
X156747058Y-118296006D01*
X156716904Y-118359034D01*
X156709524Y-118366093D01*
X156709562Y-118366131D01*
X156593757Y-118481935D01*
X156593754Y-118481939D01*
X156506153Y-118613042D01*
X156506146Y-118613055D01*
X156445808Y-118758726D01*
X156445805Y-118758738D01*
X156415044Y-118913381D01*
X156415044Y-119071074D01*
X156445805Y-119225717D01*
X156445808Y-119225729D01*
X156506146Y-119371400D01*
X156506153Y-119371413D01*
X156593754Y-119502516D01*
X156593757Y-119502520D01*
X156705251Y-119614014D01*
X156705255Y-119614017D01*
X156836358Y-119701618D01*
X156836371Y-119701625D01*
X156982042Y-119761963D01*
X156982047Y-119761965D01*
X157125114Y-119790423D01*
X157136697Y-119792727D01*
X157136700Y-119792728D01*
X157136702Y-119792728D01*
X157294388Y-119792728D01*
X157294389Y-119792727D01*
X157449041Y-119761965D01*
X157588946Y-119704015D01*
X157594716Y-119701625D01*
X157594716Y-119701624D01*
X157594723Y-119701622D01*
X157725833Y-119614017D01*
X157837333Y-119502517D01*
X157859914Y-119468722D01*
X157913525Y-119423918D01*
X157982850Y-119415210D01*
X158045878Y-119445364D01*
X158050697Y-119449932D01*
X159413181Y-120812416D01*
X159446666Y-120873739D01*
X159449500Y-120900097D01*
X159449500Y-121375500D01*
X159429815Y-121442539D01*
X159377011Y-121488294D01*
X159325501Y-121499500D01*
X159152130Y-121499500D01*
X159152123Y-121499501D01*
X159092516Y-121505908D01*
X158957671Y-121556202D01*
X158957664Y-121556206D01*
X158842455Y-121642452D01*
X158842452Y-121642455D01*
X158756206Y-121757664D01*
X158756202Y-121757671D01*
X158705908Y-121892517D01*
X158699501Y-121952116D01*
X158699501Y-121952123D01*
X158699500Y-121952135D01*
X158699500Y-123747870D01*
X158699501Y-123747876D01*
X158705908Y-123807483D01*
X158756202Y-123942328D01*
X158756206Y-123942335D01*
X158842452Y-124057544D01*
X158842455Y-124057547D01*
X158957664Y-124143793D01*
X158957671Y-124143797D01*
X159089082Y-124192810D01*
X159145016Y-124234681D01*
X159169433Y-124300145D01*
X159154582Y-124368418D01*
X159133431Y-124396673D01*
X159019889Y-124510215D01*
X158894951Y-124682179D01*
X158798444Y-124871585D01*
X158732753Y-125073760D01*
X158700912Y-125274800D01*
X158699500Y-125283713D01*
X158699500Y-125496287D01*
X158704709Y-125529172D01*
X158729435Y-125685292D01*
X158732754Y-125706243D01*
X158762174Y-125796789D01*
X158798444Y-125908414D01*
X158844704Y-125999205D01*
X158857600Y-126067875D01*
X158831323Y-126132615D01*
X158774217Y-126172872D01*
X158734219Y-126179500D01*
X157436575Y-126179500D01*
X157369536Y-126159815D01*
X157323781Y-126107011D01*
X157313837Y-126037853D01*
X157342862Y-125974297D01*
X157401640Y-125936523D01*
X157412383Y-125933883D01*
X157462121Y-125923988D01*
X157483497Y-125919737D01*
X157629179Y-125859394D01*
X157760289Y-125771789D01*
X157871789Y-125660289D01*
X157959394Y-125529179D01*
X157965227Y-125515098D01*
X157981333Y-125476214D01*
X158019737Y-125383497D01*
X158050500Y-125228842D01*
X158050500Y-125071158D01*
X158050500Y-125071155D01*
X158050499Y-125071153D01*
X158028447Y-124960292D01*
X158019737Y-124916503D01*
X158001133Y-124871588D01*
X157959397Y-124770827D01*
X157959390Y-124770814D01*
X157871789Y-124639711D01*
X157871786Y-124639707D01*
X157760292Y-124528213D01*
X157760288Y-124528210D01*
X157629185Y-124440609D01*
X157629175Y-124440604D01*
X157527047Y-124398301D01*
X157472644Y-124354460D01*
X157450579Y-124288166D01*
X157450500Y-124283740D01*
X157450500Y-124221155D01*
X157450499Y-124221153D01*
X157435112Y-124143797D01*
X157419737Y-124066503D01*
X157391253Y-123997735D01*
X157359397Y-123920827D01*
X157359390Y-123920814D01*
X157271789Y-123789711D01*
X157271786Y-123789707D01*
X157160292Y-123678213D01*
X157160288Y-123678210D01*
X157029185Y-123590609D01*
X157029172Y-123590602D01*
X156883501Y-123530264D01*
X156883489Y-123530261D01*
X156728845Y-123499500D01*
X156728842Y-123499500D01*
X156571158Y-123499500D01*
X156571155Y-123499500D01*
X156416510Y-123530261D01*
X156416498Y-123530264D01*
X156270827Y-123590602D01*
X156270814Y-123590609D01*
X156139711Y-123678210D01*
X156139707Y-123678213D01*
X156028213Y-123789707D01*
X156028210Y-123789711D01*
X155940609Y-123920814D01*
X155940602Y-123920827D01*
X155880264Y-124066498D01*
X155880261Y-124066510D01*
X155849500Y-124221153D01*
X155849500Y-124378846D01*
X155880261Y-124533489D01*
X155880264Y-124533501D01*
X155940602Y-124679172D01*
X155940609Y-124679185D01*
X156028210Y-124810288D01*
X156028213Y-124810292D01*
X156139707Y-124921786D01*
X156139711Y-124921789D01*
X156270814Y-125009390D01*
X156270827Y-125009397D01*
X156372952Y-125051698D01*
X156427356Y-125095538D01*
X156449421Y-125161833D01*
X156449500Y-125166259D01*
X156449500Y-125228846D01*
X156480261Y-125383493D01*
X156481058Y-125386118D01*
X156481070Y-125387561D01*
X156481451Y-125389472D01*
X156481088Y-125389544D01*
X156481683Y-125455985D01*
X156444435Y-125515098D01*
X156381141Y-125544690D01*
X156311897Y-125535365D01*
X156274717Y-125509796D01*
X153753275Y-122988354D01*
X153746206Y-122981285D01*
X153746206Y-122981284D01*
X153709436Y-122944514D01*
X153675951Y-122883191D01*
X153679158Y-122838362D01*
X153680936Y-122813500D01*
X153689726Y-122794844D01*
X153733089Y-122719737D01*
X153748750Y-122692612D01*
X153789674Y-122539884D01*
X153789674Y-122381770D01*
X153789674Y-122374175D01*
X153789673Y-122374157D01*
X153789673Y-120928030D01*
X153789674Y-120928017D01*
X153789674Y-120759916D01*
X153789674Y-120759914D01*
X153754725Y-120629483D01*
X153750500Y-120597390D01*
X153750500Y-120270945D01*
X153750500Y-120270943D01*
X153709821Y-120119126D01*
X153711484Y-120049281D01*
X153750646Y-119991418D01*
X153814875Y-119963914D01*
X153883777Y-119975500D01*
X153917277Y-119999356D01*
X153939707Y-120021786D01*
X153939711Y-120021789D01*
X154070814Y-120109390D01*
X154070827Y-120109397D01*
X154216498Y-120169735D01*
X154216503Y-120169737D01*
X154274249Y-120181223D01*
X154373065Y-120200880D01*
X154434976Y-120233265D01*
X154469551Y-120293981D01*
X154465811Y-120363750D01*
X154451976Y-120391387D01*
X154415612Y-120445809D01*
X154415602Y-120445827D01*
X154355264Y-120591498D01*
X154355261Y-120591510D01*
X154324500Y-120746153D01*
X154324500Y-120903846D01*
X154355261Y-121058489D01*
X154355264Y-121058501D01*
X154415602Y-121204172D01*
X154415609Y-121204185D01*
X154503210Y-121335288D01*
X154503213Y-121335292D01*
X154614707Y-121446786D01*
X154614711Y-121446789D01*
X154745814Y-121534390D01*
X154745827Y-121534397D01*
X154874794Y-121587816D01*
X154891503Y-121594737D01*
X155046153Y-121625499D01*
X155046156Y-121625500D01*
X155046158Y-121625500D01*
X155203844Y-121625500D01*
X155203845Y-121625499D01*
X155358497Y-121594737D01*
X155504179Y-121534394D01*
X155635289Y-121446789D01*
X155746789Y-121335289D01*
X155834394Y-121204179D01*
X155836350Y-121199458D01*
X155866832Y-121125865D01*
X155894737Y-121058497D01*
X155925500Y-120903842D01*
X155925500Y-120746158D01*
X155925500Y-120746155D01*
X155925499Y-120746153D01*
X155921086Y-120723968D01*
X155894737Y-120591503D01*
X155889231Y-120578211D01*
X155834397Y-120445827D01*
X155834390Y-120445814D01*
X155746789Y-120314711D01*
X155746786Y-120314707D01*
X155635292Y-120203213D01*
X155635288Y-120203210D01*
X155504185Y-120115609D01*
X155504172Y-120115602D01*
X155358501Y-120055264D01*
X155358491Y-120055261D01*
X155201933Y-120024119D01*
X155140022Y-119991734D01*
X155105448Y-119931018D01*
X155109189Y-119861248D01*
X155123024Y-119833610D01*
X155147768Y-119796579D01*
X155159394Y-119779179D01*
X155219737Y-119633497D01*
X155250500Y-119478842D01*
X155250500Y-119321158D01*
X155250500Y-119321155D01*
X155250499Y-119321153D01*
X155244991Y-119293461D01*
X155219737Y-119166503D01*
X155194589Y-119105790D01*
X155159397Y-119020827D01*
X155159390Y-119020814D01*
X155098306Y-118929396D01*
X155077428Y-118862719D01*
X155095912Y-118795338D01*
X155147891Y-118748648D01*
X155177208Y-118738890D01*
X155273497Y-118719737D01*
X155419179Y-118659394D01*
X155550289Y-118571789D01*
X155661789Y-118460289D01*
X155749394Y-118329179D01*
X155809737Y-118183497D01*
X155840500Y-118028842D01*
X155840500Y-117871158D01*
X155840500Y-117871155D01*
X155840499Y-117871153D01*
X155821075Y-117773505D01*
X155809737Y-117716503D01*
X155809735Y-117716498D01*
X155749397Y-117570827D01*
X155749389Y-117570813D01*
X155745957Y-117565676D01*
X155725078Y-117498999D01*
X155743562Y-117431619D01*
X155795540Y-117384928D01*
X155849058Y-117372784D01*
X156262455Y-117372784D01*
X156329494Y-117392469D01*
G37*
%TD.AperFunction*%
%TA.AperFunction,Conductor*%
G36*
X151207437Y-111513836D02*
G01*
X151222637Y-111516860D01*
X151380321Y-111516860D01*
X151384258Y-111516076D01*
X151394694Y-111516209D01*
X151421776Y-111524535D01*
X151449613Y-111529814D01*
X151454733Y-111534667D01*
X151461479Y-111536741D01*
X151479762Y-111558389D01*
X151500324Y-111577878D01*
X151502008Y-111584730D01*
X151506561Y-111590121D01*
X151514740Y-111616005D01*
X151522689Y-111655965D01*
X151522691Y-111655972D01*
X151583029Y-111801643D01*
X151583036Y-111801656D01*
X151670637Y-111932759D01*
X151670640Y-111932763D01*
X151782134Y-112044257D01*
X151782138Y-112044260D01*
X151913241Y-112131861D01*
X151913254Y-112131868D01*
X152015300Y-112174136D01*
X152058930Y-112192208D01*
X152213580Y-112222970D01*
X152213583Y-112222971D01*
X152213585Y-112222971D01*
X152371271Y-112222971D01*
X152371272Y-112222970D01*
X152525924Y-112192208D01*
X152596334Y-112163042D01*
X152665802Y-112155574D01*
X152692927Y-112163757D01*
X152703293Y-112168231D01*
X152712130Y-112174136D01*
X152832028Y-112223799D01*
X152832869Y-112224162D01*
X152859077Y-112245929D01*
X152885584Y-112267289D01*
X152886237Y-112268486D01*
X152886619Y-112268803D01*
X152886906Y-112269710D01*
X152898289Y-112290557D01*
X152947598Y-112409602D01*
X152947605Y-112409615D01*
X153035206Y-112540718D01*
X153035209Y-112540722D01*
X153146703Y-112652216D01*
X153146707Y-112652219D01*
X153277810Y-112739820D01*
X153277823Y-112739827D01*
X153414132Y-112796287D01*
X153423499Y-112800167D01*
X153578149Y-112830929D01*
X153578152Y-112830930D01*
X153578154Y-112830930D01*
X153735840Y-112830930D01*
X153877125Y-112802826D01*
X153885032Y-112803533D01*
X153892471Y-112800759D01*
X153919334Y-112806602D01*
X153946717Y-112809053D01*
X153954726Y-112814301D01*
X153960744Y-112815611D01*
X153988998Y-112836762D01*
X154022545Y-112870309D01*
X154056030Y-112931632D01*
X154051046Y-113001324D01*
X154030727Y-113036643D01*
X154028214Y-113039705D01*
X153940609Y-113170814D01*
X153940602Y-113170827D01*
X153880264Y-113316498D01*
X153880261Y-113316510D01*
X153849500Y-113471153D01*
X153849500Y-113628846D01*
X153880260Y-113783488D01*
X153880261Y-113783489D01*
X153880263Y-113783497D01*
X153908354Y-113851315D01*
X153915822Y-113920784D01*
X153884546Y-113983263D01*
X153881485Y-113986436D01*
X153878212Y-113989709D01*
X153878208Y-113989714D01*
X153790609Y-114120814D01*
X153790602Y-114120827D01*
X153730264Y-114266498D01*
X153730261Y-114266510D01*
X153699500Y-114421153D01*
X153699500Y-114578846D01*
X153730261Y-114733489D01*
X153730264Y-114733501D01*
X153790602Y-114879172D01*
X153790609Y-114879185D01*
X153878210Y-115010288D01*
X153878213Y-115010292D01*
X153989707Y-115121786D01*
X153989711Y-115121789D01*
X154120814Y-115209390D01*
X154120827Y-115209397D01*
X154207895Y-115245461D01*
X154266503Y-115269737D01*
X154421153Y-115300499D01*
X154421156Y-115300500D01*
X154517848Y-115300500D01*
X154584887Y-115320185D01*
X154630642Y-115372989D01*
X154641848Y-115424500D01*
X154641848Y-115555416D01*
X154672609Y-115710059D01*
X154672612Y-115710071D01*
X154732950Y-115855742D01*
X154732957Y-115855755D01*
X154820558Y-115986858D01*
X154820561Y-115986862D01*
X154932055Y-116098356D01*
X154932059Y-116098359D01*
X154963376Y-116119285D01*
X154976885Y-116135449D01*
X154993752Y-116148076D01*
X154998842Y-116161723D01*
X155008181Y-116172898D01*
X155010806Y-116193799D01*
X155018169Y-116213540D01*
X155015073Y-116227772D01*
X155016888Y-116242223D01*
X155007796Y-116261225D01*
X155003318Y-116281813D01*
X154988432Y-116301698D01*
X154986733Y-116305250D01*
X154982167Y-116310068D01*
X154888667Y-116403568D01*
X154888666Y-116403568D01*
X154888665Y-116403569D01*
X152781286Y-118510949D01*
X152781283Y-118510951D01*
X152688934Y-118603298D01*
X152663255Y-118623003D01*
X152582755Y-118669480D01*
X152582752Y-118669482D01*
X152119479Y-119132755D01*
X152107758Y-119153058D01*
X152092748Y-119179057D01*
X152086051Y-119190657D01*
X152040424Y-119269683D01*
X152040423Y-119269685D01*
X152040423Y-119269686D01*
X152007437Y-119392792D01*
X152007290Y-119393339D01*
X151970924Y-119452999D01*
X151908077Y-119483527D01*
X151838701Y-119475232D01*
X151799834Y-119448925D01*
X151322925Y-118972016D01*
X151289440Y-118910693D01*
X151294424Y-118841001D01*
X151322925Y-118796654D01*
X151421786Y-118697792D01*
X151421789Y-118697789D01*
X151509394Y-118566679D01*
X151569737Y-118420997D01*
X151600500Y-118266342D01*
X151600500Y-118108658D01*
X151600500Y-118108655D01*
X151600499Y-118108653D01*
X151596041Y-118086243D01*
X151569737Y-117954003D01*
X151538343Y-117878211D01*
X151509397Y-117808327D01*
X151509390Y-117808314D01*
X151421789Y-117677211D01*
X151421786Y-117677207D01*
X151310292Y-117565713D01*
X151310288Y-117565710D01*
X151179185Y-117478109D01*
X151179172Y-117478102D01*
X151033501Y-117417764D01*
X151033489Y-117417761D01*
X150878845Y-117387000D01*
X150878842Y-117387000D01*
X150721158Y-117387000D01*
X150721155Y-117387000D01*
X150566510Y-117417761D01*
X150566498Y-117417764D01*
X150420827Y-117478102D01*
X150420814Y-117478109D01*
X150289711Y-117565710D01*
X150289707Y-117565713D01*
X150190846Y-117664575D01*
X150129523Y-117698060D01*
X150059831Y-117693076D01*
X150015484Y-117664575D01*
X147563090Y-115212181D01*
X147529605Y-115150858D01*
X147534589Y-115081166D01*
X147576461Y-115025233D01*
X147641925Y-115000816D01*
X147650771Y-115000500D01*
X148061860Y-115000500D01*
X148061876Y-115000501D01*
X148069472Y-115000501D01*
X148227583Y-115000501D01*
X148227586Y-115000501D01*
X148380314Y-114959577D01*
X148446646Y-114921280D01*
X148517245Y-114880520D01*
X148629049Y-114768716D01*
X148629049Y-114768714D01*
X148639252Y-114758512D01*
X148639256Y-114758506D01*
X148676609Y-114721153D01*
X149999500Y-114721153D01*
X149999500Y-114878846D01*
X150030261Y-115033489D01*
X150030264Y-115033501D01*
X150090602Y-115179172D01*
X150090609Y-115179185D01*
X150178210Y-115310288D01*
X150178213Y-115310292D01*
X150289707Y-115421786D01*
X150289711Y-115421789D01*
X150420814Y-115509390D01*
X150420827Y-115509397D01*
X150547674Y-115561938D01*
X150566503Y-115569737D01*
X150721153Y-115600499D01*
X150721156Y-115600500D01*
X150721158Y-115600500D01*
X150878844Y-115600500D01*
X150878845Y-115600499D01*
X151033497Y-115569737D01*
X151179179Y-115509394D01*
X151310289Y-115421789D01*
X151421789Y-115310289D01*
X151509394Y-115179179D01*
X151569737Y-115033497D01*
X151600500Y-114878842D01*
X151600500Y-114721158D01*
X151600500Y-114721155D01*
X151600499Y-114721153D01*
X151580190Y-114619054D01*
X151569737Y-114566503D01*
X151551380Y-114522184D01*
X151509397Y-114420827D01*
X151509390Y-114420814D01*
X151421789Y-114289711D01*
X151421786Y-114289707D01*
X151310292Y-114178213D01*
X151310288Y-114178210D01*
X151179185Y-114090609D01*
X151179172Y-114090602D01*
X151033501Y-114030264D01*
X151033489Y-114030261D01*
X150878845Y-113999500D01*
X150878842Y-113999500D01*
X150721158Y-113999500D01*
X150721155Y-113999500D01*
X150566510Y-114030261D01*
X150566498Y-114030264D01*
X150420827Y-114090602D01*
X150420814Y-114090609D01*
X150289711Y-114178210D01*
X150289707Y-114178213D01*
X150178213Y-114289707D01*
X150178210Y-114289711D01*
X150090609Y-114420814D01*
X150090602Y-114420827D01*
X150030264Y-114566498D01*
X150030261Y-114566510D01*
X149999500Y-114721153D01*
X148676609Y-114721153D01*
X150750471Y-112647294D01*
X150829528Y-112510362D01*
X150870452Y-112357635D01*
X150870452Y-112199520D01*
X150870452Y-112191925D01*
X150870451Y-112191907D01*
X150870451Y-112145110D01*
X150890136Y-112078071D01*
X150891349Y-112076219D01*
X150913473Y-112043109D01*
X150979345Y-111944524D01*
X150983370Y-111934808D01*
X151005556Y-111881245D01*
X151039688Y-111798842D01*
X151070451Y-111644187D01*
X151070451Y-111637682D01*
X151073223Y-111628238D01*
X151071947Y-111618482D01*
X151082904Y-111595270D01*
X151090136Y-111570643D01*
X151097572Y-111564199D01*
X151101774Y-111555299D01*
X151123543Y-111541694D01*
X151142940Y-111524888D01*
X151152679Y-111523487D01*
X151161026Y-111518272D01*
X151196022Y-111513692D01*
X151207437Y-111513836D01*
G37*
%TD.AperFunction*%
%TA.AperFunction,Conductor*%
G36*
X161165269Y-115991716D02*
G01*
X161166818Y-115991595D01*
X161235195Y-116005959D01*
X161284952Y-116055010D01*
X161300547Y-116115212D01*
X161300551Y-116812200D01*
X161280867Y-116879240D01*
X161228063Y-116924995D01*
X161158905Y-116934939D01*
X161095349Y-116905914D01*
X161082268Y-116892741D01*
X161080105Y-116890209D01*
X160929786Y-116739890D01*
X160757817Y-116614949D01*
X160748504Y-116610204D01*
X160697707Y-116562230D01*
X160680912Y-116494409D01*
X160703449Y-116428274D01*
X160748507Y-116389232D01*
X160757555Y-116384622D01*
X160811716Y-116345270D01*
X160811717Y-116345270D01*
X160179408Y-115712962D01*
X160242993Y-115695925D01*
X160357007Y-115630099D01*
X160450099Y-115537007D01*
X160515925Y-115422993D01*
X160532962Y-115359408D01*
X161165269Y-115991716D01*
G37*
%TD.AperFunction*%
%TA.AperFunction,Conductor*%
G36*
X158621811Y-115245461D02*
G01*
X158677744Y-115287333D01*
X158700950Y-115342245D01*
X158733242Y-115546127D01*
X158733242Y-115546130D01*
X158798904Y-115748217D01*
X158895375Y-115937550D01*
X158934728Y-115991716D01*
X159567036Y-115359407D01*
X159584075Y-115422993D01*
X159649901Y-115537007D01*
X159742993Y-115630099D01*
X159857007Y-115695925D01*
X159920590Y-115712962D01*
X159288282Y-116345269D01*
X159288282Y-116345270D01*
X159342452Y-116384626D01*
X159342451Y-116384626D01*
X159351495Y-116389234D01*
X159402292Y-116437208D01*
X159419087Y-116505029D01*
X159396550Y-116571164D01*
X159351499Y-116610202D01*
X159342182Y-116614949D01*
X159170213Y-116739890D01*
X159170209Y-116739894D01*
X159032181Y-116877923D01*
X159012744Y-116888535D01*
X158996011Y-116903036D01*
X158982679Y-116904952D01*
X158970858Y-116911408D01*
X158948771Y-116909828D01*
X158926853Y-116912980D01*
X158914601Y-116907384D01*
X158901166Y-116906424D01*
X158883439Y-116893153D01*
X158863297Y-116883955D01*
X158856014Y-116872623D01*
X158845233Y-116864552D01*
X158837495Y-116843806D01*
X158825523Y-116825177D01*
X158822371Y-116803258D01*
X158820816Y-116799088D01*
X158820500Y-116790242D01*
X158820500Y-116709060D01*
X158820501Y-116709047D01*
X158820501Y-116540944D01*
X158810953Y-116505312D01*
X158779577Y-116388216D01*
X158768879Y-116369687D01*
X158700524Y-116251290D01*
X158700518Y-116251282D01*
X158684386Y-116235150D01*
X158683119Y-116233865D01*
X158672385Y-116222814D01*
X158667475Y-116214309D01*
X158555671Y-116102505D01*
X158555668Y-116102503D01*
X158192137Y-115738972D01*
X158158652Y-115677649D01*
X158163636Y-115607957D01*
X158205508Y-115552024D01*
X158217816Y-115543904D01*
X158225008Y-115539753D01*
X158336812Y-115427949D01*
X158336812Y-115427947D01*
X158347015Y-115417745D01*
X158347019Y-115417739D01*
X158490798Y-115273960D01*
X158552119Y-115240477D01*
X158621811Y-115245461D01*
G37*
%TD.AperFunction*%
%TA.AperFunction,Conductor*%
G36*
X159005703Y-113555316D02*
G01*
X159018786Y-113568493D01*
X159019893Y-113569789D01*
X159170213Y-113720109D01*
X159342179Y-113845048D01*
X159342181Y-113845049D01*
X159342184Y-113845051D01*
X159351493Y-113849794D01*
X159402290Y-113897766D01*
X159419087Y-113965587D01*
X159396552Y-114031722D01*
X159351505Y-114070760D01*
X159342446Y-114075376D01*
X159342440Y-114075380D01*
X159288282Y-114114727D01*
X159288282Y-114114728D01*
X159920591Y-114747037D01*
X159857007Y-114764075D01*
X159742993Y-114829901D01*
X159649901Y-114922993D01*
X159584075Y-115037007D01*
X159567037Y-115100591D01*
X158932072Y-114465626D01*
X158928381Y-114464850D01*
X158914616Y-114466830D01*
X158894862Y-114457809D01*
X158873614Y-114453345D01*
X158863710Y-114443582D01*
X158851060Y-114437805D01*
X158839320Y-114419538D01*
X158823857Y-114404294D01*
X158820030Y-114389521D01*
X158813286Y-114379027D01*
X158808263Y-114344092D01*
X158808263Y-114299764D01*
X158808264Y-114299751D01*
X158808264Y-114131648D01*
X158808263Y-114131644D01*
X158804725Y-114118438D01*
X158800500Y-114086346D01*
X158800500Y-113649029D01*
X158820185Y-113581990D01*
X158872989Y-113536235D01*
X158942147Y-113526291D01*
X159005703Y-113555316D01*
G37*
%TD.AperFunction*%
%TA.AperFunction,Conductor*%
G36*
X161269666Y-113565950D02*
G01*
X161299143Y-113629297D01*
X161300534Y-113647817D01*
X161300538Y-114344784D01*
X161280854Y-114411824D01*
X161228050Y-114457579D01*
X161166809Y-114468403D01*
X161165270Y-114468281D01*
X160532962Y-115100590D01*
X160515925Y-115037007D01*
X160450099Y-114922993D01*
X160357007Y-114829901D01*
X160242993Y-114764075D01*
X160179409Y-114747037D01*
X160811716Y-114114728D01*
X160757547Y-114075373D01*
X160757547Y-114075372D01*
X160748500Y-114070763D01*
X160697706Y-114022788D01*
X160680912Y-113954966D01*
X160703451Y-113888832D01*
X160748508Y-113849793D01*
X160757816Y-113845051D01*
X160842551Y-113783488D01*
X160929786Y-113720109D01*
X160929788Y-113720106D01*
X160929792Y-113720104D01*
X161080104Y-113569792D01*
X161080110Y-113569783D01*
X161082245Y-113567285D01*
X161083299Y-113566596D01*
X161083549Y-113566347D01*
X161083601Y-113566399D01*
X161140752Y-113529093D01*
X161210620Y-113528595D01*
X161269666Y-113565950D01*
G37*
%TD.AperFunction*%
%TA.AperFunction,Conductor*%
G36*
X145863871Y-112086371D02*
G01*
X145866197Y-112086261D01*
X145869033Y-112086985D01*
X145919472Y-112100501D01*
X145919473Y-112100501D01*
X146085177Y-112100501D01*
X146085199Y-112100500D01*
X146943111Y-112100500D01*
X147010150Y-112120185D01*
X147046212Y-112155608D01*
X147055114Y-112168930D01*
X147073998Y-112197193D01*
X147185493Y-112308688D01*
X147185497Y-112308691D01*
X147316600Y-112396292D01*
X147316613Y-112396299D01*
X147369210Y-112418085D01*
X147423614Y-112461925D01*
X147445679Y-112528219D01*
X147428400Y-112595919D01*
X147383758Y-112640033D01*
X147332758Y-112669477D01*
X147332753Y-112669481D01*
X147148210Y-112854024D01*
X147147203Y-112855020D01*
X147136155Y-112865817D01*
X147129813Y-112869480D01*
X147018009Y-112981284D01*
X147018007Y-112981286D01*
X147017532Y-112981760D01*
X147017444Y-112981847D01*
X146986111Y-113013181D01*
X146924788Y-113046666D01*
X146898430Y-113049500D01*
X146583143Y-113049500D01*
X146516104Y-113029815D01*
X146495462Y-113013181D01*
X145944641Y-112462360D01*
X145944639Y-112462357D01*
X145825768Y-112343486D01*
X145825763Y-112343482D01*
X145774963Y-112314153D01*
X145761664Y-112300205D01*
X145745208Y-112290175D01*
X145738051Y-112275441D01*
X145726747Y-112263586D01*
X145723099Y-112244659D01*
X145714680Y-112227327D01*
X145716624Y-112211065D01*
X145713524Y-112194979D01*
X145720687Y-112177086D01*
X145722975Y-112157952D01*
X145733403Y-112145321D01*
X145739492Y-112130114D01*
X145755191Y-112118934D01*
X145767462Y-112104074D01*
X145783063Y-112099087D01*
X145796406Y-112089586D01*
X145815656Y-112088668D01*
X145834014Y-112082801D01*
X145863871Y-112086371D01*
G37*
%TD.AperFunction*%
%TA.AperFunction,Conductor*%
G36*
X147891146Y-107317158D02*
G01*
X147930016Y-107343466D01*
X149177724Y-108591173D01*
X149211209Y-108652496D01*
X149206225Y-108722188D01*
X149164353Y-108778121D01*
X149158935Y-108781955D01*
X149089713Y-108828208D01*
X149089707Y-108828213D01*
X148978213Y-108939707D01*
X148978210Y-108939711D01*
X148890609Y-109070814D01*
X148890602Y-109070827D01*
X148830264Y-109216498D01*
X148830261Y-109216510D01*
X148799500Y-109371153D01*
X148799500Y-109528846D01*
X148830261Y-109683489D01*
X148830264Y-109683501D01*
X148890602Y-109829172D01*
X148890609Y-109829185D01*
X148978210Y-109960288D01*
X148978213Y-109960292D01*
X149002397Y-109984476D01*
X149006735Y-109992421D01*
X149013983Y-109997847D01*
X149023217Y-110022606D01*
X149035882Y-110045799D01*
X149035236Y-110054828D01*
X149038400Y-110063311D01*
X149032783Y-110089131D01*
X149030898Y-110115491D01*
X149025079Y-110124544D01*
X149023548Y-110131584D01*
X149002397Y-110159838D01*
X148905951Y-110256284D01*
X148905945Y-110256288D01*
X148905756Y-110256478D01*
X148905631Y-110256546D01*
X148887053Y-110271777D01*
X148887050Y-110271779D01*
X148884563Y-110268049D01*
X148844433Y-110289963D01*
X148818075Y-110292797D01*
X147723653Y-110292797D01*
X147656614Y-110273112D01*
X147620551Y-110237688D01*
X147571789Y-110164711D01*
X147571786Y-110164707D01*
X147460292Y-110053213D01*
X147460288Y-110053210D01*
X147329185Y-109965609D01*
X147329172Y-109965602D01*
X147183501Y-109905264D01*
X147183489Y-109905261D01*
X147028845Y-109874500D01*
X147028842Y-109874500D01*
X146871158Y-109874500D01*
X146871155Y-109874500D01*
X146716510Y-109905261D01*
X146716498Y-109905264D01*
X146570827Y-109965602D01*
X146570814Y-109965609D01*
X146439711Y-110053210D01*
X146439707Y-110053213D01*
X146328213Y-110164707D01*
X146328210Y-110164711D01*
X146240609Y-110295814D01*
X146240602Y-110295827D01*
X146180264Y-110441498D01*
X146180261Y-110441510D01*
X146149500Y-110596153D01*
X146149500Y-110610758D01*
X146129815Y-110677797D01*
X146077011Y-110723552D01*
X146007853Y-110733496D01*
X145993407Y-110730533D01*
X145911740Y-110708650D01*
X145877586Y-110699499D01*
X145719472Y-110699499D01*
X145711876Y-110699499D01*
X145711860Y-110699500D01*
X145388141Y-110699500D01*
X145388125Y-110699499D01*
X145380529Y-110699499D01*
X145222414Y-110699499D01*
X145179508Y-110710996D01*
X145069685Y-110740423D01*
X145069680Y-110740426D01*
X144932761Y-110819475D01*
X144932753Y-110819481D01*
X144889054Y-110863181D01*
X144827731Y-110896666D01*
X144801373Y-110899500D01*
X143624414Y-110899500D01*
X143557375Y-110879815D01*
X143536733Y-110863181D01*
X143530292Y-110856740D01*
X143530288Y-110856737D01*
X143399185Y-110769136D01*
X143399172Y-110769129D01*
X143253501Y-110708791D01*
X143253489Y-110708788D01*
X143098845Y-110678027D01*
X143098842Y-110678027D01*
X142941158Y-110678027D01*
X142941155Y-110678027D01*
X142786510Y-110708788D01*
X142786498Y-110708791D01*
X142640827Y-110769129D01*
X142640814Y-110769136D01*
X142509711Y-110856737D01*
X142509707Y-110856740D01*
X142398213Y-110968234D01*
X142398210Y-110968238D01*
X142310609Y-111099341D01*
X142310602Y-111099354D01*
X142250264Y-111245025D01*
X142250261Y-111245037D01*
X142219500Y-111399680D01*
X142219500Y-111557373D01*
X142250261Y-111712016D01*
X142250264Y-111712028D01*
X142310602Y-111857699D01*
X142310609Y-111857712D01*
X142398210Y-111988815D01*
X142398213Y-111988819D01*
X142421218Y-112011824D01*
X142454703Y-112073147D01*
X142449719Y-112142839D01*
X142407847Y-112198772D01*
X142342383Y-112223189D01*
X142333537Y-112223505D01*
X141896937Y-112223505D01*
X141744209Y-112264428D01*
X141711913Y-112283075D01*
X141711912Y-112283075D01*
X141607282Y-112343482D01*
X141607277Y-112343486D01*
X141495473Y-112455291D01*
X141309028Y-112641735D01*
X141247705Y-112675220D01*
X141178013Y-112670236D01*
X141122080Y-112628364D01*
X141098875Y-112573453D01*
X141067246Y-112373757D01*
X141053506Y-112331473D01*
X141053163Y-112319444D01*
X141048378Y-112308399D01*
X141052184Y-112285164D01*
X141051512Y-112261635D01*
X141057845Y-112250604D01*
X141059673Y-112239448D01*
X141072285Y-112225455D01*
X141083755Y-112205478D01*
X141458506Y-111830728D01*
X141458511Y-111830724D01*
X141468714Y-111820520D01*
X141468716Y-111820520D01*
X141580520Y-111708716D01*
X141641256Y-111603517D01*
X141659577Y-111571785D01*
X141700500Y-111419058D01*
X141700500Y-111260943D01*
X141700500Y-109849500D01*
X141720185Y-109782461D01*
X141772989Y-109736706D01*
X141824500Y-109725500D01*
X144120234Y-109725500D01*
X144187273Y-109745185D01*
X144189125Y-109746398D01*
X144320814Y-109834390D01*
X144320827Y-109834397D01*
X144466498Y-109894735D01*
X144466503Y-109894737D01*
X144572695Y-109915860D01*
X144621153Y-109925499D01*
X144621156Y-109925500D01*
X144621158Y-109925500D01*
X144778844Y-109925500D01*
X144778845Y-109925499D01*
X144933497Y-109894737D01*
X145079179Y-109834394D01*
X145210289Y-109746789D01*
X145321789Y-109635289D01*
X145409394Y-109504179D01*
X145455731Y-109392309D01*
X145499571Y-109337906D01*
X145565865Y-109315841D01*
X145594483Y-109318144D01*
X145614417Y-109322110D01*
X145631458Y-109325500D01*
X145631459Y-109325500D01*
X145828543Y-109325500D01*
X145977796Y-109295811D01*
X146021835Y-109287051D01*
X146163891Y-109228210D01*
X146203907Y-109211635D01*
X146203907Y-109211634D01*
X146203914Y-109211632D01*
X146208519Y-109208555D01*
X146367784Y-109102138D01*
X146367785Y-109102136D01*
X146507136Y-108962785D01*
X146507139Y-108962782D01*
X146616632Y-108798914D01*
X146692051Y-108616835D01*
X146714575Y-108503602D01*
X146730500Y-108423543D01*
X146730500Y-107906333D01*
X146750185Y-107839294D01*
X146802989Y-107793539D01*
X146872147Y-107783595D01*
X146916501Y-107798947D01*
X146937859Y-107811278D01*
X146937860Y-107811278D01*
X146937865Y-107811281D01*
X147084234Y-107850500D01*
X147084236Y-107850500D01*
X147235764Y-107850500D01*
X147235766Y-107850500D01*
X147382135Y-107811281D01*
X147513365Y-107735515D01*
X147620515Y-107628365D01*
X147696281Y-107497135D01*
X147722562Y-107399051D01*
X147758924Y-107339394D01*
X147821771Y-107308864D01*
X147891146Y-107317158D01*
G37*
%TD.AperFunction*%
%TA.AperFunction,Conductor*%
G36*
X141249919Y-100933586D02*
G01*
X141252582Y-100935084D01*
X141266529Y-100943153D01*
X141305408Y-100965647D01*
X141306399Y-100966220D01*
X141306406Y-100966222D01*
X141306452Y-100966241D01*
X141306766Y-100966372D01*
X141306812Y-100966391D01*
X141306814Y-100966392D01*
X141306815Y-100966392D01*
X141306817Y-100966393D01*
X141328642Y-100972240D01*
X141370186Y-100983372D01*
X141433662Y-101000441D01*
X141433884Y-101000441D01*
X141434093Y-101000497D01*
X141434101Y-101000498D01*
X141434108Y-101000500D01*
X141434114Y-101000500D01*
X141500117Y-101000500D01*
X141565446Y-101000558D01*
X141565663Y-101000500D01*
X148546561Y-101000500D01*
X148613600Y-101020185D01*
X148659355Y-101072989D01*
X148669299Y-101142147D01*
X148640274Y-101205703D01*
X148615452Y-101227602D01*
X148539711Y-101278210D01*
X148539707Y-101278213D01*
X148428213Y-101389707D01*
X148428210Y-101389711D01*
X148340609Y-101520814D01*
X148340602Y-101520827D01*
X148280264Y-101666498D01*
X148280261Y-101666510D01*
X148249500Y-101821153D01*
X148249500Y-101978846D01*
X148280261Y-102133489D01*
X148280264Y-102133501D01*
X148340602Y-102279172D01*
X148340609Y-102279185D01*
X148428210Y-102410288D01*
X148428213Y-102410292D01*
X148539707Y-102521786D01*
X148539711Y-102521789D01*
X148670814Y-102609390D01*
X148670827Y-102609397D01*
X148816498Y-102669735D01*
X148816503Y-102669737D01*
X148971153Y-102700499D01*
X148971156Y-102700500D01*
X148971158Y-102700500D01*
X149128844Y-102700500D01*
X149128845Y-102700499D01*
X149283497Y-102669737D01*
X149429179Y-102609394D01*
X149560289Y-102521789D01*
X149671789Y-102410289D01*
X149759394Y-102279179D01*
X149759583Y-102278724D01*
X149775744Y-102239707D01*
X149819737Y-102133497D01*
X149850500Y-101978842D01*
X149850500Y-101821158D01*
X149850500Y-101821155D01*
X149850499Y-101821153D01*
X149819738Y-101666510D01*
X149819737Y-101666503D01*
X149812990Y-101650213D01*
X149759397Y-101520827D01*
X149759390Y-101520814D01*
X149671789Y-101389711D01*
X149671786Y-101389707D01*
X149560292Y-101278213D01*
X149560288Y-101278210D01*
X149484548Y-101227602D01*
X149439743Y-101173990D01*
X149431036Y-101104665D01*
X149461190Y-101041637D01*
X149520634Y-101004918D01*
X149553439Y-101000500D01*
X158234138Y-101000500D01*
X158234164Y-101000507D01*
X158300056Y-101000500D01*
X158365892Y-101000500D01*
X158365893Y-101000500D01*
X158365940Y-101000493D01*
X158365948Y-101000493D01*
X158410508Y-100988547D01*
X158429350Y-100983497D01*
X158429353Y-100983495D01*
X158493186Y-100966392D01*
X158493190Y-100966389D01*
X158493210Y-100966384D01*
X158493231Y-100966371D01*
X158493238Y-100966370D01*
X158547057Y-100935288D01*
X158614955Y-100918810D01*
X158680984Y-100941656D01*
X158724180Y-100996573D01*
X158725249Y-100999337D01*
X158756202Y-101082328D01*
X158756206Y-101082335D01*
X158842452Y-101197544D01*
X158842455Y-101197547D01*
X158957664Y-101283793D01*
X158957671Y-101283797D01*
X159089082Y-101332810D01*
X159145016Y-101374681D01*
X159169433Y-101440145D01*
X159154582Y-101508418D01*
X159133431Y-101536673D01*
X159019889Y-101650215D01*
X158894951Y-101822179D01*
X158798444Y-102011585D01*
X158732753Y-102213760D01*
X158699500Y-102423713D01*
X158699500Y-102636286D01*
X158732753Y-102846239D01*
X158732753Y-102846241D01*
X158732754Y-102846243D01*
X158792084Y-103028842D01*
X158798444Y-103048414D01*
X158894951Y-103237820D01*
X159019890Y-103409786D01*
X159170213Y-103560109D01*
X159342182Y-103685050D01*
X159350946Y-103689516D01*
X159401742Y-103737491D01*
X159418536Y-103805312D01*
X159395998Y-103871447D01*
X159350946Y-103910484D01*
X159342182Y-103914949D01*
X159170213Y-104039890D01*
X159019890Y-104190213D01*
X158894951Y-104362179D01*
X158798444Y-104551585D01*
X158732753Y-104753760D01*
X158699500Y-104963713D01*
X158699500Y-105176286D01*
X158732753Y-105386239D01*
X158798444Y-105588414D01*
X158894951Y-105777820D01*
X159019890Y-105949786D01*
X159170213Y-106100109D01*
X159342182Y-106225050D01*
X159350946Y-106229516D01*
X159401742Y-106277491D01*
X159418536Y-106345312D01*
X159395998Y-106411447D01*
X159350946Y-106450484D01*
X159342182Y-106454949D01*
X159170213Y-106579890D01*
X159019890Y-106730213D01*
X158894951Y-106902179D01*
X158798444Y-107091585D01*
X158732753Y-107293760D01*
X158716076Y-107399055D01*
X158699500Y-107503713D01*
X158699500Y-107716287D01*
X158709534Y-107779644D01*
X158729600Y-107906333D01*
X158732754Y-107926243D01*
X158772283Y-108047901D01*
X158798444Y-108128414D01*
X158894951Y-108317820D01*
X159019890Y-108489786D01*
X159170213Y-108640109D01*
X159342182Y-108765050D01*
X159350946Y-108769516D01*
X159401742Y-108817491D01*
X159418536Y-108885312D01*
X159395998Y-108951447D01*
X159350946Y-108990484D01*
X159342182Y-108994949D01*
X159170213Y-109119890D01*
X159019890Y-109270213D01*
X158894951Y-109442179D01*
X158798444Y-109631585D01*
X158798443Y-109631587D01*
X158798443Y-109631588D01*
X158753096Y-109771153D01*
X158742431Y-109803975D01*
X158702993Y-109861651D01*
X158638635Y-109888849D01*
X158569788Y-109876934D01*
X158518313Y-109829690D01*
X158503646Y-109776966D01*
X158501097Y-109777218D01*
X158500500Y-109771163D01*
X158500500Y-109771158D01*
X158469737Y-109616503D01*
X158423214Y-109504185D01*
X158409397Y-109470827D01*
X158409390Y-109470814D01*
X158321789Y-109339711D01*
X158321786Y-109339707D01*
X158210292Y-109228213D01*
X158210288Y-109228210D01*
X158079185Y-109140609D01*
X158079172Y-109140602D01*
X157933501Y-109080264D01*
X157933489Y-109080261D01*
X157778845Y-109049500D01*
X157778842Y-109049500D01*
X157621158Y-109049500D01*
X157621155Y-109049500D01*
X157466510Y-109080261D01*
X157466498Y-109080264D01*
X157320827Y-109140602D01*
X157320814Y-109140609D01*
X157189711Y-109228210D01*
X157189706Y-109228214D01*
X157146258Y-109271662D01*
X157084935Y-109305146D01*
X157015243Y-109300161D01*
X156970897Y-109271661D01*
X156868717Y-109169481D01*
X156868716Y-109169480D01*
X156752077Y-109102139D01*
X156731785Y-109090423D01*
X156673724Y-109074865D01*
X156668252Y-109072831D01*
X156644756Y-109055281D01*
X156619707Y-109040013D01*
X156617083Y-109034611D01*
X156612273Y-109031019D01*
X156601992Y-109003546D01*
X156589178Y-108977166D01*
X156589290Y-108969601D01*
X156587786Y-108965581D01*
X156589465Y-108957818D01*
X156589843Y-108932413D01*
X156600500Y-108878842D01*
X156600500Y-108721158D01*
X156600500Y-108721155D01*
X156600499Y-108721153D01*
X156585248Y-108644481D01*
X156569737Y-108566503D01*
X156569735Y-108566498D01*
X156509397Y-108420827D01*
X156509390Y-108420814D01*
X156421789Y-108289711D01*
X156421786Y-108289707D01*
X156310292Y-108178213D01*
X156310288Y-108178210D01*
X156179185Y-108090609D01*
X156179172Y-108090602D01*
X156033501Y-108030264D01*
X156033489Y-108030261D01*
X155878845Y-107999500D01*
X155878842Y-107999500D01*
X155721158Y-107999500D01*
X155721155Y-107999500D01*
X155566510Y-108030261D01*
X155566498Y-108030264D01*
X155541952Y-108040432D01*
X155472483Y-108047901D01*
X155410004Y-108016626D01*
X155374352Y-107956537D01*
X155370500Y-107925871D01*
X155370500Y-107126456D01*
X155332052Y-106933170D01*
X155332051Y-106933169D01*
X155332051Y-106933165D01*
X155310562Y-106881286D01*
X155256635Y-106751092D01*
X155256628Y-106751079D01*
X155147139Y-106587218D01*
X155147136Y-106587214D01*
X155007785Y-106447863D01*
X155007781Y-106447860D01*
X154843920Y-106338371D01*
X154843907Y-106338364D01*
X154661839Y-106262950D01*
X154661829Y-106262947D01*
X154468543Y-106224500D01*
X154468541Y-106224500D01*
X154271459Y-106224500D01*
X154271457Y-106224500D01*
X154078170Y-106262947D01*
X154078160Y-106262950D01*
X153896092Y-106338364D01*
X153896079Y-106338371D01*
X153732218Y-106447860D01*
X153732214Y-106447863D01*
X153592863Y-106587214D01*
X153592860Y-106587218D01*
X153483371Y-106751079D01*
X153483363Y-106751094D01*
X153479456Y-106760528D01*
X153435615Y-106814931D01*
X153369320Y-106836995D01*
X153301621Y-106819715D01*
X153296968Y-106816566D01*
X153293366Y-106814486D01*
X153293365Y-106814485D01*
X153199899Y-106760522D01*
X153162136Y-106738719D01*
X153084455Y-106717905D01*
X153015766Y-106699500D01*
X152864234Y-106699500D01*
X152717863Y-106738719D01*
X152586635Y-106814485D01*
X152586632Y-106814487D01*
X152479487Y-106921632D01*
X152479485Y-106921635D01*
X152403719Y-107052863D01*
X152364500Y-107199234D01*
X152364500Y-107350765D01*
X152403721Y-107497141D01*
X152406752Y-107504460D01*
X152414216Y-107573930D01*
X152382937Y-107636407D01*
X152322846Y-107672055D01*
X152253021Y-107669557D01*
X152204507Y-107639586D01*
X151453276Y-106888355D01*
X151453274Y-106888352D01*
X151334403Y-106769481D01*
X151334402Y-106769480D01*
X151247590Y-106719360D01*
X151247590Y-106719359D01*
X151247586Y-106719358D01*
X151197471Y-106690423D01*
X151044743Y-106649499D01*
X150886629Y-106649499D01*
X150879033Y-106649499D01*
X150879017Y-106649500D01*
X150679766Y-106649500D01*
X150612727Y-106629815D01*
X150610875Y-106628602D01*
X150479185Y-106540609D01*
X150479172Y-106540602D01*
X150333501Y-106480264D01*
X150333489Y-106480261D01*
X150178845Y-106449500D01*
X150178842Y-106449500D01*
X150021158Y-106449500D01*
X150021155Y-106449500D01*
X149866510Y-106480261D01*
X149866498Y-106480264D01*
X149720827Y-106540602D01*
X149720809Y-106540612D01*
X149607907Y-106616051D01*
X149541230Y-106636929D01*
X149473850Y-106618444D01*
X149451336Y-106600630D01*
X147284061Y-104433355D01*
X147284059Y-104433352D01*
X147165188Y-104314481D01*
X147165187Y-104314480D01*
X147078375Y-104264360D01*
X147078375Y-104264359D01*
X147078371Y-104264358D01*
X147028256Y-104235423D01*
X146875528Y-104194499D01*
X146854500Y-104194499D01*
X146787461Y-104174814D01*
X146741706Y-104122010D01*
X146730500Y-104070499D01*
X146730500Y-103674500D01*
X146750185Y-103607461D01*
X146802989Y-103561706D01*
X146854500Y-103550500D01*
X146978844Y-103550500D01*
X146978845Y-103550499D01*
X147133497Y-103519737D01*
X147279179Y-103459394D01*
X147410289Y-103371789D01*
X147521789Y-103260289D01*
X147609394Y-103129179D01*
X147669737Y-102983497D01*
X147692084Y-102871153D01*
X151849500Y-102871153D01*
X151849500Y-103028846D01*
X151880261Y-103183489D01*
X151880264Y-103183501D01*
X151940602Y-103329172D01*
X151940609Y-103329185D01*
X152028210Y-103460288D01*
X152028213Y-103460292D01*
X152139707Y-103571786D01*
X152139711Y-103571789D01*
X152270814Y-103659390D01*
X152270827Y-103659397D01*
X152343542Y-103689516D01*
X152416503Y-103719737D01*
X152571153Y-103750499D01*
X152571156Y-103750500D01*
X152571158Y-103750500D01*
X152728844Y-103750500D01*
X152728845Y-103750499D01*
X152883497Y-103719737D01*
X153029179Y-103659394D01*
X153160289Y-103571789D01*
X153160293Y-103571784D01*
X153164999Y-103567924D01*
X153166367Y-103569591D01*
X153219142Y-103540775D01*
X153288834Y-103545759D01*
X153344767Y-103587631D01*
X153369184Y-103653095D01*
X153369500Y-103661941D01*
X153369500Y-104093541D01*
X153369500Y-104093543D01*
X153369499Y-104093543D01*
X153407947Y-104286829D01*
X153407950Y-104286839D01*
X153483364Y-104468907D01*
X153483371Y-104468920D01*
X153592860Y-104632781D01*
X153592863Y-104632785D01*
X153732214Y-104772136D01*
X153732218Y-104772139D01*
X153896079Y-104881628D01*
X153896092Y-104881635D01*
X154078160Y-104957049D01*
X154078165Y-104957051D01*
X154078169Y-104957051D01*
X154078170Y-104957052D01*
X154271456Y-104995500D01*
X154271459Y-104995500D01*
X154468543Y-104995500D01*
X154628343Y-104963713D01*
X154661835Y-104957051D01*
X154843914Y-104881632D01*
X155007782Y-104772139D01*
X155147139Y-104632782D01*
X155256632Y-104468914D01*
X155332051Y-104286835D01*
X155353470Y-104179158D01*
X155370500Y-104093543D01*
X155370500Y-103096456D01*
X155332052Y-102903170D01*
X155332051Y-102903169D01*
X155332051Y-102903165D01*
X155325985Y-102888521D01*
X155256635Y-102721092D01*
X155256628Y-102721079D01*
X155147139Y-102557218D01*
X155147136Y-102557214D01*
X155007785Y-102417863D01*
X155007781Y-102417860D01*
X154843920Y-102308371D01*
X154843907Y-102308364D01*
X154661839Y-102232950D01*
X154661829Y-102232947D01*
X154468543Y-102194500D01*
X154468541Y-102194500D01*
X154271459Y-102194500D01*
X154271457Y-102194500D01*
X154078170Y-102232947D01*
X154078160Y-102232950D01*
X153896092Y-102308364D01*
X153896079Y-102308371D01*
X153732218Y-102417860D01*
X153732214Y-102417863D01*
X153592863Y-102557214D01*
X153574051Y-102585369D01*
X153520438Y-102630173D01*
X153451113Y-102638880D01*
X153388086Y-102608725D01*
X153361590Y-102574928D01*
X153359395Y-102570822D01*
X153271789Y-102439711D01*
X153271786Y-102439707D01*
X153160292Y-102328213D01*
X153160288Y-102328210D01*
X153029185Y-102240609D01*
X153029172Y-102240602D01*
X152883501Y-102180264D01*
X152883489Y-102180261D01*
X152728845Y-102149500D01*
X152728842Y-102149500D01*
X152571158Y-102149500D01*
X152571155Y-102149500D01*
X152416510Y-102180261D01*
X152416498Y-102180264D01*
X152270827Y-102240602D01*
X152270814Y-102240609D01*
X152139711Y-102328210D01*
X152139707Y-102328213D01*
X152028213Y-102439707D01*
X152028210Y-102439711D01*
X151940609Y-102570814D01*
X151940602Y-102570827D01*
X151880264Y-102716498D01*
X151880261Y-102716510D01*
X151849500Y-102871153D01*
X147692084Y-102871153D01*
X147697039Y-102846242D01*
X147698107Y-102840875D01*
X147698107Y-102840874D01*
X147700500Y-102828844D01*
X147700500Y-102671155D01*
X147700499Y-102671153D01*
X147693563Y-102636286D01*
X147669737Y-102516503D01*
X147637929Y-102439711D01*
X147609397Y-102370827D01*
X147609390Y-102370814D01*
X147521789Y-102239711D01*
X147521786Y-102239707D01*
X147410292Y-102128213D01*
X147410288Y-102128210D01*
X147279185Y-102040609D01*
X147279172Y-102040602D01*
X147133501Y-101980264D01*
X147133489Y-101980261D01*
X146978845Y-101949500D01*
X146978842Y-101949500D01*
X146821158Y-101949500D01*
X146821155Y-101949500D01*
X146666510Y-101980261D01*
X146666498Y-101980264D01*
X146520827Y-102040602D01*
X146520814Y-102040609D01*
X146389711Y-102128210D01*
X146389707Y-102128213D01*
X146278209Y-102239711D01*
X146275650Y-102242830D01*
X146217903Y-102282163D01*
X146148059Y-102284032D01*
X146132347Y-102278724D01*
X146021839Y-102232950D01*
X146021829Y-102232947D01*
X145828543Y-102194500D01*
X145828541Y-102194500D01*
X145631459Y-102194500D01*
X145631457Y-102194500D01*
X145438170Y-102232947D01*
X145438160Y-102232950D01*
X145256092Y-102308364D01*
X145256079Y-102308371D01*
X145092218Y-102417860D01*
X145092214Y-102417863D01*
X144952863Y-102557214D01*
X144952860Y-102557218D01*
X144843371Y-102721079D01*
X144843364Y-102721092D01*
X144767950Y-102903160D01*
X144767947Y-102903170D01*
X144729500Y-103096456D01*
X144729500Y-104070500D01*
X144709815Y-104137539D01*
X144657011Y-104183294D01*
X144605500Y-104194500D01*
X142315098Y-104194500D01*
X142248059Y-104174815D01*
X142227417Y-104158181D01*
X141083757Y-103014522D01*
X141050272Y-102953199D01*
X141053507Y-102888523D01*
X141067246Y-102846243D01*
X141100500Y-102636287D01*
X141100500Y-102423713D01*
X141067246Y-102213757D01*
X141001557Y-102011588D01*
X140905051Y-101822184D01*
X140905049Y-101822181D01*
X140905048Y-101822179D01*
X140780109Y-101650213D01*
X140666181Y-101536285D01*
X140632696Y-101474962D01*
X140637680Y-101405270D01*
X140679552Y-101349337D01*
X140710529Y-101332422D01*
X140842086Y-101283354D01*
X140842093Y-101283350D01*
X140957187Y-101197190D01*
X140957190Y-101197187D01*
X141043350Y-101082093D01*
X141043355Y-101082084D01*
X141074311Y-100999087D01*
X141116182Y-100943153D01*
X141181646Y-100918735D01*
X141249919Y-100933586D01*
G37*
%TD.AperFunction*%
%TD*%
M02*
