%TF.GenerationSoftware,KiCad,Pcbnew,10.0.4*%
%TF.CreationDate,2026-09-15T18:50:24-04:00*%
%TF.ProjectId,devboard,64657662-6f61-4726-942e-6b696361645f,rev?*%
%TF.SameCoordinates,Original*%
%TF.FileFunction,Copper,L4,Bot*%
%TF.FilePolarity,Positive*%
%FSLAX46Y46*%
G04 Gerber Fmt 4.6, Leading zero omitted, Abs format (unit mm)*
G04 Created by KiCad (PCBNEW 10.0.4) date 2026-09-15 18:50:24*
%MOMM*%
%LPD*%
G01*
G04 APERTURE LIST*
G04 Aperture macros list*
%AMRoundRect*
0 Rectangle with rounded corners*
0 $1 Rounding radius*
0 $2 $3 $4 $5 $6 $7 $8 $9 X,Y pos of 4 corners*
0 Add a 4 corners polygon primitive as box body*
4,1,4,$2,$3,$4,$5,$6,$7,$8,$9,$2,$3,0*
0 Add four circle primitives for the rounded corners*
1,1,$1+$1,$2,$3*
1,1,$1+$1,$4,$5*
1,1,$1+$1,$6,$7*
1,1,$1+$1,$8,$9*
0 Add four rect primitives between the rounded corners*
20,1,$1+$1,$2,$3,$4,$5,0*
20,1,$1+$1,$4,$5,$6,$7,0*
20,1,$1+$1,$6,$7,$8,$9,0*
20,1,$1+$1,$8,$9,$2,$3,0*%
G04 Aperture macros list end*
%TA.AperFunction,ComponentPad*%
%ADD10O,1.000000X2.100000*%
%TD*%
%TA.AperFunction,ComponentPad*%
%ADD11O,1.000000X1.800000*%
%TD*%
%TA.AperFunction,SMDPad,CuDef*%
%ADD12RoundRect,0.150000X0.512500X0.150000X-0.512500X0.150000X-0.512500X-0.150000X0.512500X-0.150000X0*%
%TD*%
%TA.AperFunction,SMDPad,CuDef*%
%ADD13RoundRect,0.140000X0.140000X0.170000X-0.140000X0.170000X-0.140000X-0.170000X0.140000X-0.170000X0*%
%TD*%
%TA.AperFunction,SMDPad,CuDef*%
%ADD14RoundRect,0.135000X0.185000X-0.135000X0.185000X0.135000X-0.185000X0.135000X-0.185000X-0.135000X0*%
%TD*%
%TA.AperFunction,SMDPad,CuDef*%
%ADD15RoundRect,0.140000X-0.140000X-0.170000X0.140000X-0.170000X0.140000X0.170000X-0.140000X0.170000X0*%
%TD*%
%TA.AperFunction,SMDPad,CuDef*%
%ADD16R,0.700000X1.200000*%
%TD*%
%TA.AperFunction,SMDPad,CuDef*%
%ADD17R,1.000000X0.800000*%
%TD*%
%TA.AperFunction,SMDPad,CuDef*%
%ADD18R,1.000000X2.800000*%
%TD*%
%TA.AperFunction,SMDPad,CuDef*%
%ADD19R,1.000000X1.200000*%
%TD*%
%TA.AperFunction,SMDPad,CuDef*%
%ADD20R,1.300000X1.900000*%
%TD*%
%TA.AperFunction,ComponentPad*%
%ADD21R,1.700000X1.700000*%
%TD*%
%TA.AperFunction,ComponentPad*%
%ADD22C,1.700000*%
%TD*%
%TA.AperFunction,SMDPad,CuDef*%
%ADD23RoundRect,0.135000X0.135000X0.185000X-0.135000X0.185000X-0.135000X-0.185000X0.135000X-0.185000X0*%
%TD*%
%TA.AperFunction,SMDPad,CuDef*%
%ADD24RoundRect,0.250000X0.700000X0.950000X-0.700000X0.950000X-0.700000X-0.950000X0.700000X-0.950000X0*%
%TD*%
%TA.AperFunction,ViaPad*%
%ADD25C,0.600000*%
%TD*%
%TA.AperFunction,Conductor*%
%ADD26C,0.200000*%
%TD*%
G04 APERTURE END LIST*
D10*
%TO.P,J1,SH*%
%TO.N,GND*%
X154370000Y-107775000D03*
D11*
X154370000Y-103595000D03*
D10*
X145730000Y-107775000D03*
D11*
X145730000Y-103595000D03*
%TD*%
D12*
%TO.P,U2,1*%
%TO.N,VBUS*%
X151587500Y-113837500D03*
%TO.P,U2,2*%
%TO.N,GND*%
X151587500Y-114787500D03*
%TO.P,U2,3*%
%TO.N,VBUS*%
X151587500Y-115737500D03*
%TO.P,U2,4*%
%TO.N,N/C*%
X149312500Y-115737500D03*
%TO.P,U2,5*%
%TO.N,3v3*%
X149312500Y-113837500D03*
%TD*%
D13*
%TO.P,C2,1*%
%TO.N,OSC_OUT*%
X148230000Y-102250000D03*
%TO.P,C2,2*%
%TO.N,GND*%
X147270000Y-102250000D03*
%TD*%
D14*
%TO.P,R13,1*%
%TO.N,SD_DAT2*%
X147200000Y-124310000D03*
%TO.P,R13,2*%
%TO.N,3v3*%
X147200000Y-123290000D03*
%TD*%
D15*
%TO.P,C15,1*%
%TO.N,3v3*%
X150470000Y-124000000D03*
%TO.P,C15,2*%
%TO.N,GND*%
X151430000Y-124000000D03*
%TD*%
D14*
%TO.P,R12,1*%
%TO.N,SD_DAT1*%
X154850000Y-124310000D03*
%TO.P,R12,2*%
%TO.N,3v3*%
X154850000Y-123290000D03*
%TD*%
D13*
%TO.P,C8,1*%
%TO.N,3v3*%
X150380000Y-102250000D03*
%TO.P,C8,2*%
%TO.N,GND*%
X149420000Y-102250000D03*
%TD*%
D16*
%TO.P,J2,1*%
%TO.N,SD_DAT2*%
X147155000Y-125860000D03*
%TO.P,J2,2*%
%TO.N,SD_CS*%
X148255000Y-125860000D03*
%TO.P,J2,3*%
%TO.N,SD_MOSI*%
X149355000Y-125860000D03*
%TO.P,J2,4*%
%TO.N,3v3*%
X150455000Y-125860000D03*
%TO.P,J2,5*%
%TO.N,SD_SCK*%
X151555000Y-125860000D03*
%TO.P,J2,6*%
%TO.N,GND*%
X152655000Y-125860000D03*
%TO.P,J2,7*%
%TO.N,SD_MISO*%
X153755000Y-125860000D03*
%TO.P,J2,8*%
%TO.N,SD_DAT1*%
X154855000Y-125860000D03*
%TO.P,J2,9*%
%TO.N,SD_CD*%
X155805000Y-125860000D03*
D17*
%TO.P,J2,10*%
%TO.N,N/C*%
X156755000Y-136360000D03*
D18*
%TO.P,J2,SH*%
%TO.N,GND*%
X156755000Y-140510000D03*
D19*
X156755000Y-130160000D03*
X145605000Y-125860000D03*
D20*
X143255000Y-140960000D03*
%TD*%
D21*
%TO.P,J5,1*%
%TO.N,PA10*%
X160050000Y-122850000D03*
D22*
%TO.P,J5,2*%
%TO.N,PA15*%
X160050000Y-125390000D03*
%TO.P,J5,3*%
%TO.N,PB0*%
X160050000Y-127930000D03*
%TO.P,J5,4*%
%TO.N,PB1*%
X160050000Y-130470000D03*
%TO.P,J5,5*%
%TO.N,PB2*%
X160050000Y-133010000D03*
%TO.P,J5,6*%
%TO.N,PB3*%
X160050000Y-135550000D03*
%TO.P,J5,7*%
%TO.N,PB4*%
X160050000Y-138090000D03*
%TO.P,J5,8*%
%TO.N,PB5*%
X160050000Y-140630000D03*
%TD*%
D21*
%TO.P,J7,1*%
%TO.N,3v3*%
X139750000Y-99990000D03*
D22*
%TO.P,J7,2*%
%TO.N,SWDIO*%
X139750000Y-102530000D03*
%TO.P,J7,3*%
%TO.N,SWCLK*%
X139750000Y-105070000D03*
%TO.P,J7,4*%
%TO.N,GND*%
X139750000Y-107610000D03*
%TO.P,J7,5*%
%TO.N,NRST*%
X139750000Y-110150000D03*
%TO.P,J7,6*%
%TO.N,VBUS*%
X139750000Y-112690000D03*
%TO.P,J7,7*%
%TO.N,BOOT0_NET*%
X139750000Y-115230000D03*
%TO.P,J7,8*%
%TO.N,USER_BTN*%
X139750000Y-117770000D03*
%TD*%
D15*
%TO.P,C1,1*%
%TO.N,OSC_IN*%
X151820000Y-102250000D03*
%TO.P,C1,2*%
%TO.N,GND*%
X152780000Y-102250000D03*
%TD*%
D12*
%TO.P,D1,1*%
%TO.N,USB_DP*%
X151587500Y-117237500D03*
%TO.P,D1,2*%
%TO.N,GND*%
X151587500Y-118187500D03*
%TO.P,D1,3*%
%TO.N,USB_DM*%
X151587500Y-119137500D03*
%TO.P,D1,4*%
X149312500Y-119137500D03*
%TO.P,D1,5*%
%TO.N,VBUS*%
X149312500Y-118187500D03*
%TO.P,D1,6*%
%TO.N,USB_DP*%
X149312500Y-117237500D03*
%TD*%
D21*
%TO.P,J4,1*%
%TO.N,PA1*%
X139750000Y-122850000D03*
D22*
%TO.P,J4,2*%
%TO.N,PA2*%
X139750000Y-125390000D03*
%TO.P,J4,3*%
%TO.N,PA3*%
X139750000Y-127930000D03*
%TO.P,J4,4*%
%TO.N,PA4*%
X139750000Y-130470000D03*
%TO.P,J4,5*%
%TO.N,PA5*%
X139750000Y-133010000D03*
%TO.P,J4,6*%
%TO.N,PA6*%
X139750000Y-135550000D03*
%TO.P,J4,7*%
%TO.N,PA7*%
X139750000Y-138090000D03*
%TO.P,J4,8*%
%TO.N,PA8*%
X139750000Y-140630000D03*
%TD*%
D23*
%TO.P,R1,1*%
%TO.N,3v3*%
X146310000Y-124050000D03*
%TO.P,R1,2*%
%TO.N,NRST*%
X145290000Y-124050000D03*
%TD*%
D21*
%TO.P,J6,1*%
%TO.N,PB6*%
X160050000Y-99990000D03*
D22*
%TO.P,J6,2*%
%TO.N,PB7*%
X160050000Y-102530000D03*
%TO.P,J6,3*%
%TO.N,PB9*%
X160050000Y-105070000D03*
%TO.P,J6,4*%
%TO.N,PB10*%
X160050000Y-107610000D03*
%TO.P,J6,5*%
%TO.N,PC14*%
X160050000Y-110150000D03*
%TO.P,J6,6*%
%TO.N,PC15*%
X160050000Y-112690000D03*
%TO.P,J6,7*%
%TO.N,3v3*%
X160050000Y-115230000D03*
%TO.P,J6,8*%
%TO.N,GND*%
X160050000Y-117770000D03*
%TD*%
D24*
%TO.P,Y1,1*%
%TO.N,OSC_IN*%
X152000000Y-104850000D03*
%TO.P,Y1,2*%
%TO.N,OSC_OUT*%
X147900000Y-104850000D03*
%TD*%
D25*
%TO.N,VBUS*%
X144700000Y-109125000D03*
X154650000Y-113550000D03*
%TO.N,GND*%
X144150000Y-116600000D03*
X147400000Y-121987554D03*
X149725000Y-110625000D03*
X146950000Y-110675000D03*
X147950000Y-113750000D03*
X152300000Y-127250000D03*
X155850000Y-141000000D03*
X149050000Y-101900000D03*
X155825000Y-131175000D03*
X147550000Y-117062500D03*
X150800000Y-114800000D03*
X155125000Y-120825000D03*
X152650000Y-102950000D03*
X150800000Y-118187500D03*
X146900000Y-102750000D03*
X144000000Y-118500000D03*
X155725000Y-113425000D03*
X144150000Y-139750000D03*
X145075000Y-125175000D03*
%TO.N,3v3*%
X142000000Y-110350000D03*
X153100000Y-130100000D03*
X156500000Y-117950000D03*
X150450000Y-101800000D03*
X146950000Y-113050000D03*
X150450000Y-124350000D03*
X153637500Y-113237500D03*
X145550000Y-111900000D03*
X153200000Y-119750000D03*
X143900000Y-123650000D03*
X156500000Y-119350000D03*
X154950000Y-121800000D03*
X143700000Y-137050000D03*
X145250000Y-130600000D03*
X148630000Y-110293297D03*
X157200000Y-126000000D03*
X147700000Y-123550000D03*
X157350000Y-120950000D03*
X143548481Y-117839595D03*
%TO.N,BOOT0_NET*%
X149450000Y-111410000D03*
%TO.N,USER_BTN*%
X144800000Y-136600000D03*
X145360000Y-118600000D03*
%TO.N,SD_CS*%
X154450000Y-119400000D03*
%TO.N,VDDA*%
X144850000Y-121950000D03*
X145610000Y-117568527D03*
%TO.N,SD_CD*%
X148679592Y-111797713D03*
X156102500Y-127797500D03*
%TO.N,PC14*%
X143095983Y-114852544D03*
X145087325Y-114506611D03*
%TO.N,PC15*%
X144295983Y-114624005D03*
%TO.N,OSC_IN*%
X144101473Y-115400000D03*
%TO.N,OSC_OUT*%
X143578046Y-116040650D03*
%TO.N,NRST*%
X152300000Y-122000000D03*
X145570199Y-124435548D03*
X146050000Y-122150000D03*
X145590000Y-116740000D03*
%TO.N,PA1*%
X144900000Y-119400000D03*
%TO.N,PA2*%
X145412149Y-120014579D03*
%TO.N,PA3*%
X146105646Y-120413409D03*
%TO.N,PA4*%
X146942560Y-120505970D03*
%TO.N,PA5*%
X147540572Y-121200000D03*
%TO.N,PA6*%
X148850000Y-120748527D03*
%TO.N,PA7*%
X149226553Y-121476553D03*
%TO.N,PB0*%
X152924896Y-124250000D03*
%TO.N,PB1*%
X150879818Y-121128348D03*
X152650000Y-123350000D03*
%TO.N,PB2*%
X151656001Y-121322101D03*
X150950000Y-128600000D03*
X148970249Y-122234387D03*
%TO.N,PB10*%
X143020000Y-113936464D03*
X152589173Y-121087500D03*
%TO.N,SD_SCK*%
X156650000Y-124300000D03*
X151650000Y-124850000D03*
X157215544Y-118992228D03*
%TO.N,SD_MISO*%
X155040000Y-117950000D03*
%TO.N,SD_MOSI*%
X149350000Y-124450000D03*
X157250000Y-125150000D03*
X157186955Y-117540004D03*
%TO.N,PA8*%
X156961999Y-116772284D03*
%TO.N,PA10*%
X156087224Y-115950000D03*
%TO.N,USB_DM*%
X155800000Y-108800000D03*
X157700000Y-109850000D03*
X149600000Y-109450000D03*
X155442348Y-115476570D03*
%TO.N,USB_DP*%
X150100000Y-107250000D03*
X156800000Y-114750000D03*
X155276116Y-114694029D03*
%TO.N,SWDIO*%
X154500000Y-114500000D03*
%TO.N,SWCLK*%
X153656996Y-112030430D03*
%TO.N,PA15*%
X153091309Y-111464742D03*
X156450000Y-111550000D03*
%TO.N,PB3*%
X156954279Y-112391534D03*
X152292427Y-111422471D03*
%TO.N,PB4*%
X157325000Y-113610782D03*
X152098413Y-110646354D03*
%TO.N,PB5*%
X157607763Y-114459233D03*
X151301479Y-110716360D03*
%TO.N,PB6*%
X150505788Y-110799282D03*
%TO.N,PB7*%
X150269951Y-111565345D03*
X142293768Y-113600917D03*
%TO.N,PB9*%
X143020000Y-111478527D03*
X147695786Y-111686902D03*
%TD*%
%TO.N,VBUS*%
D26*
X149312500Y-118187500D02*
X148650001Y-118187500D01*
X151587500Y-113837500D02*
X154512500Y-113837500D01*
X148650001Y-118187500D02*
X148350000Y-117887499D01*
X152550000Y-115128052D02*
X151940552Y-115737500D01*
X152550000Y-114137501D02*
X152550000Y-115128052D01*
X151940552Y-115737500D02*
X151587500Y-115737500D01*
X154512500Y-113837500D02*
X154650000Y-113700000D01*
X152249999Y-113837500D02*
X152550000Y-114137501D01*
X148909448Y-116337500D02*
X150987500Y-116337500D01*
X150987500Y-116337500D02*
X151587500Y-115737500D01*
X154650000Y-113550000D02*
X154650000Y-113500000D01*
X148350000Y-116896948D02*
X148909448Y-116337500D01*
X151587500Y-113837500D02*
X152249999Y-113837500D01*
X154650000Y-113700000D02*
X154650000Y-113550000D01*
X148350000Y-117887499D02*
X148350000Y-116896948D01*
%TO.N,GND*%
X145605000Y-125705000D02*
X145075000Y-125175000D01*
X156281422Y-130718578D02*
X155825000Y-131175000D01*
X152780000Y-102820000D02*
X152650000Y-102950000D01*
X152655000Y-124945001D02*
X152655000Y-125860000D01*
X151430000Y-124000000D02*
X151709999Y-124000000D01*
X150650000Y-118200000D02*
X150662500Y-118187500D01*
X151587500Y-118187500D02*
X150800000Y-118187500D01*
X156305000Y-130718578D02*
X156281422Y-130718578D01*
X149420000Y-102250000D02*
X149400000Y-102250000D01*
X145605000Y-125860000D02*
X145605000Y-125705000D01*
X156265000Y-141000000D02*
X155850000Y-141000000D01*
X152780000Y-102250000D02*
X152780000Y-102820000D01*
X143255000Y-140960000D02*
X144150000Y-140065000D01*
X156755000Y-130268578D02*
X156305000Y-130718578D01*
X151709999Y-124000000D02*
X152655000Y-124945001D01*
X145075000Y-125175000D02*
X145000000Y-125100000D01*
X155825000Y-131175000D02*
X155800000Y-131200000D01*
X150800000Y-118187500D02*
X150662500Y-118187500D01*
X151587500Y-114787500D02*
X150812500Y-114787500D01*
X152655000Y-125860000D02*
X152655000Y-126895000D01*
X147270000Y-102380000D02*
X146900000Y-102750000D01*
X144150000Y-139750000D02*
X144150000Y-139700000D01*
X150812500Y-114787500D02*
X150800000Y-114800000D01*
X147270000Y-102250000D02*
X147270000Y-102380000D01*
X149400000Y-102250000D02*
X149050000Y-101900000D01*
X156755000Y-140510000D02*
X156265000Y-141000000D01*
X144150000Y-140065000D02*
X144150000Y-139750000D01*
X156755000Y-130160000D02*
X156755000Y-130268578D01*
X152655000Y-126895000D02*
X152300000Y-127250000D01*
%TO.N,3v3*%
X150450000Y-124900000D02*
X150455000Y-124905000D01*
X149312500Y-113837500D02*
X148525000Y-113050000D01*
X150509448Y-113237500D02*
X146950000Y-116796948D01*
X145250000Y-130600000D02*
X143700000Y-132150000D01*
X148525000Y-113050000D02*
X146950000Y-113050000D01*
X146505000Y-126760000D02*
X146405000Y-126660000D01*
X146950000Y-118078052D02*
X148621948Y-119750000D01*
X144500000Y-123050000D02*
X143900000Y-123650000D01*
X146310000Y-123611471D02*
X145748529Y-123050000D01*
X150455000Y-124905000D02*
X150455000Y-125860000D01*
X143900000Y-123650000D02*
X143400000Y-123150000D01*
X154850000Y-123290000D02*
X154850000Y-123000000D01*
X143700000Y-137050000D02*
X143700000Y-137100000D01*
X150005000Y-126760000D02*
X146505000Y-126760000D01*
X146310000Y-124050000D02*
X146440000Y-124050000D01*
X153100000Y-130100000D02*
X153100000Y-129901471D01*
X146440000Y-124050000D02*
X147200000Y-123290000D01*
X158450000Y-116830000D02*
X160050000Y-115230000D01*
X150450000Y-124350000D02*
X150470000Y-124330000D01*
X143400000Y-123150000D02*
X143400000Y-117988076D01*
X150455000Y-126310000D02*
X150005000Y-126760000D01*
X149912500Y-113237500D02*
X153637500Y-113237500D01*
X150380000Y-102250000D02*
X150380000Y-101870000D01*
X147200000Y-123290000D02*
X147440000Y-123290000D01*
X142000000Y-110350000D02*
X142000000Y-102240000D01*
X145250000Y-130600000D02*
X146165000Y-130600000D01*
X150455000Y-126310000D02*
X150455000Y-125860000D01*
X153100000Y-129901471D02*
X150455000Y-127256471D01*
X146310000Y-124050000D02*
X146310000Y-123611471D01*
X155150000Y-122000000D02*
X154950000Y-121800000D01*
X154850000Y-123000000D02*
X155150000Y-122700000D01*
X146405000Y-126660000D02*
X146405000Y-124145000D01*
X158450000Y-119850000D02*
X158450000Y-116830000D01*
X145748529Y-123050000D02*
X144500000Y-123050000D01*
X146405000Y-124145000D02*
X146310000Y-124050000D01*
X148621948Y-119750000D02*
X153200000Y-119750000D01*
X149312500Y-113837500D02*
X149912500Y-113237500D01*
X150470000Y-124330000D02*
X150470000Y-124000000D01*
X155150000Y-122700000D02*
X155150000Y-122000000D01*
X146165000Y-130600000D02*
X150455000Y-126310000D01*
X150380000Y-101870000D02*
X150450000Y-101800000D01*
X147440000Y-123290000D02*
X147700000Y-123550000D01*
X146950000Y-116796948D02*
X146950000Y-118078052D01*
X150450000Y-124350000D02*
X150450000Y-124900000D01*
X157350000Y-120950000D02*
X158450000Y-119850000D01*
X143400000Y-117988076D02*
X143548481Y-117839595D01*
X142000000Y-102240000D02*
X139750000Y-99990000D01*
X150455000Y-127256471D02*
X150455000Y-125860000D01*
X143700000Y-132150000D02*
X143700000Y-137050000D01*
%TO.N,SD_CS*%
X149101471Y-123850000D02*
X148750000Y-124201471D01*
X149265686Y-123850000D02*
X149101471Y-123850000D01*
X153800000Y-120734315D02*
X153800000Y-122400000D01*
X154450000Y-120084314D02*
X153800000Y-120734315D01*
X148750000Y-124201471D02*
X148750000Y-124698529D01*
X154450000Y-119400000D02*
X154450000Y-120084314D01*
X150415686Y-122700000D02*
X149881298Y-123234387D01*
X153500000Y-122700000D02*
X150415686Y-122700000D01*
X148750735Y-124699265D02*
X148255000Y-125195000D01*
X149881298Y-123234387D02*
X149265686Y-123850000D01*
X148750000Y-124698529D02*
X148750735Y-124699265D01*
X148255000Y-125195000D02*
X148255000Y-125860000D01*
X153800000Y-122400000D02*
X153500000Y-122700000D01*
%TO.N,VDDA*%
X145250000Y-117600000D02*
X144599264Y-118250736D01*
X144600000Y-118748529D02*
X144300000Y-119048529D01*
X144599264Y-118250736D02*
X144600000Y-118251471D01*
X145610000Y-117568527D02*
X145327159Y-117568527D01*
X145327159Y-117568527D02*
X145295685Y-117600000D01*
X145295685Y-117600000D02*
X145250000Y-117600000D01*
X144300000Y-121400000D02*
X144850000Y-121950000D01*
X144600000Y-118251471D02*
X144600000Y-118748529D01*
X144300000Y-119048529D02*
X144300000Y-121400000D01*
%TO.N,SD_CD*%
X153388971Y-112637500D02*
X153376471Y-112650000D01*
X155805000Y-125860000D02*
X155805000Y-127500000D01*
X151265345Y-112165345D02*
X150021422Y-112165345D01*
X153898529Y-112650000D02*
X153886029Y-112637500D01*
X148679592Y-111797713D02*
X149047224Y-112165345D01*
X155805000Y-127500000D02*
X156102500Y-127797500D01*
X153886029Y-112637500D02*
X153388971Y-112637500D01*
X151750000Y-112650000D02*
X151265345Y-112165345D01*
X149047224Y-112165345D02*
X150021422Y-112165345D01*
X150021422Y-112165345D02*
X150250000Y-112165345D01*
X153376471Y-112650000D02*
X151750000Y-112650000D01*
%TO.N,OSC_IN*%
X152000000Y-102430000D02*
X151820000Y-102250000D01*
X146350000Y-110923529D02*
X146550000Y-111123529D01*
X144047454Y-114024005D02*
X143695983Y-114375476D01*
X148150000Y-107150000D02*
X148150000Y-109285785D01*
X144838796Y-113906611D02*
X144721402Y-114024005D01*
X143695983Y-114375476D02*
X143695983Y-114872534D01*
X146965256Y-106350000D02*
X147350000Y-106350000D01*
X145950000Y-112484315D02*
X145950000Y-113600000D01*
X144721402Y-114024005D02*
X144047454Y-114024005D01*
X146550000Y-111884314D02*
X145950000Y-112484315D01*
X146650000Y-106034744D02*
X146965256Y-106350000D01*
X146965256Y-103350000D02*
X146650000Y-103665256D01*
X147360785Y-110075000D02*
X146701471Y-110075000D01*
X145643389Y-113906611D02*
X144838796Y-113906611D01*
X143695983Y-114872534D02*
X144047454Y-115224005D01*
X148150000Y-109285785D02*
X147360785Y-110075000D01*
X145950000Y-113600000D02*
X145643389Y-113906611D01*
X146650000Y-103665256D02*
X146650000Y-106034744D01*
X152000000Y-104850000D02*
X150500000Y-103350000D01*
X147350000Y-106350000D02*
X148150000Y-107150000D01*
X150500000Y-103350000D02*
X146965256Y-103350000D01*
X146550000Y-111123529D02*
X146550000Y-111884314D01*
X152000000Y-104850000D02*
X152000000Y-102430000D01*
X146350000Y-110426471D02*
X146350000Y-110923529D01*
X146701471Y-110075000D02*
X146350000Y-110426471D01*
%TO.N,OSC_OUT*%
X151240000Y-101893866D02*
X151240000Y-102460000D01*
X148550000Y-109451471D02*
X147550000Y-110451471D01*
X147900000Y-104850000D02*
X148550000Y-105500000D01*
X146350000Y-114092465D02*
X144442465Y-116000000D01*
X150750000Y-102950000D02*
X148930000Y-102950000D01*
X151240000Y-102460000D02*
X150750000Y-102950000D01*
X147093212Y-111906788D02*
X146350000Y-112650000D01*
X153106134Y-101640000D02*
X151493866Y-101640000D01*
X153360000Y-101893866D02*
X153106134Y-101640000D01*
X147550000Y-110451471D02*
X147550000Y-110950000D01*
X147093212Y-111406788D02*
X147093212Y-111906788D01*
X144442465Y-116000000D02*
X143618696Y-116000000D01*
X147550000Y-110950000D02*
X147093212Y-111406788D01*
X143618696Y-116000000D02*
X143578046Y-116040650D01*
X147900000Y-104850000D02*
X149400000Y-106350000D01*
X148550000Y-105500000D02*
X148550000Y-109451471D01*
X153360000Y-105924744D02*
X153360000Y-101893866D01*
X152934744Y-106350000D02*
X153360000Y-105924744D01*
X146350000Y-112650000D02*
X146350000Y-114092465D01*
X149400000Y-106350000D02*
X152934744Y-106350000D01*
X151493866Y-101640000D02*
X151240000Y-101893866D01*
X148930000Y-102950000D02*
X148230000Y-102250000D01*
%TO.N,NRST*%
X146487554Y-122587554D02*
X146050000Y-122150000D01*
X145570199Y-124330199D02*
X145290000Y-124050000D01*
X152000000Y-122300000D02*
X150250000Y-122300000D01*
X152300000Y-122000000D02*
X152000000Y-122300000D01*
X145130000Y-117200000D02*
X143888867Y-117200000D01*
X140900000Y-110350000D02*
X140700000Y-110150000D01*
X140900000Y-114211133D02*
X140900000Y-110350000D01*
X143888867Y-117200000D02*
X140900000Y-114211133D01*
X145630000Y-116700000D02*
X145130000Y-117200000D01*
X145570199Y-124435548D02*
X145570199Y-124330199D01*
X149715613Y-122834387D02*
X147683311Y-122834387D01*
X147683311Y-122834387D02*
X147436478Y-122587554D01*
X140700000Y-110150000D02*
X139750000Y-110150000D01*
X147436478Y-122587554D02*
X146487554Y-122587554D01*
X150250000Y-122300000D02*
X149715613Y-122834387D01*
%TO.N,PB2*%
X151128102Y-121850000D02*
X151656001Y-121322101D01*
X150100000Y-121850000D02*
X151128102Y-121850000D01*
X149715613Y-122234387D02*
X150100000Y-121850000D01*
X148970249Y-122234387D02*
X149715613Y-122234387D01*
%TO.N,PB10*%
X144950000Y-110223529D02*
X144100000Y-109373529D01*
X144950000Y-113200000D02*
X144950000Y-110223529D01*
X144930000Y-104326371D02*
X144930000Y-102863629D01*
X144525995Y-113624005D02*
X144950000Y-113200000D01*
X146593629Y-101200000D02*
X153640000Y-101200000D01*
X143569309Y-113936464D02*
X143881769Y-113624005D01*
X144930000Y-106893629D02*
X145300000Y-106523629D01*
X144930000Y-102863629D02*
X146593629Y-101200000D01*
X144100000Y-109373529D02*
X144100000Y-108876471D01*
X143881769Y-113624005D02*
X144525995Y-113624005D01*
X145300000Y-106523629D02*
X145300000Y-104696371D01*
X145300000Y-104696371D02*
X144930000Y-104326371D01*
X144100000Y-108876471D02*
X144930000Y-108046471D01*
X144930000Y-108046471D02*
X144930000Y-106893629D01*
X143020000Y-113936464D02*
X143569309Y-113936464D01*
X153640000Y-101200000D02*
X160050000Y-107610000D01*
%TO.N,SD_SCK*%
X151555000Y-124945000D02*
X151650000Y-124850000D01*
X156205000Y-123855000D02*
X156650000Y-124300000D01*
X157215544Y-118992228D02*
X157400000Y-119176684D01*
X157400000Y-119176684D02*
X157400000Y-119298529D01*
X157400000Y-119298529D02*
X156205000Y-120493529D01*
X156205000Y-120493529D02*
X156205000Y-123855000D01*
X151555000Y-125860000D02*
X151555000Y-124945000D01*
%TO.N,SD_MISO*%
X155405000Y-119695000D02*
X154200000Y-120900000D01*
X154200000Y-120900000D02*
X154200000Y-125415000D01*
X155405000Y-118315000D02*
X155405000Y-119695000D01*
X154200000Y-125415000D02*
X153755000Y-125860000D01*
X155040000Y-117950000D02*
X155405000Y-118315000D01*
%TO.N,SD_MOSI*%
X156648529Y-123450000D02*
X157250000Y-124051471D01*
X158000000Y-119264215D02*
X156605000Y-120659215D01*
X149355000Y-125860000D02*
X149350000Y-125855000D01*
X156605000Y-123450000D02*
X156648529Y-123450000D01*
X158000000Y-118496390D02*
X158000000Y-119264215D01*
X149350000Y-125855000D02*
X149350000Y-124450000D01*
X156605000Y-120659215D02*
X156605000Y-123450000D01*
X157186955Y-117683345D02*
X158000000Y-118496390D01*
X157250000Y-124051471D02*
X157250000Y-125150000D01*
X157186955Y-117540004D02*
X157186955Y-117683345D01*
%TO.N,USB_DM*%
X155838695Y-115350000D02*
X156335753Y-115350000D01*
X155400000Y-109200000D02*
X155800000Y-108800000D01*
X152550000Y-118528052D02*
X152550000Y-118000000D01*
X158599999Y-110749999D02*
X157700000Y-109850000D01*
X156635753Y-115650000D02*
X157450000Y-115650000D01*
X155577237Y-115611459D02*
X155838695Y-115350000D01*
X155442348Y-115476570D02*
X155577237Y-115611459D01*
X152550000Y-118000000D02*
X155073430Y-115476570D01*
X149600000Y-109450000D02*
X149850000Y-109200000D01*
X158599999Y-114500001D02*
X158599999Y-110749999D01*
X151587500Y-118962500D02*
X151762500Y-118787500D01*
X149850000Y-109200000D02*
X155400000Y-109200000D01*
X151587500Y-119137500D02*
X151587500Y-118962500D01*
X157450000Y-115650000D02*
X158599999Y-114500001D01*
X155073430Y-115476570D02*
X155442348Y-115476570D01*
X149312500Y-119137500D02*
X151587500Y-119137500D01*
X151762500Y-118787500D02*
X152290552Y-118787500D01*
X156335753Y-115350000D02*
X156635753Y-115650000D01*
X152290552Y-118787500D02*
X152550000Y-118528052D01*
%TO.N,USB_DP*%
X151587500Y-117237500D02*
X152732645Y-117237500D01*
X149312500Y-117237500D02*
X151587500Y-117237500D01*
X156744029Y-114694029D02*
X156800000Y-114750000D01*
X152732645Y-117237500D02*
X155276116Y-114694029D01*
X155276116Y-114694029D02*
X156744029Y-114694029D01*
%TO.N,PA15*%
X156450000Y-111550000D02*
X156330430Y-111430430D01*
X156330430Y-111430430D02*
X153125621Y-111430430D01*
X153125621Y-111430430D02*
X153091309Y-111464742D01*
%TO.N,PB3*%
X153505526Y-111030430D02*
X153339838Y-110864742D01*
X156954279Y-112391534D02*
X157400000Y-111945813D01*
X153339838Y-110864742D02*
X152842780Y-110864742D01*
X157400000Y-111651471D02*
X156698529Y-110950000D01*
X157400000Y-111945813D02*
X157400000Y-111651471D01*
X156201471Y-110950000D02*
X156121041Y-111030430D01*
X152292427Y-111415095D02*
X152292427Y-111422471D01*
X156698529Y-110950000D02*
X156201471Y-110950000D01*
X156121041Y-111030430D02*
X153505526Y-111030430D01*
X152842780Y-110864742D02*
X152292427Y-111415095D01*
%TO.N,PB4*%
X157325000Y-113610782D02*
X157554279Y-113381503D01*
X155955356Y-110630430D02*
X153671212Y-110630430D01*
X153671212Y-110630430D02*
X153505523Y-110464742D01*
X153505523Y-110464742D02*
X152280025Y-110464742D01*
X156035785Y-110550000D02*
X155955356Y-110630430D01*
X157800000Y-112111498D02*
X157800000Y-111485785D01*
X156864214Y-110550000D02*
X156035785Y-110550000D01*
X157800000Y-111485785D02*
X156864214Y-110550000D01*
X157554279Y-113381503D02*
X157554279Y-112357220D01*
X152280025Y-110464742D02*
X152098413Y-110646354D01*
X157554279Y-112357220D02*
X157800000Y-112111498D01*
%TO.N,PB5*%
X157954279Y-113830032D02*
X157954279Y-112522905D01*
X157489702Y-114341172D02*
X157489702Y-114294609D01*
X158200000Y-112277183D02*
X158200000Y-111320099D01*
X158200000Y-111320099D02*
X157029899Y-110150000D01*
X157029899Y-110150000D02*
X155870097Y-110150001D01*
X151849884Y-110046354D02*
X151301479Y-110594759D01*
X153652821Y-110046354D02*
X151849884Y-110046354D01*
X155789670Y-110230430D02*
X153836897Y-110230430D01*
X157607763Y-114459233D02*
X157489702Y-114341172D01*
X157489702Y-114294609D02*
X157954279Y-113830032D01*
X157954279Y-112522905D02*
X158200000Y-112277183D01*
X151301479Y-110594759D02*
X151301479Y-110716360D01*
X155870097Y-110150001D02*
X155789670Y-110230430D01*
X153836897Y-110230430D02*
X153652821Y-110046354D01*
%TO.N,PB6*%
X161200000Y-108086346D02*
X161200000Y-101140000D01*
X157948529Y-109250000D02*
X158298529Y-109600000D01*
X160526346Y-108760000D02*
X161200000Y-108086346D01*
X159850000Y-108760000D02*
X160526346Y-108760000D01*
X161200000Y-101140000D02*
X160050000Y-99990000D01*
X150505788Y-110799282D02*
X150505788Y-110557259D01*
X157451471Y-109250000D02*
X157948529Y-109250000D01*
X159573654Y-109000000D02*
X159610000Y-109000000D01*
X158298529Y-109600000D02*
X158973654Y-109600000D01*
X157101471Y-109600000D02*
X157451471Y-109250000D01*
X150505788Y-110557259D02*
X151463047Y-109600000D01*
X158973654Y-109600000D02*
X159573654Y-109000000D01*
X151463047Y-109600000D02*
X157101471Y-109600000D01*
X159610000Y-109000000D02*
X159850000Y-108760000D01*
%TO.N,SD_DAT2*%
X147155000Y-125860000D02*
X147155000Y-124355000D01*
X147155000Y-124355000D02*
X147200000Y-124310000D01*
%TO.N,SD_DAT1*%
X154855000Y-124315000D02*
X154850000Y-124310000D01*
X154855000Y-125860000D02*
X154855000Y-124315000D01*
%TD*%
%TA.AperFunction,Conductor*%
%TO.N,GND*%
G36*
X141231842Y-115412477D02*
G01*
X141282895Y-115443263D01*
X142960133Y-117120501D01*
X142993618Y-117181824D01*
X142988634Y-117251516D01*
X142960134Y-117295862D01*
X142926695Y-117329301D01*
X142926691Y-117329306D01*
X142839090Y-117460409D01*
X142839083Y-117460422D01*
X142778745Y-117606093D01*
X142778742Y-117606105D01*
X142747981Y-117760748D01*
X142747981Y-117918441D01*
X142778742Y-118073084D01*
X142778744Y-118073092D01*
X142790061Y-118100413D01*
X142799500Y-118147866D01*
X142799500Y-123063330D01*
X142799499Y-123063348D01*
X142799499Y-123229054D01*
X142799498Y-123229054D01*
X142840423Y-123381784D01*
X142840424Y-123381788D01*
X142867591Y-123428843D01*
X142867592Y-123428843D01*
X142919477Y-123518712D01*
X142919481Y-123518717D01*
X143031284Y-123630520D01*
X143065425Y-123664660D01*
X143098911Y-123725983D01*
X143099362Y-123728151D01*
X143130261Y-123883491D01*
X143130264Y-123883501D01*
X143190602Y-124029172D01*
X143190609Y-124029185D01*
X143278210Y-124160288D01*
X143278213Y-124160292D01*
X143389707Y-124271786D01*
X143389711Y-124271789D01*
X143520814Y-124359390D01*
X143520827Y-124359397D01*
X143575276Y-124381950D01*
X143666503Y-124419737D01*
X143821153Y-124450499D01*
X143821156Y-124450500D01*
X143821158Y-124450500D01*
X143978844Y-124450500D01*
X143978845Y-124450499D01*
X144133497Y-124419737D01*
X144279179Y-124359394D01*
X144347948Y-124313443D01*
X144414624Y-124292565D01*
X144482004Y-124311049D01*
X144528695Y-124363027D01*
X144535915Y-124381950D01*
X144567129Y-124489387D01*
X144567131Y-124489393D01*
X144648863Y-124627595D01*
X144648869Y-124627603D01*
X144748262Y-124726996D01*
X144781747Y-124788319D01*
X144776763Y-124858011D01*
X144752728Y-124895414D01*
X144753125Y-124895712D01*
X144748974Y-124901255D01*
X144748275Y-124902345D01*
X144747815Y-124902804D01*
X144661649Y-125017906D01*
X144661645Y-125017913D01*
X144611403Y-125152620D01*
X144611401Y-125152627D01*
X144605000Y-125212155D01*
X144605000Y-125610000D01*
X145481000Y-125610000D01*
X145548039Y-125629685D01*
X145593794Y-125682489D01*
X145605000Y-125734000D01*
X145605000Y-125860000D01*
X145680500Y-125860000D01*
X145747539Y-125879685D01*
X145793294Y-125932489D01*
X145804500Y-125984000D01*
X145804500Y-126573330D01*
X145804499Y-126573348D01*
X145804499Y-126739054D01*
X145804498Y-126739054D01*
X145814116Y-126774949D01*
X145845423Y-126891785D01*
X145867198Y-126929500D01*
X145924480Y-127028716D01*
X146024480Y-127128716D01*
X146136284Y-127240520D01*
X146136286Y-127240521D01*
X146136290Y-127240524D01*
X146273209Y-127319573D01*
X146273216Y-127319577D01*
X146385019Y-127349534D01*
X146425942Y-127360500D01*
X146425943Y-127360500D01*
X148255903Y-127360500D01*
X148322942Y-127380185D01*
X148368697Y-127432989D01*
X148378641Y-127502147D01*
X148349616Y-127565703D01*
X148343584Y-127572181D01*
X145952584Y-129963181D01*
X145925656Y-129977884D01*
X145899838Y-129994477D01*
X145893637Y-129995368D01*
X145891261Y-129996666D01*
X145864903Y-129999500D01*
X145829766Y-129999500D01*
X145762727Y-129979815D01*
X145760875Y-129978602D01*
X145629185Y-129890609D01*
X145629172Y-129890602D01*
X145483501Y-129830264D01*
X145483489Y-129830261D01*
X145328845Y-129799500D01*
X145328842Y-129799500D01*
X145171158Y-129799500D01*
X145171155Y-129799500D01*
X145016510Y-129830261D01*
X145016498Y-129830264D01*
X144870827Y-129890602D01*
X144870814Y-129890609D01*
X144739711Y-129978210D01*
X144739707Y-129978213D01*
X144628213Y-130089707D01*
X144628210Y-130089711D01*
X144540609Y-130220814D01*
X144540602Y-130220827D01*
X144480264Y-130366498D01*
X144480261Y-130366508D01*
X144449361Y-130521850D01*
X144416976Y-130583761D01*
X144415425Y-130585339D01*
X143219481Y-131781282D01*
X143219479Y-131781284D01*
X143207224Y-131802512D01*
X143196839Y-131820500D01*
X143140423Y-131918215D01*
X143099499Y-132070943D01*
X143099499Y-132070945D01*
X143099499Y-132239046D01*
X143099500Y-132239059D01*
X143099500Y-136470234D01*
X143079815Y-136537273D01*
X143078602Y-136539125D01*
X142990609Y-136670814D01*
X142990602Y-136670827D01*
X142930264Y-136816498D01*
X142930261Y-136816510D01*
X142899500Y-136971153D01*
X142899500Y-137128846D01*
X142930261Y-137283489D01*
X142930264Y-137283501D01*
X142990602Y-137429172D01*
X142990609Y-137429185D01*
X143078210Y-137560288D01*
X143078213Y-137560292D01*
X143189707Y-137671786D01*
X143189711Y-137671789D01*
X143320814Y-137759390D01*
X143320827Y-137759397D01*
X143466498Y-137819735D01*
X143466503Y-137819737D01*
X143621153Y-137850499D01*
X143621156Y-137850500D01*
X143621158Y-137850500D01*
X143778844Y-137850500D01*
X143778845Y-137850499D01*
X143933497Y-137819737D01*
X144079179Y-137759394D01*
X144210289Y-137671789D01*
X144321789Y-137560289D01*
X144409394Y-137429179D01*
X144409400Y-137429164D01*
X144410903Y-137426354D01*
X144412087Y-137425148D01*
X144412779Y-137424113D01*
X144412975Y-137424244D01*
X144459863Y-137376507D01*
X144528000Y-137361042D01*
X144560494Y-137368567D01*
X144560676Y-137367969D01*
X144566492Y-137369732D01*
X144566503Y-137369737D01*
X144721153Y-137400499D01*
X144721156Y-137400500D01*
X144721158Y-137400500D01*
X144878844Y-137400500D01*
X144878845Y-137400499D01*
X145033497Y-137369737D01*
X145179179Y-137309394D01*
X145310289Y-137221789D01*
X145421789Y-137110289D01*
X145509394Y-136979179D01*
X145512719Y-136971153D01*
X145527714Y-136934951D01*
X145569737Y-136833497D01*
X145600500Y-136678842D01*
X145600500Y-136521158D01*
X145600500Y-136521155D01*
X145600499Y-136521153D01*
X145594134Y-136489154D01*
X145569737Y-136366503D01*
X145569735Y-136366498D01*
X145509397Y-136220827D01*
X145509390Y-136220814D01*
X145421789Y-136089711D01*
X145421786Y-136089707D01*
X145310292Y-135978213D01*
X145310288Y-135978210D01*
X145179185Y-135890609D01*
X145179172Y-135890602D01*
X145033501Y-135830264D01*
X145033489Y-135830261D01*
X144878845Y-135799500D01*
X144878842Y-135799500D01*
X144721158Y-135799500D01*
X144721155Y-135799500D01*
X144566510Y-135830261D01*
X144566507Y-135830261D01*
X144471952Y-135869427D01*
X144402482Y-135876895D01*
X144340003Y-135845619D01*
X144304351Y-135785530D01*
X144300500Y-135754865D01*
X144300500Y-132450097D01*
X144320185Y-132383058D01*
X144336819Y-132362416D01*
X144781022Y-131918213D01*
X145264662Y-131434572D01*
X145325983Y-131401089D01*
X145328150Y-131400638D01*
X145386085Y-131389113D01*
X145483497Y-131369737D01*
X145629179Y-131309394D01*
X145673642Y-131279685D01*
X145760875Y-131221398D01*
X145778921Y-131215747D01*
X145794831Y-131205523D01*
X145825792Y-131201071D01*
X145827553Y-131200520D01*
X145829766Y-131200500D01*
X146078331Y-131200500D01*
X146078347Y-131200501D01*
X146085943Y-131200501D01*
X146244054Y-131200501D01*
X146244057Y-131200501D01*
X146396785Y-131159577D01*
X146446904Y-131130639D01*
X146469003Y-131117880D01*
X146536901Y-131101410D01*
X146602928Y-131124262D01*
X146646118Y-131179184D01*
X146655000Y-131225269D01*
X146655000Y-132460000D01*
X155231000Y-132460000D01*
X155298039Y-132479685D01*
X155343794Y-132532489D01*
X155355000Y-132584000D01*
X155355000Y-139760000D01*
X155631000Y-139760000D01*
X155698039Y-139779685D01*
X155743794Y-139832489D01*
X155755000Y-139884000D01*
X155755000Y-140260000D01*
X156505000Y-140260000D01*
X157005000Y-140260000D01*
X157755000Y-140260000D01*
X157755000Y-139062172D01*
X157754999Y-139062155D01*
X157748598Y-139002627D01*
X157748596Y-139002620D01*
X157698354Y-138867913D01*
X157698350Y-138867906D01*
X157612190Y-138752812D01*
X157612187Y-138752809D01*
X157497093Y-138666649D01*
X157497086Y-138666645D01*
X157362379Y-138616403D01*
X157362372Y-138616401D01*
X157302844Y-138610000D01*
X157005000Y-138610000D01*
X157005000Y-140260000D01*
X156505000Y-140260000D01*
X156505000Y-138610000D01*
X156207159Y-138610000D01*
X156192250Y-138611603D01*
X156123491Y-138599195D01*
X156072356Y-138551582D01*
X156055000Y-138488313D01*
X156055000Y-137382190D01*
X156074685Y-137315151D01*
X156127489Y-137269396D01*
X156192255Y-137258901D01*
X156207127Y-137260500D01*
X157302872Y-137260499D01*
X157362483Y-137254091D01*
X157497331Y-137203796D01*
X157612546Y-137117546D01*
X157698796Y-137002331D01*
X157749091Y-136867483D01*
X157755500Y-136807873D01*
X157755499Y-135912128D01*
X157749091Y-135852517D01*
X157746518Y-135845619D01*
X157698797Y-135717671D01*
X157698793Y-135717664D01*
X157612547Y-135602455D01*
X157612544Y-135602452D01*
X157497335Y-135516206D01*
X157497328Y-135516202D01*
X157362482Y-135465908D01*
X157362483Y-135465908D01*
X157302883Y-135459501D01*
X157302881Y-135459500D01*
X157302873Y-135459500D01*
X157302864Y-135459500D01*
X156207129Y-135459500D01*
X156207108Y-135459502D01*
X156192247Y-135461099D01*
X156123489Y-135448690D01*
X156072354Y-135401076D01*
X156055000Y-135337809D01*
X156055000Y-132160000D01*
X155479000Y-132160000D01*
X155411961Y-132140315D01*
X155366206Y-132087511D01*
X155355000Y-132036000D01*
X155355000Y-130860000D01*
X153771441Y-130860000D01*
X153704402Y-130840315D01*
X153676266Y-130807844D01*
X155755000Y-130807844D01*
X155761401Y-130867372D01*
X155761403Y-130867379D01*
X155811645Y-131002086D01*
X155811649Y-131002093D01*
X155897809Y-131117187D01*
X155897812Y-131117190D01*
X156012906Y-131203350D01*
X156012913Y-131203354D01*
X156147620Y-131253596D01*
X156147627Y-131253598D01*
X156207155Y-131259999D01*
X156207172Y-131260000D01*
X156281000Y-131260000D01*
X156348039Y-131279685D01*
X156393794Y-131332489D01*
X156405000Y-131384000D01*
X156405000Y-134360000D01*
X157155000Y-134360000D01*
X157155000Y-131384000D01*
X157174685Y-131316961D01*
X157227489Y-131271206D01*
X157279000Y-131260000D01*
X157302828Y-131260000D01*
X157302844Y-131259999D01*
X157362372Y-131253598D01*
X157362379Y-131253596D01*
X157497086Y-131203354D01*
X157497093Y-131203350D01*
X157612187Y-131117190D01*
X157612190Y-131117187D01*
X157698350Y-131002093D01*
X157698354Y-131002086D01*
X157748596Y-130867379D01*
X157748598Y-130867372D01*
X157754999Y-130807844D01*
X157755000Y-130807827D01*
X157755000Y-130410000D01*
X155755000Y-130410000D01*
X155755000Y-130807844D01*
X153676266Y-130807844D01*
X153658647Y-130787511D01*
X153648703Y-130718353D01*
X153677728Y-130654797D01*
X153683760Y-130648319D01*
X153721786Y-130610292D01*
X153721789Y-130610289D01*
X153809394Y-130479179D01*
X153869737Y-130333497D01*
X153869739Y-130333489D01*
X153869740Y-130333485D01*
X153900499Y-130178846D01*
X153900500Y-130178844D01*
X153900500Y-130021155D01*
X153900499Y-130021153D01*
X153891604Y-129976434D01*
X153869737Y-129866503D01*
X153869735Y-129866498D01*
X153809397Y-129720827D01*
X153809390Y-129720814D01*
X153721789Y-129589711D01*
X153721786Y-129589707D01*
X153610292Y-129478213D01*
X153610288Y-129478210D01*
X153479185Y-129390609D01*
X153479176Y-129390604D01*
X153432300Y-129371188D01*
X153392072Y-129344308D01*
X151219944Y-127172180D01*
X151186459Y-127110857D01*
X151191443Y-127041165D01*
X151233315Y-126985232D01*
X151298779Y-126960815D01*
X151307602Y-126960499D01*
X151952872Y-126960499D01*
X152012483Y-126954091D01*
X152062382Y-126935479D01*
X152132069Y-126930494D01*
X152149048Y-126935479D01*
X152197628Y-126953598D01*
X152197627Y-126953598D01*
X152257155Y-126959999D01*
X152257172Y-126960000D01*
X152405000Y-126960000D01*
X152405000Y-126519167D01*
X152405427Y-126511188D01*
X152405322Y-126511183D01*
X152405497Y-126507898D01*
X152405500Y-126507873D01*
X152405499Y-125983997D01*
X152425183Y-125916961D01*
X152477987Y-125871206D01*
X152529499Y-125860000D01*
X152780501Y-125860000D01*
X152847540Y-125879685D01*
X152893295Y-125932489D01*
X152904500Y-125983998D01*
X152904501Y-126507872D01*
X152904501Y-126507880D01*
X152904679Y-126511180D01*
X152904572Y-126511185D01*
X152905000Y-126519156D01*
X152905000Y-126960000D01*
X153052828Y-126960000D01*
X153052844Y-126959999D01*
X153112372Y-126953598D01*
X153112375Y-126953597D01*
X153160949Y-126935480D01*
X153230640Y-126930494D01*
X153247610Y-126935477D01*
X153297517Y-126954091D01*
X153357127Y-126960500D01*
X154152872Y-126960499D01*
X154212483Y-126954091D01*
X154261665Y-126935746D01*
X154331355Y-126930761D01*
X154348333Y-126935747D01*
X154397508Y-126954088D01*
X154397511Y-126954089D01*
X154397517Y-126954091D01*
X154457127Y-126960500D01*
X155080500Y-126960499D01*
X155147539Y-126980183D01*
X155193294Y-127032987D01*
X155204500Y-127084499D01*
X155204500Y-127413330D01*
X155204499Y-127413348D01*
X155204499Y-127579054D01*
X155204498Y-127579054D01*
X155242306Y-127720151D01*
X155245423Y-127731785D01*
X155248429Y-127736991D01*
X155285388Y-127801006D01*
X155285395Y-127801033D01*
X155302000Y-127863004D01*
X155302000Y-127876346D01*
X155332761Y-128030989D01*
X155332764Y-128031001D01*
X155393102Y-128176672D01*
X155393109Y-128176685D01*
X155480710Y-128307788D01*
X155480713Y-128307792D01*
X155592207Y-128419286D01*
X155592211Y-128419289D01*
X155723314Y-128506890D01*
X155723327Y-128506897D01*
X155799999Y-128538655D01*
X155869003Y-128567237D01*
X156023653Y-128597999D01*
X156023656Y-128598000D01*
X156023658Y-128598000D01*
X156181344Y-128598000D01*
X156256808Y-128582989D01*
X156277792Y-128584866D01*
X156298647Y-128581868D01*
X156311894Y-128587918D01*
X156326400Y-128589216D01*
X156343037Y-128602140D01*
X156362203Y-128610893D01*
X156370077Y-128623145D01*
X156381577Y-128632079D01*
X156388585Y-128651945D01*
X156399977Y-128669671D01*
X156403511Y-128694253D01*
X156404822Y-128697968D01*
X156405000Y-128704606D01*
X156405000Y-128936000D01*
X156385315Y-129003039D01*
X156332511Y-129048794D01*
X156281000Y-129060000D01*
X156207155Y-129060000D01*
X156147627Y-129066401D01*
X156147620Y-129066403D01*
X156012913Y-129116645D01*
X156012906Y-129116649D01*
X155897812Y-129202809D01*
X155897809Y-129202812D01*
X155811649Y-129317906D01*
X155811645Y-129317913D01*
X155761403Y-129452620D01*
X155761401Y-129452627D01*
X155755000Y-129512155D01*
X155755000Y-129910000D01*
X157755000Y-129910000D01*
X157755000Y-129512172D01*
X157754999Y-129512155D01*
X157748598Y-129452627D01*
X157748596Y-129452620D01*
X157698354Y-129317913D01*
X157698350Y-129317906D01*
X157612190Y-129202812D01*
X157612187Y-129202809D01*
X157497093Y-129116649D01*
X157497086Y-129116645D01*
X157362379Y-129066403D01*
X157362372Y-129066401D01*
X157302844Y-129060000D01*
X157279000Y-129060000D01*
X157211961Y-129040315D01*
X157166206Y-128987511D01*
X157155000Y-128936000D01*
X157155000Y-126924500D01*
X157174685Y-126857461D01*
X157227489Y-126811706D01*
X157272854Y-126801836D01*
X157272782Y-126801097D01*
X157278836Y-126800500D01*
X157278842Y-126800500D01*
X157433497Y-126769737D01*
X157579179Y-126709394D01*
X157710289Y-126621789D01*
X157821789Y-126510289D01*
X157909394Y-126379179D01*
X157969737Y-126233497D01*
X158000500Y-126078842D01*
X158000500Y-125921158D01*
X158000500Y-125921155D01*
X158000499Y-125921153D01*
X157969738Y-125766510D01*
X157969737Y-125766503D01*
X157944777Y-125706243D01*
X157930459Y-125671675D01*
X157922990Y-125602206D01*
X157941917Y-125555334D01*
X157959394Y-125529179D01*
X158019737Y-125383497D01*
X158050500Y-125228842D01*
X158050500Y-125071158D01*
X158050500Y-125071155D01*
X158050499Y-125071153D01*
X158039907Y-125017906D01*
X158019737Y-124916503D01*
X158001133Y-124871588D01*
X157959397Y-124770827D01*
X157959390Y-124770814D01*
X157871398Y-124639125D01*
X157850520Y-124572447D01*
X157850500Y-124570234D01*
X157850500Y-123972414D01*
X157850332Y-123971789D01*
X157849776Y-123969713D01*
X157849776Y-123969684D01*
X157849769Y-123969687D01*
X157828551Y-123890500D01*
X157809577Y-123819687D01*
X157784322Y-123775943D01*
X157730524Y-123682761D01*
X157730521Y-123682757D01*
X157730520Y-123682755D01*
X157618716Y-123570951D01*
X157618715Y-123570950D01*
X157614385Y-123566620D01*
X157614374Y-123566610D01*
X157241819Y-123194055D01*
X157208334Y-123132732D01*
X157205500Y-123106374D01*
X157205500Y-121874500D01*
X157225185Y-121807461D01*
X157277989Y-121761706D01*
X157329500Y-121750500D01*
X157428844Y-121750500D01*
X157428845Y-121750499D01*
X157583497Y-121719737D01*
X157729179Y-121659394D01*
X157860289Y-121571789D01*
X157971789Y-121460289D01*
X158059394Y-121329179D01*
X158119737Y-121183497D01*
X158142191Y-121070614D01*
X158150638Y-121028150D01*
X158183023Y-120966239D01*
X158184521Y-120964713D01*
X158808506Y-120340727D01*
X158808511Y-120340724D01*
X158818714Y-120330520D01*
X158818716Y-120330520D01*
X158930520Y-120218716D01*
X158983623Y-120126738D01*
X159009577Y-120081785D01*
X159050501Y-119929057D01*
X159050501Y-119770943D01*
X159050501Y-119763345D01*
X159050500Y-119763330D01*
X159050500Y-118955876D01*
X159070185Y-118888837D01*
X159122989Y-118843082D01*
X159192147Y-118833138D01*
X159247385Y-118855558D01*
X159342442Y-118924620D01*
X159531782Y-119021095D01*
X159733870Y-119086757D01*
X159943754Y-119120000D01*
X160156246Y-119120000D01*
X160366127Y-119086757D01*
X160366130Y-119086757D01*
X160568217Y-119021095D01*
X160757554Y-118924622D01*
X160811716Y-118885270D01*
X160811717Y-118885270D01*
X160179409Y-118252962D01*
X160242993Y-118235925D01*
X160357007Y-118170099D01*
X160450099Y-118077007D01*
X160515925Y-117962993D01*
X160532962Y-117899408D01*
X161165269Y-118531716D01*
X161166832Y-118531594D01*
X161235209Y-118545958D01*
X161284966Y-118595010D01*
X161300561Y-118655211D01*
X161300576Y-121436631D01*
X161280892Y-121503671D01*
X161228088Y-121549426D01*
X161158930Y-121559370D01*
X161133243Y-121552814D01*
X161007482Y-121505908D01*
X161007483Y-121505908D01*
X160947883Y-121499501D01*
X160947881Y-121499500D01*
X160947873Y-121499500D01*
X160947864Y-121499500D01*
X159152129Y-121499500D01*
X159152123Y-121499501D01*
X159092516Y-121505908D01*
X158957671Y-121556202D01*
X158957664Y-121556206D01*
X158842455Y-121642452D01*
X158842452Y-121642455D01*
X158756206Y-121757664D01*
X158756202Y-121757671D01*
X158705908Y-121892517D01*
X158699757Y-121949735D01*
X158699501Y-121952123D01*
X158699500Y-121952135D01*
X158699500Y-123747870D01*
X158699501Y-123747876D01*
X158705908Y-123807483D01*
X158756202Y-123942328D01*
X158756206Y-123942335D01*
X158842452Y-124057544D01*
X158842455Y-124057547D01*
X158957664Y-124143793D01*
X158957671Y-124143797D01*
X159089082Y-124192810D01*
X159145016Y-124234681D01*
X159169433Y-124300145D01*
X159154582Y-124368418D01*
X159133431Y-124396673D01*
X159019889Y-124510215D01*
X158894951Y-124682179D01*
X158798444Y-124871585D01*
X158732753Y-125073760D01*
X158699500Y-125283713D01*
X158699500Y-125496286D01*
X158732753Y-125706239D01*
X158798444Y-125908414D01*
X158894951Y-126097820D01*
X159019890Y-126269786D01*
X159170213Y-126420109D01*
X159342182Y-126545050D01*
X159350946Y-126549516D01*
X159401742Y-126597491D01*
X159418536Y-126665312D01*
X159395998Y-126731447D01*
X159350946Y-126770484D01*
X159342182Y-126774949D01*
X159170213Y-126899890D01*
X159019890Y-127050213D01*
X158894951Y-127222179D01*
X158798444Y-127411585D01*
X158732753Y-127613760D01*
X158699500Y-127823713D01*
X158699500Y-128036286D01*
X158728727Y-128220821D01*
X158732754Y-128246243D01*
X158788980Y-128419289D01*
X158798444Y-128448414D01*
X158894951Y-128637820D01*
X159019890Y-128809786D01*
X159170213Y-128960109D01*
X159342182Y-129085050D01*
X159350946Y-129089516D01*
X159401742Y-129137491D01*
X159418536Y-129205312D01*
X159395998Y-129271447D01*
X159350946Y-129310484D01*
X159342182Y-129314949D01*
X159170213Y-129439890D01*
X159019890Y-129590213D01*
X158894951Y-129762179D01*
X158798444Y-129951585D01*
X158732753Y-130153760D01*
X158699500Y-130363713D01*
X158699500Y-130576286D01*
X158731659Y-130779334D01*
X158732754Y-130786243D01*
X158792043Y-130968716D01*
X158798444Y-130988414D01*
X158894951Y-131177820D01*
X159019890Y-131349786D01*
X159170213Y-131500109D01*
X159342182Y-131625050D01*
X159350946Y-131629516D01*
X159401742Y-131677491D01*
X159418536Y-131745312D01*
X159395998Y-131811447D01*
X159350946Y-131850484D01*
X159342182Y-131854949D01*
X159170213Y-131979890D01*
X159019890Y-132130213D01*
X158894951Y-132302179D01*
X158798444Y-132491585D01*
X158732753Y-132693760D01*
X158699500Y-132903713D01*
X158699500Y-133116286D01*
X158732753Y-133326239D01*
X158798444Y-133528414D01*
X158894951Y-133717820D01*
X159019890Y-133889786D01*
X159170213Y-134040109D01*
X159342182Y-134165050D01*
X159350946Y-134169516D01*
X159401742Y-134217491D01*
X159418536Y-134285312D01*
X159395998Y-134351447D01*
X159350946Y-134390484D01*
X159342182Y-134394949D01*
X159170213Y-134519890D01*
X159019890Y-134670213D01*
X158894951Y-134842179D01*
X158798444Y-135031585D01*
X158732753Y-135233760D01*
X158706253Y-135401076D01*
X158699500Y-135443713D01*
X158699500Y-135656287D01*
X158732754Y-135866243D01*
X158769135Y-135978213D01*
X158798444Y-136068414D01*
X158894951Y-136257820D01*
X159019890Y-136429786D01*
X159170213Y-136580109D01*
X159342182Y-136705050D01*
X159350946Y-136709516D01*
X159401742Y-136757491D01*
X159418536Y-136825312D01*
X159395998Y-136891447D01*
X159350946Y-136930484D01*
X159342182Y-136934949D01*
X159170213Y-137059890D01*
X159019890Y-137210213D01*
X158894951Y-137382179D01*
X158798444Y-137571585D01*
X158732753Y-137773760D01*
X158725471Y-137819737D01*
X158699500Y-137983713D01*
X158699500Y-138196287D01*
X158732754Y-138406243D01*
X158795448Y-138599195D01*
X158798444Y-138608414D01*
X158894951Y-138797820D01*
X159019890Y-138969786D01*
X159170213Y-139120109D01*
X159342182Y-139245050D01*
X159350946Y-139249516D01*
X159401742Y-139297491D01*
X159418536Y-139365312D01*
X159395998Y-139431447D01*
X159350946Y-139470484D01*
X159342182Y-139474949D01*
X159170213Y-139599890D01*
X159019890Y-139750213D01*
X158894951Y-139922179D01*
X158798444Y-140111585D01*
X158732753Y-140313760D01*
X158699500Y-140523713D01*
X158699500Y-140736286D01*
X158732753Y-140946239D01*
X158798444Y-141148414D01*
X158894951Y-141337820D01*
X159019890Y-141509786D01*
X159019896Y-141509792D01*
X159170208Y-141660104D01*
X159328601Y-141775182D01*
X159371266Y-141830511D01*
X159377245Y-141900124D01*
X159344640Y-141961920D01*
X159283801Y-141996277D01*
X159255715Y-141999500D01*
X157879000Y-141999500D01*
X157811961Y-141979815D01*
X157766206Y-141927011D01*
X157755000Y-141875500D01*
X157755000Y-140760000D01*
X155755000Y-140760000D01*
X155755000Y-141875501D01*
X155735315Y-141942540D01*
X155682511Y-141988295D01*
X155631000Y-141999501D01*
X147129000Y-141999504D01*
X147061961Y-141979819D01*
X147016206Y-141927016D01*
X147005000Y-141875504D01*
X147005000Y-140560000D01*
X144529000Y-140560000D01*
X144461961Y-140540315D01*
X144416206Y-140487511D01*
X144405000Y-140436000D01*
X144405000Y-139962172D01*
X144404999Y-139962155D01*
X144398598Y-139902627D01*
X144398596Y-139902620D01*
X144348354Y-139767913D01*
X144348350Y-139767906D01*
X144262190Y-139652812D01*
X144262187Y-139652809D01*
X144147093Y-139566649D01*
X144147086Y-139566645D01*
X144012379Y-139516403D01*
X144012372Y-139516401D01*
X143952844Y-139510000D01*
X143505000Y-139510000D01*
X143505000Y-140836000D01*
X143485315Y-140903039D01*
X143432511Y-140948794D01*
X143381000Y-140960000D01*
X143255000Y-140960000D01*
X143255000Y-141086000D01*
X143235315Y-141153039D01*
X143182511Y-141198794D01*
X143131000Y-141210000D01*
X142105000Y-141210000D01*
X142105000Y-141875505D01*
X142085315Y-141942544D01*
X142032511Y-141988299D01*
X141981000Y-141999505D01*
X140544277Y-141999505D01*
X140477238Y-141979820D01*
X140431483Y-141927016D01*
X140421539Y-141857858D01*
X140450564Y-141794302D01*
X140471388Y-141775189D01*
X140629792Y-141660104D01*
X140780104Y-141509792D01*
X140780106Y-141509788D01*
X140780109Y-141509786D01*
X140905048Y-141337820D01*
X140905047Y-141337820D01*
X140905051Y-141337816D01*
X141001557Y-141148412D01*
X141067246Y-140946243D01*
X141100500Y-140736287D01*
X141100500Y-140523713D01*
X141067246Y-140313757D01*
X141001557Y-140111588D01*
X140925417Y-139962155D01*
X142105000Y-139962155D01*
X142105000Y-140710000D01*
X143005000Y-140710000D01*
X143005000Y-139510000D01*
X142557155Y-139510000D01*
X142497627Y-139516401D01*
X142497620Y-139516403D01*
X142362913Y-139566645D01*
X142362906Y-139566649D01*
X142247812Y-139652809D01*
X142247809Y-139652812D01*
X142161649Y-139767906D01*
X142161645Y-139767913D01*
X142111403Y-139902620D01*
X142111401Y-139902627D01*
X142105000Y-139962155D01*
X140925417Y-139962155D01*
X140905051Y-139922184D01*
X140905049Y-139922181D01*
X140905048Y-139922179D01*
X140780109Y-139750213D01*
X140629786Y-139599890D01*
X140457820Y-139474951D01*
X140457115Y-139474591D01*
X140449054Y-139470485D01*
X140398259Y-139422512D01*
X140381463Y-139354692D01*
X140403999Y-139288556D01*
X140449054Y-139249515D01*
X140457816Y-139245051D01*
X140479789Y-139229086D01*
X140629786Y-139120109D01*
X140629788Y-139120106D01*
X140629792Y-139120104D01*
X140780104Y-138969792D01*
X140780106Y-138969788D01*
X140780109Y-138969786D01*
X140905048Y-138797820D01*
X140905047Y-138797820D01*
X140905051Y-138797816D01*
X141001557Y-138608412D01*
X141067246Y-138406243D01*
X141100500Y-138196287D01*
X141100500Y-137983713D01*
X141067246Y-137773757D01*
X141001557Y-137571588D01*
X140905051Y-137382184D01*
X140905049Y-137382181D01*
X140905048Y-137382179D01*
X140780109Y-137210213D01*
X140629786Y-137059890D01*
X140457820Y-136934951D01*
X140457115Y-136934591D01*
X140449054Y-136930485D01*
X140398259Y-136882512D01*
X140381463Y-136814692D01*
X140403999Y-136748556D01*
X140449054Y-136709515D01*
X140457816Y-136705051D01*
X140504940Y-136670814D01*
X140629786Y-136580109D01*
X140629788Y-136580106D01*
X140629792Y-136580104D01*
X140780104Y-136429792D01*
X140780106Y-136429788D01*
X140780109Y-136429786D01*
X140905048Y-136257820D01*
X140905047Y-136257820D01*
X140905051Y-136257816D01*
X141001557Y-136068412D01*
X141067246Y-135866243D01*
X141100500Y-135656287D01*
X141100500Y-135443713D01*
X141067246Y-135233757D01*
X141001557Y-135031588D01*
X140905051Y-134842184D01*
X140905049Y-134842181D01*
X140905048Y-134842179D01*
X140780109Y-134670213D01*
X140629786Y-134519890D01*
X140457820Y-134394951D01*
X140457115Y-134394591D01*
X140449054Y-134390485D01*
X140398259Y-134342512D01*
X140381463Y-134274692D01*
X140403999Y-134208556D01*
X140449054Y-134169515D01*
X140457816Y-134165051D01*
X140479789Y-134149086D01*
X140629786Y-134040109D01*
X140629788Y-134040106D01*
X140629792Y-134040104D01*
X140780104Y-133889792D01*
X140780106Y-133889788D01*
X140780109Y-133889786D01*
X140905048Y-133717820D01*
X140905047Y-133717820D01*
X140905051Y-133717816D01*
X141001557Y-133528412D01*
X141067246Y-133326243D01*
X141100500Y-133116287D01*
X141100500Y-132903713D01*
X141067246Y-132693757D01*
X141001557Y-132491588D01*
X140905051Y-132302184D01*
X140905049Y-132302181D01*
X140905048Y-132302179D01*
X140780109Y-132130213D01*
X140629786Y-131979890D01*
X140457820Y-131854951D01*
X140457115Y-131854591D01*
X140449054Y-131850485D01*
X140398259Y-131802512D01*
X140381463Y-131734692D01*
X140403999Y-131668556D01*
X140449054Y-131629515D01*
X140457816Y-131625051D01*
X140479789Y-131609086D01*
X140629786Y-131500109D01*
X140629788Y-131500106D01*
X140629792Y-131500104D01*
X140780104Y-131349792D01*
X140780106Y-131349788D01*
X140780109Y-131349786D01*
X140905048Y-131177820D01*
X140905047Y-131177820D01*
X140905051Y-131177816D01*
X141001557Y-130988412D01*
X141067246Y-130786243D01*
X141100500Y-130576287D01*
X141100500Y-130363713D01*
X141067246Y-130153757D01*
X141001557Y-129951588D01*
X140905051Y-129762184D01*
X140905049Y-129762181D01*
X140905048Y-129762179D01*
X140780109Y-129590213D01*
X140629786Y-129439890D01*
X140457820Y-129314951D01*
X140457115Y-129314591D01*
X140449054Y-129310485D01*
X140398259Y-129262512D01*
X140381463Y-129194692D01*
X140403999Y-129128556D01*
X140449054Y-129089515D01*
X140457816Y-129085051D01*
X140570697Y-129003039D01*
X140629786Y-128960109D01*
X140629788Y-128960106D01*
X140629792Y-128960104D01*
X140780104Y-128809792D01*
X140780106Y-128809788D01*
X140780109Y-128809786D01*
X140905048Y-128637820D01*
X140905047Y-128637820D01*
X140905051Y-128637816D01*
X141001557Y-128448412D01*
X141067246Y-128246243D01*
X141100500Y-128036287D01*
X141100500Y-127823713D01*
X141067246Y-127613757D01*
X141001557Y-127411588D01*
X140905051Y-127222184D01*
X140905049Y-127222181D01*
X140905048Y-127222179D01*
X140780109Y-127050213D01*
X140629786Y-126899890D01*
X140457820Y-126774951D01*
X140457115Y-126774591D01*
X140449054Y-126770485D01*
X140398259Y-126722512D01*
X140381463Y-126654692D01*
X140403999Y-126588556D01*
X140449054Y-126549515D01*
X140457816Y-126545051D01*
X140505664Y-126510288D01*
X140509028Y-126507844D01*
X144605000Y-126507844D01*
X144611401Y-126567372D01*
X144611403Y-126567379D01*
X144661645Y-126702086D01*
X144661649Y-126702093D01*
X144747809Y-126817187D01*
X144747812Y-126817190D01*
X144862906Y-126903350D01*
X144862913Y-126903354D01*
X144997620Y-126953596D01*
X144997627Y-126953598D01*
X145057155Y-126959999D01*
X145057172Y-126960000D01*
X145355000Y-126960000D01*
X145355000Y-126110000D01*
X144605000Y-126110000D01*
X144605000Y-126507844D01*
X140509028Y-126507844D01*
X140629786Y-126420109D01*
X140629788Y-126420106D01*
X140629792Y-126420104D01*
X140780104Y-126269792D01*
X140780106Y-126269788D01*
X140780109Y-126269786D01*
X140834899Y-126194371D01*
X140905051Y-126097816D01*
X141001557Y-125908412D01*
X141067246Y-125706243D01*
X141100500Y-125496287D01*
X141100500Y-125283713D01*
X141067246Y-125073757D01*
X141001557Y-124871588D01*
X140905051Y-124682184D01*
X140905049Y-124682181D01*
X140905048Y-124682179D01*
X140780109Y-124510213D01*
X140666569Y-124396673D01*
X140633084Y-124335350D01*
X140638068Y-124265658D01*
X140679940Y-124209725D01*
X140710915Y-124192810D01*
X140842331Y-124143796D01*
X140957546Y-124057546D01*
X141043796Y-123942331D01*
X141094091Y-123807483D01*
X141100500Y-123747873D01*
X141100499Y-121952128D01*
X141094091Y-121892517D01*
X141048701Y-121770821D01*
X141043797Y-121757671D01*
X141043793Y-121757664D01*
X140957547Y-121642455D01*
X140957544Y-121642452D01*
X140842335Y-121556206D01*
X140842328Y-121556202D01*
X140707482Y-121505908D01*
X140707483Y-121505908D01*
X140647883Y-121499501D01*
X140647881Y-121499500D01*
X140647873Y-121499500D01*
X140647864Y-121499500D01*
X138852129Y-121499500D01*
X138852123Y-121499501D01*
X138792514Y-121505909D01*
X138667871Y-121552397D01*
X138598179Y-121557381D01*
X138536857Y-121523895D01*
X138503372Y-121462571D01*
X138500539Y-121436215D01*
X138500702Y-118729256D01*
X138520391Y-118662220D01*
X138573197Y-118616469D01*
X138642356Y-118606529D01*
X138705910Y-118635558D01*
X138718984Y-118648725D01*
X138719892Y-118649788D01*
X138870213Y-118800109D01*
X139042179Y-118925048D01*
X139042181Y-118925049D01*
X139042184Y-118925051D01*
X139231588Y-119021557D01*
X139433757Y-119087246D01*
X139643713Y-119120500D01*
X139643714Y-119120500D01*
X139856286Y-119120500D01*
X139856287Y-119120500D01*
X140066243Y-119087246D01*
X140268412Y-119021557D01*
X140457816Y-118925051D01*
X140479789Y-118909086D01*
X140629786Y-118800109D01*
X140629788Y-118800106D01*
X140629792Y-118800104D01*
X140780104Y-118649792D01*
X140780106Y-118649788D01*
X140780109Y-118649786D01*
X140905048Y-118477820D01*
X140905047Y-118477820D01*
X140905051Y-118477816D01*
X141001557Y-118288412D01*
X141067246Y-118086243D01*
X141100500Y-117876287D01*
X141100500Y-117663713D01*
X141067246Y-117453757D01*
X141001557Y-117251588D01*
X140905051Y-117062184D01*
X140905049Y-117062181D01*
X140905048Y-117062179D01*
X140780109Y-116890213D01*
X140629786Y-116739890D01*
X140457820Y-116614951D01*
X140449600Y-116610763D01*
X140449054Y-116610485D01*
X140398259Y-116562512D01*
X140381463Y-116494692D01*
X140403999Y-116428556D01*
X140449054Y-116389515D01*
X140457816Y-116385051D01*
X140506776Y-116349480D01*
X140629786Y-116260109D01*
X140629788Y-116260106D01*
X140629792Y-116260104D01*
X140780104Y-116109792D01*
X140780106Y-116109788D01*
X140780109Y-116109786D01*
X140893884Y-115953186D01*
X140905051Y-115937816D01*
X141001557Y-115748412D01*
X141067246Y-115546243D01*
X141072741Y-115511544D01*
X141102669Y-115448413D01*
X141161980Y-115411481D01*
X141231842Y-115412477D01*
G37*
%TD.AperFunction*%
%TA.AperFunction,Conductor*%
G36*
X155523834Y-120527914D02*
G01*
X155579767Y-120569786D01*
X155604184Y-120635250D01*
X155604500Y-120644096D01*
X155604500Y-121042581D01*
X155584815Y-121109620D01*
X155532011Y-121155375D01*
X155462853Y-121165319D01*
X155411610Y-121145683D01*
X155329190Y-121090612D01*
X155329172Y-121090602D01*
X155183499Y-121030263D01*
X155178501Y-121028747D01*
X155120065Y-120990444D01*
X155091614Y-120926629D01*
X155102180Y-120857563D01*
X155126820Y-120822413D01*
X155392819Y-120556414D01*
X155454142Y-120522930D01*
X155523834Y-120527914D01*
G37*
%TD.AperFunction*%
%TA.AperFunction,Conductor*%
G36*
X161269683Y-116105937D02*
G01*
X161299158Y-116169285D01*
X161300548Y-116187801D01*
X161300552Y-116884785D01*
X161280868Y-116951825D01*
X161228064Y-116997580D01*
X161166824Y-117008404D01*
X161165270Y-117008281D01*
X160532962Y-117640590D01*
X160515925Y-117577007D01*
X160450099Y-117462993D01*
X160357007Y-117369901D01*
X160242993Y-117304075D01*
X160179407Y-117287036D01*
X160811716Y-116654728D01*
X160757547Y-116615373D01*
X160757547Y-116615372D01*
X160748500Y-116610763D01*
X160697706Y-116562788D01*
X160680912Y-116494966D01*
X160703451Y-116428832D01*
X160748508Y-116389793D01*
X160757816Y-116385051D01*
X160863315Y-116308402D01*
X160929786Y-116260109D01*
X160929788Y-116260106D01*
X160929792Y-116260104D01*
X161080104Y-116109792D01*
X161080112Y-116109779D01*
X161082261Y-116107266D01*
X161083323Y-116106572D01*
X161083549Y-116106347D01*
X161083596Y-116106394D01*
X161140770Y-116069076D01*
X161210638Y-116068580D01*
X161269683Y-116105937D01*
G37*
%TD.AperFunction*%
%TA.AperFunction,Conductor*%
G36*
X148092539Y-113670185D02*
G01*
X148138294Y-113722989D01*
X148149500Y-113774500D01*
X148149500Y-114053201D01*
X148152401Y-114090067D01*
X148152402Y-114090073D01*
X148198254Y-114247893D01*
X148198255Y-114247896D01*
X148281917Y-114389362D01*
X148281923Y-114389370D01*
X148307451Y-114414898D01*
X148340936Y-114476221D01*
X148335952Y-114545913D01*
X148307451Y-114590260D01*
X147437646Y-115460066D01*
X146581286Y-116316426D01*
X146581284Y-116316428D01*
X146539451Y-116358261D01*
X146500179Y-116397533D01*
X146438855Y-116431017D01*
X146369164Y-116426032D01*
X146313230Y-116384161D01*
X146302827Y-116365889D01*
X146302264Y-116366191D01*
X146299390Y-116360814D01*
X146211789Y-116229711D01*
X146211786Y-116229707D01*
X146100292Y-116118213D01*
X146100288Y-116118210D01*
X145969185Y-116030609D01*
X145969172Y-116030602D01*
X145823501Y-115970264D01*
X145823489Y-115970261D01*
X145668845Y-115939500D01*
X145668842Y-115939500D01*
X145651561Y-115939500D01*
X145584522Y-115919815D01*
X145538767Y-115867011D01*
X145528823Y-115797853D01*
X145557848Y-115734297D01*
X145563880Y-115727819D01*
X146121874Y-115169825D01*
X146708506Y-114583193D01*
X146708511Y-114583189D01*
X146718714Y-114572985D01*
X146718716Y-114572985D01*
X146830520Y-114461181D01*
X146898539Y-114343368D01*
X146909577Y-114324250D01*
X146950501Y-114171522D01*
X146950501Y-114013408D01*
X146950501Y-114005813D01*
X146950500Y-114005795D01*
X146950500Y-113967847D01*
X146970185Y-113900808D01*
X147022989Y-113855053D01*
X147050309Y-113846230D01*
X147066291Y-113843050D01*
X147183497Y-113819737D01*
X147329179Y-113759394D01*
X147393949Y-113716116D01*
X147460875Y-113671398D01*
X147527553Y-113650520D01*
X147529766Y-113650500D01*
X148025500Y-113650500D01*
X148092539Y-113670185D01*
G37*
%TD.AperFunction*%
%TA.AperFunction,Conductor*%
G36*
X150355701Y-114479235D02*
G01*
X150403441Y-114511252D01*
X150427704Y-114537500D01*
X150693185Y-114537500D01*
X150756306Y-114554768D01*
X150814602Y-114589244D01*
X150856224Y-114601336D01*
X150972426Y-114635097D01*
X150972429Y-114635097D01*
X150972431Y-114635098D01*
X151009306Y-114638000D01*
X151463500Y-114638000D01*
X151472185Y-114640550D01*
X151481147Y-114639262D01*
X151505187Y-114650240D01*
X151530539Y-114657685D01*
X151536466Y-114664525D01*
X151544703Y-114668287D01*
X151558992Y-114690521D01*
X151576294Y-114710489D01*
X151578581Y-114721003D01*
X151582477Y-114727065D01*
X151587500Y-114762000D01*
X151587500Y-114813000D01*
X151567815Y-114880039D01*
X151515011Y-114925794D01*
X151463500Y-114937000D01*
X151009298Y-114937000D01*
X150972432Y-114939901D01*
X150972426Y-114939902D01*
X150814606Y-114985754D01*
X150814603Y-114985755D01*
X150756306Y-115020232D01*
X150693185Y-115037500D01*
X150427704Y-115037500D01*
X150403440Y-115063748D01*
X150343479Y-115099614D01*
X150273645Y-115097369D01*
X150233987Y-115072968D01*
X150233031Y-115074202D01*
X150226862Y-115069417D01*
X150085396Y-114985755D01*
X150085393Y-114985754D01*
X149921485Y-114938134D01*
X149922072Y-114936112D01*
X149920814Y-114935479D01*
X149909709Y-114934685D01*
X149890158Y-114920049D01*
X149868347Y-114909072D01*
X149862687Y-114899485D01*
X149853775Y-114892814D01*
X149845240Y-114869931D01*
X149832827Y-114848905D01*
X149833248Y-114837781D01*
X149829358Y-114827350D01*
X149834548Y-114803486D01*
X149835474Y-114779086D01*
X149842229Y-114768175D01*
X149844209Y-114759077D01*
X149865357Y-114730824D01*
X149952298Y-114643883D01*
X150005381Y-114612490D01*
X150085398Y-114589244D01*
X150226865Y-114505581D01*
X150226870Y-114505575D01*
X150233031Y-114500798D01*
X150234339Y-114502484D01*
X150286009Y-114474261D01*
X150355701Y-114479235D01*
G37*
%TD.AperFunction*%
%TA.AperFunction,Conductor*%
G36*
X155776929Y-112039574D02*
G01*
X155806916Y-112046098D01*
X155811931Y-112049852D01*
X155814528Y-112050615D01*
X155835170Y-112067249D01*
X155939707Y-112171786D01*
X155939711Y-112171789D01*
X156070817Y-112259392D01*
X156070819Y-112259393D01*
X156070821Y-112259394D01*
X156077229Y-112262048D01*
X156131634Y-112305888D01*
X156153700Y-112372181D01*
X156153779Y-112376610D01*
X156153779Y-112470380D01*
X156184540Y-112625023D01*
X156184543Y-112625035D01*
X156244881Y-112770706D01*
X156244888Y-112770719D01*
X156332489Y-112901822D01*
X156332492Y-112901826D01*
X156443989Y-113013323D01*
X156564606Y-113093916D01*
X156609411Y-113147528D01*
X156618118Y-113216853D01*
X156610276Y-113244470D01*
X156555264Y-113377280D01*
X156555261Y-113377292D01*
X156524500Y-113531935D01*
X156524500Y-113689628D01*
X156555261Y-113844271D01*
X156555264Y-113844282D01*
X156557535Y-113849765D01*
X156557916Y-113853311D01*
X156559997Y-113856210D01*
X156561621Y-113887792D01*
X156565001Y-113919234D01*
X156563403Y-113922424D01*
X156563587Y-113925988D01*
X156547881Y-113953431D01*
X156533724Y-113981712D01*
X156530133Y-113984444D01*
X156528883Y-113986629D01*
X156517359Y-113994163D01*
X156500212Y-114007211D01*
X156495403Y-114009713D01*
X156420821Y-114040606D01*
X156367255Y-114076397D01*
X156361241Y-114079527D01*
X156333342Y-114085014D01*
X156306214Y-114093509D01*
X156304001Y-114093529D01*
X155855882Y-114093529D01*
X155788843Y-114073844D01*
X155786991Y-114072631D01*
X155655301Y-113984638D01*
X155655288Y-113984631D01*
X155509617Y-113924293D01*
X155505980Y-113923190D01*
X155504309Y-113922094D01*
X155503986Y-113921961D01*
X155504011Y-113921899D01*
X155447544Y-113884889D01*
X155419091Y-113821075D01*
X155420365Y-113780339D01*
X155421527Y-113774500D01*
X155442035Y-113671398D01*
X155450500Y-113628844D01*
X155450500Y-113471155D01*
X155450499Y-113471153D01*
X155419738Y-113316510D01*
X155419737Y-113316503D01*
X155382693Y-113227070D01*
X155359397Y-113170827D01*
X155359390Y-113170814D01*
X155271789Y-113039711D01*
X155271786Y-113039707D01*
X155160292Y-112928213D01*
X155160288Y-112928210D01*
X155029185Y-112840609D01*
X155029172Y-112840602D01*
X154883501Y-112780264D01*
X154883489Y-112780261D01*
X154728845Y-112749500D01*
X154728842Y-112749500D01*
X154623030Y-112749500D01*
X154555991Y-112729815D01*
X154510236Y-112677011D01*
X154499030Y-112625500D01*
X154499030Y-112570944D01*
X154499030Y-112570943D01*
X154458106Y-112418216D01*
X154433201Y-112375080D01*
X154416729Y-112307181D01*
X154425096Y-112269793D01*
X154424965Y-112269754D01*
X154425498Y-112267995D01*
X154426028Y-112265628D01*
X154426733Y-112263927D01*
X154441852Y-112187921D01*
X154453227Y-112130738D01*
X154485612Y-112068827D01*
X154546328Y-112034253D01*
X154574844Y-112030930D01*
X155747489Y-112030930D01*
X155776929Y-112039574D01*
G37*
%TD.AperFunction*%
%TA.AperFunction,Conductor*%
G36*
X145711570Y-101020185D02*
G01*
X145757325Y-101072989D01*
X145767269Y-101142147D01*
X145738244Y-101205703D01*
X145732212Y-101212181D01*
X144449481Y-102494911D01*
X144449479Y-102494913D01*
X144438611Y-102513739D01*
X144423994Y-102539057D01*
X144370423Y-102631844D01*
X144329499Y-102784572D01*
X144329499Y-102784574D01*
X144329499Y-102952675D01*
X144329500Y-102952688D01*
X144329500Y-104239701D01*
X144329499Y-104239719D01*
X144329499Y-104405425D01*
X144329498Y-104405425D01*
X144370424Y-104558160D01*
X144370425Y-104558161D01*
X144392321Y-104596085D01*
X144392322Y-104596086D01*
X144449477Y-104695083D01*
X144449481Y-104695088D01*
X144568349Y-104813956D01*
X144568355Y-104813961D01*
X144663181Y-104908787D01*
X144696666Y-104970110D01*
X144699500Y-104996468D01*
X144699500Y-106223531D01*
X144679815Y-106290570D01*
X144663181Y-106311212D01*
X144449481Y-106524911D01*
X144449480Y-106524913D01*
X144411658Y-106590423D01*
X144370423Y-106661844D01*
X144329499Y-106814572D01*
X144329499Y-106814574D01*
X144329499Y-106982675D01*
X144329500Y-106982688D01*
X144329500Y-107746373D01*
X144309815Y-107813412D01*
X144293181Y-107834054D01*
X143619481Y-108507753D01*
X143619479Y-108507755D01*
X143602931Y-108536418D01*
X143595936Y-108548535D01*
X143583082Y-108570799D01*
X143541670Y-108642527D01*
X143540423Y-108644686D01*
X143499499Y-108797414D01*
X143499499Y-108797416D01*
X143499499Y-108965517D01*
X143499500Y-108965530D01*
X143499500Y-109286859D01*
X143499499Y-109286877D01*
X143499499Y-109452583D01*
X143499498Y-109452583D01*
X143540424Y-109605318D01*
X143540425Y-109605319D01*
X143560798Y-109640605D01*
X143560799Y-109640607D01*
X143619475Y-109742238D01*
X143619481Y-109742246D01*
X143738349Y-109861114D01*
X143738355Y-109861119D01*
X144313181Y-110435945D01*
X144346666Y-110497268D01*
X144349500Y-110523626D01*
X144349500Y-112899505D01*
X144329815Y-112966544D01*
X144277011Y-113012299D01*
X144225500Y-113023505D01*
X143802712Y-113023505D01*
X143649985Y-113064428D01*
X143649978Y-113064431D01*
X143513052Y-113143484D01*
X143479181Y-113177355D01*
X143417858Y-113210840D01*
X143348166Y-113205854D01*
X143344049Y-113204234D01*
X143253501Y-113166728D01*
X143253489Y-113166725D01*
X143098845Y-113135964D01*
X143098842Y-113135964D01*
X143011411Y-113135964D01*
X142944372Y-113116279D01*
X142920115Y-113094684D01*
X142919865Y-113094935D01*
X142804060Y-112979130D01*
X142804056Y-112979127D01*
X142672953Y-112891526D01*
X142672940Y-112891519D01*
X142527269Y-112831181D01*
X142527257Y-112831178D01*
X142372613Y-112800417D01*
X142372610Y-112800417D01*
X142214926Y-112800417D01*
X142214923Y-112800417D01*
X142060278Y-112831178D01*
X142060266Y-112831181D01*
X141914595Y-112891519D01*
X141914582Y-112891526D01*
X141783479Y-112979127D01*
X141783475Y-112979130D01*
X141712181Y-113050425D01*
X141650858Y-113083910D01*
X141581166Y-113078926D01*
X141525233Y-113037054D01*
X141500816Y-112971590D01*
X141500500Y-112962744D01*
X141500500Y-111195134D01*
X141520185Y-111128095D01*
X141572989Y-111082340D01*
X141642147Y-111072396D01*
X141671950Y-111080572D01*
X141766503Y-111119737D01*
X141905111Y-111147308D01*
X141921153Y-111150499D01*
X141921156Y-111150500D01*
X141921158Y-111150500D01*
X142078840Y-111150500D01*
X142078842Y-111150500D01*
X142094887Y-111147308D01*
X142164477Y-111153534D01*
X142219655Y-111196395D01*
X142242902Y-111262284D01*
X142240697Y-111293116D01*
X142219500Y-111399680D01*
X142219500Y-111557373D01*
X142250261Y-111712016D01*
X142250264Y-111712028D01*
X142310602Y-111857699D01*
X142310609Y-111857712D01*
X142398210Y-111988815D01*
X142398213Y-111988819D01*
X142509707Y-112100313D01*
X142509711Y-112100316D01*
X142640814Y-112187917D01*
X142640827Y-112187924D01*
X142786498Y-112248262D01*
X142786503Y-112248264D01*
X142885697Y-112267995D01*
X142941153Y-112279026D01*
X142941156Y-112279027D01*
X142941158Y-112279027D01*
X143098844Y-112279027D01*
X143098845Y-112279026D01*
X143253497Y-112248264D01*
X143399179Y-112187921D01*
X143530289Y-112100316D01*
X143641789Y-111988816D01*
X143729394Y-111857706D01*
X143789737Y-111712024D01*
X143820500Y-111557369D01*
X143820500Y-111399685D01*
X143820500Y-111399682D01*
X143820499Y-111399680D01*
X143789738Y-111245037D01*
X143789737Y-111245030D01*
X143762844Y-111180104D01*
X143729397Y-111099354D01*
X143729390Y-111099341D01*
X143641789Y-110968238D01*
X143641786Y-110968234D01*
X143530292Y-110856740D01*
X143530288Y-110856737D01*
X143399185Y-110769136D01*
X143399172Y-110769129D01*
X143253501Y-110708791D01*
X143253489Y-110708788D01*
X143098845Y-110678027D01*
X143098842Y-110678027D01*
X142941158Y-110678027D01*
X142941157Y-110678027D01*
X142925108Y-110681219D01*
X142855516Y-110674990D01*
X142800340Y-110632126D01*
X142777097Y-110566236D01*
X142779302Y-110535409D01*
X142785246Y-110505531D01*
X142800500Y-110428842D01*
X142800500Y-110271158D01*
X142800500Y-110271155D01*
X142800499Y-110271153D01*
X142790272Y-110219737D01*
X142769737Y-110116503D01*
X142760953Y-110095296D01*
X142709397Y-109970827D01*
X142709390Y-109970814D01*
X142621398Y-109839125D01*
X142600520Y-109772447D01*
X142600500Y-109770234D01*
X142600500Y-102329060D01*
X142600501Y-102329047D01*
X142600501Y-102160944D01*
X142600501Y-102160943D01*
X142559577Y-102008216D01*
X142559573Y-102008209D01*
X142480524Y-101871290D01*
X142480518Y-101871282D01*
X141821417Y-101212181D01*
X141787932Y-101150858D01*
X141792916Y-101081166D01*
X141834788Y-101025233D01*
X141900252Y-101000816D01*
X141909098Y-101000500D01*
X145644531Y-101000500D01*
X145711570Y-101020185D01*
G37*
%TD.AperFunction*%
%TA.AperFunction,Conductor*%
G36*
X146579733Y-107528381D02*
G01*
X146591683Y-107527241D01*
X146612637Y-107538043D01*
X146635255Y-107544685D01*
X146644667Y-107554555D01*
X146653786Y-107559257D01*
X146675602Y-107586999D01*
X146699485Y-107628365D01*
X146806635Y-107735515D01*
X146937865Y-107811281D01*
X147084234Y-107850500D01*
X147084236Y-107850500D01*
X147235764Y-107850500D01*
X147235766Y-107850500D01*
X147382135Y-107811281D01*
X147382136Y-107811280D01*
X147389986Y-107809177D01*
X147390640Y-107811620D01*
X147447517Y-107805505D01*
X147509996Y-107836781D01*
X147545648Y-107896870D01*
X147549500Y-107927535D01*
X147549500Y-108985687D01*
X147529815Y-109052726D01*
X147513181Y-109073368D01*
X147148369Y-109438181D01*
X147087046Y-109471666D01*
X147060688Y-109474500D01*
X146780528Y-109474500D01*
X146622414Y-109474500D01*
X146469686Y-109515423D01*
X146449051Y-109527336D01*
X146443522Y-109530529D01*
X146443521Y-109530528D01*
X146332758Y-109594477D01*
X146332753Y-109594481D01*
X145869481Y-110057753D01*
X145869479Y-110057756D01*
X145835967Y-110115801D01*
X145835562Y-110116503D01*
X145790423Y-110194686D01*
X145789090Y-110199657D01*
X145782737Y-110211024D01*
X145762773Y-110230594D01*
X145745225Y-110252373D01*
X145738159Y-110254724D01*
X145732844Y-110259936D01*
X145705465Y-110265607D01*
X145678931Y-110274440D01*
X145671716Y-110272598D01*
X145664426Y-110274109D01*
X145638325Y-110264077D01*
X145611231Y-110257163D01*
X145606157Y-110251713D01*
X145599208Y-110249043D01*
X145582672Y-110226490D01*
X145563619Y-110206027D01*
X145561693Y-110197877D01*
X145557894Y-110192696D01*
X145556987Y-110177967D01*
X145550501Y-110150519D01*
X145550501Y-110144473D01*
X145543008Y-110116510D01*
X145509577Y-109991745D01*
X145434158Y-109861114D01*
X145430524Y-109854819D01*
X145430518Y-109854811D01*
X145349369Y-109773662D01*
X145315884Y-109712339D01*
X145320868Y-109642647D01*
X145333946Y-109617094D01*
X145387858Y-109536409D01*
X145409389Y-109504187D01*
X145409390Y-109504184D01*
X145409394Y-109504179D01*
X145469737Y-109358497D01*
X145500500Y-109203842D01*
X145500500Y-109046158D01*
X145500500Y-109046155D01*
X145482383Y-108955078D01*
X145480000Y-108930886D01*
X145480000Y-108491988D01*
X145489940Y-108509205D01*
X145545795Y-108565060D01*
X145614204Y-108604556D01*
X145690504Y-108625000D01*
X145769496Y-108625000D01*
X145845796Y-108604556D01*
X145914205Y-108565060D01*
X145970060Y-108509205D01*
X145980000Y-108491988D01*
X145980000Y-109294862D01*
X146021690Y-109286569D01*
X146021692Y-109286569D01*
X146203671Y-109211192D01*
X146203684Y-109211185D01*
X146367462Y-109101751D01*
X146367466Y-109101748D01*
X146506748Y-108962466D01*
X146506751Y-108962462D01*
X146616185Y-108798684D01*
X146616192Y-108798671D01*
X146691569Y-108616693D01*
X146691572Y-108616681D01*
X146729999Y-108423495D01*
X146730000Y-108423492D01*
X146730000Y-108025000D01*
X146030000Y-108025000D01*
X146030000Y-107525000D01*
X146568216Y-107525000D01*
X146579733Y-107528381D01*
G37*
%TD.AperFunction*%
%TA.AperFunction,Conductor*%
G36*
X141305703Y-102395384D02*
G01*
X141312181Y-102401416D01*
X141363181Y-102452416D01*
X141396666Y-102513739D01*
X141399500Y-102540097D01*
X141399500Y-109700901D01*
X141379815Y-109767940D01*
X141327011Y-109813695D01*
X141257853Y-109823639D01*
X141194297Y-109794614D01*
X141187825Y-109788588D01*
X141180526Y-109781290D01*
X141068717Y-109669481D01*
X141068716Y-109669480D01*
X141048749Y-109657952D01*
X141032728Y-109648702D01*
X140984513Y-109598134D01*
X140984245Y-109597611D01*
X140936635Y-109504172D01*
X140905051Y-109442184D01*
X140905049Y-109442181D01*
X140905048Y-109442179D01*
X140780109Y-109270213D01*
X140629786Y-109119890D01*
X140457817Y-108994949D01*
X140448504Y-108990204D01*
X140397707Y-108942230D01*
X140380912Y-108874409D01*
X140403449Y-108808274D01*
X140448507Y-108769232D01*
X140457555Y-108764622D01*
X140511716Y-108725270D01*
X140511717Y-108725270D01*
X139879408Y-108092962D01*
X139942993Y-108075925D01*
X140057007Y-108010099D01*
X140150099Y-107917007D01*
X140215925Y-107802993D01*
X140232962Y-107739409D01*
X140865270Y-108371717D01*
X140865270Y-108371716D01*
X140904622Y-108317554D01*
X141001095Y-108128217D01*
X141066757Y-107926130D01*
X141066757Y-107926127D01*
X141100000Y-107716246D01*
X141100000Y-107503753D01*
X141066757Y-107293872D01*
X141066757Y-107293869D01*
X141001095Y-107091782D01*
X140904624Y-106902449D01*
X140865270Y-106848282D01*
X140865269Y-106848282D01*
X140232962Y-107480590D01*
X140215925Y-107417007D01*
X140150099Y-107302993D01*
X140057007Y-107209901D01*
X139942993Y-107144075D01*
X139879409Y-107127037D01*
X140511716Y-106494728D01*
X140457547Y-106455373D01*
X140457547Y-106455372D01*
X140448500Y-106450763D01*
X140397706Y-106402788D01*
X140380912Y-106334966D01*
X140403451Y-106268832D01*
X140448508Y-106229793D01*
X140457816Y-106225051D01*
X140610940Y-106113801D01*
X140629786Y-106100109D01*
X140629788Y-106100106D01*
X140629792Y-106100104D01*
X140780104Y-105949792D01*
X140780106Y-105949788D01*
X140780109Y-105949786D01*
X140905048Y-105777820D01*
X140905047Y-105777820D01*
X140905051Y-105777816D01*
X141001557Y-105588412D01*
X141067246Y-105386243D01*
X141100500Y-105176287D01*
X141100500Y-104963713D01*
X141067246Y-104753757D01*
X141001557Y-104551588D01*
X140905051Y-104362184D01*
X140905049Y-104362181D01*
X140905048Y-104362179D01*
X140780109Y-104190213D01*
X140629786Y-104039890D01*
X140457820Y-103914951D01*
X140457115Y-103914591D01*
X140449054Y-103910485D01*
X140398259Y-103862512D01*
X140381463Y-103794692D01*
X140403999Y-103728556D01*
X140449054Y-103689515D01*
X140457816Y-103685051D01*
X140503361Y-103651961D01*
X140629786Y-103560109D01*
X140629788Y-103560106D01*
X140629792Y-103560104D01*
X140780104Y-103409792D01*
X140780106Y-103409788D01*
X140780109Y-103409786D01*
X140905048Y-103237820D01*
X140905047Y-103237820D01*
X140905051Y-103237816D01*
X141001557Y-103048412D01*
X141067246Y-102846243D01*
X141100500Y-102636287D01*
X141100500Y-102489097D01*
X141120185Y-102422058D01*
X141172989Y-102376303D01*
X141242147Y-102366359D01*
X141305703Y-102395384D01*
G37*
%TD.AperFunction*%
%TA.AperFunction,Conductor*%
G36*
X139284075Y-107802993D02*
G01*
X139349901Y-107917007D01*
X139442993Y-108010099D01*
X139557007Y-108075925D01*
X139620590Y-108092962D01*
X138988282Y-108725269D01*
X138988282Y-108725270D01*
X139042452Y-108764626D01*
X139042451Y-108764626D01*
X139051495Y-108769234D01*
X139102292Y-108817208D01*
X139119087Y-108885029D01*
X139096550Y-108951164D01*
X139051499Y-108990202D01*
X139042182Y-108994949D01*
X138870213Y-109119890D01*
X138719891Y-109270212D01*
X138719545Y-109270618D01*
X138719375Y-109270728D01*
X138716451Y-109273653D01*
X138715835Y-109273037D01*
X138661028Y-109308796D01*
X138591160Y-109309277D01*
X138532123Y-109271908D01*
X138502662Y-109208554D01*
X138501276Y-109190072D01*
X138501318Y-108495348D01*
X138521006Y-108428313D01*
X138573812Y-108382562D01*
X138634630Y-108371814D01*
X139267037Y-107739408D01*
X139284075Y-107802993D01*
G37*
%TD.AperFunction*%
%TA.AperFunction,Conductor*%
G36*
X155575203Y-103984884D02*
G01*
X155581681Y-103990916D01*
X158716241Y-107125476D01*
X158749726Y-107186799D01*
X158746492Y-107251473D01*
X158732753Y-107293757D01*
X158713233Y-107417007D01*
X158699500Y-107503713D01*
X158699500Y-107716287D01*
X158704265Y-107746373D01*
X158732735Y-107926127D01*
X158732754Y-107926243D01*
X158797506Y-108125529D01*
X158798444Y-108128414D01*
X158894951Y-108317820D01*
X159019890Y-108489786D01*
X159039580Y-108509476D01*
X159073065Y-108570799D01*
X159068081Y-108640491D01*
X159039580Y-108684838D01*
X158761238Y-108963181D01*
X158734310Y-108977884D01*
X158708492Y-108994477D01*
X158702291Y-108995368D01*
X158699915Y-108996666D01*
X158673557Y-108999500D01*
X158598627Y-108999500D01*
X158531588Y-108979815D01*
X158510946Y-108963181D01*
X158317246Y-108769481D01*
X158317245Y-108769480D01*
X158214795Y-108710331D01*
X158214794Y-108710330D01*
X158180312Y-108690422D01*
X158122416Y-108674909D01*
X158027586Y-108649499D01*
X157869472Y-108649499D01*
X157861876Y-108649499D01*
X157861860Y-108649500D01*
X157538141Y-108649500D01*
X157538125Y-108649499D01*
X157530529Y-108649499D01*
X157372414Y-108649499D01*
X157296050Y-108669961D01*
X157219685Y-108690423D01*
X157219680Y-108690426D01*
X157082761Y-108769475D01*
X157082753Y-108769481D01*
X156889054Y-108963181D01*
X156862126Y-108977884D01*
X156836308Y-108994477D01*
X156830107Y-108995368D01*
X156827731Y-108996666D01*
X156801373Y-108999500D01*
X156724500Y-108999500D01*
X156657461Y-108979815D01*
X156611706Y-108927011D01*
X156600500Y-108875500D01*
X156600500Y-108721155D01*
X156600499Y-108721153D01*
X156586246Y-108649499D01*
X156569737Y-108566503D01*
X156562295Y-108548536D01*
X156509397Y-108420827D01*
X156509390Y-108420814D01*
X156421789Y-108289711D01*
X156421786Y-108289707D01*
X156310292Y-108178213D01*
X156310288Y-108178210D01*
X156179185Y-108090609D01*
X156179172Y-108090602D01*
X156033501Y-108030264D01*
X156033489Y-108030261D01*
X155878845Y-107999500D01*
X155878842Y-107999500D01*
X155721158Y-107999500D01*
X155721155Y-107999500D01*
X155566510Y-108030261D01*
X155566498Y-108030264D01*
X155507822Y-108054569D01*
X155438353Y-108062038D01*
X155375874Y-108030763D01*
X155372689Y-108027689D01*
X155370000Y-108025000D01*
X154670000Y-108025000D01*
X154670000Y-107525000D01*
X155370000Y-107525000D01*
X155370000Y-107126508D01*
X155369999Y-107126504D01*
X155331572Y-106933318D01*
X155331569Y-106933306D01*
X155256192Y-106751328D01*
X155256185Y-106751315D01*
X155146751Y-106587537D01*
X155146748Y-106587533D01*
X155007466Y-106448251D01*
X155007462Y-106448248D01*
X154843684Y-106338814D01*
X154843671Y-106338807D01*
X154661691Y-106263429D01*
X154661683Y-106263427D01*
X154620000Y-106255135D01*
X154620000Y-107058011D01*
X154610060Y-107040795D01*
X154554205Y-106984940D01*
X154485796Y-106945444D01*
X154409496Y-106925000D01*
X154330504Y-106925000D01*
X154254204Y-106945444D01*
X154185795Y-106984940D01*
X154129940Y-107040795D01*
X154120000Y-107058011D01*
X154120000Y-106290355D01*
X154018113Y-106261623D01*
X154012716Y-106258236D01*
X154006368Y-106257668D01*
X153983479Y-106239887D01*
X153958933Y-106224482D01*
X153956223Y-106218713D01*
X153951191Y-106214804D01*
X153941548Y-106187471D01*
X153929228Y-106161241D01*
X153930067Y-106154924D01*
X153927947Y-106148915D01*
X153931992Y-106110192D01*
X153960501Y-106003801D01*
X153960501Y-105845686D01*
X153960501Y-105838091D01*
X153960500Y-105838073D01*
X153960500Y-105084231D01*
X153980185Y-105017192D01*
X154032989Y-104971437D01*
X154102147Y-104961493D01*
X154108691Y-104962614D01*
X154120000Y-104964863D01*
X154120000Y-104161988D01*
X154129940Y-104179205D01*
X154185795Y-104235060D01*
X154254204Y-104274556D01*
X154330504Y-104295000D01*
X154409496Y-104295000D01*
X154485796Y-104274556D01*
X154554205Y-104235060D01*
X154610060Y-104179205D01*
X154620000Y-104161988D01*
X154620000Y-104964862D01*
X154661690Y-104956569D01*
X154661692Y-104956569D01*
X154843671Y-104881192D01*
X154843684Y-104881185D01*
X155007462Y-104771751D01*
X155007466Y-104771748D01*
X155146748Y-104632466D01*
X155146751Y-104632462D01*
X155256185Y-104468684D01*
X155256192Y-104468671D01*
X155331569Y-104286693D01*
X155331572Y-104286681D01*
X155369999Y-104093495D01*
X155370000Y-104093492D01*
X155370000Y-104078597D01*
X155389685Y-104011558D01*
X155442489Y-103965803D01*
X155511647Y-103955859D01*
X155575203Y-103984884D01*
G37*
%TD.AperFunction*%
%TA.AperFunction,Conductor*%
G36*
X152336587Y-106970185D02*
G01*
X152382342Y-107022989D01*
X152392286Y-107092147D01*
X152389323Y-107106593D01*
X152364500Y-107199234D01*
X152364500Y-107350765D01*
X152403719Y-107497136D01*
X152421759Y-107528381D01*
X152479485Y-107628365D01*
X152586635Y-107735515D01*
X152717865Y-107811281D01*
X152864234Y-107850500D01*
X152864236Y-107850500D01*
X153015764Y-107850500D01*
X153015766Y-107850500D01*
X153162135Y-107811281D01*
X153293365Y-107735515D01*
X153400515Y-107628365D01*
X153424397Y-107586999D01*
X153474964Y-107538784D01*
X153531784Y-107525000D01*
X154070000Y-107525000D01*
X154070000Y-108025000D01*
X153370000Y-108025000D01*
X153370000Y-108423492D01*
X153375533Y-108451308D01*
X153369306Y-108520900D01*
X153326443Y-108576077D01*
X153260554Y-108599322D01*
X153253916Y-108599500D01*
X149770941Y-108599500D01*
X149746504Y-108606047D01*
X149746505Y-108606048D01*
X149618216Y-108640423D01*
X149618214Y-108640424D01*
X149610366Y-108642527D01*
X149610180Y-108641834D01*
X149571637Y-108649500D01*
X149521155Y-108649500D01*
X149366510Y-108680261D01*
X149366498Y-108680264D01*
X149321952Y-108698716D01*
X149252483Y-108706185D01*
X149190004Y-108674909D01*
X149154352Y-108614820D01*
X149150500Y-108584155D01*
X149150500Y-107672902D01*
X149170185Y-107605863D01*
X149222989Y-107560108D01*
X149292147Y-107550164D01*
X149355703Y-107579189D01*
X149389062Y-107625451D01*
X149390605Y-107629178D01*
X149390609Y-107629185D01*
X149478210Y-107760288D01*
X149478213Y-107760292D01*
X149589707Y-107871786D01*
X149589711Y-107871789D01*
X149720814Y-107959390D01*
X149720827Y-107959397D01*
X149866498Y-108019735D01*
X149866503Y-108019737D01*
X150021153Y-108050499D01*
X150021156Y-108050500D01*
X150021158Y-108050500D01*
X150178844Y-108050500D01*
X150178845Y-108050499D01*
X150333497Y-108019737D01*
X150479179Y-107959394D01*
X150610289Y-107871789D01*
X150721789Y-107760289D01*
X150809394Y-107629179D01*
X150869737Y-107483497D01*
X150900500Y-107328842D01*
X150900500Y-107171158D01*
X150900500Y-107171155D01*
X150900499Y-107171153D01*
X150886086Y-107098691D01*
X150892313Y-107029100D01*
X150935176Y-106973922D01*
X151001066Y-106950678D01*
X151007703Y-106950500D01*
X152269548Y-106950500D01*
X152336587Y-106970185D01*
G37*
%TD.AperFunction*%
%TA.AperFunction,Conductor*%
G36*
X138721388Y-105951284D02*
G01*
X138870213Y-106100109D01*
X139042179Y-106225048D01*
X139042181Y-106225049D01*
X139042184Y-106225051D01*
X139051493Y-106229794D01*
X139102290Y-106277766D01*
X139119087Y-106345587D01*
X139096552Y-106411722D01*
X139051505Y-106450760D01*
X139042446Y-106455376D01*
X139042440Y-106455380D01*
X138988282Y-106494727D01*
X138988282Y-106494728D01*
X139620591Y-107127037D01*
X139557007Y-107144075D01*
X139442993Y-107209901D01*
X139349901Y-107302993D01*
X139284075Y-107417007D01*
X139267037Y-107480591D01*
X138634572Y-106848126D01*
X138566775Y-106833883D01*
X138517018Y-106784831D01*
X138501424Y-106724626D01*
X138501461Y-106120557D01*
X138502086Y-106108154D01*
X138510336Y-106026497D01*
X138536659Y-105961779D01*
X138593795Y-105921564D01*
X138663603Y-105918623D01*
X138721388Y-105951284D01*
G37*
%TD.AperFunction*%
%TA.AperFunction,Conductor*%
G36*
X158633171Y-100925112D02*
G01*
X158652401Y-100926488D01*
X158665511Y-100936302D01*
X158680984Y-100941656D01*
X158692900Y-100956805D01*
X158708335Y-100968360D01*
X158722740Y-100994743D01*
X158724180Y-100996573D01*
X158725249Y-100999337D01*
X158756202Y-101082328D01*
X158756206Y-101082335D01*
X158842452Y-101197544D01*
X158842455Y-101197547D01*
X158957664Y-101283793D01*
X158957671Y-101283797D01*
X159089082Y-101332810D01*
X159145016Y-101374681D01*
X159169433Y-101440145D01*
X159154582Y-101508418D01*
X159133431Y-101536673D01*
X159019889Y-101650215D01*
X158894951Y-101822179D01*
X158798444Y-102011585D01*
X158732753Y-102213760D01*
X158699500Y-102423713D01*
X158699500Y-102636286D01*
X158726946Y-102809577D01*
X158732754Y-102846243D01*
X158786220Y-103010795D01*
X158798444Y-103048414D01*
X158894951Y-103237820D01*
X159019890Y-103409786D01*
X159170213Y-103560109D01*
X159342182Y-103685050D01*
X159350946Y-103689516D01*
X159401742Y-103737491D01*
X159418536Y-103805312D01*
X159395998Y-103871447D01*
X159350946Y-103910484D01*
X159342182Y-103914949D01*
X159170213Y-104039890D01*
X159019890Y-104190213D01*
X158894951Y-104362179D01*
X158798444Y-104551585D01*
X158732753Y-104753760D01*
X158699500Y-104963713D01*
X158699500Y-105110903D01*
X158679815Y-105177942D01*
X158627011Y-105223697D01*
X158557853Y-105233641D01*
X158494297Y-105204616D01*
X158487819Y-105198584D01*
X154501416Y-101212181D01*
X154467931Y-101150858D01*
X154472915Y-101081166D01*
X154514787Y-101025233D01*
X154580251Y-101000816D01*
X154589097Y-101000500D01*
X158234138Y-101000500D01*
X158234164Y-101000507D01*
X158300056Y-101000500D01*
X158365892Y-101000500D01*
X158365893Y-101000500D01*
X158365940Y-101000493D01*
X158365948Y-101000493D01*
X158410508Y-100988547D01*
X158429350Y-100983497D01*
X158429353Y-100983495D01*
X158493186Y-100966392D01*
X158493191Y-100966388D01*
X158493283Y-100966364D01*
X158494401Y-100965697D01*
X158547057Y-100935288D01*
X158565790Y-100930742D01*
X158582710Y-100921504D01*
X158599042Y-100922672D01*
X158614955Y-100918810D01*
X158633171Y-100925112D01*
G37*
%TD.AperFunction*%
%TD*%
M02*
