%TF.GenerationSoftware,KiCad,Pcbnew,10.0.4*%
%TF.CreationDate,2026-09-18T16:54:36-04:00*%
%TF.ProjectId,devboard,64657662-6f61-4726-942e-6b696361645f,rev?*%
%TF.SameCoordinates,Original*%
%TF.FileFunction,Legend,Bot*%
%TF.FilePolarity,Positive*%
%FSLAX46Y46*%
G04 Gerber Fmt 4.6, Leading zero omitted, Abs format (unit mm)*
G04 Created by KiCad (PCBNEW 10.0.4) date 2026-09-18 16:54:36*
%MOMM*%
%LPD*%
G01*
G04 APERTURE LIST*
%ADD10C,0.100000*%
%ADD11C,0.200000*%
%ADD12C,0.150000*%
%ADD13C,0.120000*%
G04 APERTURE END LIST*
D10*
X155567544Y-111509133D02*
X155567544Y-110809133D01*
X155567544Y-111142466D02*
X155167544Y-111142466D01*
X155167544Y-111509133D02*
X155167544Y-110809133D01*
X154534211Y-111509133D02*
X154534211Y-111142466D01*
X154534211Y-111142466D02*
X154567544Y-111075800D01*
X154567544Y-111075800D02*
X154634211Y-111042466D01*
X154634211Y-111042466D02*
X154767544Y-111042466D01*
X154767544Y-111042466D02*
X154834211Y-111075800D01*
X154534211Y-111475800D02*
X154600878Y-111509133D01*
X154600878Y-111509133D02*
X154767544Y-111509133D01*
X154767544Y-111509133D02*
X154834211Y-111475800D01*
X154834211Y-111475800D02*
X154867544Y-111409133D01*
X154867544Y-111409133D02*
X154867544Y-111342466D01*
X154867544Y-111342466D02*
X154834211Y-111275800D01*
X154834211Y-111275800D02*
X154767544Y-111242466D01*
X154767544Y-111242466D02*
X154600878Y-111242466D01*
X154600878Y-111242466D02*
X154534211Y-111209133D01*
X154100878Y-111509133D02*
X154167545Y-111475800D01*
X154167545Y-111475800D02*
X154200878Y-111409133D01*
X154200878Y-111409133D02*
X154200878Y-110809133D01*
X153934211Y-111042466D02*
X153667544Y-111042466D01*
X153834211Y-111509133D02*
X153834211Y-110909133D01*
X153834211Y-110909133D02*
X153800878Y-110842466D01*
X153800878Y-110842466D02*
X153734211Y-110809133D01*
X153734211Y-110809133D02*
X153667544Y-110809133D01*
X152567545Y-111509133D02*
X152900878Y-111509133D01*
X152900878Y-111509133D02*
X152900878Y-110809133D01*
X152334211Y-111509133D02*
X152334211Y-111042466D01*
X152334211Y-110809133D02*
X152367544Y-110842466D01*
X152367544Y-110842466D02*
X152334211Y-110875800D01*
X152334211Y-110875800D02*
X152300878Y-110842466D01*
X152300878Y-110842466D02*
X152334211Y-110809133D01*
X152334211Y-110809133D02*
X152334211Y-110875800D01*
X152100878Y-111042466D02*
X151834211Y-111042466D01*
X152000878Y-111509133D02*
X152000878Y-110909133D01*
X152000878Y-110909133D02*
X151967545Y-110842466D01*
X151967545Y-110842466D02*
X151900878Y-110809133D01*
X151900878Y-110809133D02*
X151834211Y-110809133D01*
X151334211Y-111475800D02*
X151400878Y-111509133D01*
X151400878Y-111509133D02*
X151534211Y-111509133D01*
X151534211Y-111509133D02*
X151600878Y-111475800D01*
X151600878Y-111475800D02*
X151634211Y-111409133D01*
X151634211Y-111409133D02*
X151634211Y-111142466D01*
X151634211Y-111142466D02*
X151600878Y-111075800D01*
X151600878Y-111075800D02*
X151534211Y-111042466D01*
X151534211Y-111042466D02*
X151400878Y-111042466D01*
X151400878Y-111042466D02*
X151334211Y-111075800D01*
X151334211Y-111075800D02*
X151300878Y-111142466D01*
X151300878Y-111142466D02*
X151300878Y-111209133D01*
X151300878Y-111209133D02*
X151634211Y-111275800D01*
X150467545Y-111242466D02*
X149934212Y-111242466D01*
X149067545Y-111509133D02*
X149067545Y-110809133D01*
X149067545Y-111142466D02*
X148667545Y-111142466D01*
X148667545Y-111509133D02*
X148667545Y-110809133D01*
X148034212Y-111509133D02*
X148034212Y-111142466D01*
X148034212Y-111142466D02*
X148067545Y-111075800D01*
X148067545Y-111075800D02*
X148134212Y-111042466D01*
X148134212Y-111042466D02*
X148267545Y-111042466D01*
X148267545Y-111042466D02*
X148334212Y-111075800D01*
X148034212Y-111475800D02*
X148100879Y-111509133D01*
X148100879Y-111509133D02*
X148267545Y-111509133D01*
X148267545Y-111509133D02*
X148334212Y-111475800D01*
X148334212Y-111475800D02*
X148367545Y-111409133D01*
X148367545Y-111409133D02*
X148367545Y-111342466D01*
X148367545Y-111342466D02*
X148334212Y-111275800D01*
X148334212Y-111275800D02*
X148267545Y-111242466D01*
X148267545Y-111242466D02*
X148100879Y-111242466D01*
X148100879Y-111242466D02*
X148034212Y-111209133D01*
X147400879Y-111475800D02*
X147467546Y-111509133D01*
X147467546Y-111509133D02*
X147600879Y-111509133D01*
X147600879Y-111509133D02*
X147667546Y-111475800D01*
X147667546Y-111475800D02*
X147700879Y-111442466D01*
X147700879Y-111442466D02*
X147734212Y-111375800D01*
X147734212Y-111375800D02*
X147734212Y-111175800D01*
X147734212Y-111175800D02*
X147700879Y-111109133D01*
X147700879Y-111109133D02*
X147667546Y-111075800D01*
X147667546Y-111075800D02*
X147600879Y-111042466D01*
X147600879Y-111042466D02*
X147467546Y-111042466D01*
X147467546Y-111042466D02*
X147400879Y-111075800D01*
X147100879Y-111509133D02*
X147100879Y-110809133D01*
X147034212Y-111242466D02*
X146834212Y-111509133D01*
X146834212Y-111042466D02*
X147100879Y-111309133D01*
X145600879Y-111442466D02*
X145634212Y-111475800D01*
X145634212Y-111475800D02*
X145734212Y-111509133D01*
X145734212Y-111509133D02*
X145800879Y-111509133D01*
X145800879Y-111509133D02*
X145900879Y-111475800D01*
X145900879Y-111475800D02*
X145967546Y-111409133D01*
X145967546Y-111409133D02*
X146000879Y-111342466D01*
X146000879Y-111342466D02*
X146034212Y-111209133D01*
X146034212Y-111209133D02*
X146034212Y-111109133D01*
X146034212Y-111109133D02*
X146000879Y-110975800D01*
X146000879Y-110975800D02*
X145967546Y-110909133D01*
X145967546Y-110909133D02*
X145900879Y-110842466D01*
X145900879Y-110842466D02*
X145800879Y-110809133D01*
X145800879Y-110809133D02*
X145734212Y-110809133D01*
X145734212Y-110809133D02*
X145634212Y-110842466D01*
X145634212Y-110842466D02*
X145600879Y-110875800D01*
X145200879Y-111509133D02*
X145267546Y-111475800D01*
X145267546Y-111475800D02*
X145300879Y-111409133D01*
X145300879Y-111409133D02*
X145300879Y-110809133D01*
X144634212Y-111042466D02*
X144634212Y-111509133D01*
X144934212Y-111042466D02*
X144934212Y-111409133D01*
X144934212Y-111409133D02*
X144900879Y-111475800D01*
X144900879Y-111475800D02*
X144834212Y-111509133D01*
X144834212Y-111509133D02*
X144734212Y-111509133D01*
X144734212Y-111509133D02*
X144667545Y-111475800D01*
X144667545Y-111475800D02*
X144634212Y-111442466D01*
X144300879Y-111509133D02*
X144300879Y-110809133D01*
X144300879Y-111075800D02*
X144234212Y-111042466D01*
X144234212Y-111042466D02*
X144100879Y-111042466D01*
X144100879Y-111042466D02*
X144034212Y-111075800D01*
X144034212Y-111075800D02*
X144000879Y-111109133D01*
X144000879Y-111109133D02*
X143967546Y-111175800D01*
X143967546Y-111175800D02*
X143967546Y-111375800D01*
X143967546Y-111375800D02*
X144000879Y-111442466D01*
X144000879Y-111442466D02*
X144034212Y-111475800D01*
X144034212Y-111475800D02*
X144100879Y-111509133D01*
X144100879Y-111509133D02*
X144234212Y-111509133D01*
X144234212Y-111509133D02*
X144300879Y-111475800D01*
D11*
X155730326Y-110217219D02*
X155730326Y-109217219D01*
X155730326Y-109217219D02*
X155492231Y-109217219D01*
X155492231Y-109217219D02*
X155349374Y-109264838D01*
X155349374Y-109264838D02*
X155254136Y-109360076D01*
X155254136Y-109360076D02*
X155206517Y-109455314D01*
X155206517Y-109455314D02*
X155158898Y-109645790D01*
X155158898Y-109645790D02*
X155158898Y-109788647D01*
X155158898Y-109788647D02*
X155206517Y-109979123D01*
X155206517Y-109979123D02*
X155254136Y-110074361D01*
X155254136Y-110074361D02*
X155349374Y-110169600D01*
X155349374Y-110169600D02*
X155492231Y-110217219D01*
X155492231Y-110217219D02*
X155730326Y-110217219D01*
X154349374Y-110169600D02*
X154444612Y-110217219D01*
X154444612Y-110217219D02*
X154635088Y-110217219D01*
X154635088Y-110217219D02*
X154730326Y-110169600D01*
X154730326Y-110169600D02*
X154777945Y-110074361D01*
X154777945Y-110074361D02*
X154777945Y-109693409D01*
X154777945Y-109693409D02*
X154730326Y-109598171D01*
X154730326Y-109598171D02*
X154635088Y-109550552D01*
X154635088Y-109550552D02*
X154444612Y-109550552D01*
X154444612Y-109550552D02*
X154349374Y-109598171D01*
X154349374Y-109598171D02*
X154301755Y-109693409D01*
X154301755Y-109693409D02*
X154301755Y-109788647D01*
X154301755Y-109788647D02*
X154777945Y-109883885D01*
X153920802Y-110169600D02*
X153825564Y-110217219D01*
X153825564Y-110217219D02*
X153635088Y-110217219D01*
X153635088Y-110217219D02*
X153539850Y-110169600D01*
X153539850Y-110169600D02*
X153492231Y-110074361D01*
X153492231Y-110074361D02*
X153492231Y-110026742D01*
X153492231Y-110026742D02*
X153539850Y-109931504D01*
X153539850Y-109931504D02*
X153635088Y-109883885D01*
X153635088Y-109883885D02*
X153777945Y-109883885D01*
X153777945Y-109883885D02*
X153873183Y-109836266D01*
X153873183Y-109836266D02*
X153920802Y-109741028D01*
X153920802Y-109741028D02*
X153920802Y-109693409D01*
X153920802Y-109693409D02*
X153873183Y-109598171D01*
X153873183Y-109598171D02*
X153777945Y-109550552D01*
X153777945Y-109550552D02*
X153635088Y-109550552D01*
X153635088Y-109550552D02*
X153539850Y-109598171D01*
X153063659Y-110217219D02*
X153063659Y-109550552D01*
X153063659Y-109217219D02*
X153111278Y-109264838D01*
X153111278Y-109264838D02*
X153063659Y-109312457D01*
X153063659Y-109312457D02*
X153016040Y-109264838D01*
X153016040Y-109264838D02*
X153063659Y-109217219D01*
X153063659Y-109217219D02*
X153063659Y-109312457D01*
X152158898Y-109550552D02*
X152158898Y-110360076D01*
X152158898Y-110360076D02*
X152206517Y-110455314D01*
X152206517Y-110455314D02*
X152254136Y-110502933D01*
X152254136Y-110502933D02*
X152349374Y-110550552D01*
X152349374Y-110550552D02*
X152492231Y-110550552D01*
X152492231Y-110550552D02*
X152587469Y-110502933D01*
X152158898Y-110169600D02*
X152254136Y-110217219D01*
X152254136Y-110217219D02*
X152444612Y-110217219D01*
X152444612Y-110217219D02*
X152539850Y-110169600D01*
X152539850Y-110169600D02*
X152587469Y-110121980D01*
X152587469Y-110121980D02*
X152635088Y-110026742D01*
X152635088Y-110026742D02*
X152635088Y-109741028D01*
X152635088Y-109741028D02*
X152587469Y-109645790D01*
X152587469Y-109645790D02*
X152539850Y-109598171D01*
X152539850Y-109598171D02*
X152444612Y-109550552D01*
X152444612Y-109550552D02*
X152254136Y-109550552D01*
X152254136Y-109550552D02*
X152158898Y-109598171D01*
X151682707Y-109550552D02*
X151682707Y-110217219D01*
X151682707Y-109645790D02*
X151635088Y-109598171D01*
X151635088Y-109598171D02*
X151539850Y-109550552D01*
X151539850Y-109550552D02*
X151396993Y-109550552D01*
X151396993Y-109550552D02*
X151301755Y-109598171D01*
X151301755Y-109598171D02*
X151254136Y-109693409D01*
X151254136Y-109693409D02*
X151254136Y-110217219D01*
X150396993Y-110169600D02*
X150492231Y-110217219D01*
X150492231Y-110217219D02*
X150682707Y-110217219D01*
X150682707Y-110217219D02*
X150777945Y-110169600D01*
X150777945Y-110169600D02*
X150825564Y-110074361D01*
X150825564Y-110074361D02*
X150825564Y-109693409D01*
X150825564Y-109693409D02*
X150777945Y-109598171D01*
X150777945Y-109598171D02*
X150682707Y-109550552D01*
X150682707Y-109550552D02*
X150492231Y-109550552D01*
X150492231Y-109550552D02*
X150396993Y-109598171D01*
X150396993Y-109598171D02*
X150349374Y-109693409D01*
X150349374Y-109693409D02*
X150349374Y-109788647D01*
X150349374Y-109788647D02*
X150825564Y-109883885D01*
X149492231Y-110217219D02*
X149492231Y-109217219D01*
X149492231Y-110169600D02*
X149587469Y-110217219D01*
X149587469Y-110217219D02*
X149777945Y-110217219D01*
X149777945Y-110217219D02*
X149873183Y-110169600D01*
X149873183Y-110169600D02*
X149920802Y-110121980D01*
X149920802Y-110121980D02*
X149968421Y-110026742D01*
X149968421Y-110026742D02*
X149968421Y-109741028D01*
X149968421Y-109741028D02*
X149920802Y-109645790D01*
X149920802Y-109645790D02*
X149873183Y-109598171D01*
X149873183Y-109598171D02*
X149777945Y-109550552D01*
X149777945Y-109550552D02*
X149587469Y-109550552D01*
X149587469Y-109550552D02*
X149492231Y-109598171D01*
X148254135Y-110217219D02*
X148254135Y-109217219D01*
X148254135Y-109598171D02*
X148158897Y-109550552D01*
X148158897Y-109550552D02*
X147968421Y-109550552D01*
X147968421Y-109550552D02*
X147873183Y-109598171D01*
X147873183Y-109598171D02*
X147825564Y-109645790D01*
X147825564Y-109645790D02*
X147777945Y-109741028D01*
X147777945Y-109741028D02*
X147777945Y-110026742D01*
X147777945Y-110026742D02*
X147825564Y-110121980D01*
X147825564Y-110121980D02*
X147873183Y-110169600D01*
X147873183Y-110169600D02*
X147968421Y-110217219D01*
X147968421Y-110217219D02*
X148158897Y-110217219D01*
X148158897Y-110217219D02*
X148254135Y-110169600D01*
X147444611Y-109550552D02*
X147206516Y-110217219D01*
X146968421Y-109550552D02*
X147206516Y-110217219D01*
X147206516Y-110217219D02*
X147301754Y-110455314D01*
X147301754Y-110455314D02*
X147349373Y-110502933D01*
X147349373Y-110502933D02*
X147444611Y-110550552D01*
X145825563Y-109693409D02*
X145492230Y-109693409D01*
X145349373Y-110217219D02*
X145825563Y-110217219D01*
X145825563Y-110217219D02*
X145825563Y-109217219D01*
X145825563Y-109217219D02*
X145349373Y-109217219D01*
X145063658Y-109217219D02*
X144730325Y-110217219D01*
X144730325Y-110217219D02*
X144396992Y-109217219D01*
X144206515Y-109217219D02*
X143873182Y-110217219D01*
X143873182Y-110217219D02*
X143539849Y-109217219D01*
D12*
X151211904Y-111842319D02*
X151211904Y-112651842D01*
X151211904Y-112651842D02*
X151164285Y-112747080D01*
X151164285Y-112747080D02*
X151116666Y-112794700D01*
X151116666Y-112794700D02*
X151021428Y-112842319D01*
X151021428Y-112842319D02*
X150830952Y-112842319D01*
X150830952Y-112842319D02*
X150735714Y-112794700D01*
X150735714Y-112794700D02*
X150688095Y-112747080D01*
X150688095Y-112747080D02*
X150640476Y-112651842D01*
X150640476Y-112651842D02*
X150640476Y-111842319D01*
X150211904Y-111937557D02*
X150164285Y-111889938D01*
X150164285Y-111889938D02*
X150069047Y-111842319D01*
X150069047Y-111842319D02*
X149830952Y-111842319D01*
X149830952Y-111842319D02*
X149735714Y-111889938D01*
X149735714Y-111889938D02*
X149688095Y-111937557D01*
X149688095Y-111937557D02*
X149640476Y-112032795D01*
X149640476Y-112032795D02*
X149640476Y-112128033D01*
X149640476Y-112128033D02*
X149688095Y-112270890D01*
X149688095Y-112270890D02*
X150259523Y-112842319D01*
X150259523Y-112842319D02*
X149640476Y-112842319D01*
X147916666Y-101449580D02*
X147964285Y-101497200D01*
X147964285Y-101497200D02*
X148107142Y-101544819D01*
X148107142Y-101544819D02*
X148202380Y-101544819D01*
X148202380Y-101544819D02*
X148345237Y-101497200D01*
X148345237Y-101497200D02*
X148440475Y-101401961D01*
X148440475Y-101401961D02*
X148488094Y-101306723D01*
X148488094Y-101306723D02*
X148535713Y-101116247D01*
X148535713Y-101116247D02*
X148535713Y-100973390D01*
X148535713Y-100973390D02*
X148488094Y-100782914D01*
X148488094Y-100782914D02*
X148440475Y-100687676D01*
X148440475Y-100687676D02*
X148345237Y-100592438D01*
X148345237Y-100592438D02*
X148202380Y-100544819D01*
X148202380Y-100544819D02*
X148107142Y-100544819D01*
X148107142Y-100544819D02*
X147964285Y-100592438D01*
X147964285Y-100592438D02*
X147916666Y-100640057D01*
X147535713Y-100640057D02*
X147488094Y-100592438D01*
X147488094Y-100592438D02*
X147392856Y-100544819D01*
X147392856Y-100544819D02*
X147154761Y-100544819D01*
X147154761Y-100544819D02*
X147059523Y-100592438D01*
X147059523Y-100592438D02*
X147011904Y-100640057D01*
X147011904Y-100640057D02*
X146964285Y-100735295D01*
X146964285Y-100735295D02*
X146964285Y-100830533D01*
X146964285Y-100830533D02*
X147011904Y-100973390D01*
X147011904Y-100973390D02*
X147583332Y-101544819D01*
X147583332Y-101544819D02*
X146964285Y-101544819D01*
X148824819Y-123157142D02*
X148348628Y-122823809D01*
X148824819Y-122585714D02*
X147824819Y-122585714D01*
X147824819Y-122585714D02*
X147824819Y-122966666D01*
X147824819Y-122966666D02*
X147872438Y-123061904D01*
X147872438Y-123061904D02*
X147920057Y-123109523D01*
X147920057Y-123109523D02*
X148015295Y-123157142D01*
X148015295Y-123157142D02*
X148158152Y-123157142D01*
X148158152Y-123157142D02*
X148253390Y-123109523D01*
X148253390Y-123109523D02*
X148301009Y-123061904D01*
X148301009Y-123061904D02*
X148348628Y-122966666D01*
X148348628Y-122966666D02*
X148348628Y-122585714D01*
X148824819Y-124109523D02*
X148824819Y-123538095D01*
X148824819Y-123823809D02*
X147824819Y-123823809D01*
X147824819Y-123823809D02*
X147967676Y-123728571D01*
X147967676Y-123728571D02*
X148062914Y-123633333D01*
X148062914Y-123633333D02*
X148110533Y-123538095D01*
X147824819Y-124442857D02*
X147824819Y-125061904D01*
X147824819Y-125061904D02*
X148205771Y-124728571D01*
X148205771Y-124728571D02*
X148205771Y-124871428D01*
X148205771Y-124871428D02*
X148253390Y-124966666D01*
X148253390Y-124966666D02*
X148301009Y-125014285D01*
X148301009Y-125014285D02*
X148396247Y-125061904D01*
X148396247Y-125061904D02*
X148634342Y-125061904D01*
X148634342Y-125061904D02*
X148729580Y-125014285D01*
X148729580Y-125014285D02*
X148777200Y-124966666D01*
X148777200Y-124966666D02*
X148824819Y-124871428D01*
X148824819Y-124871428D02*
X148824819Y-124585714D01*
X148824819Y-124585714D02*
X148777200Y-124490476D01*
X148777200Y-124490476D02*
X148729580Y-124442857D01*
X151692857Y-123209580D02*
X151740476Y-123257200D01*
X151740476Y-123257200D02*
X151883333Y-123304819D01*
X151883333Y-123304819D02*
X151978571Y-123304819D01*
X151978571Y-123304819D02*
X152121428Y-123257200D01*
X152121428Y-123257200D02*
X152216666Y-123161961D01*
X152216666Y-123161961D02*
X152264285Y-123066723D01*
X152264285Y-123066723D02*
X152311904Y-122876247D01*
X152311904Y-122876247D02*
X152311904Y-122733390D01*
X152311904Y-122733390D02*
X152264285Y-122542914D01*
X152264285Y-122542914D02*
X152216666Y-122447676D01*
X152216666Y-122447676D02*
X152121428Y-122352438D01*
X152121428Y-122352438D02*
X151978571Y-122304819D01*
X151978571Y-122304819D02*
X151883333Y-122304819D01*
X151883333Y-122304819D02*
X151740476Y-122352438D01*
X151740476Y-122352438D02*
X151692857Y-122400057D01*
X150740476Y-123304819D02*
X151311904Y-123304819D01*
X151026190Y-123304819D02*
X151026190Y-122304819D01*
X151026190Y-122304819D02*
X151121428Y-122447676D01*
X151121428Y-122447676D02*
X151216666Y-122542914D01*
X151216666Y-122542914D02*
X151311904Y-122590533D01*
X149835714Y-122304819D02*
X150311904Y-122304819D01*
X150311904Y-122304819D02*
X150359523Y-122781009D01*
X150359523Y-122781009D02*
X150311904Y-122733390D01*
X150311904Y-122733390D02*
X150216666Y-122685771D01*
X150216666Y-122685771D02*
X149978571Y-122685771D01*
X149978571Y-122685771D02*
X149883333Y-122733390D01*
X149883333Y-122733390D02*
X149835714Y-122781009D01*
X149835714Y-122781009D02*
X149788095Y-122876247D01*
X149788095Y-122876247D02*
X149788095Y-123114342D01*
X149788095Y-123114342D02*
X149835714Y-123209580D01*
X149835714Y-123209580D02*
X149883333Y-123257200D01*
X149883333Y-123257200D02*
X149978571Y-123304819D01*
X149978571Y-123304819D02*
X150216666Y-123304819D01*
X150216666Y-123304819D02*
X150311904Y-123257200D01*
X150311904Y-123257200D02*
X150359523Y-123209580D01*
X156474819Y-123157142D02*
X155998628Y-122823809D01*
X156474819Y-122585714D02*
X155474819Y-122585714D01*
X155474819Y-122585714D02*
X155474819Y-122966666D01*
X155474819Y-122966666D02*
X155522438Y-123061904D01*
X155522438Y-123061904D02*
X155570057Y-123109523D01*
X155570057Y-123109523D02*
X155665295Y-123157142D01*
X155665295Y-123157142D02*
X155808152Y-123157142D01*
X155808152Y-123157142D02*
X155903390Y-123109523D01*
X155903390Y-123109523D02*
X155951009Y-123061904D01*
X155951009Y-123061904D02*
X155998628Y-122966666D01*
X155998628Y-122966666D02*
X155998628Y-122585714D01*
X156474819Y-124109523D02*
X156474819Y-123538095D01*
X156474819Y-123823809D02*
X155474819Y-123823809D01*
X155474819Y-123823809D02*
X155617676Y-123728571D01*
X155617676Y-123728571D02*
X155712914Y-123633333D01*
X155712914Y-123633333D02*
X155760533Y-123538095D01*
X155570057Y-124490476D02*
X155522438Y-124538095D01*
X155522438Y-124538095D02*
X155474819Y-124633333D01*
X155474819Y-124633333D02*
X155474819Y-124871428D01*
X155474819Y-124871428D02*
X155522438Y-124966666D01*
X155522438Y-124966666D02*
X155570057Y-125014285D01*
X155570057Y-125014285D02*
X155665295Y-125061904D01*
X155665295Y-125061904D02*
X155760533Y-125061904D01*
X155760533Y-125061904D02*
X155903390Y-125014285D01*
X155903390Y-125014285D02*
X156474819Y-124442857D01*
X156474819Y-124442857D02*
X156474819Y-125061904D01*
X150066666Y-101449580D02*
X150114285Y-101497200D01*
X150114285Y-101497200D02*
X150257142Y-101544819D01*
X150257142Y-101544819D02*
X150352380Y-101544819D01*
X150352380Y-101544819D02*
X150495237Y-101497200D01*
X150495237Y-101497200D02*
X150590475Y-101401961D01*
X150590475Y-101401961D02*
X150638094Y-101306723D01*
X150638094Y-101306723D02*
X150685713Y-101116247D01*
X150685713Y-101116247D02*
X150685713Y-100973390D01*
X150685713Y-100973390D02*
X150638094Y-100782914D01*
X150638094Y-100782914D02*
X150590475Y-100687676D01*
X150590475Y-100687676D02*
X150495237Y-100592438D01*
X150495237Y-100592438D02*
X150352380Y-100544819D01*
X150352380Y-100544819D02*
X150257142Y-100544819D01*
X150257142Y-100544819D02*
X150114285Y-100592438D01*
X150114285Y-100592438D02*
X150066666Y-100640057D01*
X149495237Y-100973390D02*
X149590475Y-100925771D01*
X149590475Y-100925771D02*
X149638094Y-100878152D01*
X149638094Y-100878152D02*
X149685713Y-100782914D01*
X149685713Y-100782914D02*
X149685713Y-100735295D01*
X149685713Y-100735295D02*
X149638094Y-100640057D01*
X149638094Y-100640057D02*
X149590475Y-100592438D01*
X149590475Y-100592438D02*
X149495237Y-100544819D01*
X149495237Y-100544819D02*
X149304761Y-100544819D01*
X149304761Y-100544819D02*
X149209523Y-100592438D01*
X149209523Y-100592438D02*
X149161904Y-100640057D01*
X149161904Y-100640057D02*
X149114285Y-100735295D01*
X149114285Y-100735295D02*
X149114285Y-100782914D01*
X149114285Y-100782914D02*
X149161904Y-100878152D01*
X149161904Y-100878152D02*
X149209523Y-100925771D01*
X149209523Y-100925771D02*
X149304761Y-100973390D01*
X149304761Y-100973390D02*
X149495237Y-100973390D01*
X149495237Y-100973390D02*
X149590475Y-101021009D01*
X149590475Y-101021009D02*
X149638094Y-101068628D01*
X149638094Y-101068628D02*
X149685713Y-101163866D01*
X149685713Y-101163866D02*
X149685713Y-101354342D01*
X149685713Y-101354342D02*
X149638094Y-101449580D01*
X149638094Y-101449580D02*
X149590475Y-101497200D01*
X149590475Y-101497200D02*
X149495237Y-101544819D01*
X149495237Y-101544819D02*
X149304761Y-101544819D01*
X149304761Y-101544819D02*
X149209523Y-101497200D01*
X149209523Y-101497200D02*
X149161904Y-101449580D01*
X149161904Y-101449580D02*
X149114285Y-101354342D01*
X149114285Y-101354342D02*
X149114285Y-101163866D01*
X149114285Y-101163866D02*
X149161904Y-101068628D01*
X149161904Y-101068628D02*
X149209523Y-101021009D01*
X149209523Y-101021009D02*
X149304761Y-100973390D01*
X150283333Y-133304819D02*
X150283333Y-134019104D01*
X150283333Y-134019104D02*
X150330952Y-134161961D01*
X150330952Y-134161961D02*
X150426190Y-134257200D01*
X150426190Y-134257200D02*
X150569047Y-134304819D01*
X150569047Y-134304819D02*
X150664285Y-134304819D01*
X149854761Y-133400057D02*
X149807142Y-133352438D01*
X149807142Y-133352438D02*
X149711904Y-133304819D01*
X149711904Y-133304819D02*
X149473809Y-133304819D01*
X149473809Y-133304819D02*
X149378571Y-133352438D01*
X149378571Y-133352438D02*
X149330952Y-133400057D01*
X149330952Y-133400057D02*
X149283333Y-133495295D01*
X149283333Y-133495295D02*
X149283333Y-133590533D01*
X149283333Y-133590533D02*
X149330952Y-133733390D01*
X149330952Y-133733390D02*
X149902380Y-134304819D01*
X149902380Y-134304819D02*
X149283333Y-134304819D01*
X160383333Y-119924819D02*
X160383333Y-120639104D01*
X160383333Y-120639104D02*
X160430952Y-120781961D01*
X160430952Y-120781961D02*
X160526190Y-120877200D01*
X160526190Y-120877200D02*
X160669047Y-120924819D01*
X160669047Y-120924819D02*
X160764285Y-120924819D01*
X159430952Y-119924819D02*
X159907142Y-119924819D01*
X159907142Y-119924819D02*
X159954761Y-120401009D01*
X159954761Y-120401009D02*
X159907142Y-120353390D01*
X159907142Y-120353390D02*
X159811904Y-120305771D01*
X159811904Y-120305771D02*
X159573809Y-120305771D01*
X159573809Y-120305771D02*
X159478571Y-120353390D01*
X159478571Y-120353390D02*
X159430952Y-120401009D01*
X159430952Y-120401009D02*
X159383333Y-120496247D01*
X159383333Y-120496247D02*
X159383333Y-120734342D01*
X159383333Y-120734342D02*
X159430952Y-120829580D01*
X159430952Y-120829580D02*
X159478571Y-120877200D01*
X159478571Y-120877200D02*
X159573809Y-120924819D01*
X159573809Y-120924819D02*
X159811904Y-120924819D01*
X159811904Y-120924819D02*
X159907142Y-120877200D01*
X159907142Y-120877200D02*
X159954761Y-120829580D01*
X142283333Y-100804819D02*
X142283333Y-101519104D01*
X142283333Y-101519104D02*
X142330952Y-101661961D01*
X142330952Y-101661961D02*
X142426190Y-101757200D01*
X142426190Y-101757200D02*
X142569047Y-101804819D01*
X142569047Y-101804819D02*
X142664285Y-101804819D01*
X141902380Y-100804819D02*
X141235714Y-100804819D01*
X141235714Y-100804819D02*
X141664285Y-101804819D01*
X152466666Y-101509580D02*
X152514285Y-101557200D01*
X152514285Y-101557200D02*
X152657142Y-101604819D01*
X152657142Y-101604819D02*
X152752380Y-101604819D01*
X152752380Y-101604819D02*
X152895237Y-101557200D01*
X152895237Y-101557200D02*
X152990475Y-101461961D01*
X152990475Y-101461961D02*
X153038094Y-101366723D01*
X153038094Y-101366723D02*
X153085713Y-101176247D01*
X153085713Y-101176247D02*
X153085713Y-101033390D01*
X153085713Y-101033390D02*
X153038094Y-100842914D01*
X153038094Y-100842914D02*
X152990475Y-100747676D01*
X152990475Y-100747676D02*
X152895237Y-100652438D01*
X152895237Y-100652438D02*
X152752380Y-100604819D01*
X152752380Y-100604819D02*
X152657142Y-100604819D01*
X152657142Y-100604819D02*
X152514285Y-100652438D01*
X152514285Y-100652438D02*
X152466666Y-100700057D01*
X151514285Y-101604819D02*
X152085713Y-101604819D01*
X151799999Y-101604819D02*
X151799999Y-100604819D01*
X151799999Y-100604819D02*
X151895237Y-100747676D01*
X151895237Y-100747676D02*
X151990475Y-100842914D01*
X151990475Y-100842914D02*
X152085713Y-100890533D01*
X151188094Y-116242319D02*
X151188094Y-115242319D01*
X151188094Y-115242319D02*
X150949999Y-115242319D01*
X150949999Y-115242319D02*
X150807142Y-115289938D01*
X150807142Y-115289938D02*
X150711904Y-115385176D01*
X150711904Y-115385176D02*
X150664285Y-115480414D01*
X150664285Y-115480414D02*
X150616666Y-115670890D01*
X150616666Y-115670890D02*
X150616666Y-115813747D01*
X150616666Y-115813747D02*
X150664285Y-116004223D01*
X150664285Y-116004223D02*
X150711904Y-116099461D01*
X150711904Y-116099461D02*
X150807142Y-116194700D01*
X150807142Y-116194700D02*
X150949999Y-116242319D01*
X150949999Y-116242319D02*
X151188094Y-116242319D01*
X149664285Y-116242319D02*
X150235713Y-116242319D01*
X149949999Y-116242319D02*
X149949999Y-115242319D01*
X149949999Y-115242319D02*
X150045237Y-115385176D01*
X150045237Y-115385176D02*
X150140475Y-115480414D01*
X150140475Y-115480414D02*
X150235713Y-115528033D01*
X140083333Y-119924819D02*
X140083333Y-120639104D01*
X140083333Y-120639104D02*
X140130952Y-120781961D01*
X140130952Y-120781961D02*
X140226190Y-120877200D01*
X140226190Y-120877200D02*
X140369047Y-120924819D01*
X140369047Y-120924819D02*
X140464285Y-120924819D01*
X139178571Y-120258152D02*
X139178571Y-120924819D01*
X139416666Y-119877200D02*
X139654761Y-120591485D01*
X139654761Y-120591485D02*
X139035714Y-120591485D01*
X145966666Y-123334819D02*
X146299999Y-122858628D01*
X146538094Y-123334819D02*
X146538094Y-122334819D01*
X146538094Y-122334819D02*
X146157142Y-122334819D01*
X146157142Y-122334819D02*
X146061904Y-122382438D01*
X146061904Y-122382438D02*
X146014285Y-122430057D01*
X146014285Y-122430057D02*
X145966666Y-122525295D01*
X145966666Y-122525295D02*
X145966666Y-122668152D01*
X145966666Y-122668152D02*
X146014285Y-122763390D01*
X146014285Y-122763390D02*
X146061904Y-122811009D01*
X146061904Y-122811009D02*
X146157142Y-122858628D01*
X146157142Y-122858628D02*
X146538094Y-122858628D01*
X145014285Y-123334819D02*
X145585713Y-123334819D01*
X145299999Y-123334819D02*
X145299999Y-122334819D01*
X145299999Y-122334819D02*
X145395237Y-122477676D01*
X145395237Y-122477676D02*
X145490475Y-122572914D01*
X145490475Y-122572914D02*
X145585713Y-122620533D01*
X158083333Y-100804819D02*
X158083333Y-101519104D01*
X158083333Y-101519104D02*
X158130952Y-101661961D01*
X158130952Y-101661961D02*
X158226190Y-101757200D01*
X158226190Y-101757200D02*
X158369047Y-101804819D01*
X158369047Y-101804819D02*
X158464285Y-101804819D01*
X157178571Y-100804819D02*
X157369047Y-100804819D01*
X157369047Y-100804819D02*
X157464285Y-100852438D01*
X157464285Y-100852438D02*
X157511904Y-100900057D01*
X157511904Y-100900057D02*
X157607142Y-101042914D01*
X157607142Y-101042914D02*
X157654761Y-101233390D01*
X157654761Y-101233390D02*
X157654761Y-101614342D01*
X157654761Y-101614342D02*
X157607142Y-101709580D01*
X157607142Y-101709580D02*
X157559523Y-101757200D01*
X157559523Y-101757200D02*
X157464285Y-101804819D01*
X157464285Y-101804819D02*
X157273809Y-101804819D01*
X157273809Y-101804819D02*
X157178571Y-101757200D01*
X157178571Y-101757200D02*
X157130952Y-101709580D01*
X157130952Y-101709580D02*
X157083333Y-101614342D01*
X157083333Y-101614342D02*
X157083333Y-101376247D01*
X157083333Y-101376247D02*
X157130952Y-101281009D01*
X157130952Y-101281009D02*
X157178571Y-101233390D01*
X157178571Y-101233390D02*
X157273809Y-101185771D01*
X157273809Y-101185771D02*
X157464285Y-101185771D01*
X157464285Y-101185771D02*
X157559523Y-101233390D01*
X157559523Y-101233390D02*
X157607142Y-101281009D01*
X157607142Y-101281009D02*
X157654761Y-101376247D01*
X150426190Y-104828628D02*
X150426190Y-105304819D01*
X150759523Y-104304819D02*
X150426190Y-104828628D01*
X150426190Y-104828628D02*
X150092857Y-104304819D01*
X149235714Y-105304819D02*
X149807142Y-105304819D01*
X149521428Y-105304819D02*
X149521428Y-104304819D01*
X149521428Y-104304819D02*
X149616666Y-104447676D01*
X149616666Y-104447676D02*
X149711904Y-104542914D01*
X149711904Y-104542914D02*
X149807142Y-104590533D01*
%TO.C,U2*%
D13*
X149540000Y-113227500D02*
X149540000Y-113277500D01*
X149540000Y-114397500D02*
X149540000Y-115177500D01*
X149540000Y-116297500D02*
X149540000Y-116347500D01*
X149540000Y-116347500D02*
X151360000Y-116347500D01*
X151360000Y-113227500D02*
X149540000Y-113227500D01*
X151360000Y-113277500D02*
X151360000Y-113227500D01*
X151360000Y-116347500D02*
X151360000Y-116297500D01*
X151900000Y-113277500D02*
X152140000Y-112947500D01*
X151660000Y-112947500D01*
X151900000Y-113277500D01*
G36*
X151900000Y-113277500D02*
G01*
X151660000Y-112947500D01*
X152140000Y-112947500D01*
X151900000Y-113277500D01*
G37*
%TO.C,C2*%
X147857836Y-101890000D02*
X147642164Y-101890000D01*
X147857836Y-102610000D02*
X147642164Y-102610000D01*
%TO.C,R13*%
X146820000Y-123953641D02*
X146820000Y-123646359D01*
X147580000Y-123953641D02*
X147580000Y-123646359D01*
%TO.C,C15*%
X150842164Y-123640000D02*
X151057836Y-123640000D01*
X150842164Y-124360000D02*
X151057836Y-124360000D01*
%TO.C,R12*%
X154470000Y-123953641D02*
X154470000Y-123646359D01*
X155230000Y-123953641D02*
X155230000Y-123646359D01*
%TO.C,C8*%
X150007836Y-101890000D02*
X149792164Y-101890000D01*
X150007836Y-102610000D02*
X149792164Y-102610000D01*
%TO.C,J2*%
X142935000Y-125700000D02*
X142935000Y-139710000D01*
X144415000Y-141770000D02*
X144155000Y-141770000D01*
X144615000Y-141970000D02*
X144415000Y-141770000D01*
X144615000Y-141970000D02*
X146925000Y-141970000D01*
X144855000Y-125700000D02*
X142935000Y-125700000D01*
X146925000Y-141970000D02*
X147435000Y-141620000D01*
X153805000Y-141620000D02*
X147435000Y-141620000D01*
X153805000Y-141620000D02*
X153805000Y-141770000D01*
X154015000Y-141970000D02*
X153805000Y-141770000D01*
X155875000Y-141970000D02*
X154015000Y-141970000D01*
X155875000Y-141970000D02*
X156075000Y-141770000D01*
X156455000Y-125700000D02*
X156905000Y-125700000D01*
X156905000Y-125700000D02*
X156905000Y-129310000D01*
X156905000Y-131010000D02*
X156905000Y-135710000D01*
X156905000Y-137010000D02*
X156905000Y-138810000D01*
%TO.C,J5*%
X158670000Y-124120000D02*
X158670000Y-142010000D01*
X161430000Y-121470000D02*
X160050000Y-121470000D01*
X161430000Y-122850000D02*
X161430000Y-121470000D01*
X161430000Y-124120000D02*
X158670000Y-124120000D01*
X161430000Y-124120000D02*
X161430000Y-142010000D01*
X161430000Y-142010000D02*
X158670000Y-142010000D01*
%TO.C,J7*%
X138370000Y-101260000D02*
X138370000Y-119150000D01*
X141130000Y-98610000D02*
X139750000Y-98610000D01*
X141130000Y-99990000D02*
X141130000Y-98610000D01*
X141130000Y-101260000D02*
X138370000Y-101260000D01*
X141130000Y-101260000D02*
X141130000Y-119150000D01*
X141130000Y-119150000D02*
X138370000Y-119150000D01*
%TO.C,C1*%
X152192164Y-101890000D02*
X152407836Y-101890000D01*
X152192164Y-102610000D02*
X152407836Y-102610000D01*
%TO.C,D1*%
X149540000Y-116627500D02*
X149540000Y-116677500D01*
X149540000Y-119697500D02*
X149540000Y-119747500D01*
X149540000Y-119747500D02*
X151360000Y-119747500D01*
X151360000Y-116627500D02*
X149540000Y-116627500D01*
X151360000Y-116677500D02*
X151360000Y-116627500D01*
X151360000Y-119747500D02*
X151360000Y-119697500D01*
X151900000Y-116677500D02*
X152140000Y-116347500D01*
X151660000Y-116347500D01*
X151900000Y-116677500D01*
G36*
X151900000Y-116677500D02*
G01*
X151660000Y-116347500D01*
X152140000Y-116347500D01*
X151900000Y-116677500D01*
G37*
%TO.C,J4*%
X138370000Y-124120000D02*
X138370000Y-142010000D01*
X141130000Y-121470000D02*
X139750000Y-121470000D01*
X141130000Y-122850000D02*
X141130000Y-121470000D01*
X141130000Y-124120000D02*
X138370000Y-124120000D01*
X141130000Y-124120000D02*
X141130000Y-142010000D01*
X141130000Y-142010000D02*
X138370000Y-142010000D01*
%TO.C,R1*%
X145953641Y-123670000D02*
X145646359Y-123670000D01*
X145953641Y-124430000D02*
X145646359Y-124430000D01*
%TO.C,J6*%
X158670000Y-101260000D02*
X158670000Y-119150000D01*
X161430000Y-98610000D02*
X160050000Y-98610000D01*
X161430000Y-99990000D02*
X161430000Y-98610000D01*
X161430000Y-101260000D02*
X158670000Y-101260000D01*
X161430000Y-101260000D02*
X161430000Y-119150000D01*
X161430000Y-119150000D02*
X158670000Y-119150000D01*
%TO.C,Y1*%
X147190000Y-102990000D02*
X153210000Y-102990000D01*
X153210000Y-102990000D02*
X153210000Y-106710000D01*
X153210000Y-106710000D02*
X147190000Y-106710000D01*
%TD*%
M02*
