%TF.GenerationSoftware,KiCad,Pcbnew,10.0.4*%
%TF.CreationDate,2026-09-18T16:54:36-04:00*%
%TF.ProjectId,devboard,64657662-6f61-4726-942e-6b696361645f,rev?*%
%TF.SameCoordinates,Original*%
%TF.FileFunction,AssemblyDrawing,Top*%
%FSLAX46Y46*%
G04 Gerber Fmt 4.6, Leading zero omitted, Abs format (unit mm)*
G04 Created by KiCad (PCBNEW 10.0.4) date 2026-09-18 16:54:36*
%MOMM*%
%LPD*%
G01*
G04 APERTURE LIST*
%ADD10C,0.150000*%
%ADD11C,0.040000*%
%ADD12C,0.060000*%
%ADD13C,0.100000*%
G04 APERTURE END LIST*
D10*
X154833333Y-112464819D02*
X154261905Y-112464819D01*
X154547619Y-112464819D02*
X154547619Y-111464819D01*
X154547619Y-111464819D02*
X154452381Y-111607676D01*
X154452381Y-111607676D02*
X154357143Y-111702914D01*
X154357143Y-111702914D02*
X154261905Y-111750533D01*
X155690476Y-111798152D02*
X155690476Y-112464819D01*
X155261905Y-111798152D02*
X155261905Y-112321961D01*
X155261905Y-112321961D02*
X155309524Y-112417200D01*
X155309524Y-112417200D02*
X155404762Y-112464819D01*
X155404762Y-112464819D02*
X155547619Y-112464819D01*
X155547619Y-112464819D02*
X155642857Y-112417200D01*
X155642857Y-112417200D02*
X155690476Y-112369580D01*
D11*
X154958333Y-110939765D02*
X154946429Y-110951670D01*
X154946429Y-110951670D02*
X154910714Y-110963574D01*
X154910714Y-110963574D02*
X154886905Y-110963574D01*
X154886905Y-110963574D02*
X154851191Y-110951670D01*
X154851191Y-110951670D02*
X154827381Y-110927860D01*
X154827381Y-110927860D02*
X154815476Y-110904050D01*
X154815476Y-110904050D02*
X154803572Y-110856431D01*
X154803572Y-110856431D02*
X154803572Y-110820717D01*
X154803572Y-110820717D02*
X154815476Y-110773098D01*
X154815476Y-110773098D02*
X154827381Y-110749289D01*
X154827381Y-110749289D02*
X154851191Y-110725479D01*
X154851191Y-110725479D02*
X154886905Y-110713574D01*
X154886905Y-110713574D02*
X154910714Y-110713574D01*
X154910714Y-110713574D02*
X154946429Y-110725479D01*
X154946429Y-110725479D02*
X154958333Y-110737384D01*
X155184524Y-110713574D02*
X155065476Y-110713574D01*
X155065476Y-110713574D02*
X155053572Y-110832622D01*
X155053572Y-110832622D02*
X155065476Y-110820717D01*
X155065476Y-110820717D02*
X155089286Y-110808812D01*
X155089286Y-110808812D02*
X155148810Y-110808812D01*
X155148810Y-110808812D02*
X155172619Y-110820717D01*
X155172619Y-110820717D02*
X155184524Y-110832622D01*
X155184524Y-110832622D02*
X155196429Y-110856431D01*
X155196429Y-110856431D02*
X155196429Y-110915955D01*
X155196429Y-110915955D02*
X155184524Y-110939765D01*
X155184524Y-110939765D02*
X155172619Y-110951670D01*
X155172619Y-110951670D02*
X155148810Y-110963574D01*
X155148810Y-110963574D02*
X155089286Y-110963574D01*
X155089286Y-110963574D02*
X155065476Y-110951670D01*
X155065476Y-110951670D02*
X155053572Y-110939765D01*
D10*
X148266666Y-136131009D02*
X148409523Y-136178628D01*
X148409523Y-136178628D02*
X148457142Y-136226247D01*
X148457142Y-136226247D02*
X148504761Y-136321485D01*
X148504761Y-136321485D02*
X148504761Y-136464342D01*
X148504761Y-136464342D02*
X148457142Y-136559580D01*
X148457142Y-136559580D02*
X148409523Y-136607200D01*
X148409523Y-136607200D02*
X148314285Y-136654819D01*
X148314285Y-136654819D02*
X147933333Y-136654819D01*
X147933333Y-136654819D02*
X147933333Y-135654819D01*
X147933333Y-135654819D02*
X148266666Y-135654819D01*
X148266666Y-135654819D02*
X148361904Y-135702438D01*
X148361904Y-135702438D02*
X148409523Y-135750057D01*
X148409523Y-135750057D02*
X148457142Y-135845295D01*
X148457142Y-135845295D02*
X148457142Y-135940533D01*
X148457142Y-135940533D02*
X148409523Y-136035771D01*
X148409523Y-136035771D02*
X148361904Y-136083390D01*
X148361904Y-136083390D02*
X148266666Y-136131009D01*
X148266666Y-136131009D02*
X147933333Y-136131009D01*
X149123809Y-135654819D02*
X149314285Y-135654819D01*
X149314285Y-135654819D02*
X149409523Y-135702438D01*
X149409523Y-135702438D02*
X149504761Y-135797676D01*
X149504761Y-135797676D02*
X149552380Y-135988152D01*
X149552380Y-135988152D02*
X149552380Y-136321485D01*
X149552380Y-136321485D02*
X149504761Y-136511961D01*
X149504761Y-136511961D02*
X149409523Y-136607200D01*
X149409523Y-136607200D02*
X149314285Y-136654819D01*
X149314285Y-136654819D02*
X149123809Y-136654819D01*
X149123809Y-136654819D02*
X149028571Y-136607200D01*
X149028571Y-136607200D02*
X148933333Y-136511961D01*
X148933333Y-136511961D02*
X148885714Y-136321485D01*
X148885714Y-136321485D02*
X148885714Y-135988152D01*
X148885714Y-135988152D02*
X148933333Y-135797676D01*
X148933333Y-135797676D02*
X149028571Y-135702438D01*
X149028571Y-135702438D02*
X149123809Y-135654819D01*
X150171428Y-135654819D02*
X150361904Y-135654819D01*
X150361904Y-135654819D02*
X150457142Y-135702438D01*
X150457142Y-135702438D02*
X150552380Y-135797676D01*
X150552380Y-135797676D02*
X150599999Y-135988152D01*
X150599999Y-135988152D02*
X150599999Y-136321485D01*
X150599999Y-136321485D02*
X150552380Y-136511961D01*
X150552380Y-136511961D02*
X150457142Y-136607200D01*
X150457142Y-136607200D02*
X150361904Y-136654819D01*
X150361904Y-136654819D02*
X150171428Y-136654819D01*
X150171428Y-136654819D02*
X150076190Y-136607200D01*
X150076190Y-136607200D02*
X149980952Y-136511961D01*
X149980952Y-136511961D02*
X149933333Y-136321485D01*
X149933333Y-136321485D02*
X149933333Y-135988152D01*
X149933333Y-135988152D02*
X149980952Y-135797676D01*
X149980952Y-135797676D02*
X150076190Y-135702438D01*
X150076190Y-135702438D02*
X150171428Y-135654819D01*
X150885714Y-135654819D02*
X151457142Y-135654819D01*
X151171428Y-136654819D02*
X151171428Y-135654819D01*
X151980952Y-135654819D02*
X152076190Y-135654819D01*
X152076190Y-135654819D02*
X152171428Y-135702438D01*
X152171428Y-135702438D02*
X152219047Y-135750057D01*
X152219047Y-135750057D02*
X152266666Y-135845295D01*
X152266666Y-135845295D02*
X152314285Y-136035771D01*
X152314285Y-136035771D02*
X152314285Y-136273866D01*
X152314285Y-136273866D02*
X152266666Y-136464342D01*
X152266666Y-136464342D02*
X152219047Y-136559580D01*
X152219047Y-136559580D02*
X152171428Y-136607200D01*
X152171428Y-136607200D02*
X152076190Y-136654819D01*
X152076190Y-136654819D02*
X151980952Y-136654819D01*
X151980952Y-136654819D02*
X151885714Y-136607200D01*
X151885714Y-136607200D02*
X151838095Y-136559580D01*
X151838095Y-136559580D02*
X151790476Y-136464342D01*
X151790476Y-136464342D02*
X151742857Y-136273866D01*
X151742857Y-136273866D02*
X151742857Y-136035771D01*
X151742857Y-136035771D02*
X151790476Y-135845295D01*
X151790476Y-135845295D02*
X151838095Y-135750057D01*
X151838095Y-135750057D02*
X151885714Y-135702438D01*
X151885714Y-135702438D02*
X151980952Y-135654819D01*
X148766667Y-132457200D02*
X148909524Y-132504819D01*
X148909524Y-132504819D02*
X149147619Y-132504819D01*
X149147619Y-132504819D02*
X149242857Y-132457200D01*
X149242857Y-132457200D02*
X149290476Y-132409580D01*
X149290476Y-132409580D02*
X149338095Y-132314342D01*
X149338095Y-132314342D02*
X149338095Y-132219104D01*
X149338095Y-132219104D02*
X149290476Y-132123866D01*
X149290476Y-132123866D02*
X149242857Y-132076247D01*
X149242857Y-132076247D02*
X149147619Y-132028628D01*
X149147619Y-132028628D02*
X148957143Y-131981009D01*
X148957143Y-131981009D02*
X148861905Y-131933390D01*
X148861905Y-131933390D02*
X148814286Y-131885771D01*
X148814286Y-131885771D02*
X148766667Y-131790533D01*
X148766667Y-131790533D02*
X148766667Y-131695295D01*
X148766667Y-131695295D02*
X148814286Y-131600057D01*
X148814286Y-131600057D02*
X148861905Y-131552438D01*
X148861905Y-131552438D02*
X148957143Y-131504819D01*
X148957143Y-131504819D02*
X149195238Y-131504819D01*
X149195238Y-131504819D02*
X149338095Y-131552438D01*
X149671429Y-131504819D02*
X149909524Y-132504819D01*
X149909524Y-132504819D02*
X150100000Y-131790533D01*
X150100000Y-131790533D02*
X150290476Y-132504819D01*
X150290476Y-132504819D02*
X150528572Y-131504819D01*
X150861905Y-131600057D02*
X150909524Y-131552438D01*
X150909524Y-131552438D02*
X151004762Y-131504819D01*
X151004762Y-131504819D02*
X151242857Y-131504819D01*
X151242857Y-131504819D02*
X151338095Y-131552438D01*
X151338095Y-131552438D02*
X151385714Y-131600057D01*
X151385714Y-131600057D02*
X151433333Y-131695295D01*
X151433333Y-131695295D02*
X151433333Y-131790533D01*
X151433333Y-131790533D02*
X151385714Y-131933390D01*
X151385714Y-131933390D02*
X150814286Y-132504819D01*
X150814286Y-132504819D02*
X151433333Y-132504819D01*
X154944819Y-138949047D02*
X154944819Y-139520475D01*
X154944819Y-139234761D02*
X153944819Y-139234761D01*
X153944819Y-139234761D02*
X154087676Y-139329999D01*
X154087676Y-139329999D02*
X154182914Y-139425237D01*
X154182914Y-139425237D02*
X154230533Y-139520475D01*
X153944819Y-138329999D02*
X153944819Y-138234761D01*
X153944819Y-138234761D02*
X153992438Y-138139523D01*
X153992438Y-138139523D02*
X154040057Y-138091904D01*
X154040057Y-138091904D02*
X154135295Y-138044285D01*
X154135295Y-138044285D02*
X154325771Y-137996666D01*
X154325771Y-137996666D02*
X154563866Y-137996666D01*
X154563866Y-137996666D02*
X154754342Y-138044285D01*
X154754342Y-138044285D02*
X154849580Y-138091904D01*
X154849580Y-138091904D02*
X154897200Y-138139523D01*
X154897200Y-138139523D02*
X154944819Y-138234761D01*
X154944819Y-138234761D02*
X154944819Y-138329999D01*
X154944819Y-138329999D02*
X154897200Y-138425237D01*
X154897200Y-138425237D02*
X154849580Y-138472856D01*
X154849580Y-138472856D02*
X154754342Y-138520475D01*
X154754342Y-138520475D02*
X154563866Y-138568094D01*
X154563866Y-138568094D02*
X154325771Y-138568094D01*
X154325771Y-138568094D02*
X154135295Y-138520475D01*
X154135295Y-138520475D02*
X154040057Y-138472856D01*
X154040057Y-138472856D02*
X153992438Y-138425237D01*
X153992438Y-138425237D02*
X153944819Y-138329999D01*
X153944819Y-137377618D02*
X153944819Y-137282380D01*
X153944819Y-137282380D02*
X153992438Y-137187142D01*
X153992438Y-137187142D02*
X154040057Y-137139523D01*
X154040057Y-137139523D02*
X154135295Y-137091904D01*
X154135295Y-137091904D02*
X154325771Y-137044285D01*
X154325771Y-137044285D02*
X154563866Y-137044285D01*
X154563866Y-137044285D02*
X154754342Y-137091904D01*
X154754342Y-137091904D02*
X154849580Y-137139523D01*
X154849580Y-137139523D02*
X154897200Y-137187142D01*
X154897200Y-137187142D02*
X154944819Y-137282380D01*
X154944819Y-137282380D02*
X154944819Y-137377618D01*
X154944819Y-137377618D02*
X154897200Y-137472856D01*
X154897200Y-137472856D02*
X154849580Y-137520475D01*
X154849580Y-137520475D02*
X154754342Y-137568094D01*
X154754342Y-137568094D02*
X154563866Y-137615713D01*
X154563866Y-137615713D02*
X154325771Y-137615713D01*
X154325771Y-137615713D02*
X154135295Y-137568094D01*
X154135295Y-137568094D02*
X154040057Y-137520475D01*
X154040057Y-137520475D02*
X153992438Y-137472856D01*
X153992438Y-137472856D02*
X153944819Y-137377618D01*
X154278152Y-136615713D02*
X154944819Y-136615713D01*
X154373390Y-136615713D02*
X154325771Y-136568094D01*
X154325771Y-136568094D02*
X154278152Y-136472856D01*
X154278152Y-136472856D02*
X154278152Y-136329999D01*
X154278152Y-136329999D02*
X154325771Y-136234761D01*
X154325771Y-136234761D02*
X154421009Y-136187142D01*
X154421009Y-136187142D02*
X154944819Y-136187142D01*
D11*
X155739765Y-137871666D02*
X155751670Y-137883570D01*
X155751670Y-137883570D02*
X155763574Y-137919285D01*
X155763574Y-137919285D02*
X155763574Y-137943094D01*
X155763574Y-137943094D02*
X155751670Y-137978808D01*
X155751670Y-137978808D02*
X155727860Y-138002618D01*
X155727860Y-138002618D02*
X155704050Y-138014523D01*
X155704050Y-138014523D02*
X155656431Y-138026427D01*
X155656431Y-138026427D02*
X155620717Y-138026427D01*
X155620717Y-138026427D02*
X155573098Y-138014523D01*
X155573098Y-138014523D02*
X155549289Y-138002618D01*
X155549289Y-138002618D02*
X155525479Y-137978808D01*
X155525479Y-137978808D02*
X155513574Y-137943094D01*
X155513574Y-137943094D02*
X155513574Y-137919285D01*
X155513574Y-137919285D02*
X155525479Y-137883570D01*
X155525479Y-137883570D02*
X155537384Y-137871666D01*
X155763574Y-137752618D02*
X155763574Y-137704999D01*
X155763574Y-137704999D02*
X155751670Y-137681189D01*
X155751670Y-137681189D02*
X155739765Y-137669285D01*
X155739765Y-137669285D02*
X155704050Y-137645475D01*
X155704050Y-137645475D02*
X155656431Y-137633570D01*
X155656431Y-137633570D02*
X155561193Y-137633570D01*
X155561193Y-137633570D02*
X155537384Y-137645475D01*
X155537384Y-137645475D02*
X155525479Y-137657380D01*
X155525479Y-137657380D02*
X155513574Y-137681189D01*
X155513574Y-137681189D02*
X155513574Y-137728808D01*
X155513574Y-137728808D02*
X155525479Y-137752618D01*
X155525479Y-137752618D02*
X155537384Y-137764523D01*
X155537384Y-137764523D02*
X155561193Y-137776427D01*
X155561193Y-137776427D02*
X155620717Y-137776427D01*
X155620717Y-137776427D02*
X155644527Y-137764523D01*
X155644527Y-137764523D02*
X155656431Y-137752618D01*
X155656431Y-137752618D02*
X155668336Y-137728808D01*
X155668336Y-137728808D02*
X155668336Y-137681189D01*
X155668336Y-137681189D02*
X155656431Y-137657380D01*
X155656431Y-137657380D02*
X155644527Y-137645475D01*
X155644527Y-137645475D02*
X155620717Y-137633570D01*
D10*
X148385714Y-142454819D02*
X148385714Y-143264342D01*
X148385714Y-143264342D02*
X148433333Y-143359580D01*
X148433333Y-143359580D02*
X148480952Y-143407200D01*
X148480952Y-143407200D02*
X148576190Y-143454819D01*
X148576190Y-143454819D02*
X148766666Y-143454819D01*
X148766666Y-143454819D02*
X148861904Y-143407200D01*
X148861904Y-143407200D02*
X148909523Y-143359580D01*
X148909523Y-143359580D02*
X148957142Y-143264342D01*
X148957142Y-143264342D02*
X148957142Y-142454819D01*
X149385714Y-143407200D02*
X149528571Y-143454819D01*
X149528571Y-143454819D02*
X149766666Y-143454819D01*
X149766666Y-143454819D02*
X149861904Y-143407200D01*
X149861904Y-143407200D02*
X149909523Y-143359580D01*
X149909523Y-143359580D02*
X149957142Y-143264342D01*
X149957142Y-143264342D02*
X149957142Y-143169104D01*
X149957142Y-143169104D02*
X149909523Y-143073866D01*
X149909523Y-143073866D02*
X149861904Y-143026247D01*
X149861904Y-143026247D02*
X149766666Y-142978628D01*
X149766666Y-142978628D02*
X149576190Y-142931009D01*
X149576190Y-142931009D02*
X149480952Y-142883390D01*
X149480952Y-142883390D02*
X149433333Y-142835771D01*
X149433333Y-142835771D02*
X149385714Y-142740533D01*
X149385714Y-142740533D02*
X149385714Y-142645295D01*
X149385714Y-142645295D02*
X149433333Y-142550057D01*
X149433333Y-142550057D02*
X149480952Y-142502438D01*
X149480952Y-142502438D02*
X149576190Y-142454819D01*
X149576190Y-142454819D02*
X149814285Y-142454819D01*
X149814285Y-142454819D02*
X149957142Y-142502438D01*
X150385714Y-142931009D02*
X150719047Y-142931009D01*
X150861904Y-143454819D02*
X150385714Y-143454819D01*
X150385714Y-143454819D02*
X150385714Y-142454819D01*
X150385714Y-142454819D02*
X150861904Y-142454819D01*
X151861904Y-143454819D02*
X151528571Y-142978628D01*
X151290476Y-143454819D02*
X151290476Y-142454819D01*
X151290476Y-142454819D02*
X151671428Y-142454819D01*
X151671428Y-142454819D02*
X151766666Y-142502438D01*
X151766666Y-142502438D02*
X151814285Y-142550057D01*
X151814285Y-142550057D02*
X151861904Y-142645295D01*
X151861904Y-142645295D02*
X151861904Y-142788152D01*
X151861904Y-142788152D02*
X151814285Y-142883390D01*
X151814285Y-142883390D02*
X151766666Y-142931009D01*
X151766666Y-142931009D02*
X151671428Y-142978628D01*
X151671428Y-142978628D02*
X151290476Y-142978628D01*
X148766667Y-139257200D02*
X148909524Y-139304819D01*
X148909524Y-139304819D02*
X149147619Y-139304819D01*
X149147619Y-139304819D02*
X149242857Y-139257200D01*
X149242857Y-139257200D02*
X149290476Y-139209580D01*
X149290476Y-139209580D02*
X149338095Y-139114342D01*
X149338095Y-139114342D02*
X149338095Y-139019104D01*
X149338095Y-139019104D02*
X149290476Y-138923866D01*
X149290476Y-138923866D02*
X149242857Y-138876247D01*
X149242857Y-138876247D02*
X149147619Y-138828628D01*
X149147619Y-138828628D02*
X148957143Y-138781009D01*
X148957143Y-138781009D02*
X148861905Y-138733390D01*
X148861905Y-138733390D02*
X148814286Y-138685771D01*
X148814286Y-138685771D02*
X148766667Y-138590533D01*
X148766667Y-138590533D02*
X148766667Y-138495295D01*
X148766667Y-138495295D02*
X148814286Y-138400057D01*
X148814286Y-138400057D02*
X148861905Y-138352438D01*
X148861905Y-138352438D02*
X148957143Y-138304819D01*
X148957143Y-138304819D02*
X149195238Y-138304819D01*
X149195238Y-138304819D02*
X149338095Y-138352438D01*
X149671429Y-138304819D02*
X149909524Y-139304819D01*
X149909524Y-139304819D02*
X150100000Y-138590533D01*
X150100000Y-138590533D02*
X150290476Y-139304819D01*
X150290476Y-139304819D02*
X150528572Y-138304819D01*
X150814286Y-138304819D02*
X151433333Y-138304819D01*
X151433333Y-138304819D02*
X151100000Y-138685771D01*
X151100000Y-138685771D02*
X151242857Y-138685771D01*
X151242857Y-138685771D02*
X151338095Y-138733390D01*
X151338095Y-138733390D02*
X151385714Y-138781009D01*
X151385714Y-138781009D02*
X151433333Y-138876247D01*
X151433333Y-138876247D02*
X151433333Y-139114342D01*
X151433333Y-139114342D02*
X151385714Y-139209580D01*
X151385714Y-139209580D02*
X151338095Y-139257200D01*
X151338095Y-139257200D02*
X151242857Y-139304819D01*
X151242857Y-139304819D02*
X150957143Y-139304819D01*
X150957143Y-139304819D02*
X150861905Y-139257200D01*
X150861905Y-139257200D02*
X150814286Y-139209580D01*
X145834819Y-111042857D02*
X145834819Y-111519047D01*
X145834819Y-111519047D02*
X146311009Y-111566666D01*
X146311009Y-111566666D02*
X146263390Y-111519047D01*
X146263390Y-111519047D02*
X146215771Y-111423809D01*
X146215771Y-111423809D02*
X146215771Y-111185714D01*
X146215771Y-111185714D02*
X146263390Y-111090476D01*
X146263390Y-111090476D02*
X146311009Y-111042857D01*
X146311009Y-111042857D02*
X146406247Y-110995238D01*
X146406247Y-110995238D02*
X146644342Y-110995238D01*
X146644342Y-110995238D02*
X146739580Y-111042857D01*
X146739580Y-111042857D02*
X146787200Y-111090476D01*
X146787200Y-111090476D02*
X146834819Y-111185714D01*
X146834819Y-111185714D02*
X146834819Y-111423809D01*
X146834819Y-111423809D02*
X146787200Y-111519047D01*
X146787200Y-111519047D02*
X146739580Y-111566666D01*
X146834819Y-110566666D02*
X145834819Y-110566666D01*
X146453866Y-110471428D02*
X146834819Y-110185714D01*
X146168152Y-110185714D02*
X146549104Y-110566666D01*
X146834819Y-109233333D02*
X146834819Y-109804761D01*
X146834819Y-109519047D02*
X145834819Y-109519047D01*
X145834819Y-109519047D02*
X145977676Y-109614285D01*
X145977676Y-109614285D02*
X146072914Y-109709523D01*
X146072914Y-109709523D02*
X146120533Y-109804761D01*
D11*
X147668200Y-110443332D02*
X147544391Y-110529999D01*
X147668200Y-110591904D02*
X147408200Y-110591904D01*
X147408200Y-110591904D02*
X147408200Y-110492856D01*
X147408200Y-110492856D02*
X147420581Y-110468094D01*
X147420581Y-110468094D02*
X147432962Y-110455713D01*
X147432962Y-110455713D02*
X147457724Y-110443332D01*
X147457724Y-110443332D02*
X147494867Y-110443332D01*
X147494867Y-110443332D02*
X147519629Y-110455713D01*
X147519629Y-110455713D02*
X147532010Y-110468094D01*
X147532010Y-110468094D02*
X147544391Y-110492856D01*
X147544391Y-110492856D02*
X147544391Y-110591904D01*
X147494867Y-110220475D02*
X147668200Y-110220475D01*
X147395820Y-110282380D02*
X147581534Y-110344285D01*
X147581534Y-110344285D02*
X147581534Y-110183332D01*
D10*
X154859523Y-120308152D02*
X154859523Y-120974819D01*
X154621428Y-119927200D02*
X154383333Y-120641485D01*
X154383333Y-120641485D02*
X155002380Y-120641485D01*
X155288095Y-119974819D02*
X155954761Y-119974819D01*
X155954761Y-119974819D02*
X155526190Y-120974819D01*
X156335714Y-120974819D02*
X156335714Y-119974819D01*
X156430952Y-120593866D02*
X156716666Y-120974819D01*
X156716666Y-120308152D02*
X156335714Y-120689104D01*
D11*
X155506667Y-119468200D02*
X155420000Y-119344391D01*
X155358095Y-119468200D02*
X155358095Y-119208200D01*
X155358095Y-119208200D02*
X155457143Y-119208200D01*
X155457143Y-119208200D02*
X155481905Y-119220581D01*
X155481905Y-119220581D02*
X155494286Y-119232962D01*
X155494286Y-119232962D02*
X155506667Y-119257724D01*
X155506667Y-119257724D02*
X155506667Y-119294867D01*
X155506667Y-119294867D02*
X155494286Y-119319629D01*
X155494286Y-119319629D02*
X155481905Y-119332010D01*
X155481905Y-119332010D02*
X155457143Y-119344391D01*
X155457143Y-119344391D02*
X155358095Y-119344391D01*
X155630476Y-119468200D02*
X155680000Y-119468200D01*
X155680000Y-119468200D02*
X155704762Y-119455820D01*
X155704762Y-119455820D02*
X155717143Y-119443439D01*
X155717143Y-119443439D02*
X155741905Y-119406296D01*
X155741905Y-119406296D02*
X155754286Y-119356772D01*
X155754286Y-119356772D02*
X155754286Y-119257724D01*
X155754286Y-119257724D02*
X155741905Y-119232962D01*
X155741905Y-119232962D02*
X155729524Y-119220581D01*
X155729524Y-119220581D02*
X155704762Y-119208200D01*
X155704762Y-119208200D02*
X155655238Y-119208200D01*
X155655238Y-119208200D02*
X155630476Y-119220581D01*
X155630476Y-119220581D02*
X155618095Y-119232962D01*
X155618095Y-119232962D02*
X155605714Y-119257724D01*
X155605714Y-119257724D02*
X155605714Y-119319629D01*
X155605714Y-119319629D02*
X155618095Y-119344391D01*
X155618095Y-119344391D02*
X155630476Y-119356772D01*
X155630476Y-119356772D02*
X155655238Y-119369153D01*
X155655238Y-119369153D02*
X155704762Y-119369153D01*
X155704762Y-119369153D02*
X155729524Y-119356772D01*
X155729524Y-119356772D02*
X155741905Y-119344391D01*
X155741905Y-119344391D02*
X155754286Y-119319629D01*
D10*
X145030952Y-113064819D02*
X144459524Y-113064819D01*
X144745238Y-113064819D02*
X144745238Y-112064819D01*
X144745238Y-112064819D02*
X144650000Y-112207676D01*
X144650000Y-112207676D02*
X144554762Y-112302914D01*
X144554762Y-112302914D02*
X144459524Y-112350533D01*
X145650000Y-112064819D02*
X145745238Y-112064819D01*
X145745238Y-112064819D02*
X145840476Y-112112438D01*
X145840476Y-112112438D02*
X145888095Y-112160057D01*
X145888095Y-112160057D02*
X145935714Y-112255295D01*
X145935714Y-112255295D02*
X145983333Y-112445771D01*
X145983333Y-112445771D02*
X145983333Y-112683866D01*
X145983333Y-112683866D02*
X145935714Y-112874342D01*
X145935714Y-112874342D02*
X145888095Y-112969580D01*
X145888095Y-112969580D02*
X145840476Y-113017200D01*
X145840476Y-113017200D02*
X145745238Y-113064819D01*
X145745238Y-113064819D02*
X145650000Y-113064819D01*
X145650000Y-113064819D02*
X145554762Y-113017200D01*
X145554762Y-113017200D02*
X145507143Y-112969580D01*
X145507143Y-112969580D02*
X145459524Y-112874342D01*
X145459524Y-112874342D02*
X145411905Y-112683866D01*
X145411905Y-112683866D02*
X145411905Y-112445771D01*
X145411905Y-112445771D02*
X145459524Y-112255295D01*
X145459524Y-112255295D02*
X145507143Y-112160057D01*
X145507143Y-112160057D02*
X145554762Y-112112438D01*
X145554762Y-112112438D02*
X145650000Y-112064819D01*
X146602381Y-112064819D02*
X146697619Y-112064819D01*
X146697619Y-112064819D02*
X146792857Y-112112438D01*
X146792857Y-112112438D02*
X146840476Y-112160057D01*
X146840476Y-112160057D02*
X146888095Y-112255295D01*
X146888095Y-112255295D02*
X146935714Y-112445771D01*
X146935714Y-112445771D02*
X146935714Y-112683866D01*
X146935714Y-112683866D02*
X146888095Y-112874342D01*
X146888095Y-112874342D02*
X146840476Y-112969580D01*
X146840476Y-112969580D02*
X146792857Y-113017200D01*
X146792857Y-113017200D02*
X146697619Y-113064819D01*
X146697619Y-113064819D02*
X146602381Y-113064819D01*
X146602381Y-113064819D02*
X146507143Y-113017200D01*
X146507143Y-113017200D02*
X146459524Y-112969580D01*
X146459524Y-112969580D02*
X146411905Y-112874342D01*
X146411905Y-112874342D02*
X146364286Y-112683866D01*
X146364286Y-112683866D02*
X146364286Y-112445771D01*
X146364286Y-112445771D02*
X146411905Y-112255295D01*
X146411905Y-112255295D02*
X146459524Y-112160057D01*
X146459524Y-112160057D02*
X146507143Y-112112438D01*
X146507143Y-112112438D02*
X146602381Y-112064819D01*
X147364286Y-112398152D02*
X147364286Y-113064819D01*
X147364286Y-112493390D02*
X147411905Y-112445771D01*
X147411905Y-112445771D02*
X147507143Y-112398152D01*
X147507143Y-112398152D02*
X147650000Y-112398152D01*
X147650000Y-112398152D02*
X147745238Y-112445771D01*
X147745238Y-112445771D02*
X147792857Y-112541009D01*
X147792857Y-112541009D02*
X147792857Y-113064819D01*
D11*
X146108333Y-111539765D02*
X146096429Y-111551670D01*
X146096429Y-111551670D02*
X146060714Y-111563574D01*
X146060714Y-111563574D02*
X146036905Y-111563574D01*
X146036905Y-111563574D02*
X146001191Y-111551670D01*
X146001191Y-111551670D02*
X145977381Y-111527860D01*
X145977381Y-111527860D02*
X145965476Y-111504050D01*
X145965476Y-111504050D02*
X145953572Y-111456431D01*
X145953572Y-111456431D02*
X145953572Y-111420717D01*
X145953572Y-111420717D02*
X145965476Y-111373098D01*
X145965476Y-111373098D02*
X145977381Y-111349289D01*
X145977381Y-111349289D02*
X146001191Y-111325479D01*
X146001191Y-111325479D02*
X146036905Y-111313574D01*
X146036905Y-111313574D02*
X146060714Y-111313574D01*
X146060714Y-111313574D02*
X146096429Y-111325479D01*
X146096429Y-111325479D02*
X146108333Y-111337384D01*
X146191667Y-111313574D02*
X146358333Y-111313574D01*
X146358333Y-111313574D02*
X146251191Y-111563574D01*
D10*
X144409523Y-119274819D02*
X143838095Y-119274819D01*
X144123809Y-119274819D02*
X144123809Y-118274819D01*
X144123809Y-118274819D02*
X144028571Y-118417676D01*
X144028571Y-118417676D02*
X143933333Y-118512914D01*
X143933333Y-118512914D02*
X143838095Y-118560533D01*
X145028571Y-118274819D02*
X145123809Y-118274819D01*
X145123809Y-118274819D02*
X145219047Y-118322438D01*
X145219047Y-118322438D02*
X145266666Y-118370057D01*
X145266666Y-118370057D02*
X145314285Y-118465295D01*
X145314285Y-118465295D02*
X145361904Y-118655771D01*
X145361904Y-118655771D02*
X145361904Y-118893866D01*
X145361904Y-118893866D02*
X145314285Y-119084342D01*
X145314285Y-119084342D02*
X145266666Y-119179580D01*
X145266666Y-119179580D02*
X145219047Y-119227200D01*
X145219047Y-119227200D02*
X145123809Y-119274819D01*
X145123809Y-119274819D02*
X145028571Y-119274819D01*
X145028571Y-119274819D02*
X144933333Y-119227200D01*
X144933333Y-119227200D02*
X144885714Y-119179580D01*
X144885714Y-119179580D02*
X144838095Y-119084342D01*
X144838095Y-119084342D02*
X144790476Y-118893866D01*
X144790476Y-118893866D02*
X144790476Y-118655771D01*
X144790476Y-118655771D02*
X144838095Y-118465295D01*
X144838095Y-118465295D02*
X144885714Y-118370057D01*
X144885714Y-118370057D02*
X144933333Y-118322438D01*
X144933333Y-118322438D02*
X145028571Y-118274819D01*
X146361904Y-119274819D02*
X146028571Y-118798628D01*
X145790476Y-119274819D02*
X145790476Y-118274819D01*
X145790476Y-118274819D02*
X146171428Y-118274819D01*
X146171428Y-118274819D02*
X146266666Y-118322438D01*
X146266666Y-118322438D02*
X146314285Y-118370057D01*
X146314285Y-118370057D02*
X146361904Y-118465295D01*
X146361904Y-118465295D02*
X146361904Y-118608152D01*
X146361904Y-118608152D02*
X146314285Y-118703390D01*
X146314285Y-118703390D02*
X146266666Y-118751009D01*
X146266666Y-118751009D02*
X146171428Y-118798628D01*
X146171428Y-118798628D02*
X145790476Y-118798628D01*
D11*
X145056667Y-117768200D02*
X144970000Y-117644391D01*
X144908095Y-117768200D02*
X144908095Y-117508200D01*
X144908095Y-117508200D02*
X145007143Y-117508200D01*
X145007143Y-117508200D02*
X145031905Y-117520581D01*
X145031905Y-117520581D02*
X145044286Y-117532962D01*
X145044286Y-117532962D02*
X145056667Y-117557724D01*
X145056667Y-117557724D02*
X145056667Y-117594867D01*
X145056667Y-117594867D02*
X145044286Y-117619629D01*
X145044286Y-117619629D02*
X145031905Y-117632010D01*
X145031905Y-117632010D02*
X145007143Y-117644391D01*
X145007143Y-117644391D02*
X144908095Y-117644391D01*
X145205238Y-117619629D02*
X145180476Y-117607248D01*
X145180476Y-117607248D02*
X145168095Y-117594867D01*
X145168095Y-117594867D02*
X145155714Y-117570105D01*
X145155714Y-117570105D02*
X145155714Y-117557724D01*
X145155714Y-117557724D02*
X145168095Y-117532962D01*
X145168095Y-117532962D02*
X145180476Y-117520581D01*
X145180476Y-117520581D02*
X145205238Y-117508200D01*
X145205238Y-117508200D02*
X145254762Y-117508200D01*
X145254762Y-117508200D02*
X145279524Y-117520581D01*
X145279524Y-117520581D02*
X145291905Y-117532962D01*
X145291905Y-117532962D02*
X145304286Y-117557724D01*
X145304286Y-117557724D02*
X145304286Y-117570105D01*
X145304286Y-117570105D02*
X145291905Y-117594867D01*
X145291905Y-117594867D02*
X145279524Y-117607248D01*
X145279524Y-117607248D02*
X145254762Y-117619629D01*
X145254762Y-117619629D02*
X145205238Y-117619629D01*
X145205238Y-117619629D02*
X145180476Y-117632010D01*
X145180476Y-117632010D02*
X145168095Y-117644391D01*
X145168095Y-117644391D02*
X145155714Y-117669153D01*
X145155714Y-117669153D02*
X145155714Y-117718677D01*
X145155714Y-117718677D02*
X145168095Y-117743439D01*
X145168095Y-117743439D02*
X145180476Y-117755820D01*
X145180476Y-117755820D02*
X145205238Y-117768200D01*
X145205238Y-117768200D02*
X145254762Y-117768200D01*
X145254762Y-117768200D02*
X145279524Y-117755820D01*
X145279524Y-117755820D02*
X145291905Y-117743439D01*
X145291905Y-117743439D02*
X145304286Y-117718677D01*
X145304286Y-117718677D02*
X145304286Y-117669153D01*
X145304286Y-117669153D02*
X145291905Y-117644391D01*
X145291905Y-117644391D02*
X145279524Y-117632010D01*
X145279524Y-117632010D02*
X145254762Y-117619629D01*
D10*
X149458152Y-111590476D02*
X150124819Y-111590476D01*
X149077200Y-111828571D02*
X149791485Y-112066666D01*
X149791485Y-112066666D02*
X149791485Y-111447619D01*
X149124819Y-111161904D02*
X149124819Y-110495238D01*
X149124819Y-110495238D02*
X150124819Y-110923809D01*
X150124819Y-110114285D02*
X149124819Y-110114285D01*
X149743866Y-110019047D02*
X150124819Y-109733333D01*
X149458152Y-109733333D02*
X149839104Y-110114285D01*
D11*
X148618200Y-111067142D02*
X148494391Y-111153809D01*
X148618200Y-111215714D02*
X148358200Y-111215714D01*
X148358200Y-111215714D02*
X148358200Y-111116666D01*
X148358200Y-111116666D02*
X148370581Y-111091904D01*
X148370581Y-111091904D02*
X148382962Y-111079523D01*
X148382962Y-111079523D02*
X148407724Y-111067142D01*
X148407724Y-111067142D02*
X148444867Y-111067142D01*
X148444867Y-111067142D02*
X148469629Y-111079523D01*
X148469629Y-111079523D02*
X148482010Y-111091904D01*
X148482010Y-111091904D02*
X148494391Y-111116666D01*
X148494391Y-111116666D02*
X148494391Y-111215714D01*
X148618200Y-110819523D02*
X148618200Y-110968095D01*
X148618200Y-110893809D02*
X148358200Y-110893809D01*
X148358200Y-110893809D02*
X148395343Y-110918571D01*
X148395343Y-110918571D02*
X148420105Y-110943333D01*
X148420105Y-110943333D02*
X148432486Y-110968095D01*
X148618200Y-110571904D02*
X148618200Y-110720476D01*
X148618200Y-110646190D02*
X148358200Y-110646190D01*
X148358200Y-110646190D02*
X148395343Y-110670952D01*
X148395343Y-110670952D02*
X148420105Y-110695714D01*
X148420105Y-110695714D02*
X148432486Y-110720476D01*
D10*
X144200000Y-121549700D02*
X144342857Y-121597319D01*
X144342857Y-121597319D02*
X144580952Y-121597319D01*
X144580952Y-121597319D02*
X144676190Y-121549700D01*
X144676190Y-121549700D02*
X144723809Y-121502080D01*
X144723809Y-121502080D02*
X144771428Y-121406842D01*
X144771428Y-121406842D02*
X144771428Y-121311604D01*
X144771428Y-121311604D02*
X144723809Y-121216366D01*
X144723809Y-121216366D02*
X144676190Y-121168747D01*
X144676190Y-121168747D02*
X144580952Y-121121128D01*
X144580952Y-121121128D02*
X144390476Y-121073509D01*
X144390476Y-121073509D02*
X144295238Y-121025890D01*
X144295238Y-121025890D02*
X144247619Y-120978271D01*
X144247619Y-120978271D02*
X144200000Y-120883033D01*
X144200000Y-120883033D02*
X144200000Y-120787795D01*
X144200000Y-120787795D02*
X144247619Y-120692557D01*
X144247619Y-120692557D02*
X144295238Y-120644938D01*
X144295238Y-120644938D02*
X144390476Y-120597319D01*
X144390476Y-120597319D02*
X144628571Y-120597319D01*
X144628571Y-120597319D02*
X144771428Y-120644938D01*
X145057143Y-120597319D02*
X145628571Y-120597319D01*
X145342857Y-121597319D02*
X145342857Y-120597319D01*
X145961905Y-121597319D02*
X145961905Y-120597319D01*
X145961905Y-120597319D02*
X146295238Y-121311604D01*
X146295238Y-121311604D02*
X146628571Y-120597319D01*
X146628571Y-120597319D02*
X146628571Y-121597319D01*
X147009524Y-120597319D02*
X147628571Y-120597319D01*
X147628571Y-120597319D02*
X147295238Y-120978271D01*
X147295238Y-120978271D02*
X147438095Y-120978271D01*
X147438095Y-120978271D02*
X147533333Y-121025890D01*
X147533333Y-121025890D02*
X147580952Y-121073509D01*
X147580952Y-121073509D02*
X147628571Y-121168747D01*
X147628571Y-121168747D02*
X147628571Y-121406842D01*
X147628571Y-121406842D02*
X147580952Y-121502080D01*
X147580952Y-121502080D02*
X147533333Y-121549700D01*
X147533333Y-121549700D02*
X147438095Y-121597319D01*
X147438095Y-121597319D02*
X147152381Y-121597319D01*
X147152381Y-121597319D02*
X147057143Y-121549700D01*
X147057143Y-121549700D02*
X147009524Y-121502080D01*
X148009524Y-120692557D02*
X148057143Y-120644938D01*
X148057143Y-120644938D02*
X148152381Y-120597319D01*
X148152381Y-120597319D02*
X148390476Y-120597319D01*
X148390476Y-120597319D02*
X148485714Y-120644938D01*
X148485714Y-120644938D02*
X148533333Y-120692557D01*
X148533333Y-120692557D02*
X148580952Y-120787795D01*
X148580952Y-120787795D02*
X148580952Y-120883033D01*
X148580952Y-120883033D02*
X148533333Y-121025890D01*
X148533333Y-121025890D02*
X147961905Y-121597319D01*
X147961905Y-121597319D02*
X148580952Y-121597319D01*
X149342857Y-121073509D02*
X149009524Y-121073509D01*
X149009524Y-121597319D02*
X149009524Y-120597319D01*
X149009524Y-120597319D02*
X149485714Y-120597319D01*
X150295238Y-120930652D02*
X150295238Y-121597319D01*
X150057143Y-120549700D02*
X149819048Y-121263985D01*
X149819048Y-121263985D02*
X150438095Y-121263985D01*
X151342857Y-121597319D02*
X150771429Y-121597319D01*
X151057143Y-121597319D02*
X151057143Y-120597319D01*
X151057143Y-120597319D02*
X150961905Y-120740176D01*
X150961905Y-120740176D02*
X150866667Y-120835414D01*
X150866667Y-120835414D02*
X150771429Y-120883033D01*
X152295238Y-121597319D02*
X151723810Y-121597319D01*
X152009524Y-121597319D02*
X152009524Y-120597319D01*
X152009524Y-120597319D02*
X151914286Y-120740176D01*
X151914286Y-120740176D02*
X151819048Y-120835414D01*
X151819048Y-120835414D02*
X151723810Y-120883033D01*
X153295238Y-121502080D02*
X153247619Y-121549700D01*
X153247619Y-121549700D02*
X153104762Y-121597319D01*
X153104762Y-121597319D02*
X153009524Y-121597319D01*
X153009524Y-121597319D02*
X152866667Y-121549700D01*
X152866667Y-121549700D02*
X152771429Y-121454461D01*
X152771429Y-121454461D02*
X152723810Y-121359223D01*
X152723810Y-121359223D02*
X152676191Y-121168747D01*
X152676191Y-121168747D02*
X152676191Y-121025890D01*
X152676191Y-121025890D02*
X152723810Y-120835414D01*
X152723810Y-120835414D02*
X152771429Y-120740176D01*
X152771429Y-120740176D02*
X152866667Y-120644938D01*
X152866667Y-120644938D02*
X153009524Y-120597319D01*
X153009524Y-120597319D02*
X153104762Y-120597319D01*
X153104762Y-120597319D02*
X153247619Y-120644938D01*
X153247619Y-120644938D02*
X153295238Y-120692557D01*
X153723810Y-121073509D02*
X154057143Y-121073509D01*
X154200000Y-121597319D02*
X153723810Y-121597319D01*
X153723810Y-121597319D02*
X153723810Y-120597319D01*
X153723810Y-120597319D02*
X154200000Y-120597319D01*
X154628572Y-120597319D02*
X154628572Y-121406842D01*
X154628572Y-121406842D02*
X154676191Y-121502080D01*
X154676191Y-121502080D02*
X154723810Y-121549700D01*
X154723810Y-121549700D02*
X154819048Y-121597319D01*
X154819048Y-121597319D02*
X155009524Y-121597319D01*
X155009524Y-121597319D02*
X155104762Y-121549700D01*
X155104762Y-121549700D02*
X155152381Y-121502080D01*
X155152381Y-121502080D02*
X155200000Y-121406842D01*
X155200000Y-121406842D02*
X155200000Y-120597319D01*
X156104762Y-120597319D02*
X155914286Y-120597319D01*
X155914286Y-120597319D02*
X155819048Y-120644938D01*
X155819048Y-120644938D02*
X155771429Y-120692557D01*
X155771429Y-120692557D02*
X155676191Y-120835414D01*
X155676191Y-120835414D02*
X155628572Y-121025890D01*
X155628572Y-121025890D02*
X155628572Y-121406842D01*
X155628572Y-121406842D02*
X155676191Y-121502080D01*
X155676191Y-121502080D02*
X155723810Y-121549700D01*
X155723810Y-121549700D02*
X155819048Y-121597319D01*
X155819048Y-121597319D02*
X156009524Y-121597319D01*
X156009524Y-121597319D02*
X156104762Y-121549700D01*
X156104762Y-121549700D02*
X156152381Y-121502080D01*
X156152381Y-121502080D02*
X156200000Y-121406842D01*
X156200000Y-121406842D02*
X156200000Y-121168747D01*
X156200000Y-121168747D02*
X156152381Y-121073509D01*
X156152381Y-121073509D02*
X156104762Y-121025890D01*
X156104762Y-121025890D02*
X156009524Y-120978271D01*
X156009524Y-120978271D02*
X155819048Y-120978271D01*
X155819048Y-120978271D02*
X155723810Y-121025890D01*
X155723810Y-121025890D02*
X155676191Y-121073509D01*
X155676191Y-121073509D02*
X155628572Y-121168747D01*
X149438095Y-115767319D02*
X149438095Y-116576842D01*
X149438095Y-116576842D02*
X149485714Y-116672080D01*
X149485714Y-116672080D02*
X149533333Y-116719700D01*
X149533333Y-116719700D02*
X149628571Y-116767319D01*
X149628571Y-116767319D02*
X149819047Y-116767319D01*
X149819047Y-116767319D02*
X149914285Y-116719700D01*
X149914285Y-116719700D02*
X149961904Y-116672080D01*
X149961904Y-116672080D02*
X150009523Y-116576842D01*
X150009523Y-116576842D02*
X150009523Y-115767319D01*
X151009523Y-116767319D02*
X150438095Y-116767319D01*
X150723809Y-116767319D02*
X150723809Y-115767319D01*
X150723809Y-115767319D02*
X150628571Y-115910176D01*
X150628571Y-115910176D02*
X150533333Y-116005414D01*
X150533333Y-116005414D02*
X150438095Y-116053033D01*
X151074819Y-111495238D02*
X151074819Y-112066666D01*
X151074819Y-111780952D02*
X150074819Y-111780952D01*
X150074819Y-111780952D02*
X150217676Y-111876190D01*
X150217676Y-111876190D02*
X150312914Y-111971428D01*
X150312914Y-111971428D02*
X150360533Y-112066666D01*
X150074819Y-110876190D02*
X150074819Y-110780952D01*
X150074819Y-110780952D02*
X150122438Y-110685714D01*
X150122438Y-110685714D02*
X150170057Y-110638095D01*
X150170057Y-110638095D02*
X150265295Y-110590476D01*
X150265295Y-110590476D02*
X150455771Y-110542857D01*
X150455771Y-110542857D02*
X150693866Y-110542857D01*
X150693866Y-110542857D02*
X150884342Y-110590476D01*
X150884342Y-110590476D02*
X150979580Y-110638095D01*
X150979580Y-110638095D02*
X151027200Y-110685714D01*
X151027200Y-110685714D02*
X151074819Y-110780952D01*
X151074819Y-110780952D02*
X151074819Y-110876190D01*
X151074819Y-110876190D02*
X151027200Y-110971428D01*
X151027200Y-110971428D02*
X150979580Y-111019047D01*
X150979580Y-111019047D02*
X150884342Y-111066666D01*
X150884342Y-111066666D02*
X150693866Y-111114285D01*
X150693866Y-111114285D02*
X150455771Y-111114285D01*
X150455771Y-111114285D02*
X150265295Y-111066666D01*
X150265295Y-111066666D02*
X150170057Y-111019047D01*
X150170057Y-111019047D02*
X150122438Y-110971428D01*
X150122438Y-110971428D02*
X150074819Y-110876190D01*
X151074819Y-110114285D02*
X150074819Y-110114285D01*
X150693866Y-110019047D02*
X151074819Y-109733333D01*
X150408152Y-109733333D02*
X150789104Y-110114285D01*
D11*
X149568200Y-110943332D02*
X149444391Y-111029999D01*
X149568200Y-111091904D02*
X149308200Y-111091904D01*
X149308200Y-111091904D02*
X149308200Y-110992856D01*
X149308200Y-110992856D02*
X149320581Y-110968094D01*
X149320581Y-110968094D02*
X149332962Y-110955713D01*
X149332962Y-110955713D02*
X149357724Y-110943332D01*
X149357724Y-110943332D02*
X149394867Y-110943332D01*
X149394867Y-110943332D02*
X149419629Y-110955713D01*
X149419629Y-110955713D02*
X149432010Y-110968094D01*
X149432010Y-110968094D02*
X149444391Y-110992856D01*
X149444391Y-110992856D02*
X149444391Y-111091904D01*
X149332962Y-110844285D02*
X149320581Y-110831904D01*
X149320581Y-110831904D02*
X149308200Y-110807142D01*
X149308200Y-110807142D02*
X149308200Y-110745237D01*
X149308200Y-110745237D02*
X149320581Y-110720475D01*
X149320581Y-110720475D02*
X149332962Y-110708094D01*
X149332962Y-110708094D02*
X149357724Y-110695713D01*
X149357724Y-110695713D02*
X149382486Y-110695713D01*
X149382486Y-110695713D02*
X149419629Y-110708094D01*
X149419629Y-110708094D02*
X149568200Y-110856666D01*
X149568200Y-110856666D02*
X149568200Y-110695713D01*
D10*
X157564819Y-121866666D02*
X157564819Y-122438094D01*
X157564819Y-122152380D02*
X156564819Y-122152380D01*
X156564819Y-122152380D02*
X156707676Y-122247618D01*
X156707676Y-122247618D02*
X156802914Y-122342856D01*
X156802914Y-122342856D02*
X156850533Y-122438094D01*
X156898152Y-121009523D02*
X157564819Y-121009523D01*
X156898152Y-121438094D02*
X157421961Y-121438094D01*
X157421961Y-121438094D02*
X157517200Y-121390475D01*
X157517200Y-121390475D02*
X157564819Y-121295237D01*
X157564819Y-121295237D02*
X157564819Y-121152380D01*
X157564819Y-121152380D02*
X157517200Y-121057142D01*
X157517200Y-121057142D02*
X157469580Y-121009523D01*
D11*
X156039765Y-121860714D02*
X156051670Y-121872618D01*
X156051670Y-121872618D02*
X156063574Y-121908333D01*
X156063574Y-121908333D02*
X156063574Y-121932142D01*
X156063574Y-121932142D02*
X156051670Y-121967856D01*
X156051670Y-121967856D02*
X156027860Y-121991666D01*
X156027860Y-121991666D02*
X156004050Y-122003571D01*
X156004050Y-122003571D02*
X155956431Y-122015475D01*
X155956431Y-122015475D02*
X155920717Y-122015475D01*
X155920717Y-122015475D02*
X155873098Y-122003571D01*
X155873098Y-122003571D02*
X155849289Y-121991666D01*
X155849289Y-121991666D02*
X155825479Y-121967856D01*
X155825479Y-121967856D02*
X155813574Y-121932142D01*
X155813574Y-121932142D02*
X155813574Y-121908333D01*
X155813574Y-121908333D02*
X155825479Y-121872618D01*
X155825479Y-121872618D02*
X155837384Y-121860714D01*
X156063574Y-121622618D02*
X156063574Y-121765475D01*
X156063574Y-121694047D02*
X155813574Y-121694047D01*
X155813574Y-121694047D02*
X155849289Y-121717856D01*
X155849289Y-121717856D02*
X155873098Y-121741666D01*
X155873098Y-121741666D02*
X155885003Y-121765475D01*
X155813574Y-121539285D02*
X155813574Y-121384523D01*
X155813574Y-121384523D02*
X155908812Y-121467857D01*
X155908812Y-121467857D02*
X155908812Y-121432142D01*
X155908812Y-121432142D02*
X155920717Y-121408333D01*
X155920717Y-121408333D02*
X155932622Y-121396428D01*
X155932622Y-121396428D02*
X155956431Y-121384523D01*
X155956431Y-121384523D02*
X156015955Y-121384523D01*
X156015955Y-121384523D02*
X156039765Y-121396428D01*
X156039765Y-121396428D02*
X156051670Y-121408333D01*
X156051670Y-121408333D02*
X156063574Y-121432142D01*
X156063574Y-121432142D02*
X156063574Y-121503571D01*
X156063574Y-121503571D02*
X156051670Y-121527380D01*
X156051670Y-121527380D02*
X156039765Y-121539285D01*
D10*
X143883333Y-108272438D02*
X143788095Y-108224819D01*
X143788095Y-108224819D02*
X143645238Y-108224819D01*
X143645238Y-108224819D02*
X143502381Y-108272438D01*
X143502381Y-108272438D02*
X143407143Y-108367676D01*
X143407143Y-108367676D02*
X143359524Y-108462914D01*
X143359524Y-108462914D02*
X143311905Y-108653390D01*
X143311905Y-108653390D02*
X143311905Y-108796247D01*
X143311905Y-108796247D02*
X143359524Y-108986723D01*
X143359524Y-108986723D02*
X143407143Y-109081961D01*
X143407143Y-109081961D02*
X143502381Y-109177200D01*
X143502381Y-109177200D02*
X143645238Y-109224819D01*
X143645238Y-109224819D02*
X143740476Y-109224819D01*
X143740476Y-109224819D02*
X143883333Y-109177200D01*
X143883333Y-109177200D02*
X143930952Y-109129580D01*
X143930952Y-109129580D02*
X143930952Y-108796247D01*
X143930952Y-108796247D02*
X143740476Y-108796247D01*
X144930952Y-109224819D02*
X144597619Y-108748628D01*
X144359524Y-109224819D02*
X144359524Y-108224819D01*
X144359524Y-108224819D02*
X144740476Y-108224819D01*
X144740476Y-108224819D02*
X144835714Y-108272438D01*
X144835714Y-108272438D02*
X144883333Y-108320057D01*
X144883333Y-108320057D02*
X144930952Y-108415295D01*
X144930952Y-108415295D02*
X144930952Y-108558152D01*
X144930952Y-108558152D02*
X144883333Y-108653390D01*
X144883333Y-108653390D02*
X144835714Y-108701009D01*
X144835714Y-108701009D02*
X144740476Y-108748628D01*
X144740476Y-108748628D02*
X144359524Y-108748628D01*
X145359524Y-108701009D02*
X145692857Y-108701009D01*
X145835714Y-109224819D02*
X145359524Y-109224819D01*
X145359524Y-109224819D02*
X145359524Y-108224819D01*
X145359524Y-108224819D02*
X145835714Y-108224819D01*
X146264286Y-108701009D02*
X146597619Y-108701009D01*
X146740476Y-109224819D02*
X146264286Y-109224819D01*
X146264286Y-109224819D02*
X146264286Y-108224819D01*
X146264286Y-108224819D02*
X146740476Y-108224819D01*
X147169048Y-109224819D02*
X147169048Y-108224819D01*
X147169048Y-108224819D02*
X147740476Y-109224819D01*
X147740476Y-109224819D02*
X147740476Y-108224819D01*
D12*
X145102381Y-110381927D02*
X144911905Y-110381927D01*
X144911905Y-110381927D02*
X144911905Y-109981927D01*
X145235715Y-110172403D02*
X145369048Y-110172403D01*
X145426191Y-110381927D02*
X145235715Y-110381927D01*
X145235715Y-110381927D02*
X145235715Y-109981927D01*
X145235715Y-109981927D02*
X145426191Y-109981927D01*
X145597620Y-110381927D02*
X145597620Y-109981927D01*
X145597620Y-109981927D02*
X145692858Y-109981927D01*
X145692858Y-109981927D02*
X145750001Y-110000975D01*
X145750001Y-110000975D02*
X145788096Y-110039070D01*
X145788096Y-110039070D02*
X145807143Y-110077165D01*
X145807143Y-110077165D02*
X145826191Y-110153356D01*
X145826191Y-110153356D02*
X145826191Y-110210499D01*
X145826191Y-110210499D02*
X145807143Y-110286689D01*
X145807143Y-110286689D02*
X145788096Y-110324784D01*
X145788096Y-110324784D02*
X145750001Y-110362880D01*
X145750001Y-110362880D02*
X145692858Y-110381927D01*
X145692858Y-110381927D02*
X145597620Y-110381927D01*
X146207143Y-110381927D02*
X145978572Y-110381927D01*
X146092858Y-110381927D02*
X146092858Y-109981927D01*
X146092858Y-109981927D02*
X146054762Y-110039070D01*
X146054762Y-110039070D02*
X146016667Y-110077165D01*
X146016667Y-110077165D02*
X145978572Y-110096213D01*
D10*
X143178152Y-124568095D02*
X143844819Y-124568095D01*
X142797200Y-124806190D02*
X143511485Y-125044285D01*
X143511485Y-125044285D02*
X143511485Y-124425238D01*
X143178152Y-123615714D02*
X143844819Y-123615714D01*
X143178152Y-124044285D02*
X143701961Y-124044285D01*
X143701961Y-124044285D02*
X143797200Y-123996666D01*
X143797200Y-123996666D02*
X143844819Y-123901428D01*
X143844819Y-123901428D02*
X143844819Y-123758571D01*
X143844819Y-123758571D02*
X143797200Y-123663333D01*
X143797200Y-123663333D02*
X143749580Y-123615714D01*
X142844819Y-123234761D02*
X142844819Y-122568095D01*
X142844819Y-122568095D02*
X143844819Y-122996666D01*
D11*
X144639765Y-123990714D02*
X144651670Y-124002618D01*
X144651670Y-124002618D02*
X144663574Y-124038333D01*
X144663574Y-124038333D02*
X144663574Y-124062142D01*
X144663574Y-124062142D02*
X144651670Y-124097856D01*
X144651670Y-124097856D02*
X144627860Y-124121666D01*
X144627860Y-124121666D02*
X144604050Y-124133571D01*
X144604050Y-124133571D02*
X144556431Y-124145475D01*
X144556431Y-124145475D02*
X144520717Y-124145475D01*
X144520717Y-124145475D02*
X144473098Y-124133571D01*
X144473098Y-124133571D02*
X144449289Y-124121666D01*
X144449289Y-124121666D02*
X144425479Y-124097856D01*
X144425479Y-124097856D02*
X144413574Y-124062142D01*
X144413574Y-124062142D02*
X144413574Y-124038333D01*
X144413574Y-124038333D02*
X144425479Y-124002618D01*
X144425479Y-124002618D02*
X144437384Y-123990714D01*
X144663574Y-123752618D02*
X144663574Y-123895475D01*
X144663574Y-123824047D02*
X144413574Y-123824047D01*
X144413574Y-123824047D02*
X144449289Y-123847856D01*
X144449289Y-123847856D02*
X144473098Y-123871666D01*
X144473098Y-123871666D02*
X144485003Y-123895475D01*
X144413574Y-123597857D02*
X144413574Y-123574047D01*
X144413574Y-123574047D02*
X144425479Y-123550238D01*
X144425479Y-123550238D02*
X144437384Y-123538333D01*
X144437384Y-123538333D02*
X144461193Y-123526428D01*
X144461193Y-123526428D02*
X144508812Y-123514523D01*
X144508812Y-123514523D02*
X144568336Y-123514523D01*
X144568336Y-123514523D02*
X144615955Y-123526428D01*
X144615955Y-123526428D02*
X144639765Y-123538333D01*
X144639765Y-123538333D02*
X144651670Y-123550238D01*
X144651670Y-123550238D02*
X144663574Y-123574047D01*
X144663574Y-123574047D02*
X144663574Y-123597857D01*
X144663574Y-123597857D02*
X144651670Y-123621666D01*
X144651670Y-123621666D02*
X144639765Y-123633571D01*
X144639765Y-123633571D02*
X144615955Y-123645476D01*
X144615955Y-123645476D02*
X144568336Y-123657380D01*
X144568336Y-123657380D02*
X144508812Y-123657380D01*
X144508812Y-123657380D02*
X144461193Y-123645476D01*
X144461193Y-123645476D02*
X144437384Y-123633571D01*
X144437384Y-123633571D02*
X144425479Y-123621666D01*
X144425479Y-123621666D02*
X144413574Y-123597857D01*
D10*
X154859523Y-118958152D02*
X154859523Y-119624819D01*
X154621428Y-118577200D02*
X154383333Y-119291485D01*
X154383333Y-119291485D02*
X155002380Y-119291485D01*
X155288095Y-118624819D02*
X155954761Y-118624819D01*
X155954761Y-118624819D02*
X155526190Y-119624819D01*
X156335714Y-119624819D02*
X156335714Y-118624819D01*
X156430952Y-119243866D02*
X156716666Y-119624819D01*
X156716666Y-118958152D02*
X156335714Y-119339104D01*
D11*
X155382857Y-118118200D02*
X155296190Y-117994391D01*
X155234285Y-118118200D02*
X155234285Y-117858200D01*
X155234285Y-117858200D02*
X155333333Y-117858200D01*
X155333333Y-117858200D02*
X155358095Y-117870581D01*
X155358095Y-117870581D02*
X155370476Y-117882962D01*
X155370476Y-117882962D02*
X155382857Y-117907724D01*
X155382857Y-117907724D02*
X155382857Y-117944867D01*
X155382857Y-117944867D02*
X155370476Y-117969629D01*
X155370476Y-117969629D02*
X155358095Y-117982010D01*
X155358095Y-117982010D02*
X155333333Y-117994391D01*
X155333333Y-117994391D02*
X155234285Y-117994391D01*
X155630476Y-118118200D02*
X155481904Y-118118200D01*
X155556190Y-118118200D02*
X155556190Y-117858200D01*
X155556190Y-117858200D02*
X155531428Y-117895343D01*
X155531428Y-117895343D02*
X155506666Y-117920105D01*
X155506666Y-117920105D02*
X155481904Y-117932486D01*
X155791428Y-117858200D02*
X155816190Y-117858200D01*
X155816190Y-117858200D02*
X155840952Y-117870581D01*
X155840952Y-117870581D02*
X155853333Y-117882962D01*
X155853333Y-117882962D02*
X155865714Y-117907724D01*
X155865714Y-117907724D02*
X155878095Y-117957248D01*
X155878095Y-117957248D02*
X155878095Y-118019153D01*
X155878095Y-118019153D02*
X155865714Y-118068677D01*
X155865714Y-118068677D02*
X155853333Y-118093439D01*
X155853333Y-118093439D02*
X155840952Y-118105820D01*
X155840952Y-118105820D02*
X155816190Y-118118200D01*
X155816190Y-118118200D02*
X155791428Y-118118200D01*
X155791428Y-118118200D02*
X155766666Y-118105820D01*
X155766666Y-118105820D02*
X155754285Y-118093439D01*
X155754285Y-118093439D02*
X155741904Y-118068677D01*
X155741904Y-118068677D02*
X155729523Y-118019153D01*
X155729523Y-118019153D02*
X155729523Y-117957248D01*
X155729523Y-117957248D02*
X155741904Y-117907724D01*
X155741904Y-117907724D02*
X155754285Y-117882962D01*
X155754285Y-117882962D02*
X155766666Y-117870581D01*
X155766666Y-117870581D02*
X155791428Y-117858200D01*
D10*
X152430951Y-100215180D02*
X152430951Y-99405657D01*
X152430951Y-99405657D02*
X152383332Y-99310419D01*
X152383332Y-99310419D02*
X152335713Y-99262800D01*
X152335713Y-99262800D02*
X152240475Y-99215180D01*
X152240475Y-99215180D02*
X152049999Y-99215180D01*
X152049999Y-99215180D02*
X151954761Y-99262800D01*
X151954761Y-99262800D02*
X151907142Y-99310419D01*
X151907142Y-99310419D02*
X151859523Y-99405657D01*
X151859523Y-99405657D02*
X151859523Y-100215180D01*
X151430951Y-99262800D02*
X151288094Y-99215180D01*
X151288094Y-99215180D02*
X151049999Y-99215180D01*
X151049999Y-99215180D02*
X150954761Y-99262800D01*
X150954761Y-99262800D02*
X150907142Y-99310419D01*
X150907142Y-99310419D02*
X150859523Y-99405657D01*
X150859523Y-99405657D02*
X150859523Y-99500895D01*
X150859523Y-99500895D02*
X150907142Y-99596133D01*
X150907142Y-99596133D02*
X150954761Y-99643752D01*
X150954761Y-99643752D02*
X151049999Y-99691371D01*
X151049999Y-99691371D02*
X151240475Y-99738990D01*
X151240475Y-99738990D02*
X151335713Y-99786609D01*
X151335713Y-99786609D02*
X151383332Y-99834228D01*
X151383332Y-99834228D02*
X151430951Y-99929466D01*
X151430951Y-99929466D02*
X151430951Y-100024704D01*
X151430951Y-100024704D02*
X151383332Y-100119942D01*
X151383332Y-100119942D02*
X151335713Y-100167561D01*
X151335713Y-100167561D02*
X151240475Y-100215180D01*
X151240475Y-100215180D02*
X151002380Y-100215180D01*
X151002380Y-100215180D02*
X150859523Y-100167561D01*
X150097618Y-99738990D02*
X149954761Y-99691371D01*
X149954761Y-99691371D02*
X149907142Y-99643752D01*
X149907142Y-99643752D02*
X149859523Y-99548514D01*
X149859523Y-99548514D02*
X149859523Y-99405657D01*
X149859523Y-99405657D02*
X149907142Y-99310419D01*
X149907142Y-99310419D02*
X149954761Y-99262800D01*
X149954761Y-99262800D02*
X150049999Y-99215180D01*
X150049999Y-99215180D02*
X150430951Y-99215180D01*
X150430951Y-99215180D02*
X150430951Y-100215180D01*
X150430951Y-100215180D02*
X150097618Y-100215180D01*
X150097618Y-100215180D02*
X150002380Y-100167561D01*
X150002380Y-100167561D02*
X149954761Y-100119942D01*
X149954761Y-100119942D02*
X149907142Y-100024704D01*
X149907142Y-100024704D02*
X149907142Y-99929466D01*
X149907142Y-99929466D02*
X149954761Y-99834228D01*
X149954761Y-99834228D02*
X150002380Y-99786609D01*
X150002380Y-99786609D02*
X150097618Y-99738990D01*
X150097618Y-99738990D02*
X150430951Y-99738990D01*
X149430951Y-99596133D02*
X148669047Y-99596133D01*
X147621428Y-99310419D02*
X147669047Y-99262800D01*
X147669047Y-99262800D02*
X147811904Y-99215180D01*
X147811904Y-99215180D02*
X147907142Y-99215180D01*
X147907142Y-99215180D02*
X148049999Y-99262800D01*
X148049999Y-99262800D02*
X148145237Y-99358038D01*
X148145237Y-99358038D02*
X148192856Y-99453276D01*
X148192856Y-99453276D02*
X148240475Y-99643752D01*
X148240475Y-99643752D02*
X148240475Y-99786609D01*
X148240475Y-99786609D02*
X148192856Y-99977085D01*
X148192856Y-99977085D02*
X148145237Y-100072323D01*
X148145237Y-100072323D02*
X148049999Y-100167561D01*
X148049999Y-100167561D02*
X147907142Y-100215180D01*
X147907142Y-100215180D02*
X147811904Y-100215180D01*
X147811904Y-100215180D02*
X147669047Y-100167561D01*
X147669047Y-100167561D02*
X147621428Y-100119942D01*
X150383333Y-105215180D02*
X150383333Y-104500895D01*
X150383333Y-104500895D02*
X150430952Y-104358038D01*
X150430952Y-104358038D02*
X150526190Y-104262800D01*
X150526190Y-104262800D02*
X150669047Y-104215180D01*
X150669047Y-104215180D02*
X150764285Y-104215180D01*
X149383333Y-104215180D02*
X149954761Y-104215180D01*
X149669047Y-104215180D02*
X149669047Y-105215180D01*
X149669047Y-105215180D02*
X149764285Y-105072323D01*
X149764285Y-105072323D02*
X149859523Y-104977085D01*
X149859523Y-104977085D02*
X149954761Y-104929466D01*
X150357142Y-108184819D02*
X149880952Y-108184819D01*
X149880952Y-108184819D02*
X149833333Y-108661009D01*
X149833333Y-108661009D02*
X149880952Y-108613390D01*
X149880952Y-108613390D02*
X149976190Y-108565771D01*
X149976190Y-108565771D02*
X150214285Y-108565771D01*
X150214285Y-108565771D02*
X150309523Y-108613390D01*
X150309523Y-108613390D02*
X150357142Y-108661009D01*
X150357142Y-108661009D02*
X150404761Y-108756247D01*
X150404761Y-108756247D02*
X150404761Y-108994342D01*
X150404761Y-108994342D02*
X150357142Y-109089580D01*
X150357142Y-109089580D02*
X150309523Y-109137200D01*
X150309523Y-109137200D02*
X150214285Y-109184819D01*
X150214285Y-109184819D02*
X149976190Y-109184819D01*
X149976190Y-109184819D02*
X149880952Y-109137200D01*
X149880952Y-109137200D02*
X149833333Y-109089580D01*
X150833333Y-109184819D02*
X150833333Y-108184819D01*
X150928571Y-108803866D02*
X151214285Y-109184819D01*
X151214285Y-108518152D02*
X150833333Y-108899104D01*
X152166666Y-109184819D02*
X151595238Y-109184819D01*
X151880952Y-109184819D02*
X151880952Y-108184819D01*
X151880952Y-108184819D02*
X151785714Y-108327676D01*
X151785714Y-108327676D02*
X151690476Y-108422914D01*
X151690476Y-108422914D02*
X151595238Y-108470533D01*
D11*
X150956667Y-110018200D02*
X150870000Y-109894391D01*
X150808095Y-110018200D02*
X150808095Y-109758200D01*
X150808095Y-109758200D02*
X150907143Y-109758200D01*
X150907143Y-109758200D02*
X150931905Y-109770581D01*
X150931905Y-109770581D02*
X150944286Y-109782962D01*
X150944286Y-109782962D02*
X150956667Y-109807724D01*
X150956667Y-109807724D02*
X150956667Y-109844867D01*
X150956667Y-109844867D02*
X150944286Y-109869629D01*
X150944286Y-109869629D02*
X150931905Y-109882010D01*
X150931905Y-109882010D02*
X150907143Y-109894391D01*
X150907143Y-109894391D02*
X150808095Y-109894391D01*
X151043333Y-109758200D02*
X151204286Y-109758200D01*
X151204286Y-109758200D02*
X151117619Y-109857248D01*
X151117619Y-109857248D02*
X151154762Y-109857248D01*
X151154762Y-109857248D02*
X151179524Y-109869629D01*
X151179524Y-109869629D02*
X151191905Y-109882010D01*
X151191905Y-109882010D02*
X151204286Y-109906772D01*
X151204286Y-109906772D02*
X151204286Y-109968677D01*
X151204286Y-109968677D02*
X151191905Y-109993439D01*
X151191905Y-109993439D02*
X151179524Y-110005820D01*
X151179524Y-110005820D02*
X151154762Y-110018200D01*
X151154762Y-110018200D02*
X151080476Y-110018200D01*
X151080476Y-110018200D02*
X151055714Y-110005820D01*
X151055714Y-110005820D02*
X151043333Y-109993439D01*
D10*
X148647618Y-129804819D02*
X148314285Y-129328628D01*
X148076190Y-129804819D02*
X148076190Y-128804819D01*
X148076190Y-128804819D02*
X148457142Y-128804819D01*
X148457142Y-128804819D02*
X148552380Y-128852438D01*
X148552380Y-128852438D02*
X148599999Y-128900057D01*
X148599999Y-128900057D02*
X148647618Y-128995295D01*
X148647618Y-128995295D02*
X148647618Y-129138152D01*
X148647618Y-129138152D02*
X148599999Y-129233390D01*
X148599999Y-129233390D02*
X148552380Y-129281009D01*
X148552380Y-129281009D02*
X148457142Y-129328628D01*
X148457142Y-129328628D02*
X148076190Y-129328628D01*
X149076190Y-129281009D02*
X149409523Y-129281009D01*
X149552380Y-129804819D02*
X149076190Y-129804819D01*
X149076190Y-129804819D02*
X149076190Y-128804819D01*
X149076190Y-128804819D02*
X149552380Y-128804819D01*
X149933333Y-129757200D02*
X150076190Y-129804819D01*
X150076190Y-129804819D02*
X150314285Y-129804819D01*
X150314285Y-129804819D02*
X150409523Y-129757200D01*
X150409523Y-129757200D02*
X150457142Y-129709580D01*
X150457142Y-129709580D02*
X150504761Y-129614342D01*
X150504761Y-129614342D02*
X150504761Y-129519104D01*
X150504761Y-129519104D02*
X150457142Y-129423866D01*
X150457142Y-129423866D02*
X150409523Y-129376247D01*
X150409523Y-129376247D02*
X150314285Y-129328628D01*
X150314285Y-129328628D02*
X150123809Y-129281009D01*
X150123809Y-129281009D02*
X150028571Y-129233390D01*
X150028571Y-129233390D02*
X149980952Y-129185771D01*
X149980952Y-129185771D02*
X149933333Y-129090533D01*
X149933333Y-129090533D02*
X149933333Y-128995295D01*
X149933333Y-128995295D02*
X149980952Y-128900057D01*
X149980952Y-128900057D02*
X150028571Y-128852438D01*
X150028571Y-128852438D02*
X150123809Y-128804819D01*
X150123809Y-128804819D02*
X150361904Y-128804819D01*
X150361904Y-128804819D02*
X150504761Y-128852438D01*
X150933333Y-129281009D02*
X151266666Y-129281009D01*
X151409523Y-129804819D02*
X150933333Y-129804819D01*
X150933333Y-129804819D02*
X150933333Y-128804819D01*
X150933333Y-128804819D02*
X151409523Y-128804819D01*
X151695238Y-128804819D02*
X152266666Y-128804819D01*
X151980952Y-129804819D02*
X151980952Y-128804819D01*
X148766667Y-125607200D02*
X148909524Y-125654819D01*
X148909524Y-125654819D02*
X149147619Y-125654819D01*
X149147619Y-125654819D02*
X149242857Y-125607200D01*
X149242857Y-125607200D02*
X149290476Y-125559580D01*
X149290476Y-125559580D02*
X149338095Y-125464342D01*
X149338095Y-125464342D02*
X149338095Y-125369104D01*
X149338095Y-125369104D02*
X149290476Y-125273866D01*
X149290476Y-125273866D02*
X149242857Y-125226247D01*
X149242857Y-125226247D02*
X149147619Y-125178628D01*
X149147619Y-125178628D02*
X148957143Y-125131009D01*
X148957143Y-125131009D02*
X148861905Y-125083390D01*
X148861905Y-125083390D02*
X148814286Y-125035771D01*
X148814286Y-125035771D02*
X148766667Y-124940533D01*
X148766667Y-124940533D02*
X148766667Y-124845295D01*
X148766667Y-124845295D02*
X148814286Y-124750057D01*
X148814286Y-124750057D02*
X148861905Y-124702438D01*
X148861905Y-124702438D02*
X148957143Y-124654819D01*
X148957143Y-124654819D02*
X149195238Y-124654819D01*
X149195238Y-124654819D02*
X149338095Y-124702438D01*
X149671429Y-124654819D02*
X149909524Y-125654819D01*
X149909524Y-125654819D02*
X150100000Y-124940533D01*
X150100000Y-124940533D02*
X150290476Y-125654819D01*
X150290476Y-125654819D02*
X150528572Y-124654819D01*
X151433333Y-125654819D02*
X150861905Y-125654819D01*
X151147619Y-125654819D02*
X151147619Y-124654819D01*
X151147619Y-124654819D02*
X151052381Y-124797676D01*
X151052381Y-124797676D02*
X150957143Y-124892914D01*
X150957143Y-124892914D02*
X150861905Y-124940533D01*
X144980952Y-113084819D02*
X144409524Y-113084819D01*
X144695238Y-113084819D02*
X144695238Y-112084819D01*
X144695238Y-112084819D02*
X144600000Y-112227676D01*
X144600000Y-112227676D02*
X144504762Y-112322914D01*
X144504762Y-112322914D02*
X144409524Y-112370533D01*
X145409524Y-113084819D02*
X145409524Y-112084819D01*
X145504762Y-112703866D02*
X145790476Y-113084819D01*
X145790476Y-112418152D02*
X145409524Y-112799104D01*
D11*
X145056667Y-113918200D02*
X144970000Y-113794391D01*
X144908095Y-113918200D02*
X144908095Y-113658200D01*
X144908095Y-113658200D02*
X145007143Y-113658200D01*
X145007143Y-113658200D02*
X145031905Y-113670581D01*
X145031905Y-113670581D02*
X145044286Y-113682962D01*
X145044286Y-113682962D02*
X145056667Y-113707724D01*
X145056667Y-113707724D02*
X145056667Y-113744867D01*
X145056667Y-113744867D02*
X145044286Y-113769629D01*
X145044286Y-113769629D02*
X145031905Y-113782010D01*
X145031905Y-113782010D02*
X145007143Y-113794391D01*
X145007143Y-113794391D02*
X144908095Y-113794391D01*
X145291905Y-113658200D02*
X145168095Y-113658200D01*
X145168095Y-113658200D02*
X145155714Y-113782010D01*
X145155714Y-113782010D02*
X145168095Y-113769629D01*
X145168095Y-113769629D02*
X145192857Y-113757248D01*
X145192857Y-113757248D02*
X145254762Y-113757248D01*
X145254762Y-113757248D02*
X145279524Y-113769629D01*
X145279524Y-113769629D02*
X145291905Y-113782010D01*
X145291905Y-113782010D02*
X145304286Y-113806772D01*
X145304286Y-113806772D02*
X145304286Y-113868677D01*
X145304286Y-113868677D02*
X145291905Y-113893439D01*
X145291905Y-113893439D02*
X145279524Y-113905820D01*
X145279524Y-113905820D02*
X145254762Y-113918200D01*
X145254762Y-113918200D02*
X145192857Y-113918200D01*
X145192857Y-113918200D02*
X145168095Y-113905820D01*
X145168095Y-113905820D02*
X145155714Y-113893439D01*
D10*
X144730952Y-122914819D02*
X144159524Y-122914819D01*
X144445238Y-122914819D02*
X144445238Y-121914819D01*
X144445238Y-121914819D02*
X144350000Y-122057676D01*
X144350000Y-122057676D02*
X144254762Y-122152914D01*
X144254762Y-122152914D02*
X144159524Y-122200533D01*
X145350000Y-121914819D02*
X145445238Y-121914819D01*
X145445238Y-121914819D02*
X145540476Y-121962438D01*
X145540476Y-121962438D02*
X145588095Y-122010057D01*
X145588095Y-122010057D02*
X145635714Y-122105295D01*
X145635714Y-122105295D02*
X145683333Y-122295771D01*
X145683333Y-122295771D02*
X145683333Y-122533866D01*
X145683333Y-122533866D02*
X145635714Y-122724342D01*
X145635714Y-122724342D02*
X145588095Y-122819580D01*
X145588095Y-122819580D02*
X145540476Y-122867200D01*
X145540476Y-122867200D02*
X145445238Y-122914819D01*
X145445238Y-122914819D02*
X145350000Y-122914819D01*
X145350000Y-122914819D02*
X145254762Y-122867200D01*
X145254762Y-122867200D02*
X145207143Y-122819580D01*
X145207143Y-122819580D02*
X145159524Y-122724342D01*
X145159524Y-122724342D02*
X145111905Y-122533866D01*
X145111905Y-122533866D02*
X145111905Y-122295771D01*
X145111905Y-122295771D02*
X145159524Y-122105295D01*
X145159524Y-122105295D02*
X145207143Y-122010057D01*
X145207143Y-122010057D02*
X145254762Y-121962438D01*
X145254762Y-121962438D02*
X145350000Y-121914819D01*
X146302381Y-121914819D02*
X146397619Y-121914819D01*
X146397619Y-121914819D02*
X146492857Y-121962438D01*
X146492857Y-121962438D02*
X146540476Y-122010057D01*
X146540476Y-122010057D02*
X146588095Y-122105295D01*
X146588095Y-122105295D02*
X146635714Y-122295771D01*
X146635714Y-122295771D02*
X146635714Y-122533866D01*
X146635714Y-122533866D02*
X146588095Y-122724342D01*
X146588095Y-122724342D02*
X146540476Y-122819580D01*
X146540476Y-122819580D02*
X146492857Y-122867200D01*
X146492857Y-122867200D02*
X146397619Y-122914819D01*
X146397619Y-122914819D02*
X146302381Y-122914819D01*
X146302381Y-122914819D02*
X146207143Y-122867200D01*
X146207143Y-122867200D02*
X146159524Y-122819580D01*
X146159524Y-122819580D02*
X146111905Y-122724342D01*
X146111905Y-122724342D02*
X146064286Y-122533866D01*
X146064286Y-122533866D02*
X146064286Y-122295771D01*
X146064286Y-122295771D02*
X146111905Y-122105295D01*
X146111905Y-122105295D02*
X146159524Y-122010057D01*
X146159524Y-122010057D02*
X146207143Y-121962438D01*
X146207143Y-121962438D02*
X146302381Y-121914819D01*
X147064286Y-122248152D02*
X147064286Y-122914819D01*
X147064286Y-122343390D02*
X147111905Y-122295771D01*
X147111905Y-122295771D02*
X147207143Y-122248152D01*
X147207143Y-122248152D02*
X147350000Y-122248152D01*
X147350000Y-122248152D02*
X147445238Y-122295771D01*
X147445238Y-122295771D02*
X147492857Y-122391009D01*
X147492857Y-122391009D02*
X147492857Y-122914819D01*
D11*
X145689285Y-121389765D02*
X145677381Y-121401670D01*
X145677381Y-121401670D02*
X145641666Y-121413574D01*
X145641666Y-121413574D02*
X145617857Y-121413574D01*
X145617857Y-121413574D02*
X145582143Y-121401670D01*
X145582143Y-121401670D02*
X145558333Y-121377860D01*
X145558333Y-121377860D02*
X145546428Y-121354050D01*
X145546428Y-121354050D02*
X145534524Y-121306431D01*
X145534524Y-121306431D02*
X145534524Y-121270717D01*
X145534524Y-121270717D02*
X145546428Y-121223098D01*
X145546428Y-121223098D02*
X145558333Y-121199289D01*
X145558333Y-121199289D02*
X145582143Y-121175479D01*
X145582143Y-121175479D02*
X145617857Y-121163574D01*
X145617857Y-121163574D02*
X145641666Y-121163574D01*
X145641666Y-121163574D02*
X145677381Y-121175479D01*
X145677381Y-121175479D02*
X145689285Y-121187384D01*
X145927381Y-121413574D02*
X145784524Y-121413574D01*
X145855952Y-121413574D02*
X145855952Y-121163574D01*
X145855952Y-121163574D02*
X145832143Y-121199289D01*
X145832143Y-121199289D02*
X145808333Y-121223098D01*
X145808333Y-121223098D02*
X145784524Y-121235003D01*
X146165476Y-121413574D02*
X146022619Y-121413574D01*
X146094047Y-121413574D02*
X146094047Y-121163574D01*
X146094047Y-121163574D02*
X146070238Y-121199289D01*
X146070238Y-121199289D02*
X146046428Y-121223098D01*
X146046428Y-121223098D02*
X146022619Y-121235003D01*
D10*
X143844819Y-139519047D02*
X143844819Y-140090475D01*
X143844819Y-139804761D02*
X142844819Y-139804761D01*
X142844819Y-139804761D02*
X142987676Y-139899999D01*
X142987676Y-139899999D02*
X143082914Y-139995237D01*
X143082914Y-139995237D02*
X143130533Y-140090475D01*
X142844819Y-138899999D02*
X142844819Y-138804761D01*
X142844819Y-138804761D02*
X142892438Y-138709523D01*
X142892438Y-138709523D02*
X142940057Y-138661904D01*
X142940057Y-138661904D02*
X143035295Y-138614285D01*
X143035295Y-138614285D02*
X143225771Y-138566666D01*
X143225771Y-138566666D02*
X143463866Y-138566666D01*
X143463866Y-138566666D02*
X143654342Y-138614285D01*
X143654342Y-138614285D02*
X143749580Y-138661904D01*
X143749580Y-138661904D02*
X143797200Y-138709523D01*
X143797200Y-138709523D02*
X143844819Y-138804761D01*
X143844819Y-138804761D02*
X143844819Y-138899999D01*
X143844819Y-138899999D02*
X143797200Y-138995237D01*
X143797200Y-138995237D02*
X143749580Y-139042856D01*
X143749580Y-139042856D02*
X143654342Y-139090475D01*
X143654342Y-139090475D02*
X143463866Y-139138094D01*
X143463866Y-139138094D02*
X143225771Y-139138094D01*
X143225771Y-139138094D02*
X143035295Y-139090475D01*
X143035295Y-139090475D02*
X142940057Y-139042856D01*
X142940057Y-139042856D02*
X142892438Y-138995237D01*
X142892438Y-138995237D02*
X142844819Y-138899999D01*
X142844819Y-137947618D02*
X142844819Y-137852380D01*
X142844819Y-137852380D02*
X142892438Y-137757142D01*
X142892438Y-137757142D02*
X142940057Y-137709523D01*
X142940057Y-137709523D02*
X143035295Y-137661904D01*
X143035295Y-137661904D02*
X143225771Y-137614285D01*
X143225771Y-137614285D02*
X143463866Y-137614285D01*
X143463866Y-137614285D02*
X143654342Y-137661904D01*
X143654342Y-137661904D02*
X143749580Y-137709523D01*
X143749580Y-137709523D02*
X143797200Y-137757142D01*
X143797200Y-137757142D02*
X143844819Y-137852380D01*
X143844819Y-137852380D02*
X143844819Y-137947618D01*
X143844819Y-137947618D02*
X143797200Y-138042856D01*
X143797200Y-138042856D02*
X143749580Y-138090475D01*
X143749580Y-138090475D02*
X143654342Y-138138094D01*
X143654342Y-138138094D02*
X143463866Y-138185713D01*
X143463866Y-138185713D02*
X143225771Y-138185713D01*
X143225771Y-138185713D02*
X143035295Y-138138094D01*
X143035295Y-138138094D02*
X142940057Y-138090475D01*
X142940057Y-138090475D02*
X142892438Y-138042856D01*
X142892438Y-138042856D02*
X142844819Y-137947618D01*
X143178152Y-137185713D02*
X143844819Y-137185713D01*
X143273390Y-137185713D02*
X143225771Y-137138094D01*
X143225771Y-137138094D02*
X143178152Y-137042856D01*
X143178152Y-137042856D02*
X143178152Y-136899999D01*
X143178152Y-136899999D02*
X143225771Y-136804761D01*
X143225771Y-136804761D02*
X143321009Y-136757142D01*
X143321009Y-136757142D02*
X143844819Y-136757142D01*
D11*
X144639765Y-138441666D02*
X144651670Y-138453570D01*
X144651670Y-138453570D02*
X144663574Y-138489285D01*
X144663574Y-138489285D02*
X144663574Y-138513094D01*
X144663574Y-138513094D02*
X144651670Y-138548808D01*
X144651670Y-138548808D02*
X144627860Y-138572618D01*
X144627860Y-138572618D02*
X144604050Y-138584523D01*
X144604050Y-138584523D02*
X144556431Y-138596427D01*
X144556431Y-138596427D02*
X144520717Y-138596427D01*
X144520717Y-138596427D02*
X144473098Y-138584523D01*
X144473098Y-138584523D02*
X144449289Y-138572618D01*
X144449289Y-138572618D02*
X144425479Y-138548808D01*
X144425479Y-138548808D02*
X144413574Y-138513094D01*
X144413574Y-138513094D02*
X144413574Y-138489285D01*
X144413574Y-138489285D02*
X144425479Y-138453570D01*
X144425479Y-138453570D02*
X144437384Y-138441666D01*
X144413574Y-138227380D02*
X144413574Y-138274999D01*
X144413574Y-138274999D02*
X144425479Y-138298808D01*
X144425479Y-138298808D02*
X144437384Y-138310713D01*
X144437384Y-138310713D02*
X144473098Y-138334523D01*
X144473098Y-138334523D02*
X144520717Y-138346427D01*
X144520717Y-138346427D02*
X144615955Y-138346427D01*
X144615955Y-138346427D02*
X144639765Y-138334523D01*
X144639765Y-138334523D02*
X144651670Y-138322618D01*
X144651670Y-138322618D02*
X144663574Y-138298808D01*
X144663574Y-138298808D02*
X144663574Y-138251189D01*
X144663574Y-138251189D02*
X144651670Y-138227380D01*
X144651670Y-138227380D02*
X144639765Y-138215475D01*
X144639765Y-138215475D02*
X144615955Y-138203570D01*
X144615955Y-138203570D02*
X144556431Y-138203570D01*
X144556431Y-138203570D02*
X144532622Y-138215475D01*
X144532622Y-138215475D02*
X144520717Y-138227380D01*
X144520717Y-138227380D02*
X144508812Y-138251189D01*
X144508812Y-138251189D02*
X144508812Y-138298808D01*
X144508812Y-138298808D02*
X144520717Y-138322618D01*
X144520717Y-138322618D02*
X144532622Y-138334523D01*
X144532622Y-138334523D02*
X144556431Y-138346427D01*
D10*
X154307142Y-114314819D02*
X153735714Y-114314819D01*
X154021428Y-114314819D02*
X154021428Y-113314819D01*
X154021428Y-113314819D02*
X153926190Y-113457676D01*
X153926190Y-113457676D02*
X153830952Y-113552914D01*
X153830952Y-113552914D02*
X153735714Y-113600533D01*
X154926190Y-113314819D02*
X155021428Y-113314819D01*
X155021428Y-113314819D02*
X155116666Y-113362438D01*
X155116666Y-113362438D02*
X155164285Y-113410057D01*
X155164285Y-113410057D02*
X155211904Y-113505295D01*
X155211904Y-113505295D02*
X155259523Y-113695771D01*
X155259523Y-113695771D02*
X155259523Y-113933866D01*
X155259523Y-113933866D02*
X155211904Y-114124342D01*
X155211904Y-114124342D02*
X155164285Y-114219580D01*
X155164285Y-114219580D02*
X155116666Y-114267200D01*
X155116666Y-114267200D02*
X155021428Y-114314819D01*
X155021428Y-114314819D02*
X154926190Y-114314819D01*
X154926190Y-114314819D02*
X154830952Y-114267200D01*
X154830952Y-114267200D02*
X154783333Y-114219580D01*
X154783333Y-114219580D02*
X154735714Y-114124342D01*
X154735714Y-114124342D02*
X154688095Y-113933866D01*
X154688095Y-113933866D02*
X154688095Y-113695771D01*
X154688095Y-113695771D02*
X154735714Y-113505295D01*
X154735714Y-113505295D02*
X154783333Y-113410057D01*
X154783333Y-113410057D02*
X154830952Y-113362438D01*
X154830952Y-113362438D02*
X154926190Y-113314819D01*
X156116666Y-113648152D02*
X156116666Y-114314819D01*
X155688095Y-113648152D02*
X155688095Y-114171961D01*
X155688095Y-114171961D02*
X155735714Y-114267200D01*
X155735714Y-114267200D02*
X155830952Y-114314819D01*
X155830952Y-114314819D02*
X155973809Y-114314819D01*
X155973809Y-114314819D02*
X156069047Y-114267200D01*
X156069047Y-114267200D02*
X156116666Y-114219580D01*
D11*
X154789285Y-112789765D02*
X154777381Y-112801670D01*
X154777381Y-112801670D02*
X154741666Y-112813574D01*
X154741666Y-112813574D02*
X154717857Y-112813574D01*
X154717857Y-112813574D02*
X154682143Y-112801670D01*
X154682143Y-112801670D02*
X154658333Y-112777860D01*
X154658333Y-112777860D02*
X154646428Y-112754050D01*
X154646428Y-112754050D02*
X154634524Y-112706431D01*
X154634524Y-112706431D02*
X154634524Y-112670717D01*
X154634524Y-112670717D02*
X154646428Y-112623098D01*
X154646428Y-112623098D02*
X154658333Y-112599289D01*
X154658333Y-112599289D02*
X154682143Y-112575479D01*
X154682143Y-112575479D02*
X154717857Y-112563574D01*
X154717857Y-112563574D02*
X154741666Y-112563574D01*
X154741666Y-112563574D02*
X154777381Y-112575479D01*
X154777381Y-112575479D02*
X154789285Y-112587384D01*
X155027381Y-112813574D02*
X154884524Y-112813574D01*
X154955952Y-112813574D02*
X154955952Y-112563574D01*
X154955952Y-112563574D02*
X154932143Y-112599289D01*
X154932143Y-112599289D02*
X154908333Y-112623098D01*
X154908333Y-112623098D02*
X154884524Y-112635003D01*
X155241666Y-112646908D02*
X155241666Y-112813574D01*
X155182142Y-112551670D02*
X155122619Y-112730241D01*
X155122619Y-112730241D02*
X155277380Y-112730241D01*
D10*
X153287142Y-111514819D02*
X152715714Y-111514819D01*
X153001428Y-111514819D02*
X153001428Y-110514819D01*
X153001428Y-110514819D02*
X152906190Y-110657676D01*
X152906190Y-110657676D02*
X152810952Y-110752914D01*
X152810952Y-110752914D02*
X152715714Y-110800533D01*
X153906190Y-110514819D02*
X154001428Y-110514819D01*
X154001428Y-110514819D02*
X154096666Y-110562438D01*
X154096666Y-110562438D02*
X154144285Y-110610057D01*
X154144285Y-110610057D02*
X154191904Y-110705295D01*
X154191904Y-110705295D02*
X154239523Y-110895771D01*
X154239523Y-110895771D02*
X154239523Y-111133866D01*
X154239523Y-111133866D02*
X154191904Y-111324342D01*
X154191904Y-111324342D02*
X154144285Y-111419580D01*
X154144285Y-111419580D02*
X154096666Y-111467200D01*
X154096666Y-111467200D02*
X154001428Y-111514819D01*
X154001428Y-111514819D02*
X153906190Y-111514819D01*
X153906190Y-111514819D02*
X153810952Y-111467200D01*
X153810952Y-111467200D02*
X153763333Y-111419580D01*
X153763333Y-111419580D02*
X153715714Y-111324342D01*
X153715714Y-111324342D02*
X153668095Y-111133866D01*
X153668095Y-111133866D02*
X153668095Y-110895771D01*
X153668095Y-110895771D02*
X153715714Y-110705295D01*
X153715714Y-110705295D02*
X153763333Y-110610057D01*
X153763333Y-110610057D02*
X153810952Y-110562438D01*
X153810952Y-110562438D02*
X153906190Y-110514819D01*
X155096666Y-110848152D02*
X155096666Y-111514819D01*
X154668095Y-110848152D02*
X154668095Y-111371961D01*
X154668095Y-111371961D02*
X154715714Y-111467200D01*
X154715714Y-111467200D02*
X154810952Y-111514819D01*
X154810952Y-111514819D02*
X154953809Y-111514819D01*
X154953809Y-111514819D02*
X155049047Y-111467200D01*
X155049047Y-111467200D02*
X155096666Y-111419580D01*
D11*
X153888333Y-109989765D02*
X153876429Y-110001670D01*
X153876429Y-110001670D02*
X153840714Y-110013574D01*
X153840714Y-110013574D02*
X153816905Y-110013574D01*
X153816905Y-110013574D02*
X153781191Y-110001670D01*
X153781191Y-110001670D02*
X153757381Y-109977860D01*
X153757381Y-109977860D02*
X153745476Y-109954050D01*
X153745476Y-109954050D02*
X153733572Y-109906431D01*
X153733572Y-109906431D02*
X153733572Y-109870717D01*
X153733572Y-109870717D02*
X153745476Y-109823098D01*
X153745476Y-109823098D02*
X153757381Y-109799289D01*
X153757381Y-109799289D02*
X153781191Y-109775479D01*
X153781191Y-109775479D02*
X153816905Y-109763574D01*
X153816905Y-109763574D02*
X153840714Y-109763574D01*
X153840714Y-109763574D02*
X153876429Y-109775479D01*
X153876429Y-109775479D02*
X153888333Y-109787384D01*
X154102619Y-109846908D02*
X154102619Y-110013574D01*
X154043095Y-109751670D02*
X153983572Y-109930241D01*
X153983572Y-109930241D02*
X154138333Y-109930241D01*
D10*
X144254761Y-117884819D02*
X143683333Y-117884819D01*
X143969047Y-117884819D02*
X143969047Y-116884819D01*
X143969047Y-116884819D02*
X143873809Y-117027676D01*
X143873809Y-117027676D02*
X143778571Y-117122914D01*
X143778571Y-117122914D02*
X143683333Y-117170533D01*
X144873809Y-116884819D02*
X144969047Y-116884819D01*
X144969047Y-116884819D02*
X145064285Y-116932438D01*
X145064285Y-116932438D02*
X145111904Y-116980057D01*
X145111904Y-116980057D02*
X145159523Y-117075295D01*
X145159523Y-117075295D02*
X145207142Y-117265771D01*
X145207142Y-117265771D02*
X145207142Y-117503866D01*
X145207142Y-117503866D02*
X145159523Y-117694342D01*
X145159523Y-117694342D02*
X145111904Y-117789580D01*
X145111904Y-117789580D02*
X145064285Y-117837200D01*
X145064285Y-117837200D02*
X144969047Y-117884819D01*
X144969047Y-117884819D02*
X144873809Y-117884819D01*
X144873809Y-117884819D02*
X144778571Y-117837200D01*
X144778571Y-117837200D02*
X144730952Y-117789580D01*
X144730952Y-117789580D02*
X144683333Y-117694342D01*
X144683333Y-117694342D02*
X144635714Y-117503866D01*
X144635714Y-117503866D02*
X144635714Y-117265771D01*
X144635714Y-117265771D02*
X144683333Y-117075295D01*
X144683333Y-117075295D02*
X144730952Y-116980057D01*
X144730952Y-116980057D02*
X144778571Y-116932438D01*
X144778571Y-116932438D02*
X144873809Y-116884819D01*
X145635714Y-117884819D02*
X145635714Y-116884819D01*
X145730952Y-117503866D02*
X146016666Y-117884819D01*
X146016666Y-117218152D02*
X145635714Y-117599104D01*
D11*
X144806667Y-118718200D02*
X144720000Y-118594391D01*
X144658095Y-118718200D02*
X144658095Y-118458200D01*
X144658095Y-118458200D02*
X144757143Y-118458200D01*
X144757143Y-118458200D02*
X144781905Y-118470581D01*
X144781905Y-118470581D02*
X144794286Y-118482962D01*
X144794286Y-118482962D02*
X144806667Y-118507724D01*
X144806667Y-118507724D02*
X144806667Y-118544867D01*
X144806667Y-118544867D02*
X144794286Y-118569629D01*
X144794286Y-118569629D02*
X144781905Y-118582010D01*
X144781905Y-118582010D02*
X144757143Y-118594391D01*
X144757143Y-118594391D02*
X144658095Y-118594391D01*
X145029524Y-118458200D02*
X144980000Y-118458200D01*
X144980000Y-118458200D02*
X144955238Y-118470581D01*
X144955238Y-118470581D02*
X144942857Y-118482962D01*
X144942857Y-118482962D02*
X144918095Y-118520105D01*
X144918095Y-118520105D02*
X144905714Y-118569629D01*
X144905714Y-118569629D02*
X144905714Y-118668677D01*
X144905714Y-118668677D02*
X144918095Y-118693439D01*
X144918095Y-118693439D02*
X144930476Y-118705820D01*
X144930476Y-118705820D02*
X144955238Y-118718200D01*
X144955238Y-118718200D02*
X145004762Y-118718200D01*
X145004762Y-118718200D02*
X145029524Y-118705820D01*
X145029524Y-118705820D02*
X145041905Y-118693439D01*
X145041905Y-118693439D02*
X145054286Y-118668677D01*
X145054286Y-118668677D02*
X145054286Y-118606772D01*
X145054286Y-118606772D02*
X145041905Y-118582010D01*
X145041905Y-118582010D02*
X145029524Y-118569629D01*
X145029524Y-118569629D02*
X145004762Y-118557248D01*
X145004762Y-118557248D02*
X144955238Y-118557248D01*
X144955238Y-118557248D02*
X144930476Y-118569629D01*
X144930476Y-118569629D02*
X144918095Y-118582010D01*
X144918095Y-118582010D02*
X144905714Y-118606772D01*
D10*
X153685714Y-121010057D02*
X153733333Y-120962438D01*
X153733333Y-120962438D02*
X153828571Y-120914819D01*
X153828571Y-120914819D02*
X154066666Y-120914819D01*
X154066666Y-120914819D02*
X154161904Y-120962438D01*
X154161904Y-120962438D02*
X154209523Y-121010057D01*
X154209523Y-121010057D02*
X154257142Y-121105295D01*
X154257142Y-121105295D02*
X154257142Y-121200533D01*
X154257142Y-121200533D02*
X154209523Y-121343390D01*
X154209523Y-121343390D02*
X153638095Y-121914819D01*
X153638095Y-121914819D02*
X154257142Y-121914819D01*
X155114285Y-121248152D02*
X155114285Y-121914819D01*
X154685714Y-121248152D02*
X154685714Y-121771961D01*
X154685714Y-121771961D02*
X154733333Y-121867200D01*
X154733333Y-121867200D02*
X154828571Y-121914819D01*
X154828571Y-121914819D02*
X154971428Y-121914819D01*
X154971428Y-121914819D02*
X155066666Y-121867200D01*
X155066666Y-121867200D02*
X155114285Y-121819580D01*
X155542857Y-121010057D02*
X155590476Y-120962438D01*
X155590476Y-120962438D02*
X155685714Y-120914819D01*
X155685714Y-120914819D02*
X155923809Y-120914819D01*
X155923809Y-120914819D02*
X156019047Y-120962438D01*
X156019047Y-120962438D02*
X156066666Y-121010057D01*
X156066666Y-121010057D02*
X156114285Y-121105295D01*
X156114285Y-121105295D02*
X156114285Y-121200533D01*
X156114285Y-121200533D02*
X156066666Y-121343390D01*
X156066666Y-121343390D02*
X155495238Y-121914819D01*
X155495238Y-121914819D02*
X156114285Y-121914819D01*
D11*
X154739285Y-120389765D02*
X154727381Y-120401670D01*
X154727381Y-120401670D02*
X154691666Y-120413574D01*
X154691666Y-120413574D02*
X154667857Y-120413574D01*
X154667857Y-120413574D02*
X154632143Y-120401670D01*
X154632143Y-120401670D02*
X154608333Y-120377860D01*
X154608333Y-120377860D02*
X154596428Y-120354050D01*
X154596428Y-120354050D02*
X154584524Y-120306431D01*
X154584524Y-120306431D02*
X154584524Y-120270717D01*
X154584524Y-120270717D02*
X154596428Y-120223098D01*
X154596428Y-120223098D02*
X154608333Y-120199289D01*
X154608333Y-120199289D02*
X154632143Y-120175479D01*
X154632143Y-120175479D02*
X154667857Y-120163574D01*
X154667857Y-120163574D02*
X154691666Y-120163574D01*
X154691666Y-120163574D02*
X154727381Y-120175479D01*
X154727381Y-120175479D02*
X154739285Y-120187384D01*
X154977381Y-120413574D02*
X154834524Y-120413574D01*
X154905952Y-120413574D02*
X154905952Y-120163574D01*
X154905952Y-120163574D02*
X154882143Y-120199289D01*
X154882143Y-120199289D02*
X154858333Y-120223098D01*
X154858333Y-120223098D02*
X154834524Y-120235003D01*
X155072619Y-120187384D02*
X155084523Y-120175479D01*
X155084523Y-120175479D02*
X155108333Y-120163574D01*
X155108333Y-120163574D02*
X155167857Y-120163574D01*
X155167857Y-120163574D02*
X155191666Y-120175479D01*
X155191666Y-120175479D02*
X155203571Y-120187384D01*
X155203571Y-120187384D02*
X155215476Y-120211193D01*
X155215476Y-120211193D02*
X155215476Y-120235003D01*
X155215476Y-120235003D02*
X155203571Y-120270717D01*
X155203571Y-120270717D02*
X155060714Y-120413574D01*
X155060714Y-120413574D02*
X155215476Y-120413574D01*
D10*
X144030952Y-115994819D02*
X143459524Y-115994819D01*
X143745238Y-115994819D02*
X143745238Y-114994819D01*
X143745238Y-114994819D02*
X143650000Y-115137676D01*
X143650000Y-115137676D02*
X143554762Y-115232914D01*
X143554762Y-115232914D02*
X143459524Y-115280533D01*
X144650000Y-114994819D02*
X144745238Y-114994819D01*
X144745238Y-114994819D02*
X144840476Y-115042438D01*
X144840476Y-115042438D02*
X144888095Y-115090057D01*
X144888095Y-115090057D02*
X144935714Y-115185295D01*
X144935714Y-115185295D02*
X144983333Y-115375771D01*
X144983333Y-115375771D02*
X144983333Y-115613866D01*
X144983333Y-115613866D02*
X144935714Y-115804342D01*
X144935714Y-115804342D02*
X144888095Y-115899580D01*
X144888095Y-115899580D02*
X144840476Y-115947200D01*
X144840476Y-115947200D02*
X144745238Y-115994819D01*
X144745238Y-115994819D02*
X144650000Y-115994819D01*
X144650000Y-115994819D02*
X144554762Y-115947200D01*
X144554762Y-115947200D02*
X144507143Y-115899580D01*
X144507143Y-115899580D02*
X144459524Y-115804342D01*
X144459524Y-115804342D02*
X144411905Y-115613866D01*
X144411905Y-115613866D02*
X144411905Y-115375771D01*
X144411905Y-115375771D02*
X144459524Y-115185295D01*
X144459524Y-115185295D02*
X144507143Y-115090057D01*
X144507143Y-115090057D02*
X144554762Y-115042438D01*
X144554762Y-115042438D02*
X144650000Y-114994819D01*
X145602381Y-114994819D02*
X145697619Y-114994819D01*
X145697619Y-114994819D02*
X145792857Y-115042438D01*
X145792857Y-115042438D02*
X145840476Y-115090057D01*
X145840476Y-115090057D02*
X145888095Y-115185295D01*
X145888095Y-115185295D02*
X145935714Y-115375771D01*
X145935714Y-115375771D02*
X145935714Y-115613866D01*
X145935714Y-115613866D02*
X145888095Y-115804342D01*
X145888095Y-115804342D02*
X145840476Y-115899580D01*
X145840476Y-115899580D02*
X145792857Y-115947200D01*
X145792857Y-115947200D02*
X145697619Y-115994819D01*
X145697619Y-115994819D02*
X145602381Y-115994819D01*
X145602381Y-115994819D02*
X145507143Y-115947200D01*
X145507143Y-115947200D02*
X145459524Y-115899580D01*
X145459524Y-115899580D02*
X145411905Y-115804342D01*
X145411905Y-115804342D02*
X145364286Y-115613866D01*
X145364286Y-115613866D02*
X145364286Y-115375771D01*
X145364286Y-115375771D02*
X145411905Y-115185295D01*
X145411905Y-115185295D02*
X145459524Y-115090057D01*
X145459524Y-115090057D02*
X145507143Y-115042438D01*
X145507143Y-115042438D02*
X145602381Y-114994819D01*
X146364286Y-115328152D02*
X146364286Y-115994819D01*
X146364286Y-115423390D02*
X146411905Y-115375771D01*
X146411905Y-115375771D02*
X146507143Y-115328152D01*
X146507143Y-115328152D02*
X146650000Y-115328152D01*
X146650000Y-115328152D02*
X146745238Y-115375771D01*
X146745238Y-115375771D02*
X146792857Y-115471009D01*
X146792857Y-115471009D02*
X146792857Y-115994819D01*
D11*
X145108333Y-116789765D02*
X145096429Y-116801670D01*
X145096429Y-116801670D02*
X145060714Y-116813574D01*
X145060714Y-116813574D02*
X145036905Y-116813574D01*
X145036905Y-116813574D02*
X145001191Y-116801670D01*
X145001191Y-116801670D02*
X144977381Y-116777860D01*
X144977381Y-116777860D02*
X144965476Y-116754050D01*
X144965476Y-116754050D02*
X144953572Y-116706431D01*
X144953572Y-116706431D02*
X144953572Y-116670717D01*
X144953572Y-116670717D02*
X144965476Y-116623098D01*
X144965476Y-116623098D02*
X144977381Y-116599289D01*
X144977381Y-116599289D02*
X145001191Y-116575479D01*
X145001191Y-116575479D02*
X145036905Y-116563574D01*
X145036905Y-116563574D02*
X145060714Y-116563574D01*
X145060714Y-116563574D02*
X145096429Y-116575479D01*
X145096429Y-116575479D02*
X145108333Y-116587384D01*
X145191667Y-116563574D02*
X145346429Y-116563574D01*
X145346429Y-116563574D02*
X145263095Y-116658812D01*
X145263095Y-116658812D02*
X145298810Y-116658812D01*
X145298810Y-116658812D02*
X145322619Y-116670717D01*
X145322619Y-116670717D02*
X145334524Y-116682622D01*
X145334524Y-116682622D02*
X145346429Y-116706431D01*
X145346429Y-116706431D02*
X145346429Y-116765955D01*
X145346429Y-116765955D02*
X145334524Y-116789765D01*
X145334524Y-116789765D02*
X145322619Y-116801670D01*
X145322619Y-116801670D02*
X145298810Y-116813574D01*
X145298810Y-116813574D02*
X145227381Y-116813574D01*
X145227381Y-116813574D02*
X145203572Y-116801670D01*
X145203572Y-116801670D02*
X145191667Y-116789765D01*
%TO.C,C5*%
D13*
X154500000Y-110600000D02*
X155500000Y-110600000D01*
X155500000Y-111100000D01*
X154500000Y-111100000D01*
X154500000Y-110600000D01*
%TO.C,SW2*%
X147100000Y-129050000D02*
X147100000Y-135050000D01*
X147100000Y-135050000D02*
X153100000Y-135050000D01*
X153100000Y-129050000D02*
X147100000Y-129050000D01*
X153100000Y-135050000D02*
X153100000Y-129050000D01*
X151850000Y-132050000D02*
G75*
G02*
X148350000Y-132050000I-1750000J0D01*
G01*
X148350000Y-132050000D02*
G75*
G02*
X151850000Y-132050000I1750000J0D01*
G01*
%TO.C,C9*%
X155400000Y-137330000D02*
X155900000Y-137330000D01*
X155900000Y-138330000D01*
X155400000Y-138330000D01*
X155400000Y-137330000D01*
%TO.C,SW3*%
X147100000Y-135850000D02*
X147100000Y-141850000D01*
X147100000Y-141850000D02*
X153100000Y-141850000D01*
X153100000Y-135850000D02*
X147100000Y-135850000D01*
X153100000Y-141850000D02*
X153100000Y-135850000D01*
X151850000Y-138850000D02*
G75*
G02*
X148350000Y-138850000I-1750000J0D01*
G01*
X148350000Y-138850000D02*
G75*
G02*
X151850000Y-138850000I1750000J0D01*
G01*
%TO.C,R4*%
X147280000Y-109875000D02*
X147820000Y-109875000D01*
X147820000Y-110925000D01*
X147280000Y-110925000D01*
X147280000Y-109875000D01*
%TO.C,R9*%
X155025000Y-119080000D02*
X156075000Y-119080000D01*
X156075000Y-119620000D01*
X155025000Y-119620000D01*
X155025000Y-119080000D01*
%TO.C,C7*%
X145650000Y-111200000D02*
X146650000Y-111200000D01*
X146650000Y-111700000D01*
X145650000Y-111700000D01*
X145650000Y-111200000D01*
%TO.C,R8*%
X144575000Y-117380000D02*
X145625000Y-117380000D01*
X145625000Y-117920000D01*
X144575000Y-117920000D01*
X144575000Y-117380000D01*
%TO.C,R11*%
X148230000Y-110375000D02*
X148770000Y-110375000D01*
X148770000Y-111425000D01*
X148230000Y-111425000D01*
X148230000Y-110375000D01*
%TO.C,U1*%
X147700000Y-112812500D02*
X153700000Y-112812500D01*
X153700000Y-119812500D01*
X146700000Y-119812500D01*
X146700000Y-113812500D01*
X147700000Y-112812500D01*
%TO.C,R2*%
X149180000Y-110375000D02*
X149720000Y-110375000D01*
X149720000Y-111425000D01*
X149180000Y-111425000D01*
X149180000Y-110375000D01*
%TO.C,C13*%
X155700000Y-121200000D02*
X156200000Y-121200000D01*
X156200000Y-122200000D01*
X155700000Y-122200000D01*
X155700000Y-121200000D01*
%TO.C,LED1*%
X144750000Y-109800000D02*
X144750000Y-110600000D01*
X144750000Y-110600000D02*
X146050000Y-110600000D01*
X146050000Y-110600000D02*
X146350000Y-110300000D01*
X146350000Y-109800000D02*
X144750000Y-109800000D01*
X146350000Y-110300000D02*
X146350000Y-109800000D01*
%TO.C,C10*%
X144300000Y-123330000D02*
X144800000Y-123330000D01*
X144800000Y-124330000D01*
X144300000Y-124330000D01*
X144300000Y-123330000D01*
%TO.C,R10*%
X155025000Y-117730000D02*
X156075000Y-117730000D01*
X156075000Y-118270000D01*
X155025000Y-118270000D01*
X155025000Y-117730000D01*
%TO.C,J1*%
X145580000Y-100995000D02*
X154520000Y-100995000D01*
X154520000Y-108345000D01*
X145580000Y-108345000D01*
X145580000Y-100995000D01*
%TO.C,R3*%
X150475000Y-109630000D02*
X151525000Y-109630000D01*
X151525000Y-110170000D01*
X150475000Y-110170000D01*
X150475000Y-109630000D01*
%TO.C,SW1*%
X147100000Y-122200000D02*
X147100000Y-128200000D01*
X147100000Y-128200000D02*
X153100000Y-128200000D01*
X153100000Y-122200000D02*
X147100000Y-122200000D01*
X153100000Y-128200000D02*
X153100000Y-122200000D01*
X151850000Y-125200000D02*
G75*
G02*
X148350000Y-125200000I-1750000J0D01*
G01*
X148350000Y-125200000D02*
G75*
G02*
X151850000Y-125200000I1750000J0D01*
G01*
%TO.C,R5*%
X144575000Y-113530000D02*
X145625000Y-113530000D01*
X145625000Y-114070000D01*
X144575000Y-114070000D01*
X144575000Y-113530000D01*
%TO.C,C11*%
X145350000Y-121050000D02*
X146350000Y-121050000D01*
X146350000Y-121550000D01*
X145350000Y-121550000D01*
X145350000Y-121050000D01*
%TO.C,C6*%
X144300000Y-137900000D02*
X144800000Y-137900000D01*
X144800000Y-138900000D01*
X144300000Y-138900000D01*
X144300000Y-137900000D01*
%TO.C,C14*%
X154450000Y-112450000D02*
X155450000Y-112450000D01*
X155450000Y-112950000D01*
X154450000Y-112950000D01*
X154450000Y-112450000D01*
%TO.C,C4*%
X153430000Y-109650000D02*
X154430000Y-109650000D01*
X154430000Y-110150000D01*
X153430000Y-110150000D01*
X153430000Y-109650000D01*
%TO.C,R6*%
X144325000Y-118330000D02*
X145375000Y-118330000D01*
X145375000Y-118870000D01*
X144325000Y-118870000D01*
X144325000Y-118330000D01*
%TO.C,C12*%
X154400000Y-120050000D02*
X155400000Y-120050000D01*
X155400000Y-120550000D01*
X154400000Y-120550000D01*
X154400000Y-120050000D01*
%TO.C,C3*%
X144650000Y-116450000D02*
X145650000Y-116450000D01*
X145650000Y-116950000D01*
X144650000Y-116950000D01*
X144650000Y-116450000D01*
%TD*%
M02*
