%TF.GenerationSoftware,KiCad,Pcbnew,10.0.4*%
%TF.CreationDate,2026-09-18T16:54:36-04:00*%
%TF.ProjectId,devboard,64657662-6f61-4726-942e-6b696361645f,rev?*%
%TF.SameCoordinates,Original*%
%TF.FileFunction,Paste,Top*%
%TF.FilePolarity,Positive*%
%FSLAX46Y46*%
G04 Gerber Fmt 4.6, Leading zero omitted, Abs format (unit mm)*
G04 Created by KiCad (PCBNEW 10.0.4) date 2026-09-18 16:54:36*
%MOMM*%
%LPD*%
G01*
G04 APERTURE LIST*
G04 Aperture macros list*
%AMRoundRect*
0 Rectangle with rounded corners*
0 $1 Rounding radius*
0 $2 $3 $4 $5 $6 $7 $8 $9 X,Y pos of 4 corners*
0 Add a 4 corners polygon primitive as box body*
4,1,4,$2,$3,$4,$5,$6,$7,$8,$9,$2,$3,0*
0 Add four circle primitives for the rounded corners*
1,1,$1+$1,$2,$3*
1,1,$1+$1,$4,$5*
1,1,$1+$1,$6,$7*
1,1,$1+$1,$8,$9*
0 Add four rect primitives between the rounded corners*
20,1,$1+$1,$2,$3,$4,$5,0*
20,1,$1+$1,$4,$5,$6,$7,0*
20,1,$1+$1,$6,$7,$8,$9,0*
20,1,$1+$1,$8,$9,$2,$3,0*%
G04 Aperture macros list end*
%ADD10RoundRect,0.140000X-0.140000X-0.170000X0.140000X-0.170000X0.140000X0.170000X-0.140000X0.170000X0*%
%ADD11RoundRect,0.250000X-0.525000X-0.400000X0.525000X-0.400000X0.525000X0.400000X-0.525000X0.400000X0*%
%ADD12RoundRect,0.140000X-0.170000X0.140000X-0.170000X-0.140000X0.170000X-0.140000X0.170000X0.140000X0*%
%ADD13RoundRect,0.135000X-0.185000X0.135000X-0.185000X-0.135000X0.185000X-0.135000X0.185000X0.135000X0*%
%ADD14RoundRect,0.135000X-0.135000X-0.185000X0.135000X-0.185000X0.135000X0.185000X-0.135000X0.185000X0*%
%ADD15RoundRect,0.135000X0.185000X-0.135000X0.185000X0.135000X-0.185000X0.135000X-0.185000X-0.135000X0*%
%ADD16RoundRect,0.250000X-0.270000X-0.270000X0.270000X-0.270000X0.270000X0.270000X-0.270000X0.270000X0*%
%ADD17RoundRect,0.062500X-0.375000X-0.062500X0.375000X-0.062500X0.375000X0.062500X-0.375000X0.062500X0*%
%ADD18RoundRect,0.062500X-0.062500X-0.375000X0.062500X-0.375000X0.062500X0.375000X-0.062500X0.375000X0*%
%ADD19RoundRect,0.140000X0.170000X-0.140000X0.170000X0.140000X-0.170000X0.140000X-0.170000X-0.140000X0*%
%ADD20RoundRect,0.218750X0.218750X0.256250X-0.218750X0.256250X-0.218750X-0.256250X0.218750X-0.256250X0*%
%ADD21RoundRect,0.150000X0.150000X0.425000X-0.150000X0.425000X-0.150000X-0.425000X0.150000X-0.425000X0*%
%ADD22RoundRect,0.075000X0.075000X0.500000X-0.075000X0.500000X-0.075000X-0.500000X0.075000X-0.500000X0*%
%ADD23O,1.000000X2.100000*%
%ADD24O,1.000000X1.800000*%
%ADD25RoundRect,0.135000X0.135000X0.185000X-0.135000X0.185000X-0.135000X-0.185000X0.135000X-0.185000X0*%
%ADD26RoundRect,0.140000X0.140000X0.170000X-0.140000X0.170000X-0.140000X-0.170000X0.140000X-0.170000X0*%
G04 APERTURE END LIST*
D10*
%TO.C,C5*%
X154520000Y-110850000D03*
X155480000Y-110850000D03*
%TD*%
D11*
%TO.C,SW2*%
X146120000Y-129800000D03*
X154080000Y-129800000D03*
X146120000Y-134300000D03*
X154080000Y-134300000D03*
%TD*%
D12*
%TO.C,C9*%
X155650000Y-137350000D03*
X155650000Y-138310000D03*
%TD*%
D11*
%TO.C,SW3*%
X146120000Y-136600000D03*
X154080000Y-136600000D03*
X146120000Y-141100000D03*
X154080000Y-141100000D03*
%TD*%
D13*
%TO.C,R4*%
X147550000Y-109890000D03*
X147550000Y-110910000D03*
%TD*%
D14*
%TO.C,R9*%
X155040000Y-119350000D03*
X156060000Y-119350000D03*
%TD*%
D10*
%TO.C,C7*%
X145670000Y-111450000D03*
X146630000Y-111450000D03*
%TD*%
D14*
%TO.C,R8*%
X144590000Y-117650000D03*
X145610000Y-117650000D03*
%TD*%
D15*
%TO.C,R11*%
X148500000Y-111410000D03*
X148500000Y-110390000D03*
%TD*%
D16*
%TO.C,U1*%
X148265000Y-114377500D03*
X148265000Y-115667500D03*
X148265000Y-116957500D03*
X148265000Y-118247500D03*
X149555000Y-114377500D03*
X149555000Y-115667500D03*
X149555000Y-116957500D03*
X149555000Y-118247500D03*
X150845000Y-114377500D03*
X150845000Y-115667500D03*
X150845000Y-116957500D03*
X150845000Y-118247500D03*
X152135000Y-114377500D03*
X152135000Y-115667500D03*
X152135000Y-116957500D03*
X152135000Y-118247500D03*
D17*
X146762500Y-113562500D03*
X146762500Y-114062500D03*
X146762500Y-114562500D03*
X146762500Y-115062500D03*
X146762500Y-115562500D03*
X146762500Y-116062500D03*
X146762500Y-116562500D03*
X146762500Y-117062500D03*
X146762500Y-117562500D03*
X146762500Y-118062500D03*
X146762500Y-118562500D03*
X146762500Y-119062500D03*
D18*
X147450000Y-119750000D03*
X147950000Y-119750000D03*
X148450000Y-119750000D03*
X148950000Y-119750000D03*
X149450000Y-119750000D03*
X149950000Y-119750000D03*
X150450000Y-119750000D03*
X150950000Y-119750000D03*
X151450000Y-119750000D03*
X151950000Y-119750000D03*
X152450000Y-119750000D03*
X152950000Y-119750000D03*
D17*
X153637500Y-119062500D03*
X153637500Y-118562500D03*
X153637500Y-118062500D03*
X153637500Y-117562500D03*
X153637500Y-117062500D03*
X153637500Y-116562500D03*
X153637500Y-116062500D03*
X153637500Y-115562500D03*
X153637500Y-115062500D03*
X153637500Y-114562500D03*
X153637500Y-114062500D03*
X153637500Y-113562500D03*
D18*
X152950000Y-112875000D03*
X152450000Y-112875000D03*
X151950000Y-112875000D03*
X151450000Y-112875000D03*
X150950000Y-112875000D03*
X150450000Y-112875000D03*
X149950000Y-112875000D03*
X149450000Y-112875000D03*
X148950000Y-112875000D03*
X148450000Y-112875000D03*
X147950000Y-112875000D03*
X147450000Y-112875000D03*
%TD*%
D15*
%TO.C,R2*%
X149450000Y-111410000D03*
X149450000Y-110390000D03*
%TD*%
D19*
%TO.C,C13*%
X155950000Y-122180000D03*
X155950000Y-121220000D03*
%TD*%
D20*
%TO.C,LED1*%
X146337500Y-110200000D03*
X144762500Y-110200000D03*
%TD*%
D12*
%TO.C,C10*%
X144550000Y-123350000D03*
X144550000Y-124310000D03*
%TD*%
D14*
%TO.C,R10*%
X155040000Y-118000000D03*
X156060000Y-118000000D03*
%TD*%
D21*
%TO.C,J1*%
X153250000Y-108350000D03*
X152450000Y-108350000D03*
D22*
X151300000Y-108350000D03*
X150300000Y-108350000D03*
X149800000Y-108350000D03*
X148800000Y-108350000D03*
D21*
X147650000Y-108350000D03*
X146850000Y-108350000D03*
X146850000Y-108350000D03*
X147650000Y-108350000D03*
D22*
X148300000Y-108350000D03*
X149300000Y-108350000D03*
X150800000Y-108350000D03*
X151800000Y-108350000D03*
D21*
X152450000Y-108350000D03*
X153250000Y-108350000D03*
D23*
X154370000Y-107775000D03*
D24*
X154370000Y-103595000D03*
D23*
X145730000Y-107775000D03*
D24*
X145730000Y-103595000D03*
%TD*%
D25*
%TO.C,R3*%
X151510000Y-109900000D03*
X150490000Y-109900000D03*
%TD*%
D11*
%TO.C,SW1*%
X146120000Y-122950000D03*
X154080000Y-122950000D03*
X146120000Y-127450000D03*
X154080000Y-127450000D03*
%TD*%
D25*
%TO.C,R5*%
X145610000Y-113800000D03*
X144590000Y-113800000D03*
%TD*%
D10*
%TO.C,C11*%
X145370000Y-121300000D03*
X146330000Y-121300000D03*
%TD*%
D12*
%TO.C,C6*%
X144550000Y-137920000D03*
X144550000Y-138880000D03*
%TD*%
D10*
%TO.C,C14*%
X154470000Y-112700000D03*
X155430000Y-112700000D03*
%TD*%
%TO.C,C4*%
X153450000Y-109900000D03*
X154410000Y-109900000D03*
%TD*%
D25*
%TO.C,R6*%
X145360000Y-118600000D03*
X144340000Y-118600000D03*
%TD*%
D10*
%TO.C,C12*%
X154420000Y-120300000D03*
X155380000Y-120300000D03*
%TD*%
D26*
%TO.C,C3*%
X145630000Y-116700000D03*
X144670000Y-116700000D03*
%TD*%
M02*
