%TF.GenerationSoftware,KiCad,Pcbnew,10.0.4*%
%TF.CreationDate,2026-09-15T18:50:24-04:00*%
%TF.ProjectId,devboard,64657662-6f61-4726-942e-6b696361645f,rev?*%
%TF.SameCoordinates,Original*%
%TF.FileFunction,Copper,L2,Inr*%
%TF.FilePolarity,Positive*%
%FSLAX46Y46*%
G04 Gerber Fmt 4.6, Leading zero omitted, Abs format (unit mm)*
G04 Created by KiCad (PCBNEW 10.0.4) date 2026-09-15 18:50:24*
%MOMM*%
%LPD*%
G01*
G04 APERTURE LIST*
%TA.AperFunction,ComponentPad*%
%ADD10O,1.000000X2.100000*%
%TD*%
%TA.AperFunction,ComponentPad*%
%ADD11O,1.000000X1.800000*%
%TD*%
%TA.AperFunction,ComponentPad*%
%ADD12R,1.700000X1.700000*%
%TD*%
%TA.AperFunction,ComponentPad*%
%ADD13C,1.700000*%
%TD*%
%TA.AperFunction,ViaPad*%
%ADD14C,0.600000*%
%TD*%
%TA.AperFunction,Conductor*%
%ADD15C,0.200000*%
%TD*%
G04 APERTURE END LIST*
D10*
%TO.N,GND*%
%TO.C,J1*%
X154370000Y-107775000D03*
D11*
X154370000Y-103595000D03*
D10*
X145730000Y-107775000D03*
D11*
X145730000Y-103595000D03*
%TD*%
D12*
%TO.N,PA10*%
%TO.C,J5*%
X160050000Y-122850000D03*
D13*
%TO.N,PA15*%
X160050000Y-125390000D03*
%TO.N,PB0*%
X160050000Y-127930000D03*
%TO.N,PB1*%
X160050000Y-130470000D03*
%TO.N,PB2*%
X160050000Y-133010000D03*
%TO.N,PB3*%
X160050000Y-135550000D03*
%TO.N,PB4*%
X160050000Y-138090000D03*
%TO.N,PB5*%
X160050000Y-140630000D03*
%TD*%
D12*
%TO.N,3v3*%
%TO.C,J7*%
X139750000Y-99990000D03*
D13*
%TO.N,SWDIO*%
X139750000Y-102530000D03*
%TO.N,SWCLK*%
X139750000Y-105070000D03*
%TO.N,GND*%
X139750000Y-107610000D03*
%TO.N,NRST*%
X139750000Y-110150000D03*
%TO.N,VBUS*%
X139750000Y-112690000D03*
%TO.N,BOOT0_NET*%
X139750000Y-115230000D03*
%TO.N,USER_BTN*%
X139750000Y-117770000D03*
%TD*%
D12*
%TO.N,PA1*%
%TO.C,J4*%
X139750000Y-122850000D03*
D13*
%TO.N,PA2*%
X139750000Y-125390000D03*
%TO.N,PA3*%
X139750000Y-127930000D03*
%TO.N,PA4*%
X139750000Y-130470000D03*
%TO.N,PA5*%
X139750000Y-133010000D03*
%TO.N,PA6*%
X139750000Y-135550000D03*
%TO.N,PA7*%
X139750000Y-138090000D03*
%TO.N,PA8*%
X139750000Y-140630000D03*
%TD*%
D12*
%TO.N,PB6*%
%TO.C,J6*%
X160050000Y-99990000D03*
D13*
%TO.N,PB7*%
X160050000Y-102530000D03*
%TO.N,PB9*%
X160050000Y-105070000D03*
%TO.N,PB10*%
X160050000Y-107610000D03*
%TO.N,PC14*%
X160050000Y-110150000D03*
%TO.N,PC15*%
X160050000Y-112690000D03*
%TO.N,3v3*%
X160050000Y-115230000D03*
%TO.N,GND*%
X160050000Y-117770000D03*
%TD*%
D14*
%TO.N,VBUS*%
X144700000Y-109125000D03*
X154650000Y-113550000D03*
%TO.N,GND*%
X144150000Y-116600000D03*
X147400000Y-121987554D03*
X149725000Y-110625000D03*
X146950000Y-110675000D03*
X147950000Y-113750000D03*
X152300000Y-127250000D03*
X155850000Y-141000000D03*
X149050000Y-101900000D03*
X155825000Y-131175000D03*
X147550000Y-117062500D03*
X150800000Y-114800000D03*
X155125000Y-120825000D03*
X152650000Y-102950000D03*
X150800000Y-118187500D03*
X146900000Y-102750000D03*
X144000000Y-118500000D03*
X155725000Y-113425000D03*
X144150000Y-139750000D03*
X145075000Y-125175000D03*
%TO.N,3v3*%
X142000000Y-110350000D03*
X153100000Y-130100000D03*
X156500000Y-117950000D03*
X150450000Y-101800000D03*
X146950000Y-113050000D03*
X150450000Y-124350000D03*
X153637500Y-113237500D03*
X145550000Y-111900000D03*
X153200000Y-119750000D03*
X143900000Y-123650000D03*
X156500000Y-119350000D03*
X154950000Y-121800000D03*
X143700000Y-137050000D03*
X145250000Y-130600000D03*
X148630000Y-110293297D03*
X157200000Y-126000000D03*
X147700000Y-123550000D03*
X157350000Y-120950000D03*
X143548481Y-117839595D03*
%TO.N,BOOT0_NET*%
X149450000Y-111410000D03*
%TO.N,USER_BTN*%
X144800000Y-136600000D03*
X145360000Y-118600000D03*
%TO.N,SD_CS*%
X154450000Y-119400000D03*
%TO.N,VDDA*%
X144850000Y-121950000D03*
X145610000Y-117568527D03*
%TO.N,SD_CD*%
X148679592Y-111797713D03*
X156102500Y-127797500D03*
%TO.N,PC14*%
X143095983Y-114852544D03*
X145087325Y-114506611D03*
%TO.N,PC15*%
X144295983Y-114624005D03*
%TO.N,OSC_IN*%
X144101473Y-115400000D03*
%TO.N,OSC_OUT*%
X143578046Y-116040650D03*
%TO.N,NRST*%
X152300000Y-122000000D03*
X145570199Y-124435548D03*
X146050000Y-122150000D03*
X145590000Y-116740000D03*
%TO.N,PA1*%
X144900000Y-119400000D03*
%TO.N,PA2*%
X145412149Y-120014579D03*
%TO.N,PA3*%
X146105646Y-120413409D03*
%TO.N,PA4*%
X146942560Y-120505970D03*
%TO.N,PA5*%
X147540572Y-121200000D03*
%TO.N,PA6*%
X148850000Y-120748527D03*
%TO.N,PA7*%
X149226553Y-121476553D03*
%TO.N,PB0*%
X152924896Y-124250000D03*
%TO.N,PB1*%
X150879818Y-121128348D03*
X152650000Y-123350000D03*
%TO.N,PB2*%
X151656001Y-121322101D03*
X150950000Y-128600000D03*
X148970249Y-122234387D03*
%TO.N,PB10*%
X143020000Y-113936464D03*
X152589173Y-121087500D03*
%TO.N,SD_SCK*%
X156650000Y-124300000D03*
X151650000Y-124850000D03*
X157215544Y-118992228D03*
%TO.N,SD_MISO*%
X155040000Y-117950000D03*
%TO.N,SD_MOSI*%
X149350000Y-124450000D03*
X157250000Y-125150000D03*
X157186955Y-117540004D03*
%TO.N,PA8*%
X156961999Y-116772284D03*
%TO.N,PA10*%
X156087224Y-115950000D03*
%TO.N,USB_DM*%
X155800000Y-108800000D03*
X157700000Y-109850000D03*
X149600000Y-109450000D03*
X155442348Y-115476570D03*
%TO.N,USB_DP*%
X150100000Y-107250000D03*
X156800000Y-114750000D03*
X155276116Y-114694029D03*
%TO.N,SWDIO*%
X154500000Y-114500000D03*
%TO.N,SWCLK*%
X153656996Y-112030430D03*
%TO.N,PA15*%
X153091309Y-111464742D03*
X156450000Y-111550000D03*
%TO.N,PB3*%
X156954279Y-112391534D03*
X152292427Y-111422471D03*
%TO.N,PB4*%
X157325000Y-113610782D03*
X152098413Y-110646354D03*
%TO.N,PB5*%
X157607763Y-114459233D03*
X151301479Y-110716360D03*
%TO.N,PB6*%
X150505788Y-110799282D03*
%TO.N,PB7*%
X150269951Y-111565345D03*
X142293768Y-113600917D03*
%TO.N,PB9*%
X143020000Y-111478527D03*
X147695786Y-111686902D03*
%TD*%
%TO.N,SD_CD*%
D15*
X155623867Y-127797500D02*
X149826553Y-122000186D01*
X156102500Y-127797500D02*
X155623867Y-127797500D01*
X149826553Y-112944674D02*
X148679592Y-111797713D01*
X149826553Y-122000186D02*
X149826553Y-112944674D01*
%TD*%
%TA.AperFunction,Conductor*%
%TO.N,GND*%
G36*
X151207437Y-111513836D02*
G01*
X151222637Y-111516860D01*
X151380321Y-111516860D01*
X151384258Y-111516076D01*
X151394694Y-111516209D01*
X151421776Y-111524535D01*
X151449613Y-111529814D01*
X151454733Y-111534667D01*
X151461479Y-111536741D01*
X151479762Y-111558389D01*
X151500324Y-111577878D01*
X151502008Y-111584730D01*
X151506561Y-111590121D01*
X151514740Y-111616005D01*
X151522689Y-111655965D01*
X151522691Y-111655972D01*
X151583029Y-111801643D01*
X151583036Y-111801656D01*
X151670637Y-111932759D01*
X151670640Y-111932763D01*
X151782134Y-112044257D01*
X151782138Y-112044260D01*
X151913241Y-112131861D01*
X151913254Y-112131868D01*
X152048580Y-112187921D01*
X152058930Y-112192208D01*
X152213580Y-112222970D01*
X152213583Y-112222971D01*
X152213585Y-112222971D01*
X152371271Y-112222971D01*
X152371272Y-112222970D01*
X152525924Y-112192208D01*
X152596334Y-112163042D01*
X152665802Y-112155574D01*
X152692927Y-112163757D01*
X152703293Y-112168231D01*
X152712130Y-112174136D01*
X152832028Y-112223799D01*
X152832869Y-112224162D01*
X152859077Y-112245929D01*
X152885584Y-112267289D01*
X152886237Y-112268486D01*
X152886619Y-112268803D01*
X152886906Y-112269710D01*
X152898289Y-112290557D01*
X152947598Y-112409602D01*
X152947605Y-112409615D01*
X153035206Y-112540718D01*
X153039072Y-112545429D01*
X153036867Y-112547238D01*
X153064508Y-112597859D01*
X153059524Y-112667551D01*
X153031023Y-112711898D01*
X153015713Y-112727207D01*
X153015710Y-112727211D01*
X152928109Y-112858314D01*
X152928102Y-112858327D01*
X152867764Y-113003998D01*
X152867761Y-113004010D01*
X152837000Y-113158653D01*
X152837000Y-113316346D01*
X152867761Y-113470989D01*
X152867764Y-113471001D01*
X152928102Y-113616672D01*
X152928109Y-113616685D01*
X153015710Y-113747788D01*
X153015713Y-113747792D01*
X153127207Y-113859286D01*
X153127211Y-113859289D01*
X153258314Y-113946890D01*
X153258327Y-113946897D01*
X153403998Y-114007235D01*
X153404003Y-114007237D01*
X153558653Y-114037999D01*
X153558656Y-114038000D01*
X153639333Y-114038000D01*
X153706372Y-114057685D01*
X153752127Y-114110489D01*
X153762071Y-114179647D01*
X153753894Y-114209450D01*
X153748404Y-114222706D01*
X153730263Y-114266502D01*
X153730261Y-114266510D01*
X153699500Y-114421153D01*
X153699500Y-114578846D01*
X153730261Y-114733489D01*
X153730264Y-114733501D01*
X153790602Y-114879172D01*
X153790609Y-114879185D01*
X153878210Y-115010288D01*
X153878213Y-115010292D01*
X153989707Y-115121786D01*
X153989711Y-115121789D01*
X154120814Y-115209390D01*
X154120827Y-115209397D01*
X154242351Y-115259733D01*
X154266503Y-115269737D01*
X154421153Y-115300499D01*
X154421156Y-115300500D01*
X154517848Y-115300500D01*
X154584887Y-115320185D01*
X154630642Y-115372989D01*
X154641848Y-115424500D01*
X154641848Y-115555416D01*
X154672609Y-115710059D01*
X154672612Y-115710071D01*
X154732950Y-115855742D01*
X154732957Y-115855755D01*
X154820558Y-115986858D01*
X154820561Y-115986862D01*
X154932055Y-116098356D01*
X154932059Y-116098359D01*
X155063162Y-116185960D01*
X155063175Y-116185967D01*
X155144338Y-116219585D01*
X155208851Y-116246307D01*
X155208853Y-116246307D01*
X155208858Y-116246309D01*
X155290846Y-116262617D01*
X155352757Y-116295001D01*
X155376014Y-116325783D01*
X155377828Y-116329177D01*
X155465434Y-116460288D01*
X155465437Y-116460292D01*
X155576931Y-116571786D01*
X155576935Y-116571789D01*
X155708038Y-116659390D01*
X155708051Y-116659397D01*
X155853722Y-116719735D01*
X155853727Y-116719737D01*
X156006069Y-116750040D01*
X156008377Y-116750499D01*
X156008380Y-116750500D01*
X156008382Y-116750500D01*
X156039719Y-116750500D01*
X156066669Y-116758413D01*
X156094354Y-116763185D01*
X156099744Y-116768125D01*
X156106758Y-116770185D01*
X156125150Y-116791411D01*
X156145862Y-116810394D01*
X156149313Y-116819296D01*
X156152513Y-116822989D01*
X156159624Y-116842895D01*
X156161499Y-116850008D01*
X156161499Y-116851126D01*
X156192262Y-117005781D01*
X156220578Y-117074144D01*
X156222714Y-117082245D01*
X156221964Y-117109128D01*
X156224839Y-117135867D01*
X156221004Y-117143526D01*
X156220766Y-117152087D01*
X156205602Y-117174296D01*
X156193564Y-117198346D01*
X156185233Y-117204130D01*
X156181369Y-117209790D01*
X156170380Y-117214442D01*
X156150262Y-117228411D01*
X156120823Y-117240604D01*
X156120814Y-117240609D01*
X155989711Y-117328210D01*
X155989707Y-117328213D01*
X155878211Y-117439709D01*
X155873101Y-117447358D01*
X155819487Y-117492162D01*
X155750162Y-117500868D01*
X155687135Y-117470712D01*
X155666899Y-117447358D01*
X155661788Y-117439709D01*
X155550292Y-117328213D01*
X155550288Y-117328210D01*
X155419185Y-117240609D01*
X155419172Y-117240602D01*
X155273501Y-117180264D01*
X155273489Y-117180261D01*
X155118845Y-117149500D01*
X155118842Y-117149500D01*
X154961158Y-117149500D01*
X154961155Y-117149500D01*
X154806510Y-117180261D01*
X154806498Y-117180264D01*
X154660827Y-117240602D01*
X154660814Y-117240609D01*
X154529711Y-117328210D01*
X154529707Y-117328213D01*
X154418213Y-117439707D01*
X154418210Y-117439711D01*
X154330609Y-117570814D01*
X154330602Y-117570827D01*
X154270264Y-117716498D01*
X154270261Y-117716510D01*
X154239500Y-117871153D01*
X154239500Y-118028846D01*
X154270261Y-118183489D01*
X154270264Y-118183501D01*
X154330602Y-118329172D01*
X154330609Y-118329185D01*
X154391693Y-118420603D01*
X154412571Y-118487281D01*
X154394086Y-118554661D01*
X154342108Y-118601351D01*
X154312783Y-118611111D01*
X154216508Y-118630261D01*
X154216498Y-118630264D01*
X154070827Y-118690602D01*
X154070814Y-118690609D01*
X153939711Y-118778210D01*
X153939707Y-118778213D01*
X153828213Y-118889707D01*
X153750530Y-119005967D01*
X153696917Y-119050771D01*
X153627592Y-119059478D01*
X153584966Y-119042706D01*
X153584553Y-119043479D01*
X153579181Y-119040607D01*
X153579179Y-119040606D01*
X153579176Y-119040605D01*
X153579171Y-119040602D01*
X153433501Y-118980264D01*
X153433489Y-118980261D01*
X153278845Y-118949500D01*
X153278842Y-118949500D01*
X153121158Y-118949500D01*
X153121155Y-118949500D01*
X152966510Y-118980261D01*
X152966498Y-118980264D01*
X152820827Y-119040602D01*
X152820814Y-119040609D01*
X152689711Y-119128210D01*
X152689707Y-119128213D01*
X152578213Y-119239707D01*
X152578210Y-119239711D01*
X152490609Y-119370814D01*
X152490602Y-119370827D01*
X152430264Y-119516498D01*
X152430261Y-119516510D01*
X152399500Y-119671153D01*
X152399500Y-119828846D01*
X152430261Y-119983489D01*
X152430264Y-119983501D01*
X152492937Y-120134808D01*
X152491494Y-120135405D01*
X152504178Y-120196334D01*
X152479175Y-120261577D01*
X152422869Y-120302945D01*
X152404770Y-120307997D01*
X152355681Y-120317761D01*
X152355671Y-120317764D01*
X152210000Y-120378102D01*
X152209987Y-120378109D01*
X152078884Y-120465710D01*
X152020727Y-120523867D01*
X151959403Y-120557351D01*
X151895730Y-120552796D01*
X151895325Y-120554132D01*
X151889501Y-120552365D01*
X151889498Y-120552364D01*
X151889493Y-120552363D01*
X151889490Y-120552362D01*
X151734846Y-120521601D01*
X151734843Y-120521601D01*
X151577159Y-120521601D01*
X151577154Y-120521601D01*
X151498693Y-120537208D01*
X151429101Y-120530981D01*
X151395837Y-120509180D01*
X151394817Y-120510424D01*
X151390106Y-120506558D01*
X151259003Y-120418957D01*
X151258990Y-120418950D01*
X151113319Y-120358612D01*
X151113307Y-120358609D01*
X150958663Y-120327848D01*
X150958660Y-120327848D01*
X150800976Y-120327848D01*
X150800973Y-120327848D01*
X150646328Y-120358609D01*
X150646321Y-120358611D01*
X150598504Y-120378417D01*
X150529035Y-120385885D01*
X150466556Y-120354609D01*
X150430904Y-120294519D01*
X150427053Y-120263855D01*
X150427053Y-113033734D01*
X150427054Y-113033721D01*
X150427054Y-112865619D01*
X150427054Y-112865617D01*
X150386130Y-112712889D01*
X150307073Y-112575958D01*
X150302781Y-112571666D01*
X150269296Y-112510343D01*
X150274280Y-112440651D01*
X150316152Y-112384718D01*
X150366269Y-112362368D01*
X150503448Y-112335082D01*
X150616117Y-112288412D01*
X150649123Y-112274742D01*
X150649123Y-112274741D01*
X150649130Y-112274739D01*
X150780240Y-112187134D01*
X150891740Y-112075634D01*
X150979345Y-111944524D01*
X151039688Y-111798842D01*
X151070451Y-111644187D01*
X151070451Y-111637682D01*
X151073223Y-111628238D01*
X151071947Y-111618482D01*
X151082904Y-111595270D01*
X151090136Y-111570643D01*
X151097572Y-111564199D01*
X151101774Y-111555299D01*
X151123543Y-111541694D01*
X151142940Y-111524888D01*
X151152679Y-111523487D01*
X151161026Y-111518272D01*
X151196022Y-111513692D01*
X151207437Y-111513836D01*
G37*
%TD.AperFunction*%
%TA.AperFunction,Conductor*%
G36*
X158680984Y-100941656D02*
G01*
X158724180Y-100996573D01*
X158725249Y-100999337D01*
X158756202Y-101082328D01*
X158756206Y-101082335D01*
X158842452Y-101197544D01*
X158842455Y-101197547D01*
X158957664Y-101283793D01*
X158957671Y-101283797D01*
X159089082Y-101332810D01*
X159145016Y-101374681D01*
X159169433Y-101440145D01*
X159154582Y-101508418D01*
X159133431Y-101536673D01*
X159019889Y-101650215D01*
X158894951Y-101822179D01*
X158798444Y-102011585D01*
X158732753Y-102213760D01*
X158699500Y-102423713D01*
X158699500Y-102636286D01*
X158732753Y-102846239D01*
X158732753Y-102846241D01*
X158732754Y-102846243D01*
X158786220Y-103010795D01*
X158798444Y-103048414D01*
X158894951Y-103237820D01*
X159019890Y-103409786D01*
X159170213Y-103560109D01*
X159342182Y-103685050D01*
X159350946Y-103689516D01*
X159401742Y-103737491D01*
X159418536Y-103805312D01*
X159395998Y-103871447D01*
X159350946Y-103910484D01*
X159342182Y-103914949D01*
X159170213Y-104039890D01*
X159019890Y-104190213D01*
X158894951Y-104362179D01*
X158798444Y-104551585D01*
X158732753Y-104753760D01*
X158699500Y-104963713D01*
X158699500Y-105176286D01*
X158732753Y-105386239D01*
X158798444Y-105588414D01*
X158894951Y-105777820D01*
X159019890Y-105949786D01*
X159170213Y-106100109D01*
X159342182Y-106225050D01*
X159350946Y-106229516D01*
X159401742Y-106277491D01*
X159418536Y-106345312D01*
X159395998Y-106411447D01*
X159350946Y-106450484D01*
X159342182Y-106454949D01*
X159170213Y-106579890D01*
X159019890Y-106730213D01*
X158894951Y-106902179D01*
X158798444Y-107091585D01*
X158732753Y-107293760D01*
X158713233Y-107417007D01*
X158699500Y-107503713D01*
X158699500Y-107716287D01*
X158706469Y-107760288D01*
X158732735Y-107926127D01*
X158732754Y-107926243D01*
X158773127Y-108050499D01*
X158798444Y-108128414D01*
X158894951Y-108317820D01*
X159019890Y-108489786D01*
X159170213Y-108640109D01*
X159342182Y-108765050D01*
X159350946Y-108769516D01*
X159401742Y-108817491D01*
X159418536Y-108885312D01*
X159395998Y-108951447D01*
X159350946Y-108990484D01*
X159342182Y-108994949D01*
X159170213Y-109119890D01*
X159019890Y-109270213D01*
X158894951Y-109442179D01*
X158798444Y-109631585D01*
X158798443Y-109631587D01*
X158798443Y-109631588D01*
X158749244Y-109783008D01*
X158742431Y-109803975D01*
X158702993Y-109861651D01*
X158638635Y-109888849D01*
X158569788Y-109876934D01*
X158518313Y-109829690D01*
X158503646Y-109776966D01*
X158501097Y-109777218D01*
X158500500Y-109771163D01*
X158500500Y-109771158D01*
X158469737Y-109616503D01*
X158469735Y-109616498D01*
X158409397Y-109470827D01*
X158409390Y-109470814D01*
X158321789Y-109339711D01*
X158321786Y-109339707D01*
X158210292Y-109228213D01*
X158210288Y-109228210D01*
X158079185Y-109140609D01*
X158079172Y-109140602D01*
X157933501Y-109080264D01*
X157933489Y-109080261D01*
X157778845Y-109049500D01*
X157778842Y-109049500D01*
X157621158Y-109049500D01*
X157621155Y-109049500D01*
X157466510Y-109080261D01*
X157466498Y-109080264D01*
X157320827Y-109140602D01*
X157320814Y-109140609D01*
X157189711Y-109228210D01*
X157189707Y-109228213D01*
X157078213Y-109339707D01*
X157078210Y-109339711D01*
X156990609Y-109470814D01*
X156990602Y-109470827D01*
X156930264Y-109616498D01*
X156930261Y-109616510D01*
X156899500Y-109771153D01*
X156899500Y-109928846D01*
X156930261Y-110083489D01*
X156930264Y-110083501D01*
X156990602Y-110229172D01*
X156990609Y-110229185D01*
X157078210Y-110360288D01*
X157078213Y-110360292D01*
X157189707Y-110471786D01*
X157189711Y-110471789D01*
X157320814Y-110559390D01*
X157320827Y-110559397D01*
X157444758Y-110610730D01*
X157466503Y-110619737D01*
X157591281Y-110644557D01*
X157621153Y-110650499D01*
X157621156Y-110650500D01*
X157621158Y-110650500D01*
X157778844Y-110650500D01*
X157778845Y-110650499D01*
X157933497Y-110619737D01*
X158079179Y-110559394D01*
X158210289Y-110471789D01*
X158321789Y-110360289D01*
X158409394Y-110229179D01*
X158447963Y-110136065D01*
X158460939Y-110104738D01*
X158504779Y-110050334D01*
X158571074Y-110028269D01*
X158638773Y-110045548D01*
X158686384Y-110096685D01*
X158699500Y-110152190D01*
X158699500Y-110256287D01*
X158701855Y-110271153D01*
X158726830Y-110428844D01*
X158732754Y-110466243D01*
X158793989Y-110654705D01*
X158798444Y-110668414D01*
X158894951Y-110857820D01*
X159019890Y-111029786D01*
X159170213Y-111180109D01*
X159342182Y-111305050D01*
X159350946Y-111309516D01*
X159401742Y-111357491D01*
X159418536Y-111425312D01*
X159395998Y-111491447D01*
X159350946Y-111530484D01*
X159342182Y-111534949D01*
X159170213Y-111659890D01*
X159019890Y-111810213D01*
X158894951Y-111982179D01*
X158798444Y-112171585D01*
X158732753Y-112373760D01*
X158711634Y-112507103D01*
X158699500Y-112583713D01*
X158699500Y-112796287D01*
X158706520Y-112840609D01*
X158730021Y-112988992D01*
X158732754Y-113006243D01*
X158793568Y-113193409D01*
X158798444Y-113208414D01*
X158894951Y-113397820D01*
X159019890Y-113569786D01*
X159170213Y-113720109D01*
X159342182Y-113845050D01*
X159350946Y-113849516D01*
X159401742Y-113897491D01*
X159418536Y-113965312D01*
X159395998Y-114031447D01*
X159350946Y-114070484D01*
X159342182Y-114074949D01*
X159170213Y-114199890D01*
X159019890Y-114350213D01*
X158894951Y-114522179D01*
X158798444Y-114711585D01*
X158732753Y-114913760D01*
X158699500Y-115123713D01*
X158699500Y-115336286D01*
X158731397Y-115537679D01*
X158732754Y-115546243D01*
X158797256Y-115744760D01*
X158798444Y-115748414D01*
X158894951Y-115937820D01*
X159019890Y-116109786D01*
X159170213Y-116260109D01*
X159342179Y-116385048D01*
X159342181Y-116385049D01*
X159342184Y-116385051D01*
X159351493Y-116389794D01*
X159402290Y-116437766D01*
X159419087Y-116505587D01*
X159396552Y-116571722D01*
X159351505Y-116610760D01*
X159342446Y-116615376D01*
X159342440Y-116615380D01*
X159288282Y-116654727D01*
X159288282Y-116654728D01*
X159920591Y-117287037D01*
X159857007Y-117304075D01*
X159742993Y-117369901D01*
X159649901Y-117462993D01*
X159584075Y-117577007D01*
X159567037Y-117640591D01*
X158934728Y-117008282D01*
X158934727Y-117008282D01*
X158895380Y-117062439D01*
X158798904Y-117251782D01*
X158733242Y-117453869D01*
X158733242Y-117453872D01*
X158700000Y-117663753D01*
X158700000Y-117876246D01*
X158733242Y-118086127D01*
X158733242Y-118086130D01*
X158798904Y-118288217D01*
X158895375Y-118477550D01*
X158934728Y-118531716D01*
X159567036Y-117899407D01*
X159584075Y-117962993D01*
X159649901Y-118077007D01*
X159742993Y-118170099D01*
X159857007Y-118235925D01*
X159920590Y-118252962D01*
X159288282Y-118885269D01*
X159288282Y-118885270D01*
X159342449Y-118924624D01*
X159531782Y-119021095D01*
X159733870Y-119086757D01*
X159943754Y-119120000D01*
X160156246Y-119120000D01*
X160366127Y-119086757D01*
X160366130Y-119086757D01*
X160568217Y-119021095D01*
X160757554Y-118924622D01*
X160811716Y-118885270D01*
X160811717Y-118885270D01*
X160179408Y-118252962D01*
X160242993Y-118235925D01*
X160357007Y-118170099D01*
X160450099Y-118077007D01*
X160515925Y-117962993D01*
X160532962Y-117899408D01*
X161165269Y-118531716D01*
X161166832Y-118531594D01*
X161235209Y-118545958D01*
X161284966Y-118595010D01*
X161300561Y-118655211D01*
X161300576Y-121436631D01*
X161280892Y-121503671D01*
X161228088Y-121549426D01*
X161158930Y-121559370D01*
X161133243Y-121552814D01*
X161007482Y-121505908D01*
X161007483Y-121505908D01*
X160947883Y-121499501D01*
X160947881Y-121499500D01*
X160947873Y-121499500D01*
X160947864Y-121499500D01*
X159152129Y-121499500D01*
X159152123Y-121499501D01*
X159092516Y-121505908D01*
X158957671Y-121556202D01*
X158957664Y-121556206D01*
X158842455Y-121642452D01*
X158842452Y-121642455D01*
X158756206Y-121757664D01*
X158756202Y-121757671D01*
X158705908Y-121892517D01*
X158699501Y-121952116D01*
X158699501Y-121952123D01*
X158699500Y-121952135D01*
X158699500Y-123747870D01*
X158699501Y-123747876D01*
X158705908Y-123807483D01*
X158756202Y-123942328D01*
X158756206Y-123942335D01*
X158842452Y-124057544D01*
X158842455Y-124057547D01*
X158957664Y-124143793D01*
X158957671Y-124143797D01*
X159089082Y-124192810D01*
X159145016Y-124234681D01*
X159169433Y-124300145D01*
X159154582Y-124368418D01*
X159133431Y-124396673D01*
X159019889Y-124510215D01*
X158894951Y-124682179D01*
X158798444Y-124871585D01*
X158732753Y-125073760D01*
X158707049Y-125236048D01*
X158699500Y-125283713D01*
X158699500Y-125496287D01*
X158708852Y-125555330D01*
X158732753Y-125706239D01*
X158798444Y-125908414D01*
X158894951Y-126097820D01*
X159019890Y-126269786D01*
X159170213Y-126420109D01*
X159342182Y-126545050D01*
X159350946Y-126549516D01*
X159401742Y-126597491D01*
X159418536Y-126665312D01*
X159395998Y-126731447D01*
X159350946Y-126770484D01*
X159342182Y-126774949D01*
X159170213Y-126899890D01*
X159019890Y-127050213D01*
X158894951Y-127222179D01*
X158798444Y-127411585D01*
X158732753Y-127613760D01*
X158699500Y-127823713D01*
X158699500Y-128036286D01*
X158728727Y-128220821D01*
X158732754Y-128246243D01*
X158788980Y-128419289D01*
X158798444Y-128448414D01*
X158894951Y-128637820D01*
X159019890Y-128809786D01*
X159170213Y-128960109D01*
X159342182Y-129085050D01*
X159350946Y-129089516D01*
X159401742Y-129137491D01*
X159418536Y-129205312D01*
X159395998Y-129271447D01*
X159350946Y-129310484D01*
X159342182Y-129314949D01*
X159170213Y-129439890D01*
X159019890Y-129590213D01*
X158894951Y-129762179D01*
X158798444Y-129951585D01*
X158732753Y-130153760D01*
X158699500Y-130363713D01*
X158699500Y-130576286D01*
X158715743Y-130678844D01*
X158732754Y-130786243D01*
X158769878Y-130900499D01*
X158798444Y-130988414D01*
X158894951Y-131177820D01*
X159019890Y-131349786D01*
X159170213Y-131500109D01*
X159342182Y-131625050D01*
X159350946Y-131629516D01*
X159401742Y-131677491D01*
X159418536Y-131745312D01*
X159395998Y-131811447D01*
X159350946Y-131850484D01*
X159342182Y-131854949D01*
X159170213Y-131979890D01*
X159019890Y-132130213D01*
X158894951Y-132302179D01*
X158798444Y-132491585D01*
X158732753Y-132693760D01*
X158699500Y-132903713D01*
X158699500Y-133116286D01*
X158732753Y-133326239D01*
X158798444Y-133528414D01*
X158894951Y-133717820D01*
X159019890Y-133889786D01*
X159170213Y-134040109D01*
X159342182Y-134165050D01*
X159350946Y-134169516D01*
X159401742Y-134217491D01*
X159418536Y-134285312D01*
X159395998Y-134351447D01*
X159350946Y-134390484D01*
X159342182Y-134394949D01*
X159170213Y-134519890D01*
X159019890Y-134670213D01*
X158894951Y-134842179D01*
X158798444Y-135031585D01*
X158732753Y-135233760D01*
X158699500Y-135443713D01*
X158699500Y-135656287D01*
X158732754Y-135866243D01*
X158769135Y-135978213D01*
X158798444Y-136068414D01*
X158894951Y-136257820D01*
X159019890Y-136429786D01*
X159170213Y-136580109D01*
X159342182Y-136705050D01*
X159350946Y-136709516D01*
X159401742Y-136757491D01*
X159418536Y-136825312D01*
X159395998Y-136891447D01*
X159350946Y-136930484D01*
X159342182Y-136934949D01*
X159170213Y-137059890D01*
X159019890Y-137210213D01*
X158894951Y-137382179D01*
X158798444Y-137571585D01*
X158732753Y-137773760D01*
X158699500Y-137983713D01*
X158699500Y-138196286D01*
X158732753Y-138406239D01*
X158798444Y-138608414D01*
X158894951Y-138797820D01*
X159019890Y-138969786D01*
X159170213Y-139120109D01*
X159342182Y-139245050D01*
X159350946Y-139249516D01*
X159401742Y-139297491D01*
X159418536Y-139365312D01*
X159395998Y-139431447D01*
X159350946Y-139470484D01*
X159342182Y-139474949D01*
X159170213Y-139599890D01*
X159019890Y-139750213D01*
X158894951Y-139922179D01*
X158798444Y-140111585D01*
X158732753Y-140313760D01*
X158699500Y-140523713D01*
X158699500Y-140736286D01*
X158732753Y-140946239D01*
X158798444Y-141148414D01*
X158894951Y-141337820D01*
X159019890Y-141509786D01*
X159019896Y-141509792D01*
X159170208Y-141660104D01*
X159328601Y-141775182D01*
X159371266Y-141830511D01*
X159377245Y-141900124D01*
X159344640Y-141961920D01*
X159283801Y-141996277D01*
X159255715Y-141999500D01*
X140544276Y-141999506D01*
X140477237Y-141979821D01*
X140431482Y-141927017D01*
X140421538Y-141857859D01*
X140450563Y-141794303D01*
X140471384Y-141775193D01*
X140629792Y-141660104D01*
X140780104Y-141509792D01*
X140780106Y-141509788D01*
X140780109Y-141509786D01*
X140905048Y-141337820D01*
X140905047Y-141337820D01*
X140905051Y-141337816D01*
X141001557Y-141148412D01*
X141067246Y-140946243D01*
X141100500Y-140736287D01*
X141100500Y-140523713D01*
X141067246Y-140313757D01*
X141001557Y-140111588D01*
X140905051Y-139922184D01*
X140905049Y-139922181D01*
X140905048Y-139922179D01*
X140780109Y-139750213D01*
X140629786Y-139599890D01*
X140457820Y-139474951D01*
X140457115Y-139474591D01*
X140449054Y-139470485D01*
X140398259Y-139422512D01*
X140381463Y-139354692D01*
X140403999Y-139288556D01*
X140449054Y-139249515D01*
X140457816Y-139245051D01*
X140479789Y-139229086D01*
X140629786Y-139120109D01*
X140629788Y-139120106D01*
X140629792Y-139120104D01*
X140780104Y-138969792D01*
X140780106Y-138969788D01*
X140780109Y-138969786D01*
X140905048Y-138797820D01*
X140905047Y-138797820D01*
X140905051Y-138797816D01*
X141001557Y-138608412D01*
X141067246Y-138406243D01*
X141100500Y-138196287D01*
X141100500Y-137983713D01*
X141067246Y-137773757D01*
X141001557Y-137571588D01*
X140905051Y-137382184D01*
X140905049Y-137382181D01*
X140905048Y-137382179D01*
X140780109Y-137210213D01*
X140629786Y-137059890D01*
X140507648Y-136971153D01*
X142899500Y-136971153D01*
X142899500Y-137128846D01*
X142930261Y-137283489D01*
X142930264Y-137283501D01*
X142990602Y-137429172D01*
X142990609Y-137429185D01*
X143078210Y-137560288D01*
X143078213Y-137560292D01*
X143189707Y-137671786D01*
X143189711Y-137671789D01*
X143320814Y-137759390D01*
X143320827Y-137759397D01*
X143466498Y-137819735D01*
X143466503Y-137819737D01*
X143621153Y-137850499D01*
X143621156Y-137850500D01*
X143621158Y-137850500D01*
X143778844Y-137850500D01*
X143778845Y-137850499D01*
X143933497Y-137819737D01*
X144079179Y-137759394D01*
X144210289Y-137671789D01*
X144321789Y-137560289D01*
X144409394Y-137429179D01*
X144409400Y-137429164D01*
X144410903Y-137426354D01*
X144412087Y-137425148D01*
X144412779Y-137424113D01*
X144412975Y-137424244D01*
X144459863Y-137376507D01*
X144528000Y-137361042D01*
X144560494Y-137368567D01*
X144560676Y-137367969D01*
X144566492Y-137369732D01*
X144566503Y-137369737D01*
X144721153Y-137400499D01*
X144721156Y-137400500D01*
X144721158Y-137400500D01*
X144878844Y-137400500D01*
X144878845Y-137400499D01*
X145033497Y-137369737D01*
X145179179Y-137309394D01*
X145310289Y-137221789D01*
X145421789Y-137110289D01*
X145509394Y-136979179D01*
X145512719Y-136971153D01*
X145527714Y-136934951D01*
X145569737Y-136833497D01*
X145600500Y-136678842D01*
X145600500Y-136521158D01*
X145600500Y-136521155D01*
X145600499Y-136521153D01*
X145582012Y-136428213D01*
X145569737Y-136366503D01*
X145569735Y-136366498D01*
X145509397Y-136220827D01*
X145509390Y-136220814D01*
X145421789Y-136089711D01*
X145421786Y-136089707D01*
X145310292Y-135978213D01*
X145310288Y-135978210D01*
X145179185Y-135890609D01*
X145179172Y-135890602D01*
X145033501Y-135830264D01*
X145033489Y-135830261D01*
X144878845Y-135799500D01*
X144878842Y-135799500D01*
X144721158Y-135799500D01*
X144721155Y-135799500D01*
X144566510Y-135830261D01*
X144566498Y-135830264D01*
X144420827Y-135890602D01*
X144420814Y-135890609D01*
X144289711Y-135978210D01*
X144289707Y-135978213D01*
X144178213Y-136089707D01*
X144178210Y-136089711D01*
X144090603Y-136220823D01*
X144089090Y-136223655D01*
X144087907Y-136224859D01*
X144087221Y-136225886D01*
X144087026Y-136225755D01*
X144040126Y-136273498D01*
X143971987Y-136288956D01*
X143939505Y-136281434D01*
X143939324Y-136282031D01*
X143933500Y-136280264D01*
X143933497Y-136280263D01*
X143933492Y-136280262D01*
X143933489Y-136280261D01*
X143778845Y-136249500D01*
X143778842Y-136249500D01*
X143621158Y-136249500D01*
X143621155Y-136249500D01*
X143466510Y-136280261D01*
X143466498Y-136280264D01*
X143320827Y-136340602D01*
X143320814Y-136340609D01*
X143189711Y-136428210D01*
X143189707Y-136428213D01*
X143078213Y-136539707D01*
X143078210Y-136539711D01*
X142990609Y-136670814D01*
X142990602Y-136670827D01*
X142930264Y-136816498D01*
X142930261Y-136816510D01*
X142899500Y-136971153D01*
X140507648Y-136971153D01*
X140457820Y-136934951D01*
X140457115Y-136934591D01*
X140449054Y-136930485D01*
X140398259Y-136882512D01*
X140381463Y-136814692D01*
X140403999Y-136748556D01*
X140449054Y-136709515D01*
X140457816Y-136705051D01*
X140504940Y-136670814D01*
X140629786Y-136580109D01*
X140629788Y-136580106D01*
X140629792Y-136580104D01*
X140780104Y-136429792D01*
X140780106Y-136429788D01*
X140780109Y-136429786D01*
X140905048Y-136257820D01*
X140905047Y-136257820D01*
X140905051Y-136257816D01*
X141001557Y-136068412D01*
X141067246Y-135866243D01*
X141100500Y-135656287D01*
X141100500Y-135443713D01*
X141067246Y-135233757D01*
X141001557Y-135031588D01*
X140905051Y-134842184D01*
X140905049Y-134842181D01*
X140905048Y-134842179D01*
X140780109Y-134670213D01*
X140629786Y-134519890D01*
X140457820Y-134394951D01*
X140457115Y-134394591D01*
X140449054Y-134390485D01*
X140398259Y-134342512D01*
X140381463Y-134274692D01*
X140403999Y-134208556D01*
X140449054Y-134169515D01*
X140457816Y-134165051D01*
X140479789Y-134149086D01*
X140629786Y-134040109D01*
X140629788Y-134040106D01*
X140629792Y-134040104D01*
X140780104Y-133889792D01*
X140780106Y-133889788D01*
X140780109Y-133889786D01*
X140905048Y-133717820D01*
X140905047Y-133717820D01*
X140905051Y-133717816D01*
X141001557Y-133528412D01*
X141067246Y-133326243D01*
X141100500Y-133116287D01*
X141100500Y-132903713D01*
X141067246Y-132693757D01*
X141001557Y-132491588D01*
X140905051Y-132302184D01*
X140905049Y-132302181D01*
X140905048Y-132302179D01*
X140780109Y-132130213D01*
X140629786Y-131979890D01*
X140457820Y-131854951D01*
X140457115Y-131854591D01*
X140449054Y-131850485D01*
X140398259Y-131802512D01*
X140381463Y-131734692D01*
X140403999Y-131668556D01*
X140449054Y-131629515D01*
X140457816Y-131625051D01*
X140479789Y-131609086D01*
X140629786Y-131500109D01*
X140629788Y-131500106D01*
X140629792Y-131500104D01*
X140780104Y-131349792D01*
X140780106Y-131349788D01*
X140780109Y-131349786D01*
X140905048Y-131177820D01*
X140905047Y-131177820D01*
X140905051Y-131177816D01*
X141001557Y-130988412D01*
X141067246Y-130786243D01*
X141100500Y-130576287D01*
X141100500Y-130521153D01*
X144449500Y-130521153D01*
X144449500Y-130678846D01*
X144480261Y-130833489D01*
X144480264Y-130833501D01*
X144540602Y-130979172D01*
X144540609Y-130979185D01*
X144628210Y-131110288D01*
X144628213Y-131110292D01*
X144739707Y-131221786D01*
X144739711Y-131221789D01*
X144870814Y-131309390D01*
X144870827Y-131309397D01*
X144996199Y-131361327D01*
X145016503Y-131369737D01*
X145171153Y-131400499D01*
X145171156Y-131400500D01*
X145171158Y-131400500D01*
X145328844Y-131400500D01*
X145328845Y-131400499D01*
X145483497Y-131369737D01*
X145629179Y-131309394D01*
X145760289Y-131221789D01*
X145871789Y-131110289D01*
X145959394Y-130979179D01*
X146019737Y-130833497D01*
X146050500Y-130678842D01*
X146050500Y-130521158D01*
X146050500Y-130521155D01*
X146050499Y-130521153D01*
X146019738Y-130366510D01*
X146019737Y-130366503D01*
X146006062Y-130333489D01*
X145959397Y-130220827D01*
X145959390Y-130220814D01*
X145871790Y-130089712D01*
X145871784Y-130089705D01*
X145803232Y-130021153D01*
X152299500Y-130021153D01*
X152299500Y-130178846D01*
X152330261Y-130333489D01*
X152330264Y-130333501D01*
X152390602Y-130479172D01*
X152390609Y-130479185D01*
X152478210Y-130610288D01*
X152478213Y-130610292D01*
X152589707Y-130721786D01*
X152589711Y-130721789D01*
X152720814Y-130809390D01*
X152720827Y-130809397D01*
X152866498Y-130869735D01*
X152866503Y-130869737D01*
X153021153Y-130900499D01*
X153021156Y-130900500D01*
X153021158Y-130900500D01*
X153178844Y-130900500D01*
X153178845Y-130900499D01*
X153333497Y-130869737D01*
X153479179Y-130809394D01*
X153610289Y-130721789D01*
X153721789Y-130610289D01*
X153809394Y-130479179D01*
X153869737Y-130333497D01*
X153900500Y-130178842D01*
X153900500Y-130021158D01*
X153900500Y-130021155D01*
X153900499Y-130021153D01*
X153891957Y-129978210D01*
X153869737Y-129866503D01*
X153869735Y-129866498D01*
X153809397Y-129720827D01*
X153809390Y-129720814D01*
X153721789Y-129589711D01*
X153721786Y-129589707D01*
X153610292Y-129478213D01*
X153610288Y-129478210D01*
X153479185Y-129390609D01*
X153479172Y-129390602D01*
X153333501Y-129330264D01*
X153333489Y-129330261D01*
X153178845Y-129299500D01*
X153178842Y-129299500D01*
X153021158Y-129299500D01*
X153021155Y-129299500D01*
X152866510Y-129330261D01*
X152866498Y-129330264D01*
X152720827Y-129390602D01*
X152720814Y-129390609D01*
X152589711Y-129478210D01*
X152589707Y-129478213D01*
X152478213Y-129589707D01*
X152478210Y-129589711D01*
X152390609Y-129720814D01*
X152390602Y-129720827D01*
X152330264Y-129866498D01*
X152330261Y-129866510D01*
X152299500Y-130021153D01*
X145803232Y-130021153D01*
X145760292Y-129978213D01*
X145760288Y-129978210D01*
X145629185Y-129890609D01*
X145629172Y-129890602D01*
X145483501Y-129830264D01*
X145483489Y-129830261D01*
X145328845Y-129799500D01*
X145328842Y-129799500D01*
X145171158Y-129799500D01*
X145171155Y-129799500D01*
X145016510Y-129830261D01*
X145016498Y-129830264D01*
X144870827Y-129890602D01*
X144870814Y-129890609D01*
X144739711Y-129978210D01*
X144739707Y-129978213D01*
X144628213Y-130089707D01*
X144628210Y-130089711D01*
X144540609Y-130220814D01*
X144540602Y-130220827D01*
X144480264Y-130366498D01*
X144480261Y-130366510D01*
X144449500Y-130521153D01*
X141100500Y-130521153D01*
X141100500Y-130363713D01*
X141067246Y-130153757D01*
X141001557Y-129951588D01*
X140905051Y-129762184D01*
X140905049Y-129762181D01*
X140905048Y-129762179D01*
X140780109Y-129590213D01*
X140629786Y-129439890D01*
X140457820Y-129314951D01*
X140457115Y-129314591D01*
X140449054Y-129310485D01*
X140398259Y-129262512D01*
X140381463Y-129194692D01*
X140403999Y-129128556D01*
X140449054Y-129089515D01*
X140457816Y-129085051D01*
X140479789Y-129069086D01*
X140629786Y-128960109D01*
X140629788Y-128960106D01*
X140629792Y-128960104D01*
X140780104Y-128809792D01*
X140780106Y-128809788D01*
X140780109Y-128809786D01*
X140905048Y-128637820D01*
X140905047Y-128637820D01*
X140905051Y-128637816D01*
X140964494Y-128521153D01*
X150149500Y-128521153D01*
X150149500Y-128678846D01*
X150180261Y-128833489D01*
X150180264Y-128833501D01*
X150240602Y-128979172D01*
X150240609Y-128979185D01*
X150328210Y-129110288D01*
X150328213Y-129110292D01*
X150439707Y-129221786D01*
X150439711Y-129221789D01*
X150570814Y-129309390D01*
X150570827Y-129309397D01*
X150716498Y-129369735D01*
X150716503Y-129369737D01*
X150871153Y-129400499D01*
X150871156Y-129400500D01*
X150871158Y-129400500D01*
X151028844Y-129400500D01*
X151028845Y-129400499D01*
X151183497Y-129369737D01*
X151326543Y-129310486D01*
X151329172Y-129309397D01*
X151329172Y-129309396D01*
X151329179Y-129309394D01*
X151460289Y-129221789D01*
X151571789Y-129110289D01*
X151659394Y-128979179D01*
X151719737Y-128833497D01*
X151750500Y-128678842D01*
X151750500Y-128521158D01*
X151750500Y-128521155D01*
X151750499Y-128521153D01*
X151729647Y-128416324D01*
X151719737Y-128366503D01*
X151703846Y-128328139D01*
X151659397Y-128220827D01*
X151659390Y-128220814D01*
X151571789Y-128089711D01*
X151571786Y-128089707D01*
X151460292Y-127978213D01*
X151460288Y-127978210D01*
X151329185Y-127890609D01*
X151329172Y-127890602D01*
X151183501Y-127830264D01*
X151183489Y-127830261D01*
X151028845Y-127799500D01*
X151028842Y-127799500D01*
X150871158Y-127799500D01*
X150871155Y-127799500D01*
X150716510Y-127830261D01*
X150716498Y-127830264D01*
X150570827Y-127890602D01*
X150570814Y-127890609D01*
X150439711Y-127978210D01*
X150439707Y-127978213D01*
X150328213Y-128089707D01*
X150328210Y-128089711D01*
X150240609Y-128220814D01*
X150240602Y-128220827D01*
X150180264Y-128366498D01*
X150180261Y-128366510D01*
X150149500Y-128521153D01*
X140964494Y-128521153D01*
X141001557Y-128448412D01*
X141067246Y-128246243D01*
X141100500Y-128036287D01*
X141100500Y-127823713D01*
X141067246Y-127613757D01*
X141001557Y-127411588D01*
X140905051Y-127222184D01*
X140905049Y-127222181D01*
X140905048Y-127222179D01*
X140780109Y-127050213D01*
X140629786Y-126899890D01*
X140457820Y-126774951D01*
X140457115Y-126774591D01*
X140449054Y-126770485D01*
X140398259Y-126722512D01*
X140381463Y-126654692D01*
X140403999Y-126588556D01*
X140449054Y-126549515D01*
X140457816Y-126545051D01*
X140505664Y-126510288D01*
X140629786Y-126420109D01*
X140629788Y-126420106D01*
X140629792Y-126420104D01*
X140780104Y-126269792D01*
X140780106Y-126269788D01*
X140780109Y-126269786D01*
X140905048Y-126097820D01*
X140905047Y-126097820D01*
X140905051Y-126097816D01*
X141001557Y-125908412D01*
X141067246Y-125706243D01*
X141100500Y-125496287D01*
X141100500Y-125283713D01*
X141067246Y-125073757D01*
X141001557Y-124871588D01*
X140905051Y-124682184D01*
X140905049Y-124682181D01*
X140905048Y-124682179D01*
X140780109Y-124510213D01*
X140666569Y-124396673D01*
X140633084Y-124335350D01*
X140638068Y-124265658D01*
X140679940Y-124209725D01*
X140710915Y-124192810D01*
X140842331Y-124143796D01*
X140957546Y-124057546D01*
X141043796Y-123942331D01*
X141094091Y-123807483D01*
X141100500Y-123747873D01*
X141100500Y-123571153D01*
X143099500Y-123571153D01*
X143099500Y-123728846D01*
X143130261Y-123883489D01*
X143130264Y-123883501D01*
X143190602Y-124029172D01*
X143190609Y-124029185D01*
X143278210Y-124160288D01*
X143278213Y-124160292D01*
X143389707Y-124271786D01*
X143389711Y-124271789D01*
X143520814Y-124359390D01*
X143520827Y-124359397D01*
X143666498Y-124419735D01*
X143666503Y-124419737D01*
X143821153Y-124450499D01*
X143821156Y-124450500D01*
X143821158Y-124450500D01*
X143978844Y-124450500D01*
X143978845Y-124450499D01*
X144133497Y-124419737D01*
X144279179Y-124359394D01*
X144283209Y-124356701D01*
X144769699Y-124356701D01*
X144769699Y-124514394D01*
X144800460Y-124669037D01*
X144800463Y-124669049D01*
X144860801Y-124814720D01*
X144860808Y-124814733D01*
X144948409Y-124945836D01*
X144948412Y-124945840D01*
X145059906Y-125057334D01*
X145059910Y-125057337D01*
X145191013Y-125144938D01*
X145191026Y-125144945D01*
X145336697Y-125205283D01*
X145336702Y-125205285D01*
X145456855Y-125229185D01*
X145491352Y-125236047D01*
X145491355Y-125236048D01*
X145491357Y-125236048D01*
X145649043Y-125236048D01*
X145649044Y-125236047D01*
X145803696Y-125205285D01*
X145949378Y-125144942D01*
X146080488Y-125057337D01*
X146191988Y-124945837D01*
X146279593Y-124814727D01*
X146339936Y-124669045D01*
X146370699Y-124514390D01*
X146370699Y-124356706D01*
X146370699Y-124356703D01*
X146370698Y-124356701D01*
X146365156Y-124328842D01*
X146339936Y-124202051D01*
X146322638Y-124160289D01*
X146279596Y-124056375D01*
X146279589Y-124056362D01*
X146191988Y-123925259D01*
X146191985Y-123925255D01*
X146080491Y-123813761D01*
X146080487Y-123813758D01*
X145949384Y-123726157D01*
X145949371Y-123726150D01*
X145803700Y-123665812D01*
X145803688Y-123665809D01*
X145649044Y-123635048D01*
X145649041Y-123635048D01*
X145491357Y-123635048D01*
X145491354Y-123635048D01*
X145336709Y-123665809D01*
X145336697Y-123665812D01*
X145191026Y-123726150D01*
X145191013Y-123726157D01*
X145059910Y-123813758D01*
X145059906Y-123813761D01*
X144948412Y-123925255D01*
X144874717Y-124035546D01*
X144874713Y-124035553D01*
X144860805Y-124056369D01*
X144817852Y-124160067D01*
X144817844Y-124160085D01*
X144800462Y-124202051D01*
X144800460Y-124202058D01*
X144769699Y-124356701D01*
X144283209Y-124356701D01*
X144410289Y-124271789D01*
X144521789Y-124160289D01*
X144609394Y-124029179D01*
X144669737Y-123883497D01*
X144700500Y-123728842D01*
X144700500Y-123571158D01*
X144700500Y-123571155D01*
X144700499Y-123571153D01*
X144684492Y-123490680D01*
X144669737Y-123416503D01*
X144609534Y-123271158D01*
X144609397Y-123270827D01*
X144609390Y-123270814D01*
X144521789Y-123139711D01*
X144521786Y-123139707D01*
X144410292Y-123028213D01*
X144410288Y-123028210D01*
X144279185Y-122940609D01*
X144279172Y-122940602D01*
X144133501Y-122880264D01*
X144133489Y-122880261D01*
X143978845Y-122849500D01*
X143978842Y-122849500D01*
X143821158Y-122849500D01*
X143821155Y-122849500D01*
X143666510Y-122880261D01*
X143666498Y-122880264D01*
X143520827Y-122940602D01*
X143520814Y-122940609D01*
X143389711Y-123028210D01*
X143389707Y-123028213D01*
X143278213Y-123139707D01*
X143278210Y-123139711D01*
X143190609Y-123270814D01*
X143190602Y-123270827D01*
X143130264Y-123416498D01*
X143130261Y-123416510D01*
X143099500Y-123571153D01*
X141100500Y-123571153D01*
X141100499Y-122849500D01*
X141100499Y-121952129D01*
X141100498Y-121952123D01*
X141100497Y-121952116D01*
X141094091Y-121892517D01*
X141088991Y-121878844D01*
X141086122Y-121871153D01*
X144049500Y-121871153D01*
X144049500Y-122028846D01*
X144080261Y-122183489D01*
X144080264Y-122183501D01*
X144140602Y-122329172D01*
X144140609Y-122329185D01*
X144228210Y-122460288D01*
X144228213Y-122460292D01*
X144339707Y-122571786D01*
X144339711Y-122571789D01*
X144470814Y-122659390D01*
X144470827Y-122659397D01*
X144616498Y-122719735D01*
X144616503Y-122719737D01*
X144741879Y-122744676D01*
X144771153Y-122750499D01*
X144771156Y-122750500D01*
X144771158Y-122750500D01*
X144928844Y-122750500D01*
X144928845Y-122750499D01*
X145083497Y-122719737D01*
X145196166Y-122673067D01*
X145229172Y-122659397D01*
X145229172Y-122659396D01*
X145229179Y-122659394D01*
X145263800Y-122636261D01*
X145330477Y-122615382D01*
X145397857Y-122633865D01*
X145423553Y-122656331D01*
X145423903Y-122655982D01*
X145539707Y-122771786D01*
X145539711Y-122771789D01*
X145670814Y-122859390D01*
X145670827Y-122859397D01*
X145808985Y-122916623D01*
X145816503Y-122919737D01*
X145937380Y-122943781D01*
X145971153Y-122950499D01*
X145971156Y-122950500D01*
X145971158Y-122950500D01*
X146128844Y-122950500D01*
X146128845Y-122950499D01*
X146283497Y-122919737D01*
X146429179Y-122859394D01*
X146560289Y-122771789D01*
X146671789Y-122660289D01*
X146759394Y-122529179D01*
X146761041Y-122525204D01*
X146787929Y-122460288D01*
X146819737Y-122383497D01*
X146850500Y-122228842D01*
X146850500Y-122071158D01*
X146850500Y-122071155D01*
X146823688Y-121936366D01*
X146829915Y-121866774D01*
X146872778Y-121811597D01*
X146938667Y-121788352D01*
X147006664Y-121804420D01*
X147025110Y-121818487D01*
X147025573Y-121817924D01*
X147030283Y-121821789D01*
X147161386Y-121909390D01*
X147161399Y-121909397D01*
X147307070Y-121969735D01*
X147307075Y-121969737D01*
X147461725Y-122000499D01*
X147461728Y-122000500D01*
X147461730Y-122000500D01*
X147619416Y-122000500D01*
X147619417Y-122000499D01*
X147774069Y-121969737D01*
X147891357Y-121921155D01*
X147919744Y-121909397D01*
X147919744Y-121909396D01*
X147919751Y-121909394D01*
X148020475Y-121842091D01*
X148087150Y-121821215D01*
X148154530Y-121839699D01*
X148201220Y-121891677D01*
X148212397Y-121960647D01*
X148203928Y-121992640D01*
X148200514Y-122000882D01*
X148200510Y-122000897D01*
X148169749Y-122155540D01*
X148169749Y-122313233D01*
X148200510Y-122467876D01*
X148200513Y-122467888D01*
X148260851Y-122613559D01*
X148260858Y-122613572D01*
X148335111Y-122724699D01*
X148355989Y-122791377D01*
X148337504Y-122858757D01*
X148285526Y-122905447D01*
X148216556Y-122916623D01*
X148163118Y-122896692D01*
X148079185Y-122840609D01*
X148079172Y-122840602D01*
X147933501Y-122780264D01*
X147933489Y-122780261D01*
X147778845Y-122749500D01*
X147778842Y-122749500D01*
X147621158Y-122749500D01*
X147621155Y-122749500D01*
X147466510Y-122780261D01*
X147466498Y-122780264D01*
X147320827Y-122840602D01*
X147320814Y-122840609D01*
X147189711Y-122928210D01*
X147189707Y-122928213D01*
X147078213Y-123039707D01*
X147078210Y-123039711D01*
X146990609Y-123170814D01*
X146990602Y-123170827D01*
X146930264Y-123316498D01*
X146930261Y-123316510D01*
X146899500Y-123471153D01*
X146899500Y-123628846D01*
X146930261Y-123783489D01*
X146930264Y-123783501D01*
X146990602Y-123929172D01*
X146990609Y-123929185D01*
X147078210Y-124060288D01*
X147078213Y-124060292D01*
X147189707Y-124171786D01*
X147189711Y-124171789D01*
X147320814Y-124259390D01*
X147320827Y-124259397D01*
X147390283Y-124288166D01*
X147466503Y-124319737D01*
X147621153Y-124350499D01*
X147621156Y-124350500D01*
X147621158Y-124350500D01*
X147778844Y-124350500D01*
X147778845Y-124350499D01*
X147933497Y-124319737D01*
X148079179Y-124259394D01*
X148210289Y-124171789D01*
X148321789Y-124060289D01*
X148409394Y-123929179D01*
X148412854Y-123920827D01*
X148457202Y-123813759D01*
X148469737Y-123783497D01*
X148500500Y-123628842D01*
X148500500Y-123471158D01*
X148500500Y-123471155D01*
X148500499Y-123471153D01*
X148489627Y-123416498D01*
X148469737Y-123316503D01*
X148450955Y-123271158D01*
X148409397Y-123170827D01*
X148409390Y-123170814D01*
X148335137Y-123059687D01*
X148314259Y-122993010D01*
X148332743Y-122925629D01*
X148384722Y-122878939D01*
X148453692Y-122867763D01*
X148507129Y-122887693D01*
X148591070Y-122943781D01*
X148591072Y-122943782D01*
X148591076Y-122943784D01*
X148656365Y-122970827D01*
X148736752Y-123004124D01*
X148825419Y-123021761D01*
X148891402Y-123034886D01*
X148891405Y-123034887D01*
X148891407Y-123034887D01*
X149049093Y-123034887D01*
X149049094Y-123034886D01*
X149203746Y-123004124D01*
X149349428Y-122943781D01*
X149480538Y-122856176D01*
X149569243Y-122767470D01*
X149630564Y-122733987D01*
X149700256Y-122738971D01*
X149744604Y-122767472D01*
X150336797Y-123359665D01*
X150370282Y-123420988D01*
X150365298Y-123490680D01*
X150323426Y-123546613D01*
X150273308Y-123568963D01*
X150216508Y-123580261D01*
X150216498Y-123580264D01*
X150070827Y-123640602D01*
X150070814Y-123640609D01*
X149939714Y-123728208D01*
X149939708Y-123728212D01*
X149919909Y-123748012D01*
X149858586Y-123781496D01*
X149788894Y-123776510D01*
X149763339Y-123763431D01*
X149729176Y-123740604D01*
X149583501Y-123680264D01*
X149583489Y-123680261D01*
X149428845Y-123649500D01*
X149428842Y-123649500D01*
X149271158Y-123649500D01*
X149271155Y-123649500D01*
X149116510Y-123680261D01*
X149116498Y-123680264D01*
X148970827Y-123740602D01*
X148970814Y-123740609D01*
X148839711Y-123828210D01*
X148839707Y-123828213D01*
X148728213Y-123939707D01*
X148728210Y-123939711D01*
X148640609Y-124070814D01*
X148640602Y-124070827D01*
X148580264Y-124216498D01*
X148580261Y-124216510D01*
X148549500Y-124371153D01*
X148549500Y-124528846D01*
X148580261Y-124683489D01*
X148580264Y-124683501D01*
X148640602Y-124829172D01*
X148640609Y-124829185D01*
X148728210Y-124960288D01*
X148728213Y-124960292D01*
X148839707Y-125071786D01*
X148839711Y-125071789D01*
X148970814Y-125159390D01*
X148970827Y-125159397D01*
X149081615Y-125205286D01*
X149116503Y-125219737D01*
X149271153Y-125250499D01*
X149271156Y-125250500D01*
X149271158Y-125250500D01*
X149428844Y-125250500D01*
X149428845Y-125250499D01*
X149583497Y-125219737D01*
X149729179Y-125159394D01*
X149860289Y-125071789D01*
X149880087Y-125051990D01*
X149941408Y-125018504D01*
X150011100Y-125023487D01*
X150036657Y-125036566D01*
X150070821Y-125059394D01*
X150070823Y-125059394D01*
X150070827Y-125059397D01*
X150207773Y-125116121D01*
X150216503Y-125119737D01*
X150371153Y-125150499D01*
X150371156Y-125150500D01*
X150371158Y-125150500D01*
X150528844Y-125150500D01*
X150528845Y-125150499D01*
X150683497Y-125119737D01*
X150749700Y-125092314D01*
X150819167Y-125084846D01*
X150881646Y-125116121D01*
X150911712Y-125159423D01*
X150940604Y-125229176D01*
X150940609Y-125229185D01*
X151028210Y-125360288D01*
X151028213Y-125360292D01*
X151139707Y-125471786D01*
X151139711Y-125471789D01*
X151270814Y-125559390D01*
X151270827Y-125559397D01*
X151355961Y-125594660D01*
X151416503Y-125619737D01*
X151571153Y-125650499D01*
X151571156Y-125650500D01*
X151571158Y-125650500D01*
X151728844Y-125650500D01*
X151728845Y-125650499D01*
X151883497Y-125619737D01*
X152029179Y-125559394D01*
X152160289Y-125471789D01*
X152216925Y-125415152D01*
X152278246Y-125381669D01*
X152347938Y-125386653D01*
X152392286Y-125415154D01*
X155139006Y-128161874D01*
X155139016Y-128161885D01*
X155143346Y-128166215D01*
X155143347Y-128166216D01*
X155255151Y-128278020D01*
X155306712Y-128307788D01*
X155341962Y-128328139D01*
X155341964Y-128328141D01*
X155380018Y-128350111D01*
X155392082Y-128357077D01*
X155544810Y-128398000D01*
X155544814Y-128398000D01*
X155550976Y-128399651D01*
X155587774Y-128416324D01*
X155592210Y-128419288D01*
X155592211Y-128419289D01*
X155723321Y-128506894D01*
X155723323Y-128506895D01*
X155723327Y-128506897D01*
X155868998Y-128567235D01*
X155869003Y-128567237D01*
X156023653Y-128597999D01*
X156023656Y-128598000D01*
X156023658Y-128598000D01*
X156181344Y-128598000D01*
X156181345Y-128597999D01*
X156335997Y-128567237D01*
X156481679Y-128506894D01*
X156612789Y-128419289D01*
X156724289Y-128307789D01*
X156811894Y-128176679D01*
X156872237Y-128030997D01*
X156903000Y-127876342D01*
X156903000Y-127718658D01*
X156903000Y-127718655D01*
X156902999Y-127718653D01*
X156882134Y-127613760D01*
X156872237Y-127564003D01*
X156872235Y-127563998D01*
X156811897Y-127418327D01*
X156811890Y-127418314D01*
X156724289Y-127287211D01*
X156724286Y-127287207D01*
X156612792Y-127175713D01*
X156612788Y-127175710D01*
X156481685Y-127088109D01*
X156481672Y-127088102D01*
X156336001Y-127027764D01*
X156335989Y-127027761D01*
X156181345Y-126997000D01*
X156181342Y-126997000D01*
X156023658Y-126997000D01*
X156023655Y-126997000D01*
X155869005Y-127027761D01*
X155868993Y-127027765D01*
X155828421Y-127044570D01*
X155758952Y-127052037D01*
X155696474Y-127020760D01*
X155693291Y-127017689D01*
X153574265Y-124898663D01*
X153540780Y-124837340D01*
X153545764Y-124767648D01*
X153558842Y-124742094D01*
X153634290Y-124629179D01*
X153694633Y-124483497D01*
X153725396Y-124328842D01*
X153725396Y-124221153D01*
X155849500Y-124221153D01*
X155849500Y-124378846D01*
X155880261Y-124533489D01*
X155880264Y-124533501D01*
X155940602Y-124679172D01*
X155940609Y-124679185D01*
X156028210Y-124810288D01*
X156028213Y-124810292D01*
X156139707Y-124921786D01*
X156139711Y-124921789D01*
X156270814Y-125009390D01*
X156270827Y-125009397D01*
X156372952Y-125051698D01*
X156427356Y-125095538D01*
X156449421Y-125161833D01*
X156449500Y-125166259D01*
X156449500Y-125228846D01*
X156480261Y-125383489D01*
X156480264Y-125383501D01*
X156519540Y-125478322D01*
X156527009Y-125547791D01*
X156508084Y-125594660D01*
X156490612Y-125620810D01*
X156490602Y-125620828D01*
X156430264Y-125766498D01*
X156430261Y-125766510D01*
X156399500Y-125921153D01*
X156399500Y-126078846D01*
X156430261Y-126233489D01*
X156430264Y-126233501D01*
X156490602Y-126379172D01*
X156490609Y-126379185D01*
X156578210Y-126510288D01*
X156578213Y-126510292D01*
X156689707Y-126621786D01*
X156689711Y-126621789D01*
X156820814Y-126709390D01*
X156820827Y-126709397D01*
X156966498Y-126769735D01*
X156966503Y-126769737D01*
X157121153Y-126800499D01*
X157121156Y-126800500D01*
X157121158Y-126800500D01*
X157278844Y-126800500D01*
X157278845Y-126800499D01*
X157433497Y-126769737D01*
X157579179Y-126709394D01*
X157710289Y-126621789D01*
X157821789Y-126510289D01*
X157909394Y-126379179D01*
X157969737Y-126233497D01*
X158000500Y-126078842D01*
X158000500Y-125921158D01*
X158000500Y-125921155D01*
X158000499Y-125921153D01*
X157969738Y-125766510D01*
X157969737Y-125766503D01*
X157944777Y-125706243D01*
X157930459Y-125671675D01*
X157922990Y-125602206D01*
X157941917Y-125555334D01*
X157959394Y-125529179D01*
X158019737Y-125383497D01*
X158050500Y-125228842D01*
X158050500Y-125071158D01*
X158050500Y-125071155D01*
X158050499Y-125071153D01*
X158042729Y-125032092D01*
X158019737Y-124916503D01*
X158019735Y-124916498D01*
X157959397Y-124770827D01*
X157959390Y-124770814D01*
X157871789Y-124639711D01*
X157871786Y-124639707D01*
X157760292Y-124528213D01*
X157760288Y-124528210D01*
X157629185Y-124440609D01*
X157629175Y-124440604D01*
X157527047Y-124398301D01*
X157472644Y-124354460D01*
X157450579Y-124288166D01*
X157450500Y-124283740D01*
X157450500Y-124221155D01*
X157450499Y-124221153D01*
X157435112Y-124143797D01*
X157419737Y-124066503D01*
X157415539Y-124056369D01*
X157359397Y-123920827D01*
X157359390Y-123920814D01*
X157271789Y-123789711D01*
X157271786Y-123789707D01*
X157160292Y-123678213D01*
X157160288Y-123678210D01*
X157029185Y-123590609D01*
X157029172Y-123590602D01*
X156883501Y-123530264D01*
X156883489Y-123530261D01*
X156728845Y-123499500D01*
X156728842Y-123499500D01*
X156571158Y-123499500D01*
X156571155Y-123499500D01*
X156416510Y-123530261D01*
X156416498Y-123530264D01*
X156270827Y-123590602D01*
X156270814Y-123590609D01*
X156139711Y-123678210D01*
X156139707Y-123678213D01*
X156028213Y-123789707D01*
X156028210Y-123789711D01*
X155940609Y-123920814D01*
X155940602Y-123920827D01*
X155880264Y-124066498D01*
X155880261Y-124066510D01*
X155849500Y-124221153D01*
X153725396Y-124221153D01*
X153725396Y-124171158D01*
X153725396Y-124171155D01*
X153725395Y-124171153D01*
X153723193Y-124160085D01*
X153694633Y-124016503D01*
X153694631Y-124016498D01*
X153634293Y-123870827D01*
X153634286Y-123870814D01*
X153546686Y-123739712D01*
X153533124Y-123726150D01*
X153461746Y-123654772D01*
X153428263Y-123593452D01*
X153427812Y-123542901D01*
X153450500Y-123428844D01*
X153450500Y-123271155D01*
X153450499Y-123271153D01*
X153430543Y-123170827D01*
X153419737Y-123116503D01*
X153400499Y-123070058D01*
X153359397Y-122970827D01*
X153359390Y-122970814D01*
X153271789Y-122839711D01*
X153271786Y-122839707D01*
X153160292Y-122728213D01*
X153160288Y-122728210D01*
X153029185Y-122640609D01*
X153029172Y-122640602D01*
X153016462Y-122635338D01*
X152962058Y-122591498D01*
X152939993Y-122525204D01*
X152957272Y-122457504D01*
X152960813Y-122451885D01*
X153009389Y-122379187D01*
X153009390Y-122379184D01*
X153009394Y-122379179D01*
X153069737Y-122233497D01*
X153100500Y-122078842D01*
X153100500Y-121921158D01*
X153100500Y-121921155D01*
X153078107Y-121808581D01*
X153078814Y-121800673D01*
X153076040Y-121793234D01*
X153081884Y-121766369D01*
X153084334Y-121738989D01*
X153089582Y-121730979D01*
X153090892Y-121724961D01*
X153093743Y-121721153D01*
X154149500Y-121721153D01*
X154149500Y-121878846D01*
X154180261Y-122033489D01*
X154180264Y-122033501D01*
X154240602Y-122179172D01*
X154240609Y-122179185D01*
X154328210Y-122310288D01*
X154328213Y-122310292D01*
X154439707Y-122421786D01*
X154439711Y-122421789D01*
X154570814Y-122509390D01*
X154570827Y-122509397D01*
X154708736Y-122566520D01*
X154716503Y-122569737D01*
X154871153Y-122600499D01*
X154871156Y-122600500D01*
X154871158Y-122600500D01*
X155028844Y-122600500D01*
X155028845Y-122600499D01*
X155183497Y-122569737D01*
X155329179Y-122509394D01*
X155460289Y-122421789D01*
X155571789Y-122310289D01*
X155659394Y-122179179D01*
X155719737Y-122033497D01*
X155750500Y-121878842D01*
X155750500Y-121721158D01*
X155750500Y-121721155D01*
X155750499Y-121721153D01*
X155734845Y-121642455D01*
X155719737Y-121566503D01*
X155719735Y-121566498D01*
X155659397Y-121420827D01*
X155659390Y-121420814D01*
X155571789Y-121289711D01*
X155571786Y-121289707D01*
X155460292Y-121178213D01*
X155460288Y-121178210D01*
X155329185Y-121090609D01*
X155329172Y-121090602D01*
X155183501Y-121030264D01*
X155183489Y-121030261D01*
X155028845Y-120999500D01*
X155028842Y-120999500D01*
X154871158Y-120999500D01*
X154871155Y-120999500D01*
X154716510Y-121030261D01*
X154716498Y-121030264D01*
X154570827Y-121090602D01*
X154570814Y-121090609D01*
X154439711Y-121178210D01*
X154439707Y-121178213D01*
X154328213Y-121289707D01*
X154328210Y-121289711D01*
X154240609Y-121420814D01*
X154240602Y-121420827D01*
X154180264Y-121566498D01*
X154180261Y-121566510D01*
X154149500Y-121721153D01*
X153093743Y-121721153D01*
X153112040Y-121696710D01*
X153210962Y-121597789D01*
X153298567Y-121466679D01*
X153358910Y-121320997D01*
X153389673Y-121166342D01*
X153389673Y-121008658D01*
X153389673Y-121008655D01*
X153389672Y-121008653D01*
X153387851Y-120999500D01*
X153358910Y-120854003D01*
X153342787Y-120815078D01*
X153296236Y-120702692D01*
X153297680Y-120702093D01*
X153284993Y-120641176D01*
X153309990Y-120575931D01*
X153366293Y-120534557D01*
X153384391Y-120529504D01*
X153433497Y-120519737D01*
X153579179Y-120459394D01*
X153710289Y-120371789D01*
X153821789Y-120260289D01*
X153899469Y-120144031D01*
X153953079Y-120099228D01*
X154022404Y-120090521D01*
X154065039Y-120107294D01*
X154065451Y-120106524D01*
X154070822Y-120109395D01*
X154216498Y-120169735D01*
X154216503Y-120169737D01*
X154371153Y-120200499D01*
X154371156Y-120200500D01*
X154371158Y-120200500D01*
X154528844Y-120200500D01*
X154528845Y-120200499D01*
X154683497Y-120169737D01*
X154829179Y-120109394D01*
X154960289Y-120021789D01*
X155071789Y-119910289D01*
X155159394Y-119779179D01*
X155219737Y-119633497D01*
X155250500Y-119478842D01*
X155250500Y-119321158D01*
X155250500Y-119321155D01*
X155250499Y-119321153D01*
X155219738Y-119166510D01*
X155219737Y-119166503D01*
X155200475Y-119120000D01*
X155159397Y-119020827D01*
X155159390Y-119020814D01*
X155098306Y-118929396D01*
X155077428Y-118862719D01*
X155095912Y-118795338D01*
X155147891Y-118748648D01*
X155177208Y-118738890D01*
X155273497Y-118719737D01*
X155404387Y-118665521D01*
X155419172Y-118659397D01*
X155419172Y-118659396D01*
X155419179Y-118659394D01*
X155550289Y-118571789D01*
X155661789Y-118460289D01*
X155666897Y-118452645D01*
X155720509Y-118407839D01*
X155789834Y-118399130D01*
X155852861Y-118429284D01*
X155859720Y-118435940D01*
X155867134Y-118443711D01*
X155878211Y-118460289D01*
X155981262Y-118563340D01*
X155982279Y-118564406D01*
X155997661Y-118594223D01*
X156013725Y-118623642D01*
X156013616Y-118625152D01*
X156014312Y-118626500D01*
X156011133Y-118659884D01*
X156008741Y-118693334D01*
X156007810Y-118694782D01*
X156007689Y-118696055D01*
X156003866Y-118700917D01*
X155980240Y-118737681D01*
X155878213Y-118839707D01*
X155878210Y-118839711D01*
X155790609Y-118970814D01*
X155790602Y-118970827D01*
X155730264Y-119116498D01*
X155730261Y-119116510D01*
X155699500Y-119271153D01*
X155699500Y-119428846D01*
X155730261Y-119583489D01*
X155730264Y-119583501D01*
X155790602Y-119729172D01*
X155790609Y-119729185D01*
X155878210Y-119860288D01*
X155878213Y-119860292D01*
X155989707Y-119971786D01*
X155989711Y-119971789D01*
X156120814Y-120059390D01*
X156120827Y-120059397D01*
X156266498Y-120119735D01*
X156266503Y-120119737D01*
X156416131Y-120149500D01*
X156421153Y-120150499D01*
X156421156Y-120150500D01*
X156421158Y-120150500D01*
X156578844Y-120150500D01*
X156698034Y-120126791D01*
X156725402Y-120121347D01*
X156794994Y-120127574D01*
X156850171Y-120170437D01*
X156873416Y-120236326D01*
X156857348Y-120304323D01*
X156837276Y-120330645D01*
X156728210Y-120439711D01*
X156640609Y-120570814D01*
X156640602Y-120570827D01*
X156580264Y-120716498D01*
X156580261Y-120716510D01*
X156549500Y-120871153D01*
X156549500Y-121028846D01*
X156580261Y-121183489D01*
X156580264Y-121183501D01*
X156640602Y-121329172D01*
X156640609Y-121329185D01*
X156728210Y-121460288D01*
X156728213Y-121460292D01*
X156839707Y-121571786D01*
X156839711Y-121571789D01*
X156970814Y-121659390D01*
X156970827Y-121659397D01*
X157091279Y-121709289D01*
X157116503Y-121719737D01*
X157213289Y-121738989D01*
X157271153Y-121750499D01*
X157271156Y-121750500D01*
X157271158Y-121750500D01*
X157428844Y-121750500D01*
X157428845Y-121750499D01*
X157583497Y-121719737D01*
X157729179Y-121659394D01*
X157860289Y-121571789D01*
X157971789Y-121460289D01*
X158059394Y-121329179D01*
X158119737Y-121183497D01*
X158150500Y-121028842D01*
X158150500Y-120871158D01*
X158150500Y-120871155D01*
X158150499Y-120871153D01*
X158133226Y-120784316D01*
X158119737Y-120716503D01*
X158088536Y-120641176D01*
X158059397Y-120570827D01*
X158059390Y-120570814D01*
X157971789Y-120439711D01*
X157971786Y-120439707D01*
X157860292Y-120328213D01*
X157860288Y-120328210D01*
X157729185Y-120240609D01*
X157729172Y-120240602D01*
X157583501Y-120180264D01*
X157583489Y-120180261D01*
X157428845Y-120149500D01*
X157428842Y-120149500D01*
X157271158Y-120149500D01*
X157271153Y-120149500D01*
X157124596Y-120178652D01*
X157092492Y-120175779D01*
X157060277Y-120174363D01*
X157057901Y-120172684D01*
X157055004Y-120172425D01*
X157029545Y-120152647D01*
X157003215Y-120134043D01*
X157002123Y-120131346D01*
X156999827Y-120129562D01*
X156989103Y-120099164D01*
X156977010Y-120069273D01*
X156977550Y-120066413D01*
X156976583Y-120063672D01*
X156983993Y-120032310D01*
X156989982Y-120000618D01*
X156992205Y-119997561D01*
X156992651Y-119995675D01*
X157010350Y-119971794D01*
X157011518Y-119970559D01*
X157121789Y-119860289D01*
X157135940Y-119839110D01*
X157143156Y-119831487D01*
X157164640Y-119818977D01*
X157183719Y-119803033D01*
X157196649Y-119800340D01*
X157203536Y-119796331D01*
X157213750Y-119796780D01*
X157233211Y-119792728D01*
X157294388Y-119792728D01*
X157294389Y-119792727D01*
X157449041Y-119761965D01*
X157588946Y-119704015D01*
X157594716Y-119701625D01*
X157594716Y-119701624D01*
X157594723Y-119701622D01*
X157725833Y-119614017D01*
X157837333Y-119502517D01*
X157924938Y-119371407D01*
X157985281Y-119225725D01*
X158016044Y-119071070D01*
X158016044Y-118913386D01*
X158016044Y-118913383D01*
X158005863Y-118862203D01*
X158005863Y-118862202D01*
X157998928Y-118827341D01*
X157985281Y-118758731D01*
X157981105Y-118748648D01*
X157924941Y-118613055D01*
X157924934Y-118613042D01*
X157837333Y-118481939D01*
X157837330Y-118481935D01*
X157725835Y-118370440D01*
X157708954Y-118359161D01*
X157664148Y-118305549D01*
X157655441Y-118236224D01*
X157685595Y-118173196D01*
X157692974Y-118166138D01*
X157692937Y-118166101D01*
X157808741Y-118050296D01*
X157808744Y-118050293D01*
X157896349Y-117919183D01*
X157956692Y-117773501D01*
X157970527Y-117703946D01*
X157984304Y-117634690D01*
X157984304Y-117634689D01*
X157987455Y-117618848D01*
X157987455Y-117461159D01*
X157987454Y-117461157D01*
X157962367Y-117335037D01*
X157956692Y-117306507D01*
X157955685Y-117304075D01*
X157896352Y-117160831D01*
X157896345Y-117160818D01*
X157808744Y-117029715D01*
X157808741Y-117029711D01*
X157787408Y-117008378D01*
X157753923Y-116947055D01*
X157753472Y-116896505D01*
X157762499Y-116851126D01*
X157762499Y-116693442D01*
X157762499Y-116693439D01*
X157762498Y-116693437D01*
X157755726Y-116659394D01*
X157731736Y-116538787D01*
X157713585Y-116494966D01*
X157671396Y-116393111D01*
X157671389Y-116393098D01*
X157583788Y-116261995D01*
X157583785Y-116261991D01*
X157472291Y-116150497D01*
X157472287Y-116150494D01*
X157341184Y-116062893D01*
X157341171Y-116062886D01*
X157195500Y-116002548D01*
X157195488Y-116002545D01*
X157040844Y-115971784D01*
X157040841Y-115971784D01*
X157009504Y-115971784D01*
X156980358Y-115963225D01*
X156950639Y-115956921D01*
X156947159Y-115953477D01*
X156942465Y-115952099D01*
X156922574Y-115929144D01*
X156900980Y-115907771D01*
X156898734Y-115901631D01*
X156896710Y-115899295D01*
X156888475Y-115874767D01*
X156887724Y-115871398D01*
X156887724Y-115871158D01*
X156856961Y-115716503D01*
X156848796Y-115696792D01*
X156846453Y-115686280D01*
X156848081Y-115661735D01*
X156845452Y-115637280D01*
X156850353Y-115627488D01*
X156851078Y-115616563D01*
X156865716Y-115596796D01*
X156876727Y-115574801D01*
X156886144Y-115569213D01*
X156892661Y-115560414D01*
X156915663Y-115551698D01*
X156936816Y-115539149D01*
X156943255Y-115537687D01*
X157033497Y-115519737D01*
X157179179Y-115459394D01*
X157310289Y-115371789D01*
X157393161Y-115288916D01*
X157454482Y-115255432D01*
X157505031Y-115254981D01*
X157528921Y-115259733D01*
X157528922Y-115259733D01*
X157686607Y-115259733D01*
X157686608Y-115259732D01*
X157841260Y-115228970D01*
X157986942Y-115168627D01*
X158118052Y-115081022D01*
X158229552Y-114969522D01*
X158317157Y-114838412D01*
X158377500Y-114692730D01*
X158408263Y-114538075D01*
X158408263Y-114380391D01*
X158408263Y-114380388D01*
X158408262Y-114380386D01*
X158402759Y-114352722D01*
X158377500Y-114225736D01*
X158376244Y-114222703D01*
X158317160Y-114080060D01*
X158317153Y-114080047D01*
X158229553Y-113948945D01*
X158195219Y-113914611D01*
X158146603Y-113865995D01*
X158113120Y-113804675D01*
X158112669Y-113754127D01*
X158125500Y-113689624D01*
X158125500Y-113531940D01*
X158125500Y-113531937D01*
X158125499Y-113531935D01*
X158123537Y-113522070D01*
X158094737Y-113377285D01*
X158090649Y-113367415D01*
X158034397Y-113231609D01*
X158034390Y-113231596D01*
X157946789Y-113100493D01*
X157946786Y-113100489D01*
X157835292Y-112988995D01*
X157835288Y-112988992D01*
X157714673Y-112908399D01*
X157669868Y-112854787D01*
X157661161Y-112785462D01*
X157669003Y-112757844D01*
X157669351Y-112757005D01*
X157724016Y-112625031D01*
X157754779Y-112470376D01*
X157754779Y-112312692D01*
X157754779Y-112312689D01*
X157754778Y-112312687D01*
X157748111Y-112279172D01*
X157724016Y-112158037D01*
X157703817Y-112109272D01*
X157663676Y-112012361D01*
X157663669Y-112012348D01*
X157576068Y-111881245D01*
X157576065Y-111881241D01*
X157464571Y-111769747D01*
X157464567Y-111769744D01*
X157333464Y-111682143D01*
X157333452Y-111682137D01*
X157327045Y-111679483D01*
X157272642Y-111635641D01*
X157250579Y-111569346D01*
X157250500Y-111564923D01*
X157250500Y-111471155D01*
X157250499Y-111471153D01*
X157246968Y-111453400D01*
X157219737Y-111316503D01*
X157216097Y-111307716D01*
X157159397Y-111170827D01*
X157159390Y-111170814D01*
X157071789Y-111039711D01*
X157071786Y-111039707D01*
X156960292Y-110928213D01*
X156960288Y-110928210D01*
X156829185Y-110840609D01*
X156829172Y-110840602D01*
X156683501Y-110780264D01*
X156683489Y-110780261D01*
X156528845Y-110749500D01*
X156528842Y-110749500D01*
X156371158Y-110749500D01*
X156371155Y-110749500D01*
X156216510Y-110780261D01*
X156216498Y-110780264D01*
X156070827Y-110840602D01*
X156070814Y-110840609D01*
X155939711Y-110928210D01*
X155939707Y-110928213D01*
X155828213Y-111039707D01*
X155828210Y-111039711D01*
X155740609Y-111170814D01*
X155740602Y-111170827D01*
X155680264Y-111316498D01*
X155680261Y-111316510D01*
X155649500Y-111471153D01*
X155649500Y-111628846D01*
X155680261Y-111783489D01*
X155680264Y-111783501D01*
X155740602Y-111929172D01*
X155740609Y-111929185D01*
X155828210Y-112060288D01*
X155828213Y-112060292D01*
X155939707Y-112171786D01*
X155939711Y-112171789D01*
X156070817Y-112259392D01*
X156070819Y-112259393D01*
X156070821Y-112259394D01*
X156077229Y-112262048D01*
X156131634Y-112305888D01*
X156153700Y-112372181D01*
X156153779Y-112376610D01*
X156153779Y-112470380D01*
X156184540Y-112625023D01*
X156184543Y-112625035D01*
X156244881Y-112770706D01*
X156244888Y-112770719D01*
X156332489Y-112901822D01*
X156332492Y-112901826D01*
X156443989Y-113013323D01*
X156564606Y-113093916D01*
X156609411Y-113147528D01*
X156618118Y-113216853D01*
X156610276Y-113244470D01*
X156555264Y-113377280D01*
X156555261Y-113377292D01*
X156524500Y-113531935D01*
X156524500Y-113689628D01*
X156555261Y-113844271D01*
X156555264Y-113844282D01*
X156557535Y-113849765D01*
X156565001Y-113919234D01*
X156533724Y-113981712D01*
X156490426Y-114011774D01*
X156420821Y-114040606D01*
X156420814Y-114040609D01*
X156289711Y-114128210D01*
X156289707Y-114128213D01*
X156178213Y-114239707D01*
X156178208Y-114239714D01*
X156159858Y-114267176D01*
X156106245Y-114311981D01*
X156036920Y-114320687D01*
X155973893Y-114290531D01*
X155953655Y-114267175D01*
X155897905Y-114183740D01*
X155897902Y-114183736D01*
X155786408Y-114072242D01*
X155786404Y-114072239D01*
X155655301Y-113984638D01*
X155655288Y-113984631D01*
X155509617Y-113924293D01*
X155505980Y-113923190D01*
X155504309Y-113922094D01*
X155503986Y-113921961D01*
X155504011Y-113921899D01*
X155447544Y-113884889D01*
X155419091Y-113821075D01*
X155420365Y-113780339D01*
X155450500Y-113628844D01*
X155450500Y-113471155D01*
X155450499Y-113471153D01*
X155419738Y-113316510D01*
X155419737Y-113316503D01*
X155384568Y-113231596D01*
X155359397Y-113170827D01*
X155359390Y-113170814D01*
X155271789Y-113039711D01*
X155271786Y-113039707D01*
X155160292Y-112928213D01*
X155160288Y-112928210D01*
X155029185Y-112840609D01*
X155029172Y-112840602D01*
X154883501Y-112780264D01*
X154883489Y-112780261D01*
X154728845Y-112749500D01*
X154728842Y-112749500D01*
X154571158Y-112749500D01*
X154571155Y-112749500D01*
X154416505Y-112780261D01*
X154416491Y-112780266D01*
X154415135Y-112780828D01*
X154414367Y-112780910D01*
X154410670Y-112782032D01*
X154410457Y-112781330D01*
X154386178Y-112783937D01*
X154357662Y-112789854D01*
X154351852Y-112787623D01*
X154345665Y-112788288D01*
X154319625Y-112775249D01*
X154292435Y-112764809D01*
X154286811Y-112758818D01*
X154283190Y-112757005D01*
X154267720Y-112739613D01*
X154266104Y-112737410D01*
X154259289Y-112727211D01*
X154256779Y-112724701D01*
X154251176Y-112717064D01*
X154242375Y-112692758D01*
X154229987Y-112670070D01*
X154230675Y-112660442D01*
X154227390Y-112651368D01*
X154233126Y-112626163D01*
X154234971Y-112600378D01*
X154241203Y-112590680D01*
X154242897Y-112583241D01*
X154251252Y-112575044D01*
X154263472Y-112556031D01*
X154278785Y-112540719D01*
X154366390Y-112409609D01*
X154370806Y-112398949D01*
X154383706Y-112367804D01*
X154426733Y-112263927D01*
X154457496Y-112109272D01*
X154457496Y-111951588D01*
X154457496Y-111951585D01*
X154457495Y-111951583D01*
X154453040Y-111929185D01*
X154426733Y-111796933D01*
X154415472Y-111769747D01*
X154366393Y-111651257D01*
X154366386Y-111651244D01*
X154278785Y-111520141D01*
X154278782Y-111520137D01*
X154167288Y-111408643D01*
X154167284Y-111408640D01*
X154036181Y-111321039D01*
X154036168Y-111321032D01*
X153917125Y-111271724D01*
X153862721Y-111227884D01*
X153850016Y-111204615D01*
X153800706Y-111085569D01*
X153800699Y-111085556D01*
X153713098Y-110954453D01*
X153713095Y-110954449D01*
X153601601Y-110842955D01*
X153601597Y-110842952D01*
X153470494Y-110755351D01*
X153470481Y-110755344D01*
X153324810Y-110695006D01*
X153324798Y-110695003D01*
X153170154Y-110664242D01*
X153170151Y-110664242D01*
X153019918Y-110664242D01*
X152952879Y-110644557D01*
X152907124Y-110591753D01*
X152898301Y-110564433D01*
X152871330Y-110428844D01*
X152868150Y-110412857D01*
X152846376Y-110360289D01*
X152807810Y-110267181D01*
X152807803Y-110267168D01*
X152720202Y-110136065D01*
X152720199Y-110136061D01*
X152608705Y-110024567D01*
X152608701Y-110024564D01*
X152477598Y-109936963D01*
X152477585Y-109936956D01*
X152331914Y-109876618D01*
X152331902Y-109876615D01*
X152177258Y-109845854D01*
X152177255Y-109845854D01*
X152019571Y-109845854D01*
X152019568Y-109845854D01*
X151864923Y-109876615D01*
X151864911Y-109876618D01*
X151719241Y-109936956D01*
X151719229Y-109936963D01*
X151694899Y-109953219D01*
X151628221Y-109974094D01*
X151578560Y-109964675D01*
X151534981Y-109946624D01*
X151534973Y-109946621D01*
X151380324Y-109915860D01*
X151380321Y-109915860D01*
X151222637Y-109915860D01*
X151222634Y-109915860D01*
X151067989Y-109946621D01*
X151067977Y-109946624D01*
X150922307Y-110006962D01*
X150922291Y-110006971D01*
X150886510Y-110030879D01*
X150819833Y-110051756D01*
X150770170Y-110042338D01*
X150739285Y-110029545D01*
X150739281Y-110029544D01*
X150739276Y-110029542D01*
X150584633Y-109998782D01*
X150584630Y-109998782D01*
X150426946Y-109998782D01*
X150424721Y-109998782D01*
X150357682Y-109979097D01*
X150311927Y-109926293D01*
X150301983Y-109857135D01*
X150310160Y-109827329D01*
X150369737Y-109683497D01*
X150400500Y-109528842D01*
X150400500Y-109371158D01*
X150400500Y-109371155D01*
X150400499Y-109371153D01*
X150394244Y-109339707D01*
X150369737Y-109216503D01*
X150367537Y-109211192D01*
X150309397Y-109070827D01*
X150309390Y-109070814D01*
X150221789Y-108939711D01*
X150221786Y-108939707D01*
X150110292Y-108828213D01*
X150110288Y-108828210D01*
X149979185Y-108740609D01*
X149979172Y-108740602D01*
X149833501Y-108680264D01*
X149833489Y-108680261D01*
X149678845Y-108649500D01*
X149678842Y-108649500D01*
X149521158Y-108649500D01*
X149521155Y-108649500D01*
X149366510Y-108680261D01*
X149366498Y-108680264D01*
X149220827Y-108740602D01*
X149220814Y-108740609D01*
X149089711Y-108828210D01*
X149089707Y-108828213D01*
X148978213Y-108939707D01*
X148978210Y-108939711D01*
X148890609Y-109070814D01*
X148890602Y-109070827D01*
X148830264Y-109216498D01*
X148830261Y-109216510D01*
X148799500Y-109371153D01*
X148798903Y-109377218D01*
X148797080Y-109377038D01*
X148779815Y-109435836D01*
X148727011Y-109481591D01*
X148675500Y-109492797D01*
X148551155Y-109492797D01*
X148396510Y-109523558D01*
X148396498Y-109523561D01*
X148250827Y-109583899D01*
X148250814Y-109583906D01*
X148119711Y-109671507D01*
X148119707Y-109671510D01*
X148008213Y-109783004D01*
X148008210Y-109783008D01*
X147920609Y-109914111D01*
X147920602Y-109914124D01*
X147860264Y-110059795D01*
X147860261Y-110059807D01*
X147829500Y-110214450D01*
X147829500Y-110372143D01*
X147860261Y-110526786D01*
X147860264Y-110526798D01*
X147920602Y-110672469D01*
X147920611Y-110672485D01*
X147941515Y-110703771D01*
X147962392Y-110770448D01*
X147943907Y-110837828D01*
X147891927Y-110884518D01*
X147822957Y-110895693D01*
X147814220Y-110894277D01*
X147774630Y-110886402D01*
X147774628Y-110886402D01*
X147616944Y-110886402D01*
X147616941Y-110886402D01*
X147462296Y-110917163D01*
X147462284Y-110917166D01*
X147316613Y-110977504D01*
X147316600Y-110977511D01*
X147185497Y-111065112D01*
X147185493Y-111065115D01*
X147073999Y-111176609D01*
X147073996Y-111176613D01*
X146986395Y-111307716D01*
X146986388Y-111307729D01*
X146926050Y-111453400D01*
X146926047Y-111453412D01*
X146895286Y-111608055D01*
X146895286Y-111765748D01*
X146926047Y-111920391D01*
X146926050Y-111920403D01*
X146986390Y-112066078D01*
X146986906Y-112067043D01*
X146987023Y-112067606D01*
X146988723Y-112071710D01*
X146987945Y-112072032D01*
X147001151Y-112135445D01*
X146976152Y-112200690D01*
X146919849Y-112242062D01*
X146877550Y-112249500D01*
X146871155Y-112249500D01*
X146716510Y-112280261D01*
X146716498Y-112280264D01*
X146570827Y-112340602D01*
X146570814Y-112340609D01*
X146444918Y-112424731D01*
X146378240Y-112445609D01*
X146310860Y-112427124D01*
X146264170Y-112375146D01*
X146252994Y-112306176D01*
X146261466Y-112274176D01*
X146265710Y-112263931D01*
X146319737Y-112133497D01*
X146350500Y-111978842D01*
X146350500Y-111821158D01*
X146350500Y-111821155D01*
X146350499Y-111821153D01*
X146345680Y-111796928D01*
X146319737Y-111666503D01*
X146313422Y-111651257D01*
X146259397Y-111520827D01*
X146259390Y-111520814D01*
X146171789Y-111389711D01*
X146171786Y-111389707D01*
X146060292Y-111278213D01*
X146060288Y-111278210D01*
X145929185Y-111190609D01*
X145929172Y-111190602D01*
X145783501Y-111130264D01*
X145783489Y-111130261D01*
X145628845Y-111099500D01*
X145628842Y-111099500D01*
X145471158Y-111099500D01*
X145471155Y-111099500D01*
X145316510Y-111130261D01*
X145316498Y-111130264D01*
X145170827Y-111190602D01*
X145170814Y-111190609D01*
X145039711Y-111278210D01*
X145039707Y-111278213D01*
X144928213Y-111389707D01*
X144928210Y-111389711D01*
X144840609Y-111520814D01*
X144840602Y-111520827D01*
X144780264Y-111666498D01*
X144780261Y-111666510D01*
X144749500Y-111821153D01*
X144749500Y-111978846D01*
X144780261Y-112133489D01*
X144780264Y-112133501D01*
X144840602Y-112279172D01*
X144840609Y-112279185D01*
X144928210Y-112410288D01*
X144928213Y-112410292D01*
X145039707Y-112521786D01*
X145039711Y-112521789D01*
X145170814Y-112609390D01*
X145170827Y-112609397D01*
X145305530Y-112665192D01*
X145316503Y-112669737D01*
X145432237Y-112692758D01*
X145471153Y-112700499D01*
X145471156Y-112700500D01*
X145471158Y-112700500D01*
X145628844Y-112700500D01*
X145628845Y-112700499D01*
X145783497Y-112669737D01*
X145929179Y-112609394D01*
X146055084Y-112525266D01*
X146121758Y-112504390D01*
X146189138Y-112522874D01*
X146235829Y-112574853D01*
X146247005Y-112643822D01*
X146238534Y-112675822D01*
X146217250Y-112727207D01*
X146180263Y-112816503D01*
X146180262Y-112816506D01*
X146180262Y-112816507D01*
X146180261Y-112816510D01*
X146149500Y-112971153D01*
X146149500Y-113128846D01*
X146180261Y-113283489D01*
X146180264Y-113283501D01*
X146240602Y-113429172D01*
X146240609Y-113429185D01*
X146328210Y-113560288D01*
X146328213Y-113560292D01*
X146439707Y-113671786D01*
X146439711Y-113671789D01*
X146570814Y-113759390D01*
X146570827Y-113759397D01*
X146716498Y-113819735D01*
X146716503Y-113819737D01*
X146866201Y-113849514D01*
X146871153Y-113850499D01*
X146871156Y-113850500D01*
X146871158Y-113850500D01*
X147028844Y-113850500D01*
X147028845Y-113850499D01*
X147183497Y-113819737D01*
X147329179Y-113759394D01*
X147460289Y-113671789D01*
X147571789Y-113560289D01*
X147659394Y-113429179D01*
X147719737Y-113283497D01*
X147750500Y-113128842D01*
X147750500Y-112971158D01*
X147750500Y-112971155D01*
X147750499Y-112971153D01*
X147734660Y-112891526D01*
X147719737Y-112816503D01*
X147707775Y-112787623D01*
X147659395Y-112670823D01*
X147658880Y-112669859D01*
X147658762Y-112669295D01*
X147657063Y-112665192D01*
X147657840Y-112664869D01*
X147644635Y-112601457D01*
X147669634Y-112536212D01*
X147725937Y-112494840D01*
X147768236Y-112487402D01*
X147774630Y-112487402D01*
X147774631Y-112487401D01*
X147929283Y-112456639D01*
X148050528Y-112406417D01*
X148119997Y-112398949D01*
X148166871Y-112417877D01*
X148300406Y-112507103D01*
X148300419Y-112507110D01*
X148446090Y-112567448D01*
X148446095Y-112567450D01*
X148510739Y-112580308D01*
X148601441Y-112598351D01*
X148663352Y-112630736D01*
X148664931Y-112632287D01*
X149189734Y-113157090D01*
X149223219Y-113218413D01*
X149226053Y-113244771D01*
X149226053Y-119856051D01*
X149206368Y-119923090D01*
X149153564Y-119968845D01*
X149084406Y-119978789D01*
X149077862Y-119977668D01*
X148928846Y-119948027D01*
X148928842Y-119948027D01*
X148771158Y-119948027D01*
X148771155Y-119948027D01*
X148616510Y-119978788D01*
X148616498Y-119978791D01*
X148470827Y-120039129D01*
X148470814Y-120039136D01*
X148339711Y-120126737D01*
X148339707Y-120126740D01*
X148228213Y-120238234D01*
X148228210Y-120238238D01*
X148140609Y-120369341D01*
X148140604Y-120369351D01*
X148111213Y-120440308D01*
X148067372Y-120494711D01*
X148001078Y-120516776D01*
X147946183Y-120506120D01*
X147936536Y-120501821D01*
X147919751Y-120490606D01*
X147800667Y-120441280D01*
X147799172Y-120440614D01*
X147773741Y-120418985D01*
X147747785Y-120398069D01*
X147747014Y-120396255D01*
X147745948Y-120395348D01*
X147744238Y-120389719D01*
X147728024Y-120351543D01*
X147712297Y-120272473D01*
X147682485Y-120200499D01*
X147651957Y-120126797D01*
X147651950Y-120126784D01*
X147564349Y-119995681D01*
X147564344Y-119995675D01*
X147452852Y-119884183D01*
X147452848Y-119884180D01*
X147321745Y-119796579D01*
X147321732Y-119796572D01*
X147176061Y-119736234D01*
X147176049Y-119736231D01*
X147021405Y-119705470D01*
X147021402Y-119705470D01*
X146863718Y-119705470D01*
X146863715Y-119705470D01*
X146709071Y-119736230D01*
X146709066Y-119736232D01*
X146709064Y-119736232D01*
X146709063Y-119736233D01*
X146661635Y-119755878D01*
X146592165Y-119763345D01*
X146545293Y-119744418D01*
X146484831Y-119704018D01*
X146484818Y-119704011D01*
X146339147Y-119643673D01*
X146339135Y-119643670D01*
X146184491Y-119612909D01*
X146184488Y-119612909D01*
X146172794Y-119612909D01*
X146105755Y-119593224D01*
X146069692Y-119557800D01*
X146033938Y-119504290D01*
X146033936Y-119504287D01*
X145922441Y-119392792D01*
X145922431Y-119392783D01*
X145914295Y-119387347D01*
X145869492Y-119333733D01*
X145860789Y-119264407D01*
X145890947Y-119201382D01*
X145895491Y-119196586D01*
X145981789Y-119110289D01*
X146069394Y-118979179D01*
X146072854Y-118970827D01*
X146096647Y-118913383D01*
X146129737Y-118833497D01*
X146160500Y-118678842D01*
X146160500Y-118521158D01*
X146160500Y-118521155D01*
X146160499Y-118521153D01*
X146129739Y-118366511D01*
X146129737Y-118366505D01*
X146129737Y-118366503D01*
X146107071Y-118311783D01*
X146099603Y-118242316D01*
X146130878Y-118179837D01*
X146133925Y-118176679D01*
X146231789Y-118078816D01*
X146319394Y-117947706D01*
X146379737Y-117802024D01*
X146410500Y-117647369D01*
X146410500Y-117489685D01*
X146410500Y-117489682D01*
X146410499Y-117489680D01*
X146403353Y-117453757D01*
X146379737Y-117335030D01*
X146376913Y-117328213D01*
X146317063Y-117183719D01*
X146318132Y-117183276D01*
X146305154Y-117120955D01*
X146314193Y-117083450D01*
X146359737Y-116973497D01*
X146390500Y-116818842D01*
X146390500Y-116661158D01*
X146390500Y-116661155D01*
X146390499Y-116661153D01*
X146381393Y-116615373D01*
X146359737Y-116506503D01*
X146340594Y-116460288D01*
X146299397Y-116360827D01*
X146299390Y-116360814D01*
X146211789Y-116229711D01*
X146211786Y-116229707D01*
X146100292Y-116118213D01*
X146100288Y-116118210D01*
X145969185Y-116030609D01*
X145969172Y-116030602D01*
X145823501Y-115970264D01*
X145823489Y-115970261D01*
X145668845Y-115939500D01*
X145668842Y-115939500D01*
X145511158Y-115939500D01*
X145511155Y-115939500D01*
X145356510Y-115970261D01*
X145356498Y-115970264D01*
X145210827Y-116030602D01*
X145210814Y-116030609D01*
X145079711Y-116118210D01*
X145079707Y-116118213D01*
X144968213Y-116229707D01*
X144968210Y-116229711D01*
X144880609Y-116360814D01*
X144880602Y-116360827D01*
X144820264Y-116506498D01*
X144820261Y-116506510D01*
X144789500Y-116661153D01*
X144789500Y-116818846D01*
X144820261Y-116973489D01*
X144820264Y-116973501D01*
X144882937Y-117124807D01*
X144881867Y-117125249D01*
X144894846Y-117187571D01*
X144885806Y-117225078D01*
X144840264Y-117335025D01*
X144840261Y-117335037D01*
X144809500Y-117489680D01*
X144809500Y-117647373D01*
X144840260Y-117802015D01*
X144840263Y-117802025D01*
X144862927Y-117856740D01*
X144870396Y-117926209D01*
X144839121Y-117988688D01*
X144836048Y-117991873D01*
X144738210Y-118089711D01*
X144650609Y-118220814D01*
X144650602Y-118220827D01*
X144590264Y-118366498D01*
X144590261Y-118366510D01*
X144559500Y-118521153D01*
X144559500Y-118598482D01*
X144539815Y-118665521D01*
X144504391Y-118701584D01*
X144389711Y-118778210D01*
X144389707Y-118778213D01*
X144278213Y-118889707D01*
X144278210Y-118889711D01*
X144190609Y-119020814D01*
X144190602Y-119020827D01*
X144130264Y-119166498D01*
X144130261Y-119166510D01*
X144099500Y-119321153D01*
X144099500Y-119478846D01*
X144130261Y-119633489D01*
X144130264Y-119633501D01*
X144190602Y-119779172D01*
X144190609Y-119779185D01*
X144278210Y-119910288D01*
X144278213Y-119910292D01*
X144389707Y-120021786D01*
X144389711Y-120021789D01*
X144520814Y-120109390D01*
X144520827Y-120109397D01*
X144562031Y-120126464D01*
X144616435Y-120170304D01*
X144636196Y-120216831D01*
X144642411Y-120248073D01*
X144642412Y-120248078D01*
X144702751Y-120393751D01*
X144702758Y-120393764D01*
X144790359Y-120524867D01*
X144790362Y-120524871D01*
X144901856Y-120636365D01*
X144901860Y-120636368D01*
X145032963Y-120723969D01*
X145032976Y-120723976D01*
X145178647Y-120784314D01*
X145178652Y-120784316D01*
X145333302Y-120815078D01*
X145333305Y-120815079D01*
X145333307Y-120815079D01*
X145345001Y-120815079D01*
X145412040Y-120834764D01*
X145448102Y-120870187D01*
X145448748Y-120871153D01*
X145483858Y-120923700D01*
X145595353Y-121035195D01*
X145595357Y-121035198D01*
X145726460Y-121122799D01*
X145726467Y-121122803D01*
X145805692Y-121155619D01*
X145820595Y-121167628D01*
X145838117Y-121175335D01*
X145847237Y-121189097D01*
X145860094Y-121199458D01*
X145866139Y-121217619D01*
X145876714Y-121233577D01*
X145876945Y-121250086D01*
X145882160Y-121265752D01*
X145877426Y-121284299D01*
X145877695Y-121303439D01*
X145868965Y-121317451D01*
X145864882Y-121333451D01*
X145850871Y-121346495D01*
X145840750Y-121362742D01*
X145818274Y-121376844D01*
X145813745Y-121381062D01*
X145811330Y-121382239D01*
X145808530Y-121383565D01*
X145670821Y-121440606D01*
X145628631Y-121468796D01*
X145620398Y-121472697D01*
X145594516Y-121476790D01*
X145569519Y-121484617D01*
X145560562Y-121482159D01*
X145551386Y-121483611D01*
X145527404Y-121473063D01*
X145502139Y-121466132D01*
X145492516Y-121457718D01*
X145487429Y-121455481D01*
X145483945Y-121450223D01*
X145476447Y-121443667D01*
X145476097Y-121444018D01*
X145360292Y-121328213D01*
X145360288Y-121328210D01*
X145229185Y-121240609D01*
X145229172Y-121240602D01*
X145083501Y-121180264D01*
X145083489Y-121180261D01*
X144928845Y-121149500D01*
X144928842Y-121149500D01*
X144771158Y-121149500D01*
X144771155Y-121149500D01*
X144616510Y-121180261D01*
X144616498Y-121180264D01*
X144470827Y-121240602D01*
X144470814Y-121240609D01*
X144339711Y-121328210D01*
X144339707Y-121328213D01*
X144228213Y-121439707D01*
X144228210Y-121439711D01*
X144140609Y-121570814D01*
X144140602Y-121570827D01*
X144080264Y-121716498D01*
X144080261Y-121716510D01*
X144049500Y-121871153D01*
X141086122Y-121871153D01*
X141043797Y-121757671D01*
X141043793Y-121757664D01*
X140957547Y-121642455D01*
X140957544Y-121642452D01*
X140842335Y-121556206D01*
X140842328Y-121556202D01*
X140707482Y-121505908D01*
X140707483Y-121505908D01*
X140647883Y-121499501D01*
X140647881Y-121499500D01*
X140647873Y-121499500D01*
X140647864Y-121499500D01*
X138852129Y-121499500D01*
X138852123Y-121499501D01*
X138792514Y-121505909D01*
X138667871Y-121552397D01*
X138598179Y-121557381D01*
X138536857Y-121523895D01*
X138503372Y-121462571D01*
X138500539Y-121436215D01*
X138500702Y-118729256D01*
X138520391Y-118662220D01*
X138573197Y-118616469D01*
X138642356Y-118606529D01*
X138705910Y-118635558D01*
X138718984Y-118648725D01*
X138719892Y-118649788D01*
X138870213Y-118800109D01*
X139042179Y-118925048D01*
X139042181Y-118925049D01*
X139042184Y-118925051D01*
X139231588Y-119021557D01*
X139433757Y-119087246D01*
X139643713Y-119120500D01*
X139643714Y-119120500D01*
X139856286Y-119120500D01*
X139856287Y-119120500D01*
X140066243Y-119087246D01*
X140268412Y-119021557D01*
X140457816Y-118925051D01*
X140512572Y-118885269D01*
X140629786Y-118800109D01*
X140629788Y-118800106D01*
X140629792Y-118800104D01*
X140780104Y-118649792D01*
X140780106Y-118649788D01*
X140780109Y-118649786D01*
X140905048Y-118477820D01*
X140905047Y-118477820D01*
X140905051Y-118477816D01*
X141001557Y-118288412D01*
X141067246Y-118086243D01*
X141100500Y-117876287D01*
X141100500Y-117663713D01*
X141067246Y-117453757D01*
X141001557Y-117251588D01*
X140905051Y-117062184D01*
X140905049Y-117062181D01*
X140905048Y-117062179D01*
X140780109Y-116890213D01*
X140629786Y-116739890D01*
X140457820Y-116614951D01*
X140449600Y-116610763D01*
X140449054Y-116610485D01*
X140398259Y-116562512D01*
X140381463Y-116494692D01*
X140403999Y-116428556D01*
X140449054Y-116389515D01*
X140457816Y-116385051D01*
X140539392Y-116325783D01*
X140629786Y-116260109D01*
X140629788Y-116260106D01*
X140629792Y-116260104D01*
X140780104Y-116109792D01*
X140780106Y-116109788D01*
X140780109Y-116109786D01*
X140889086Y-115959789D01*
X140905051Y-115937816D01*
X141001557Y-115748412D01*
X141067246Y-115546243D01*
X141100500Y-115336287D01*
X141100500Y-115123713D01*
X141067246Y-114913757D01*
X141001557Y-114711588D01*
X140905051Y-114522184D01*
X140905049Y-114522181D01*
X140905048Y-114522179D01*
X140780109Y-114350213D01*
X140629786Y-114199890D01*
X140457820Y-114074951D01*
X140452497Y-114072239D01*
X140449054Y-114070485D01*
X140398259Y-114022512D01*
X140381463Y-113954692D01*
X140403999Y-113888556D01*
X140449054Y-113849515D01*
X140457816Y-113845051D01*
X140479789Y-113829086D01*
X140629786Y-113720109D01*
X140629788Y-113720106D01*
X140629792Y-113720104D01*
X140780104Y-113569792D01*
X140814776Y-113522070D01*
X141493268Y-113522070D01*
X141493268Y-113679763D01*
X141524029Y-113834406D01*
X141524032Y-113834418D01*
X141584370Y-113980089D01*
X141584377Y-113980102D01*
X141671978Y-114111205D01*
X141671981Y-114111209D01*
X141783475Y-114222703D01*
X141783479Y-114222706D01*
X141914582Y-114310307D01*
X141914595Y-114310314D01*
X142048789Y-114365898D01*
X142060271Y-114370654D01*
X142182279Y-114394923D01*
X142214921Y-114401416D01*
X142214924Y-114401417D01*
X142214926Y-114401417D01*
X142230812Y-114401417D01*
X142297851Y-114421102D01*
X142343606Y-114473906D01*
X142353550Y-114543064D01*
X142345373Y-114572869D01*
X142326247Y-114619042D01*
X142326244Y-114619054D01*
X142295483Y-114773697D01*
X142295483Y-114931390D01*
X142326244Y-115086033D01*
X142326247Y-115086045D01*
X142386585Y-115231716D01*
X142386592Y-115231729D01*
X142474193Y-115362832D01*
X142474196Y-115362836D01*
X142585690Y-115474330D01*
X142585694Y-115474333D01*
X142716797Y-115561934D01*
X142716801Y-115561936D01*
X142716804Y-115561938D01*
X142767042Y-115582747D01*
X142821446Y-115626586D01*
X142843512Y-115692880D01*
X142834153Y-115744759D01*
X142808309Y-115807153D01*
X142808308Y-115807156D01*
X142808308Y-115807157D01*
X142808307Y-115807160D01*
X142777546Y-115961803D01*
X142777546Y-116119496D01*
X142808307Y-116274139D01*
X142808310Y-116274151D01*
X142868648Y-116419822D01*
X142868655Y-116419835D01*
X142956256Y-116550938D01*
X142956259Y-116550942D01*
X143067753Y-116662436D01*
X143067757Y-116662439D01*
X143198860Y-116750040D01*
X143198873Y-116750047D01*
X143344544Y-116810385D01*
X143344549Y-116810387D01*
X143344553Y-116810387D01*
X143344554Y-116810388D01*
X143370578Y-116815565D01*
X143432489Y-116847950D01*
X143467063Y-116908666D01*
X143463322Y-116978436D01*
X143422456Y-117035107D01*
X143370578Y-117058799D01*
X143314989Y-117069856D01*
X143314979Y-117069859D01*
X143169308Y-117130197D01*
X143169295Y-117130204D01*
X143038192Y-117217805D01*
X143038188Y-117217808D01*
X142926694Y-117329302D01*
X142926691Y-117329306D01*
X142839090Y-117460409D01*
X142839083Y-117460422D01*
X142778745Y-117606093D01*
X142778742Y-117606105D01*
X142747981Y-117760748D01*
X142747981Y-117918441D01*
X142778742Y-118073084D01*
X142778745Y-118073096D01*
X142839083Y-118218767D01*
X142839090Y-118218780D01*
X142926691Y-118349883D01*
X142926694Y-118349887D01*
X143038188Y-118461381D01*
X143038192Y-118461384D01*
X143169295Y-118548985D01*
X143169308Y-118548992D01*
X143291247Y-118599500D01*
X143314984Y-118609332D01*
X143420211Y-118630263D01*
X143469634Y-118640094D01*
X143469637Y-118640095D01*
X143469639Y-118640095D01*
X143627325Y-118640095D01*
X143627326Y-118640094D01*
X143781978Y-118609332D01*
X143894647Y-118562662D01*
X143927653Y-118548992D01*
X143927653Y-118548991D01*
X143927660Y-118548989D01*
X144058770Y-118461384D01*
X144170270Y-118349884D01*
X144257875Y-118218774D01*
X144318218Y-118073092D01*
X144348981Y-117918437D01*
X144348981Y-117760753D01*
X144348981Y-117760750D01*
X144348980Y-117760748D01*
X144326428Y-117647373D01*
X144318218Y-117606098D01*
X144306168Y-117577007D01*
X144257878Y-117460422D01*
X144257871Y-117460409D01*
X144170270Y-117329306D01*
X144170267Y-117329302D01*
X144058773Y-117217808D01*
X144058769Y-117217805D01*
X143927666Y-117130204D01*
X143927653Y-117130197D01*
X143781982Y-117069859D01*
X143781976Y-117069857D01*
X143755945Y-117064679D01*
X143694035Y-117032292D01*
X143659463Y-116971575D01*
X143663205Y-116901806D01*
X143704073Y-116845135D01*
X143755945Y-116821446D01*
X143811543Y-116810387D01*
X143957225Y-116750044D01*
X144088335Y-116662439D01*
X144199835Y-116550939D01*
X144287440Y-116419829D01*
X144347783Y-116274147D01*
X144358636Y-116219582D01*
X144391020Y-116157674D01*
X144432799Y-116129214D01*
X144480652Y-116109394D01*
X144611762Y-116021789D01*
X144723262Y-115910289D01*
X144810867Y-115779179D01*
X144871210Y-115633497D01*
X144901973Y-115478842D01*
X144901973Y-115431111D01*
X144921658Y-115364072D01*
X144974462Y-115318317D01*
X145025973Y-115307111D01*
X145166169Y-115307111D01*
X145166170Y-115307110D01*
X145320822Y-115276348D01*
X145466504Y-115216005D01*
X145597614Y-115128400D01*
X145709114Y-115016900D01*
X145796719Y-114885790D01*
X145857062Y-114740108D01*
X145887825Y-114585453D01*
X145887825Y-114427769D01*
X145887825Y-114427766D01*
X145887824Y-114427764D01*
X145876464Y-114370654D01*
X145857062Y-114273114D01*
X145855942Y-114270411D01*
X145796722Y-114127438D01*
X145796715Y-114127425D01*
X145709114Y-113996322D01*
X145709111Y-113996318D01*
X145597617Y-113884824D01*
X145597613Y-113884821D01*
X145466510Y-113797220D01*
X145466497Y-113797213D01*
X145320826Y-113736875D01*
X145320814Y-113736872D01*
X145166170Y-113706111D01*
X145166167Y-113706111D01*
X145008483Y-113706111D01*
X145008480Y-113706111D01*
X144853835Y-113736872D01*
X144853823Y-113736875D01*
X144708153Y-113797213D01*
X144708137Y-113797222D01*
X144642171Y-113841298D01*
X144575493Y-113862175D01*
X144535727Y-113854635D01*
X144535303Y-113856035D01*
X144529471Y-113854265D01*
X144374828Y-113823505D01*
X144374825Y-113823505D01*
X144217141Y-113823505D01*
X144217138Y-113823505D01*
X144062493Y-113854266D01*
X144062490Y-113854267D01*
X144062489Y-113854267D01*
X144062486Y-113854268D01*
X144004902Y-113878120D01*
X143977896Y-113889306D01*
X143908426Y-113896774D01*
X143845947Y-113865498D01*
X143810295Y-113805409D01*
X143808827Y-113798936D01*
X143789738Y-113702972D01*
X143789737Y-113702971D01*
X143789737Y-113702967D01*
X143767639Y-113649617D01*
X143729397Y-113557291D01*
X143729390Y-113557278D01*
X143641789Y-113426175D01*
X143641786Y-113426171D01*
X143530292Y-113314677D01*
X143530288Y-113314674D01*
X143399185Y-113227073D01*
X143399172Y-113227066D01*
X143253501Y-113166728D01*
X143253489Y-113166725D01*
X143098845Y-113135964D01*
X143098842Y-113135964D01*
X143011411Y-113135964D01*
X142944372Y-113116279D01*
X142920115Y-113094684D01*
X142919865Y-113094935D01*
X142804060Y-112979130D01*
X142804056Y-112979127D01*
X142672953Y-112891526D01*
X142672940Y-112891519D01*
X142527269Y-112831181D01*
X142527257Y-112831178D01*
X142372613Y-112800417D01*
X142372610Y-112800417D01*
X142214926Y-112800417D01*
X142214923Y-112800417D01*
X142060278Y-112831178D01*
X142060266Y-112831181D01*
X141914595Y-112891519D01*
X141914582Y-112891526D01*
X141783479Y-112979127D01*
X141783475Y-112979130D01*
X141671981Y-113090624D01*
X141671978Y-113090628D01*
X141584377Y-113221731D01*
X141584370Y-113221744D01*
X141524032Y-113367415D01*
X141524029Y-113367427D01*
X141493268Y-113522070D01*
X140814776Y-113522070D01*
X140851765Y-113471158D01*
X140872150Y-113443101D01*
X140872152Y-113443098D01*
X140882260Y-113429185D01*
X140905051Y-113397816D01*
X141001557Y-113208412D01*
X141067246Y-113006243D01*
X141100500Y-112796287D01*
X141100500Y-112583713D01*
X141067246Y-112373757D01*
X141001557Y-112171588D01*
X140905051Y-111982184D01*
X140905049Y-111982181D01*
X140905048Y-111982179D01*
X140780109Y-111810213D01*
X140629786Y-111659890D01*
X140457820Y-111534951D01*
X140457115Y-111534591D01*
X140449054Y-111530485D01*
X140398259Y-111482512D01*
X140381463Y-111414692D01*
X140403999Y-111348556D01*
X140449054Y-111309515D01*
X140457816Y-111305051D01*
X140540419Y-111245037D01*
X140629786Y-111180109D01*
X140629788Y-111180106D01*
X140629792Y-111180104D01*
X140780104Y-111029792D01*
X140780106Y-111029788D01*
X140780109Y-111029786D01*
X140905048Y-110857820D01*
X140905047Y-110857820D01*
X140905051Y-110857816D01*
X141001557Y-110668412D01*
X141013691Y-110631064D01*
X141053128Y-110573391D01*
X141117487Y-110546192D01*
X141186333Y-110558106D01*
X141237809Y-110605350D01*
X141246183Y-110621932D01*
X141290602Y-110729172D01*
X141290609Y-110729185D01*
X141378210Y-110860288D01*
X141378213Y-110860292D01*
X141489707Y-110971786D01*
X141489711Y-110971789D01*
X141620814Y-111059390D01*
X141620827Y-111059397D01*
X141766498Y-111119735D01*
X141766503Y-111119737D01*
X141905111Y-111147308D01*
X141921153Y-111150499D01*
X141921156Y-111150500D01*
X141921158Y-111150500D01*
X142078840Y-111150500D01*
X142078842Y-111150500D01*
X142094887Y-111147308D01*
X142164477Y-111153534D01*
X142219655Y-111196395D01*
X142242902Y-111262284D01*
X142240697Y-111293116D01*
X142219500Y-111399680D01*
X142219500Y-111557373D01*
X142250261Y-111712016D01*
X142250264Y-111712028D01*
X142310602Y-111857699D01*
X142310609Y-111857712D01*
X142398210Y-111988815D01*
X142398213Y-111988819D01*
X142509707Y-112100313D01*
X142509711Y-112100316D01*
X142640814Y-112187917D01*
X142640827Y-112187924D01*
X142765016Y-112239364D01*
X142786503Y-112248264D01*
X142894319Y-112269710D01*
X142941153Y-112279026D01*
X142941156Y-112279027D01*
X142941158Y-112279027D01*
X143098844Y-112279027D01*
X143098845Y-112279026D01*
X143253497Y-112248264D01*
X143399179Y-112187921D01*
X143530289Y-112100316D01*
X143641789Y-111988816D01*
X143729394Y-111857706D01*
X143789737Y-111712024D01*
X143820500Y-111557369D01*
X143820500Y-111399685D01*
X143820500Y-111399682D01*
X143820499Y-111399680D01*
X143804856Y-111321039D01*
X143789737Y-111245030D01*
X143767194Y-111190606D01*
X143729397Y-111099354D01*
X143729390Y-111099341D01*
X143641789Y-110968238D01*
X143641786Y-110968234D01*
X143530292Y-110856740D01*
X143530288Y-110856737D01*
X143399185Y-110769136D01*
X143399172Y-110769129D01*
X143253501Y-110708791D01*
X143253489Y-110708788D01*
X143098845Y-110678027D01*
X143098842Y-110678027D01*
X142941158Y-110678027D01*
X142941157Y-110678027D01*
X142925108Y-110681219D01*
X142855516Y-110674990D01*
X142800340Y-110632126D01*
X142777097Y-110566236D01*
X142779302Y-110535409D01*
X142781018Y-110526786D01*
X142791958Y-110471786D01*
X142800500Y-110428844D01*
X142800500Y-110271155D01*
X142800499Y-110271153D01*
X142781869Y-110177493D01*
X142769737Y-110116503D01*
X142733190Y-110028269D01*
X142709397Y-109970827D01*
X142709390Y-109970814D01*
X142621789Y-109839711D01*
X142621786Y-109839707D01*
X142510292Y-109728213D01*
X142510288Y-109728210D01*
X142379185Y-109640609D01*
X142379172Y-109640602D01*
X142233501Y-109580264D01*
X142233489Y-109580261D01*
X142078845Y-109549500D01*
X142078842Y-109549500D01*
X141921158Y-109549500D01*
X141921155Y-109549500D01*
X141766510Y-109580261D01*
X141766498Y-109580264D01*
X141620827Y-109640602D01*
X141620814Y-109640609D01*
X141489711Y-109728210D01*
X141489707Y-109728213D01*
X141378213Y-109839707D01*
X141378210Y-109839711D01*
X141303608Y-109951360D01*
X141249995Y-109996165D01*
X141180670Y-110004872D01*
X141117643Y-109974717D01*
X141080924Y-109915274D01*
X141078037Y-109901891D01*
X141067246Y-109833757D01*
X141001557Y-109631588D01*
X140905051Y-109442184D01*
X140905049Y-109442181D01*
X140905048Y-109442179D01*
X140780109Y-109270213D01*
X140629786Y-109119890D01*
X140528294Y-109046153D01*
X143899500Y-109046153D01*
X143899500Y-109203846D01*
X143930261Y-109358489D01*
X143930264Y-109358501D01*
X143990602Y-109504172D01*
X143990609Y-109504185D01*
X144078210Y-109635288D01*
X144078213Y-109635292D01*
X144189707Y-109746786D01*
X144189711Y-109746789D01*
X144320814Y-109834390D01*
X144320827Y-109834397D01*
X144423522Y-109876934D01*
X144466503Y-109894737D01*
X144569749Y-109915274D01*
X144621153Y-109925499D01*
X144621156Y-109925500D01*
X144621158Y-109925500D01*
X144778844Y-109925500D01*
X144778845Y-109925499D01*
X144933497Y-109894737D01*
X145079179Y-109834394D01*
X145210289Y-109746789D01*
X145321789Y-109635289D01*
X145409394Y-109504179D01*
X145469737Y-109358497D01*
X145500500Y-109203842D01*
X145500500Y-109046158D01*
X145500500Y-109046155D01*
X145482383Y-108955078D01*
X145480000Y-108930886D01*
X145480000Y-108491988D01*
X145489940Y-108509205D01*
X145545795Y-108565060D01*
X145614204Y-108604556D01*
X145690504Y-108625000D01*
X145769496Y-108625000D01*
X145845796Y-108604556D01*
X145914205Y-108565060D01*
X145970060Y-108509205D01*
X145980000Y-108491988D01*
X145980000Y-109294862D01*
X146021690Y-109286569D01*
X146021692Y-109286569D01*
X146203671Y-109211192D01*
X146203684Y-109211185D01*
X146367462Y-109101751D01*
X146367466Y-109101748D01*
X146506748Y-108962466D01*
X146506751Y-108962462D01*
X146616185Y-108798684D01*
X146616192Y-108798671D01*
X146691569Y-108616693D01*
X146691572Y-108616681D01*
X146729999Y-108423495D01*
X146730000Y-108423492D01*
X146730000Y-108025000D01*
X146030000Y-108025000D01*
X146030000Y-107525000D01*
X146568216Y-107525000D01*
X146635255Y-107544685D01*
X146675602Y-107586999D01*
X146699485Y-107628365D01*
X146806635Y-107735515D01*
X146937865Y-107811281D01*
X147084234Y-107850500D01*
X147084236Y-107850500D01*
X147235764Y-107850500D01*
X147235766Y-107850500D01*
X147382135Y-107811281D01*
X147513365Y-107735515D01*
X147620515Y-107628365D01*
X147696281Y-107497135D01*
X147735500Y-107350766D01*
X147735500Y-107199234D01*
X147727976Y-107171153D01*
X149299500Y-107171153D01*
X149299500Y-107328846D01*
X149330261Y-107483489D01*
X149330264Y-107483501D01*
X149390602Y-107629172D01*
X149390609Y-107629185D01*
X149478210Y-107760288D01*
X149478213Y-107760292D01*
X149589707Y-107871786D01*
X149589711Y-107871789D01*
X149720814Y-107959390D01*
X149720827Y-107959397D01*
X149866498Y-108019735D01*
X149866503Y-108019737D01*
X150021153Y-108050499D01*
X150021156Y-108050500D01*
X150021158Y-108050500D01*
X150178844Y-108050500D01*
X150178845Y-108050499D01*
X150333497Y-108019737D01*
X150479179Y-107959394D01*
X150610289Y-107871789D01*
X150721789Y-107760289D01*
X150809394Y-107629179D01*
X150869737Y-107483497D01*
X150900500Y-107328842D01*
X150900500Y-107199234D01*
X152364500Y-107199234D01*
X152364500Y-107350765D01*
X152403719Y-107497136D01*
X152419807Y-107525000D01*
X152479485Y-107628365D01*
X152586635Y-107735515D01*
X152717865Y-107811281D01*
X152864234Y-107850500D01*
X152864236Y-107850500D01*
X153015763Y-107850500D01*
X153015766Y-107850500D01*
X153162135Y-107811281D01*
X153293365Y-107735515D01*
X153400515Y-107628365D01*
X153424397Y-107586999D01*
X153474964Y-107538784D01*
X153531784Y-107525000D01*
X154070000Y-107525000D01*
X154070000Y-108025000D01*
X153370000Y-108025000D01*
X153370000Y-108423495D01*
X153408427Y-108616681D01*
X153408430Y-108616693D01*
X153483807Y-108798671D01*
X153483814Y-108798684D01*
X153593248Y-108962462D01*
X153593251Y-108962466D01*
X153732533Y-109101748D01*
X153732537Y-109101751D01*
X153896315Y-109211185D01*
X153896328Y-109211192D01*
X154078308Y-109286569D01*
X154120000Y-109294862D01*
X154120000Y-108491988D01*
X154129940Y-108509205D01*
X154185795Y-108565060D01*
X154254204Y-108604556D01*
X154330504Y-108625000D01*
X154409496Y-108625000D01*
X154485796Y-108604556D01*
X154554205Y-108565060D01*
X154610060Y-108509205D01*
X154620000Y-108491988D01*
X154620000Y-109294862D01*
X154661690Y-109286569D01*
X154661692Y-109286569D01*
X154843671Y-109211192D01*
X154843678Y-109211188D01*
X154926072Y-109156134D01*
X154992750Y-109135256D01*
X155060130Y-109153740D01*
X155098066Y-109190345D01*
X155178210Y-109310288D01*
X155178213Y-109310292D01*
X155289707Y-109421786D01*
X155289711Y-109421789D01*
X155420814Y-109509390D01*
X155420827Y-109509397D01*
X155517646Y-109549500D01*
X155566503Y-109569737D01*
X155721153Y-109600499D01*
X155721156Y-109600500D01*
X155721158Y-109600500D01*
X155878844Y-109600500D01*
X155878845Y-109600499D01*
X156033497Y-109569737D01*
X156179179Y-109509394D01*
X156310289Y-109421789D01*
X156421789Y-109310289D01*
X156509394Y-109179179D01*
X156518940Y-109156134D01*
X156541467Y-109101748D01*
X156569737Y-109033497D01*
X156600500Y-108878842D01*
X156600500Y-108721158D01*
X156600500Y-108721155D01*
X156600499Y-108721153D01*
X156569738Y-108566510D01*
X156569737Y-108566503D01*
X156543521Y-108503211D01*
X156509397Y-108420827D01*
X156509390Y-108420814D01*
X156421789Y-108289711D01*
X156421786Y-108289707D01*
X156310292Y-108178213D01*
X156310288Y-108178210D01*
X156179185Y-108090609D01*
X156179172Y-108090602D01*
X156033501Y-108030264D01*
X156033489Y-108030261D01*
X155878845Y-107999500D01*
X155878842Y-107999500D01*
X155721158Y-107999500D01*
X155721155Y-107999500D01*
X155566510Y-108030261D01*
X155566498Y-108030264D01*
X155507822Y-108054569D01*
X155438353Y-108062038D01*
X155375874Y-108030763D01*
X155372689Y-108027689D01*
X155370000Y-108025000D01*
X154670000Y-108025000D01*
X154670000Y-107525000D01*
X155370000Y-107525000D01*
X155370000Y-107126508D01*
X155369999Y-107126504D01*
X155331572Y-106933318D01*
X155331569Y-106933306D01*
X155256192Y-106751328D01*
X155256185Y-106751315D01*
X155146751Y-106587537D01*
X155146748Y-106587533D01*
X155007466Y-106448251D01*
X155007462Y-106448248D01*
X154843684Y-106338814D01*
X154843671Y-106338807D01*
X154661691Y-106263429D01*
X154661683Y-106263427D01*
X154620000Y-106255135D01*
X154620000Y-107058011D01*
X154610060Y-107040795D01*
X154554205Y-106984940D01*
X154485796Y-106945444D01*
X154409496Y-106925000D01*
X154330504Y-106925000D01*
X154254204Y-106945444D01*
X154185795Y-106984940D01*
X154129940Y-107040795D01*
X154120000Y-107058011D01*
X154120000Y-106255136D01*
X154119999Y-106255135D01*
X154078316Y-106263427D01*
X154078308Y-106263429D01*
X153896328Y-106338807D01*
X153896315Y-106338814D01*
X153732537Y-106448248D01*
X153732533Y-106448251D01*
X153593251Y-106587533D01*
X153593248Y-106587537D01*
X153483814Y-106751315D01*
X153483809Y-106751324D01*
X153479866Y-106760845D01*
X153436023Y-106815247D01*
X153369728Y-106837310D01*
X153302030Y-106820029D01*
X153296597Y-106816351D01*
X153162136Y-106738719D01*
X153088950Y-106719109D01*
X153015766Y-106699500D01*
X152864234Y-106699500D01*
X152717863Y-106738719D01*
X152586635Y-106814485D01*
X152586632Y-106814487D01*
X152479487Y-106921632D01*
X152479485Y-106921635D01*
X152403719Y-107052863D01*
X152364500Y-107199234D01*
X150900500Y-107199234D01*
X150900500Y-107171158D01*
X150900500Y-107171155D01*
X150900499Y-107171153D01*
X150895113Y-107144075D01*
X150869737Y-107016503D01*
X150830442Y-106921635D01*
X150809397Y-106870827D01*
X150809390Y-106870814D01*
X150721789Y-106739711D01*
X150721786Y-106739707D01*
X150610292Y-106628213D01*
X150610288Y-106628210D01*
X150479185Y-106540609D01*
X150479172Y-106540602D01*
X150333501Y-106480264D01*
X150333489Y-106480261D01*
X150178845Y-106449500D01*
X150178842Y-106449500D01*
X150021158Y-106449500D01*
X150021155Y-106449500D01*
X149866510Y-106480261D01*
X149866498Y-106480264D01*
X149720827Y-106540602D01*
X149720814Y-106540609D01*
X149589711Y-106628210D01*
X149589707Y-106628213D01*
X149478213Y-106739707D01*
X149478210Y-106739711D01*
X149390609Y-106870814D01*
X149390602Y-106870827D01*
X149330264Y-107016498D01*
X149330261Y-107016510D01*
X149299500Y-107171153D01*
X147727976Y-107171153D01*
X147696281Y-107052865D01*
X147620515Y-106921635D01*
X147513365Y-106814485D01*
X147427534Y-106764930D01*
X147382136Y-106738719D01*
X147308950Y-106719109D01*
X147235766Y-106699500D01*
X147084234Y-106699500D01*
X146937863Y-106738719D01*
X146857997Y-106784831D01*
X146806635Y-106814485D01*
X146806633Y-106814486D01*
X146799597Y-106818549D01*
X146798327Y-106816349D01*
X146744995Y-106836960D01*
X146676552Y-106822914D01*
X146626568Y-106774094D01*
X146620131Y-106760838D01*
X146616192Y-106751328D01*
X146616185Y-106751315D01*
X146506751Y-106587537D01*
X146506748Y-106587533D01*
X146367466Y-106448251D01*
X146367462Y-106448248D01*
X146203684Y-106338814D01*
X146203671Y-106338807D01*
X146021691Y-106263429D01*
X146021683Y-106263427D01*
X145980000Y-106255135D01*
X145980000Y-107058011D01*
X145970060Y-107040795D01*
X145914205Y-106984940D01*
X145845796Y-106945444D01*
X145769496Y-106925000D01*
X145690504Y-106925000D01*
X145614204Y-106945444D01*
X145545795Y-106984940D01*
X145489940Y-107040795D01*
X145480000Y-107058011D01*
X145480000Y-106255136D01*
X145479999Y-106255135D01*
X145438316Y-106263427D01*
X145438308Y-106263429D01*
X145256328Y-106338807D01*
X145256315Y-106338814D01*
X145092537Y-106448248D01*
X145092533Y-106448251D01*
X144953251Y-106587533D01*
X144953248Y-106587537D01*
X144843814Y-106751315D01*
X144843807Y-106751328D01*
X144768430Y-106933306D01*
X144768427Y-106933318D01*
X144730000Y-107126504D01*
X144730000Y-107525000D01*
X145430000Y-107525000D01*
X145430000Y-108025000D01*
X144730000Y-108025000D01*
X144730000Y-108201392D01*
X144710315Y-108268431D01*
X144657511Y-108314186D01*
X144626955Y-108322426D01*
X144627132Y-108323311D01*
X144466510Y-108355261D01*
X144466498Y-108355264D01*
X144320827Y-108415602D01*
X144320814Y-108415609D01*
X144189711Y-108503210D01*
X144189707Y-108503213D01*
X144078213Y-108614707D01*
X144078210Y-108614711D01*
X143990609Y-108745814D01*
X143990602Y-108745827D01*
X143930264Y-108891498D01*
X143930261Y-108891510D01*
X143899500Y-109046153D01*
X140528294Y-109046153D01*
X140457817Y-108994949D01*
X140448504Y-108990204D01*
X140397707Y-108942230D01*
X140380912Y-108874409D01*
X140403449Y-108808274D01*
X140448507Y-108769232D01*
X140457555Y-108764622D01*
X140511716Y-108725270D01*
X140511717Y-108725270D01*
X139879408Y-108092962D01*
X139942993Y-108075925D01*
X140057007Y-108010099D01*
X140150099Y-107917007D01*
X140215925Y-107802993D01*
X140232962Y-107739409D01*
X140865270Y-108371717D01*
X140865270Y-108371716D01*
X140904622Y-108317554D01*
X141001095Y-108128217D01*
X141066757Y-107926130D01*
X141066757Y-107926127D01*
X141100000Y-107716246D01*
X141100000Y-107503753D01*
X141066757Y-107293872D01*
X141066757Y-107293869D01*
X141022850Y-107158735D01*
X141001094Y-107091781D01*
X140904624Y-106902449D01*
X140865270Y-106848282D01*
X140865269Y-106848282D01*
X140232962Y-107480590D01*
X140215925Y-107417007D01*
X140150099Y-107302993D01*
X140057007Y-107209901D01*
X139942993Y-107144075D01*
X139879409Y-107127037D01*
X140511716Y-106494728D01*
X140457547Y-106455373D01*
X140457547Y-106455372D01*
X140448500Y-106450763D01*
X140397706Y-106402788D01*
X140380912Y-106334966D01*
X140403451Y-106268832D01*
X140448508Y-106229793D01*
X140457816Y-106225051D01*
X140601605Y-106120583D01*
X140629786Y-106100109D01*
X140629788Y-106100106D01*
X140629792Y-106100104D01*
X140780104Y-105949792D01*
X140780106Y-105949788D01*
X140780109Y-105949786D01*
X140905048Y-105777820D01*
X140905047Y-105777820D01*
X140905051Y-105777816D01*
X141001557Y-105588412D01*
X141067246Y-105386243D01*
X141100500Y-105176287D01*
X141100500Y-104963713D01*
X141067246Y-104753757D01*
X141001557Y-104551588D01*
X140905051Y-104362184D01*
X140905049Y-104362181D01*
X140905048Y-104362179D01*
X140780109Y-104190213D01*
X140629786Y-104039890D01*
X140457820Y-103914951D01*
X140457115Y-103914591D01*
X140449054Y-103910485D01*
X140439899Y-103901838D01*
X140428231Y-103897102D01*
X140414980Y-103878303D01*
X140398259Y-103862512D01*
X140395231Y-103850288D01*
X140387976Y-103839995D01*
X140386991Y-103817016D01*
X140381463Y-103794692D01*
X140385524Y-103782771D01*
X140384986Y-103770189D01*
X140396580Y-103750326D01*
X140403999Y-103728556D01*
X140414703Y-103719280D01*
X140420210Y-103709848D01*
X140449057Y-103689514D01*
X140450204Y-103688929D01*
X140457816Y-103685051D01*
X140509255Y-103647678D01*
X140629786Y-103560109D01*
X140629788Y-103560106D01*
X140629792Y-103560104D01*
X140780104Y-103409792D01*
X140780106Y-103409788D01*
X140780109Y-103409786D01*
X140905048Y-103237820D01*
X140905047Y-103237820D01*
X140905051Y-103237816D01*
X140977053Y-103096504D01*
X144730000Y-103096504D01*
X144730000Y-103345000D01*
X145430000Y-103345000D01*
X145430000Y-103845000D01*
X144730000Y-103845000D01*
X144730000Y-104093495D01*
X144768427Y-104286681D01*
X144768430Y-104286693D01*
X144843807Y-104468671D01*
X144843814Y-104468684D01*
X144953248Y-104632462D01*
X144953251Y-104632466D01*
X145092533Y-104771748D01*
X145092537Y-104771751D01*
X145256315Y-104881185D01*
X145256328Y-104881192D01*
X145438308Y-104956569D01*
X145480000Y-104964862D01*
X145480000Y-104161988D01*
X145489940Y-104179205D01*
X145545795Y-104235060D01*
X145614204Y-104274556D01*
X145690504Y-104295000D01*
X145769496Y-104295000D01*
X145845796Y-104274556D01*
X145914205Y-104235060D01*
X145970060Y-104179205D01*
X145980000Y-104161988D01*
X145980000Y-104964862D01*
X146021690Y-104956569D01*
X146021692Y-104956569D01*
X146203671Y-104881192D01*
X146203684Y-104881185D01*
X146367462Y-104771751D01*
X146367466Y-104771748D01*
X146506748Y-104632466D01*
X146506751Y-104632462D01*
X146616185Y-104468684D01*
X146616192Y-104468671D01*
X146691569Y-104286693D01*
X146691572Y-104286681D01*
X146729999Y-104093495D01*
X146730000Y-104093492D01*
X146730000Y-103845000D01*
X146030000Y-103845000D01*
X146030000Y-103345000D01*
X146730000Y-103345000D01*
X146730000Y-103096508D01*
X146729999Y-103096504D01*
X153370000Y-103096504D01*
X153370000Y-103345000D01*
X154070000Y-103345000D01*
X154070000Y-103845000D01*
X153370000Y-103845000D01*
X153370000Y-104093495D01*
X153408427Y-104286681D01*
X153408430Y-104286693D01*
X153483807Y-104468671D01*
X153483814Y-104468684D01*
X153593248Y-104632462D01*
X153593251Y-104632466D01*
X153732533Y-104771748D01*
X153732537Y-104771751D01*
X153896315Y-104881185D01*
X153896328Y-104881192D01*
X154078308Y-104956569D01*
X154120000Y-104964862D01*
X154120000Y-104161988D01*
X154129940Y-104179205D01*
X154185795Y-104235060D01*
X154254204Y-104274556D01*
X154330504Y-104295000D01*
X154409496Y-104295000D01*
X154485796Y-104274556D01*
X154554205Y-104235060D01*
X154610060Y-104179205D01*
X154620000Y-104161988D01*
X154620000Y-104964862D01*
X154661690Y-104956569D01*
X154661692Y-104956569D01*
X154843671Y-104881192D01*
X154843684Y-104881185D01*
X155007462Y-104771751D01*
X155007466Y-104771748D01*
X155146748Y-104632466D01*
X155146751Y-104632462D01*
X155256185Y-104468684D01*
X155256192Y-104468671D01*
X155331569Y-104286693D01*
X155331572Y-104286681D01*
X155369999Y-104093495D01*
X155370000Y-104093492D01*
X155370000Y-103845000D01*
X154670000Y-103845000D01*
X154670000Y-103345000D01*
X155370000Y-103345000D01*
X155370000Y-103096508D01*
X155369999Y-103096504D01*
X155331572Y-102903318D01*
X155331569Y-102903306D01*
X155256192Y-102721328D01*
X155256185Y-102721315D01*
X155146751Y-102557537D01*
X155146748Y-102557533D01*
X155007466Y-102418251D01*
X155007462Y-102418248D01*
X154843684Y-102308814D01*
X154843671Y-102308807D01*
X154661691Y-102233429D01*
X154661683Y-102233427D01*
X154620000Y-102225135D01*
X154620000Y-103028011D01*
X154610060Y-103010795D01*
X154554205Y-102954940D01*
X154485796Y-102915444D01*
X154409496Y-102895000D01*
X154330504Y-102895000D01*
X154254204Y-102915444D01*
X154185795Y-102954940D01*
X154129940Y-103010795D01*
X154120000Y-103028011D01*
X154120000Y-102225136D01*
X154119999Y-102225135D01*
X154078316Y-102233427D01*
X154078308Y-102233429D01*
X153896328Y-102308807D01*
X153896315Y-102308814D01*
X153732537Y-102418248D01*
X153732533Y-102418251D01*
X153593251Y-102557533D01*
X153593248Y-102557537D01*
X153483814Y-102721315D01*
X153483807Y-102721328D01*
X153408430Y-102903306D01*
X153408427Y-102903318D01*
X153370000Y-103096504D01*
X146729999Y-103096504D01*
X146691572Y-102903318D01*
X146691569Y-102903306D01*
X146616192Y-102721328D01*
X146616185Y-102721315D01*
X146506751Y-102557537D01*
X146506748Y-102557533D01*
X146367466Y-102418251D01*
X146367462Y-102418248D01*
X146203684Y-102308814D01*
X146203671Y-102308807D01*
X146021691Y-102233429D01*
X146021683Y-102233427D01*
X145980000Y-102225135D01*
X145980000Y-103028011D01*
X145970060Y-103010795D01*
X145914205Y-102954940D01*
X145845796Y-102915444D01*
X145769496Y-102895000D01*
X145690504Y-102895000D01*
X145614204Y-102915444D01*
X145545795Y-102954940D01*
X145489940Y-103010795D01*
X145480000Y-103028011D01*
X145480000Y-102225136D01*
X145479999Y-102225135D01*
X145438316Y-102233427D01*
X145438308Y-102233429D01*
X145256328Y-102308807D01*
X145256315Y-102308814D01*
X145092537Y-102418248D01*
X145092533Y-102418251D01*
X144953251Y-102557533D01*
X144953248Y-102557537D01*
X144843814Y-102721315D01*
X144843807Y-102721328D01*
X144768430Y-102903306D01*
X144768427Y-102903318D01*
X144730000Y-103096504D01*
X140977053Y-103096504D01*
X141001557Y-103048412D01*
X141067246Y-102846243D01*
X141100500Y-102636287D01*
X141100500Y-102423713D01*
X141067246Y-102213757D01*
X141001557Y-102011588D01*
X140905051Y-101822184D01*
X140905049Y-101822181D01*
X140905048Y-101822179D01*
X140780109Y-101650213D01*
X140666569Y-101536673D01*
X140633084Y-101475350D01*
X140638068Y-101405658D01*
X140679940Y-101349725D01*
X140710915Y-101332810D01*
X140842331Y-101283796D01*
X140957546Y-101197546D01*
X141043796Y-101082331D01*
X141074749Y-100999340D01*
X141085818Y-100984553D01*
X141092458Y-100967313D01*
X141106322Y-100957162D01*
X141116619Y-100943407D01*
X141133927Y-100936950D01*
X141148833Y-100926038D01*
X141165983Y-100924994D01*
X141182083Y-100918989D01*
X141200133Y-100922915D01*
X141218574Y-100921793D01*
X141247788Y-100933281D01*
X141250356Y-100933840D01*
X141251510Y-100934478D01*
X141252275Y-100934906D01*
X141306399Y-100966220D01*
X141306618Y-100966278D01*
X141306814Y-100966392D01*
X141370186Y-100983372D01*
X141433662Y-101000441D01*
X141433884Y-101000441D01*
X141434093Y-101000497D01*
X141434101Y-101000498D01*
X141434108Y-101000500D01*
X141434114Y-101000500D01*
X141500117Y-101000500D01*
X141565446Y-101000558D01*
X141565663Y-101000500D01*
X149818059Y-101000500D01*
X149885098Y-101020185D01*
X149930853Y-101072989D01*
X149940797Y-101142147D01*
X149911772Y-101205703D01*
X149905740Y-101212181D01*
X149828213Y-101289707D01*
X149828210Y-101289711D01*
X149740609Y-101420814D01*
X149740602Y-101420827D01*
X149680264Y-101566498D01*
X149680261Y-101566510D01*
X149649500Y-101721153D01*
X149649500Y-101878846D01*
X149680261Y-102033489D01*
X149680264Y-102033501D01*
X149740602Y-102179172D01*
X149740609Y-102179185D01*
X149828210Y-102310288D01*
X149828213Y-102310292D01*
X149939707Y-102421786D01*
X149939711Y-102421789D01*
X150070814Y-102509390D01*
X150070827Y-102509397D01*
X150187049Y-102557537D01*
X150216503Y-102569737D01*
X150371153Y-102600499D01*
X150371156Y-102600500D01*
X150371158Y-102600500D01*
X150528844Y-102600500D01*
X150528845Y-102600499D01*
X150683497Y-102569737D01*
X150829179Y-102509394D01*
X150960289Y-102421789D01*
X151071789Y-102310289D01*
X151159394Y-102179179D01*
X151219737Y-102033497D01*
X151250500Y-101878842D01*
X151250500Y-101721158D01*
X151250500Y-101721155D01*
X151250499Y-101721153D01*
X151219738Y-101566510D01*
X151219737Y-101566503D01*
X151192148Y-101499896D01*
X151159397Y-101420827D01*
X151159390Y-101420814D01*
X151071789Y-101289711D01*
X151071786Y-101289707D01*
X150994260Y-101212181D01*
X150960775Y-101150858D01*
X150965759Y-101081166D01*
X151007631Y-101025233D01*
X151073095Y-101000816D01*
X151081941Y-101000500D01*
X158234138Y-101000500D01*
X158234164Y-101000507D01*
X158300056Y-101000500D01*
X158365892Y-101000500D01*
X158365893Y-101000500D01*
X158365940Y-101000493D01*
X158365948Y-101000493D01*
X158410508Y-100988547D01*
X158429350Y-100983497D01*
X158429353Y-100983495D01*
X158493186Y-100966392D01*
X158493190Y-100966389D01*
X158493210Y-100966384D01*
X158493231Y-100966371D01*
X158493238Y-100966370D01*
X158547057Y-100935288D01*
X158614955Y-100918810D01*
X158680984Y-100941656D01*
G37*
%TD.AperFunction*%
%TA.AperFunction,Conductor*%
G36*
X161269683Y-116105937D02*
G01*
X161299158Y-116169285D01*
X161300548Y-116187801D01*
X161300552Y-116884785D01*
X161280868Y-116951825D01*
X161228064Y-116997580D01*
X161166824Y-117008404D01*
X161165270Y-117008281D01*
X160532962Y-117640590D01*
X160515925Y-117577007D01*
X160450099Y-117462993D01*
X160357007Y-117369901D01*
X160242993Y-117304075D01*
X160179409Y-117287037D01*
X160811716Y-116654728D01*
X160757547Y-116615373D01*
X160757547Y-116615372D01*
X160748500Y-116610763D01*
X160697706Y-116562788D01*
X160680912Y-116494966D01*
X160703451Y-116428832D01*
X160748508Y-116389793D01*
X160757816Y-116385051D01*
X160908607Y-116275496D01*
X160929786Y-116260109D01*
X160929788Y-116260106D01*
X160929792Y-116260104D01*
X161080104Y-116109792D01*
X161080112Y-116109779D01*
X161082261Y-116107266D01*
X161083323Y-116106572D01*
X161083549Y-116106347D01*
X161083596Y-116106394D01*
X161140770Y-116069076D01*
X161210638Y-116068580D01*
X161269683Y-116105937D01*
G37*
%TD.AperFunction*%
%TA.AperFunction,Conductor*%
G36*
X139284075Y-107802993D02*
G01*
X139349901Y-107917007D01*
X139442993Y-108010099D01*
X139557007Y-108075925D01*
X139620590Y-108092962D01*
X138988282Y-108725269D01*
X138988282Y-108725270D01*
X139042452Y-108764626D01*
X139042451Y-108764626D01*
X139051495Y-108769234D01*
X139102292Y-108817208D01*
X139119087Y-108885029D01*
X139096550Y-108951164D01*
X139051499Y-108990202D01*
X139042182Y-108994949D01*
X138870213Y-109119890D01*
X138719891Y-109270212D01*
X138719545Y-109270618D01*
X138719375Y-109270728D01*
X138716451Y-109273653D01*
X138715835Y-109273037D01*
X138661028Y-109308796D01*
X138591160Y-109309277D01*
X138532123Y-109271908D01*
X138502662Y-109208554D01*
X138501276Y-109190072D01*
X138501318Y-108495348D01*
X138521006Y-108428313D01*
X138573812Y-108382562D01*
X138634630Y-108371814D01*
X139267037Y-107739408D01*
X139284075Y-107802993D01*
G37*
%TD.AperFunction*%
%TA.AperFunction,Conductor*%
G36*
X138721388Y-105951284D02*
G01*
X138870213Y-106100109D01*
X139042179Y-106225048D01*
X139042181Y-106225049D01*
X139042184Y-106225051D01*
X139051493Y-106229794D01*
X139102290Y-106277766D01*
X139119087Y-106345587D01*
X139096552Y-106411722D01*
X139051505Y-106450760D01*
X139042446Y-106455376D01*
X139042440Y-106455380D01*
X138988282Y-106494727D01*
X138988282Y-106494728D01*
X139620591Y-107127037D01*
X139557007Y-107144075D01*
X139442993Y-107209901D01*
X139349901Y-107302993D01*
X139284075Y-107417007D01*
X139267037Y-107480591D01*
X138634572Y-106848126D01*
X138566775Y-106833883D01*
X138517018Y-106784831D01*
X138501424Y-106724626D01*
X138501461Y-106120557D01*
X138502086Y-106108154D01*
X138510336Y-106026497D01*
X138536659Y-105961779D01*
X138593795Y-105921564D01*
X138663603Y-105918623D01*
X138721388Y-105951284D01*
G37*
%TD.AperFunction*%
%TD*%
M02*
