M48
; DRILL file KiCad 10.0.4 date 2026-09-15T18:50:23
; FORMAT={-:-/ absolute / metric / decimal}
; #@! TF.CreationDate,2026-09-15T18:50:23-04:00
; #@! TF.GenerationSoftware,Kicad,Pcbnew,10.0.4
; #@! TF.FileFunction,MixedPlating,1,4
FMAT,2
METRIC
; #@! TA.AperFunction,Plated,PTH,ViaDrill
T1C0.300
; #@! TA.AperFunction,Plated,PTH,ComponentDrill
T2C0.600
; #@! TA.AperFunction,Plated,PTH,ComponentDrill
T3C1.000
; #@! TA.AperFunction,NonPlated,NPTH,ComponentDrill
T4C0.650
%
G90
G05
T1
X142.0Y-110.35
X142.294Y-113.601
X143.02Y-111.479
X143.02Y-113.936
X143.096Y-114.853
X143.548Y-117.84
X143.578Y-116.041
X143.7Y-137.05
X143.9Y-123.65
X144.0Y-118.5
X144.101Y-115.4
X144.15Y-116.6
X144.15Y-139.75
X144.296Y-114.624
X144.7Y-109.125
X144.8Y-136.6
X144.85Y-121.95
X144.9Y-119.4
X145.075Y-125.175
X145.087Y-114.507
X145.25Y-130.6
X145.36Y-118.6
X145.412Y-120.015
X145.55Y-111.9
X145.57Y-124.436
X145.59Y-116.74
X145.61Y-117.569
X146.05Y-122.15
X146.106Y-120.413
X146.9Y-102.75
X146.943Y-120.506
X146.95Y-110.675
X146.95Y-113.05
X147.4Y-121.988
X147.541Y-121.2
X147.55Y-117.062
X147.696Y-111.687
X147.7Y-123.55
X147.95Y-113.75
X148.63Y-110.293
X148.68Y-111.798
X148.85Y-120.749
X148.97Y-122.234
X149.05Y-101.9
X149.227Y-121.477
X149.35Y-124.45
X149.45Y-111.41
X149.6Y-109.45
X149.725Y-110.625
X150.1Y-107.25
X150.27Y-111.565
X150.45Y-101.8
X150.45Y-124.35
X150.506Y-110.799
X150.8Y-114.8
X150.8Y-118.188
X150.88Y-121.128
X150.95Y-128.6
X151.301Y-110.716
X151.65Y-124.85
X151.656Y-121.322
X152.098Y-110.646
X152.292Y-111.422
X152.3Y-122.0
X152.3Y-127.25
X152.589Y-121.087
X152.65Y-102.95
X152.65Y-123.35
X152.925Y-124.25
X153.091Y-111.465
X153.1Y-130.1
X153.2Y-119.75
X153.637Y-113.237
X153.657Y-112.03
X154.45Y-119.4
X154.5Y-114.5
X154.65Y-113.55
X154.95Y-121.8
X155.04Y-117.95
X155.125Y-120.825
X155.276Y-114.694
X155.442Y-115.477
X155.725Y-113.425
X155.8Y-108.8
X155.825Y-131.175
X155.85Y-141.0
X156.087Y-115.95
X156.102Y-127.797
X156.45Y-111.55
X156.5Y-117.95
X156.5Y-119.35
X156.65Y-124.3
X156.8Y-114.75
X156.954Y-112.392
X156.962Y-116.772
X157.187Y-117.54
X157.2Y-126.0
X157.216Y-118.992
X157.25Y-125.15
X157.325Y-113.611
X157.35Y-120.95
X157.608Y-114.459
X157.7Y-109.85
T3
X139.75Y-99.99
X139.75Y-102.53
X139.75Y-105.07
X139.75Y-107.61
X139.75Y-110.15
X139.75Y-112.69
X139.75Y-115.23
X139.75Y-117.77
X139.75Y-122.85
X139.75Y-125.39
X139.75Y-127.93
X139.75Y-130.47
X139.75Y-133.01
X139.75Y-135.55
X139.75Y-138.09
X139.75Y-140.63
X160.05Y-99.99
X160.05Y-102.53
X160.05Y-105.07
X160.05Y-107.61
X160.05Y-110.15
X160.05Y-112.69
X160.05Y-115.23
X160.05Y-117.77
X160.05Y-122.85
X160.05Y-125.39
X160.05Y-127.93
X160.05Y-130.47
X160.05Y-133.01
X160.05Y-135.55
X160.05Y-138.09
X160.05Y-140.63
T4
X147.16Y-107.275
X152.94Y-107.275
T2
X145.73Y-103.995G85X145.73Y-103.195
G05
X145.73Y-108.325G85X145.73Y-107.225
G05
X154.37Y-103.995G85X154.37Y-103.195
G05
X154.37Y-108.325G85X154.37Y-107.225
G05
M30
